<svg xmlns="http://www.w3.org/2000/svg" xmlns:xlink="http://www.w3.org/1999/xlink" width="120" height="120" viewBox="0 0 120 120">
  <defs>
    <clipPath id="clip-path">
      <rect id="Rectangle_377694" data-name="Rectangle 377694" width="88.006" height="94" fill="none"/>
    </clipPath>
  </defs>
  <g id="Group_1071460" data-name="Group 1071460" transform="translate(-269 -958)">
    <circle id="Ellipse_5614" data-name="Ellipse 5614" cx="60" cy="60" r="60" transform="translate(269 958)" fill="#304c8e"/>
    <g id="Group_1071642" data-name="Group 1071642" transform="translate(291 971)">
      <g id="Group_1071641" data-name="Group 1071641" clip-path="url(#clip-path)">
        <path id="Path_608915" data-name="Path 608915" d="M49.629,106.167c-.731,0-1.559-.02-2.387,0-1.121.033-2.076-.258-2.1-1.54s.891-1.633,2.032-1.6c.831.022,1.663,0,2.456,0,2.375-16.579,11.8-25.978,28.532-28.386,0-.84-.017-1.822,0-2.8.023-1.048.558-1.715,1.636-1.68a1.49,1.49,0,0,1,1.5,1.664c.019.935,0,1.871,0,2.991a30.714,30.714,0,0,1,15.744,5.539,23.923,23.923,0,0,1,.038-3.331,4.138,4.138,0,0,1,.907-2.182q4.188-4.353,8.565-8.524c.485-.463,1.549-.919,1.985-.692a2.655,2.655,0,0,1,1.052,1.965c.127,2.336.048,4.683.048,7.237,2.427,0,4.771-.083,7.1.048a2.909,2.909,0,0,1,2.131,1.044c.241.431-.285,1.563-.785,2.086-2.492,2.609-5.15,5.062-7.619,7.691a4.492,4.492,0,0,1-4.123,1.682,18.368,18.368,0,0,0-2.224-.014,30.327,30.327,0,0,1,5.507,15.668c1.042,0,2.028-.018,3.013,0,1.054.024,1.723.56,1.686,1.631a1.494,1.494,0,0,1-1.675,1.489c-.939.018-1.879,0-2.826,0C107.5,122.7,98.09,132.114,81.307,134.555c0,.808.008,1.776,0,2.744-.011,1.041-.508,1.744-1.587,1.734s-1.552-.728-1.555-1.766c0-.931,0-1.863,0-2.724-16.691-2.361-26.116-11.755-28.532-28.375M81.388,87.122c2.158.735,4.246,1.378,6.278,2.165,1.014.393,1.921,1.118,1.239,2.4-.666,1.252-1.663.835-2.7.412-1.52-.617-3.1-1.1-4.895-1.724,0,1.265,0,2.143,0,3.02,0,1.036-.474,1.756-1.555,1.768s-1.577-.688-1.588-1.731c-.01-.91,0-1.821,0-2.741-6.608.6-12.208,6.248-12.351,12.341h2.663c1.043,0,1.766.465,1.781,1.541s-.686,1.574-1.733,1.588c-.934.013-1.868,0-2.819,0a13.776,13.776,0,0,0,12.46,12.36c0-.943-.016-1.875,0-2.805.022-1.047.551-1.717,1.629-1.688a1.486,1.486,0,0,1,1.506,1.656c.021.931,0,1.864,0,2.8,6.435-.449,12.288-6.319,12.29-12.329-.933,0-1.87.033-2.8-.009a1.556,1.556,0,1,1,.041-3.11c.931-.029,1.864-.006,3.2-.006-.643-1.815-1.129-3.388-1.761-4.9-.437-1.045-.819-2.029.439-2.678,1.3-.669,2.008.245,2.4,1.255.787,2.023,1.435,4.1,2.169,6.237H106.4a25.53,25.53,0,0,0-3.9-12.279c-.669-1.075-1.217-2.075-.127-3.153-2.118-.578-3.519.193-4.933,1.646-5.178,5.322-10.493,10.512-15.762,15.746-.368.366-.741.883-1.186.977a2.3,2.3,0,0,1-1.805-.246,2.268,2.268,0,0,1-.243-1.8c.1-.443.619-.809.986-1.175C84.686,97.424,89.9,92.131,95.248,86.98c1.466-1.412,2.22-2.808,1.648-4.912-1.091,1.109-2.1.532-3.177-.133a25.925,25.925,0,0,0-12.332-3.883ZM53.021,106.234a26.549,26.549,0,0,0,25.046,24.913v-9.283c-8.958-1.566-14.157-6.769-15.694-15.63ZM78.08,78.127c-14.454.517-24.967,13.306-24.92,24.826h9.22c1.548-8.919,6.8-14.081,15.7-15.63Zm28.31,28.113H97.109c-3.239,10.643-4.964,12.36-15.686,15.651v9.283A26.62,26.62,0,0,0,106.39,106.24M100.2,81.515l.429.282a45.993,45.993,0,0,1,4.324-4.458c2.244-1.789,1.372-3.984,1.332-6.149-1.973,1.74-3.781,3.543-5.542,5.39a2.057,2.057,0,0,0-.518,1.213c-.068,1.238-.024,2.482-.024,3.723m13.233-3.178-.223-.37c-.776,0-1.555-.04-2.328.011-.81.053-1.863-.095-2.378.345-2.035,1.739-3.9,3.674-5.828,5.537a6.786,6.786,0,0,0,2.823.358c.753-.052,1.724.032,2.206-.389,1.991-1.739,3.832-3.647,5.728-5.492" transform="translate(-30.933 -45.033)" fill="#fff"/>
        <path id="Path_608916" data-name="Path 608916" d="M0,70.321Q0,55.441,0,40.56C0,36.884,1.8,35.1,5.5,35.1c1.626,0,3.253.021,4.879-.008,1.174-.021,2.2.232,2.178,1.617-.02,1.28-.992,1.551-2.11,1.532-1.573-.027-3.147-.01-4.721-.006-2.154.006-2.569.41-2.569,2.541q0,26.941,0,53.882c0,1.827-.009,3.655,0,5.482.012,1.842.478,2.32,2.314,2.323,5.3.01,10.6-.021,15.895.035a2.882,2.882,0,0,1,1.918.708,1.468,1.468,0,0,1-1.316,2.371c-5.927.042-11.858.1-17.782-.038C1.663,105.481.008,103.3.006,100.551q-.015-15.115,0-30.23" transform="translate(0 -24.099)" fill="#fff"/>
        <path id="Path_608917" data-name="Path 608917" d="M52.843,6.3c0-.705-.017-1.174,0-1.642a4.649,4.649,0,0,1,4.6-4.611c2.2-.06,4.406-.066,6.606,0a4.638,4.638,0,0,1,4.529,4.517c.027.512,0,1.028,0,1.731,1.077,0,2.057-.017,3.036,0a4.685,4.685,0,0,1,4.835,4.857c.018.991.027,1.984,0,2.974a4.622,4.622,0,0,1-4.681,4.685q-11.09.061-22.18,0a4.6,4.6,0,0,1-4.609-4.592c-.039-1.095-.038-2.193,0-3.287A4.669,4.669,0,0,1,49.719,6.3c.986-.026,1.972,0,3.124,0m7.871,9.4h8.965c3.642,0,3.642,0,3.627-3.682-.009-2.2-.4-2.581-2.686-2.582q-9.28,0-18.559,0c-4,0-4,0-3.94,3.993.029,1.8.5,2.263,2.369,2.269,3.408.01,6.815,0,10.223,0M65.29,6.225c.332-2.551-.1-3.054-2.544-3.058q-2.036,0-4.072,0c-2.445,0-2.875.51-2.535,3.058Z" transform="translate(-30.801 0)" fill="#fff"/>
        <path id="Path_608918" data-name="Path 608918" d="M162.715,45.786c0,2.031-.013,4.063.007,6.095.01,1.069-.331,1.931-1.506,1.972-1.27.044-1.658-.829-1.654-1.976q.02-5.7,0-11.408c-.006-1.734-.5-2.223-2.23-2.239s-3.454-.017-5.181,0c-1.15.012-2.03-.376-1.989-1.642.037-1.171.9-1.513,1.974-1.5,1.989.021,3.979-.037,5.966.019a4.619,4.619,0,0,1,4.6,4.588c.056,2.03.011,4.063.012,6.094" transform="translate(-102.895 -24.092)" fill="#fff"/>
        <path id="Path_608919" data-name="Path 608919" d="M68.651,80.119c3.667,0,7.335.013,11-.008,1.173-.007,2.2.235,2.174,1.618-.02,1.277-.989,1.534-2.106,1.532q-11.238-.021-22.476,0c-1.119,0-2.082-.263-2.1-1.542-.014-1.386,1.015-1.614,2.184-1.608,3.772.021,7.545.008,11.317.008" transform="translate(-37.79 -55.02)" fill="#fff"/>
        <path id="Path_608920" data-name="Path 608920" d="M28.3,83.126c-.522,0-1.157.186-1.539-.043-.585-.352-1.374-.989-1.376-1.508a2.123,2.123,0,0,1,1.36-1.487,11.8,11.8,0,0,1,3.113-.073c1.049.024,1.843.612,1.614,1.614-.136.593-.985,1.122-1.629,1.468-.4.217-1.022.04-1.544.04v-.011" transform="translate(-17.397 -54.907)" fill="#fff"/>
        <path id="Path_608921" data-name="Path 608921" d="M28.271,125.144c.522,0,1.047-.033,1.565.008.972.077,1.7.655,1.5,1.583a2.311,2.311,0,0,1-1.444,1.461,7.51,7.51,0,0,1-3.257,0,2.3,2.3,0,0,1-1.433-1.47c-.2-.931.536-1.5,1.506-1.574.519-.039,1.043-.007,1.565-.007" transform="translate(-17.245 -85.94)" fill="#fff"/>
        <path id="Path_608922" data-name="Path 608922" d="M58.2,128.233c-.522,0-1.149.182-1.541-.043-.595-.34-1.328-.9-1.458-1.48-.207-.928.517-1.533,1.49-1.583,1.041-.053,2.089-.049,3.13,0,.972.044,1.731.646,1.507,1.56-.149.608-.952,1.156-1.586,1.513-.395.223-1.02.041-1.542.041v-.007" transform="translate(-37.8 -85.911)" fill="#fff"/>
      </g>
    </g>
  </g>
</svg>
