<svg xmlns="http://www.w3.org/2000/svg" xmlns:xlink="http://www.w3.org/1999/xlink" width="125.072" height="125.072" viewBox="0 0 125.072 125.072">
  <defs>
    <clipPath id="clip-path">
      <rect id="Rectangle_375588" data-name="Rectangle 375588" width="82.281" height="75.009" fill="none"/>
    </clipPath>
  </defs>
  <g id="Group_1014542" data-name="Group 1014542" transform="translate(-386 -2146)">
    <circle id="Ellipse_4838" data-name="Ellipse 4838" cx="62.5" cy="62.5" r="62.5" transform="translate(386 2146)" fill="#304c8e"/>
    <g id="Group_43_" data-name="Group (43)" transform="translate(479 2239)">
      <path id="Path_598926" data-name="Path 598926" d="M36.549,16.055,16.055,36.549a15.864,15.864,0,0,0,.655,1.582l21.422-21.42a15.863,15.863,0,0,0-1.582-.655Z" transform="translate(-15.17 -15.17)" fill="#4ca220"/>
      <path id="Path_598927" data-name="Path 598927" d="M18.367.8.8,18.367a16.022,16.022,0,0,0,.26,1.7L20.065,1.058A16.022,16.022,0,0,0,18.367.8Z" transform="translate(-0.754 -0.754)" fill="#4ca220"/>
      <path id="Path_598928" data-name="Path 598928" d="M299.7,283.668c0-.137-.008-.274-.01-.41l-16.454,16.453c.137,0,.273.01.41.01a16.091,16.091,0,0,0,1.678-.088l14.289-14.289a16.09,16.09,0,0,0,.088-1.678Z" transform="translate(-267.627 -267.648)" fill="#4ca220"/>
      <path id="Path_598929" data-name="Path 598929" d="M68.634,46.122q-.611-.481-1.267-.9L45.2,67.389q.42.656.9,1.267Z" transform="translate(-42.708 -42.73)" fill="#4ca220"/>
      <path id="Path_598930" data-name="Path 598930" d="M0,15.009,15.009,0c-.434.026-.863.07-1.287.131L.131,13.722C.07,14.145.026,14.575,0,15.009Z" fill="#4ca220"/>
      <path id="Path_598931" data-name="Path 598931" d="M106.76,84.058l-22.7,22.7a16.114,16.114,0,0,0,1.365,1.222l22.559-22.559A16.123,16.123,0,0,0,106.76,84.058Z" transform="translate(-79.426 -79.426)" fill="#4ca220"/>
      <path id="Path_598932" data-name="Path 598932" d="M159.927,138.548a16.093,16.093,0,0,0-.877-1.6l-22.108,22.108a15.959,15.959,0,0,0,1.6.877Z" transform="translate(-129.396 -129.396)" fill="#4ca220"/>
      <path id="Path_598933" data-name="Path 598933" d="M28.816,19.794a16.1,16.1,0,0,0-9.022,9.022Z" transform="translate(-18.704 -18.704)" fill="#4ca220"/>
      <path id="Path_598934" data-name="Path 598934" d="M382.436,392.617a16.085,16.085,0,0,0,10.18-10.18Z" transform="translate(-361.361 -361.361)" fill="#4ca220"/>
      <path id="Path_598935" data-name="Path 598935" d="M220.714,200.477l-20.237,20.237a15.962,15.962,0,0,0,2.154.537l18.619-18.619A16.154,16.154,0,0,0,220.714,200.477Z" transform="translate(-189.429 -189.429)" fill="#4ca220"/>
    </g>
    <g id="Group_1015904" data-name="Group 1015904" transform="translate(408.547 2171.456)">
      <g id="Group_1015903" data-name="Group 1015903" clip-path="url(#clip-path)">
        <path id="Path_606156" data-name="Path 606156" d="M27.213,64.057V56.975H25.682c-5.789,0-11.579.01-17.368,0C2.906,56.96,0,54.024,0,48.6Q0,28.109,0,7.62A7.294,7.294,0,0,1,5.285.358a9.546,9.546,0,0,1,2.743-.3C30.081.042,52.134.106,74.187,0A7.862,7.862,0,0,1,82.28,8.134c-.13,13.614-.047,27.23-.05,40.845,0,4.891-2.98,7.944-7.9,7.984-5.877.048-11.756.012-17.633.012H55.041v7.082c2.631,0,5.232-.113,7.816.047a10.316,10.316,0,0,1,3.882,1.052A4.957,4.957,0,0,1,69.5,69.926c-.007,1.193.01,2.387-.007,3.58A1.326,1.326,0,0,1,68.036,75c-.354,0-.707.01-1.061.01H15.269c-2.427,0-2.539-.114-2.54-2.547q0-.928,0-1.857c0-3.993,2.472-6.494,6.494-6.542,2.209-.026,4.419-.005,6.629-.005h1.361M7.828,7.852V43.9H23.3a5.119,5.119,0,0,1,.269-1.847c.988-1.6.7-3.019.021-4.675a3.909,3.909,0,0,0-2.928-2.8,1.841,1.841,0,0,1-1.494-2.162c.065-1.411.057-2.83,0-4.242a1.89,1.89,0,0,1,1.515-2.145c.741-.222,1.881-.485,2.051-.994.664-1.984,2.623-3.839.9-6.212-.683-.943-.336-1.8.5-2.555a35.475,35.475,0,0,0,2.8-2.816,2.128,2.128,0,0,1,2.923-.557c.648.338,1.587.913,2.044.683,1.908-.959,4.639-.945,5.032-3.928.126-.956.913-1.312,1.878-1.292,1.458.031,2.918.051,4.374-.006a1.936,1.936,0,0,1,2.221,1.593c.2.709.448,1.808.924,1.963,1.993.648,3.829,2.658,6.217.958a1.625,1.625,0,0,1,2.282.168c1.176,1.2,2.433,2.324,3.527,3.592a1.978,1.978,0,0,1,.386,1.743,4.512,4.512,0,0,0,.136,5.256,1.248,1.248,0,0,1,.176.5,1.855,1.855,0,0,0,1.417,1.525c2.513.977,2.615.431,2.572,3.772a1.8,1.8,0,0,0,.007.528c.159.525.237,1.388.553,1.492.915.3,1.811.947,2.934.032a12.584,12.584,0,0,1,3.919-2.086,19.658,19.658,0,0,1,3.94-.5V7.852ZM79.577,31.408V29.986q0-10.745,0-21.49c0-4.1-1.677-5.776-5.783-5.776q-32.692,0-65.384,0c-.354,0-.708,0-1.061.009A4.626,4.626,0,0,0,2.67,7.464q-.042,21.026,0,42.052a4.64,4.64,0,0,0,3.372,4.562,9.256,9.256,0,0,0,2.362.211q32.692.016,65.384.007c.486,0,.973-.005,1.458-.042a4.126,4.126,0,0,0,3.95-3.024,33.872,33.872,0,0,0,.521-5.837c-3.832,3.09-7.551,3.579-11.568,1.523a3.228,3.228,0,0,0-1.409-.242c-3.315-.02-6.632-.044-9.946.021a2.7,2.7,0,0,0-1.709.7,1.981,1.981,0,0,1-2.62.373c-.659-.333-1.594-.979-2.026-.755-1.86.964-4.6.827-5.071,3.719-.189,1.157-.992,1.557-2.124,1.523-1.5-.045-3.006-.027-4.509-.008A1.6,1.6,0,0,1,36.944,51c-.38-1.777-1.469-2.59-3.147-3.253-1.527-.6-2.748-.859-4.152.061a1.836,1.836,0,0,1-2.491-.4,2.963,2.963,0,0,0-1.838-.714c-6.056-.052-12.113-.026-18.169-.036-1.781,0-2.074-.309-2.075-2.107q-.006-18.24,0-36.48c0-2.2.745-2.945,2.934-2.946q33.09,0,66.18,0c2.259,0,2.974.732,2.976,3.039,0,6.323.067,12.647-.038,18.969-.032,1.951.079,3.588,2.454,4.273M54.607,38.6c-1.868-.7-1.877-.712-3.307.869a13.338,13.338,0,0,1-8.1,4.4A13.752,13.752,0,0,1,27.633,27.716a13.7,13.7,0,0,1,27.034.688c.041.321.277.807.524.882,1.662.5,3.352.917,5.021,1.357.409-1.5.192-2.479-1.385-2.792a2.58,2.58,0,0,1-2.135-2.361,6.806,6.806,0,0,0-1.058-2.55,3.138,3.138,0,0,1-.081-3.809,1.205,1.205,0,0,0-.319-1.908,2.223,2.223,0,0,1-.561-.561,1.821,1.821,0,0,0-2.878-.578,2.522,2.522,0,0,1-2.951-.1,15.546,15.546,0,0,0-3.295-1.325,2.287,2.287,0,0,1-1.868-1.812c-.282-1.573-1.216-2.077-2.711-1.821a8.752,8.752,0,0,0-1.053.032c-.325.1-.812.341-.856.587-.4,2.209-1.948,3.059-3.911,3.506a3.5,3.5,0,0,0-1.323.584,3.182,3.182,0,0,1-4.016.065,1.129,1.129,0,0,0-1.714.312,3.3,3.3,0,0,1-.747.749,1.71,1.71,0,0,0-.519,2.664,2.662,2.662,0,0,1-.053,3.087,16.25,16.25,0,0,0-1.326,3.294,2.391,2.391,0,0,1-1.7,1.823c-.619.179-1.588.438-1.695.845a8.144,8.144,0,0,0-.105,3.26c.06.376.9.7,1.435.914.873.354,1.662.655,2,1.715.436,1.376,1.148,2.664,1.591,4.038a3.515,3.515,0,0,1,.053,2.112c-.738,2.055-.74,1.978.67,3.543.8.892,1.525,1.17,2.544.475a2.76,2.76,0,0,1,3.306.087,10.485,10.485,0,0,0,3.042,1.248,2.313,2.313,0,0,1,1.98,1.851,1.921,1.921,0,0,0,2.506,1.749,2.372,2.372,0,0,1,.793,0,1.191,1.191,0,0,0,1.527-1.05,3.215,3.215,0,0,1,2.919-2.77,3.021,3.021,0,0,0,1.111-.408c1.961-1.278,3.927-1.721,6.024.111.682-.77,1.227-1.472,1.864-2.078a1.27,1.27,0,0,0,.347-1.718A27.685,27.685,0,0,1,54.607,38.6M15.5,72.23H66.845c0-.627-.044-1.158.007-1.678.257-2.607-1.595-3.525-3.331-3.8a9.471,9.471,0,0,0-1.456-.042c-13.879,0-27.758.018-41.637-.015-3.383-.008-5.574.782-5.012,5.311a1.56,1.56,0,0,0,.084.221M35.422,34.145c2.8,3.86,7.711,4.154,10.753.865a2.267,2.267,0,0,1,2.558-.762c5.23,1.391,10.475,2.724,15.718,4.067a2.022,2.022,0,0,1,1.689,1.734,6.575,6.575,0,0,0,4.317,4.973,6.274,6.274,0,0,0,5.58-.389c-1.721-.448-3.111-.88-4.531-1.159a2.321,2.321,0,0,1-2-1.957c-1.281-5.065-1.6-3.405,1.872-7.145a2.254,2.254,0,0,1,2.58-.74c1.441.435,2.919.747,4.592,1.164a6.808,6.808,0,0,0-10.8-.8,2.119,2.119,0,0,1-2.427.74c-5.186-1.386-10.38-2.743-15.591-4.032a2.211,2.211,0,0,1-1.915-1.84,6.551,6.551,0,0,0-4.471-4.987,6.343,6.343,0,0,0-5.395.461c1.847.479,3.38.847,4.892,1.289.436.128,1.058.388,1.169.727A18.568,18.568,0,0,1,45.25,31.3c.028.79-1.158,1.633-1.815,2.433-.279.34-.65.607-.918.953a2.089,2.089,0,0,1-2.486.669c-1.43-.4-2.875-.755-4.609-1.206M52.229,57.069H30.047v6.9H52.229Zm-.39-28.7c-.392-4.651-5-8.849-10.2-9.1a11.045,11.045,0,0,0-4.51,21.33c4.335,1.722,10.246.137,12.29-3.291-.8-.6-1.382-.28-2.079.31C41.977,42.167,33.628,39.65,31.908,33c-.425-1.641.306-2.414,1.953-2.02a38.452,38.452,0,0,1,4.971,1.312,2.546,2.546,0,0,0,3.338-1.053c.644-.848.031-2.979-1.006-3.271-1.948-.547-3.923-1-5.853-1.6-.6-.186-1.416-.645-1.532-1.125a2.363,2.363,0,0,1,.775-1.77,9.51,9.51,0,0,1,15.524,3.6,1.6,1.6,0,0,0,1.761,1.3m27.694,9.472a35.746,35.746,0,0,1-4.415-1.164,2.5,2.5,0,0,0-3.254,1c-.589.744-.167,3.009.735,3.268,2.27.648,4.568,1.2,6.934,1.811ZM57.74,39.36l1.407,4.515h5.478c-.365-2.265-1.518-3.572-3.84-3.754a19.523,19.523,0,0,1-3.045-.76" transform="translate(0 0)" fill="#fff"/>
      </g>
    </g>
  </g>
</svg>
