<svg xmlns="http://www.w3.org/2000/svg" xmlns:xlink="http://www.w3.org/1999/xlink" width="125.072" height="125.072" viewBox="0 0 125.072 125.072">
  <defs>
    <clipPath id="clip-path">
      <rect id="Rectangle_375589" data-name="Rectangle 375589" width="94.919" height="94.854" fill="none"/>
    </clipPath>
  </defs>
  <g id="Group_1014543" data-name="Group 1014543" transform="translate(-738 -2146)">
    <circle id="Ellipse_4839" data-name="Ellipse 4839" cx="62.5" cy="62.5" r="62.5" transform="translate(738 2146)" fill="#304c8e"/>
    <g id="Group_43_" data-name="Group (43)" transform="translate(831 2239)">
      <path id="Path_598926" data-name="Path 598926" d="M36.549,16.055,16.055,36.549a15.864,15.864,0,0,0,.655,1.582l21.422-21.42a15.863,15.863,0,0,0-1.582-.655Z" transform="translate(-15.17 -15.17)" fill="#4ca220"/>
      <path id="Path_598927" data-name="Path 598927" d="M18.367.8.8,18.367a16.022,16.022,0,0,0,.26,1.7L20.065,1.058A16.022,16.022,0,0,0,18.367.8Z" transform="translate(-0.754 -0.754)" fill="#4ca220"/>
      <path id="Path_598928" data-name="Path 598928" d="M299.7,283.668c0-.137-.008-.274-.01-.41l-16.454,16.453c.137,0,.273.01.41.01a16.091,16.091,0,0,0,1.678-.088l14.289-14.289a16.09,16.09,0,0,0,.088-1.678Z" transform="translate(-267.627 -267.648)" fill="#4ca220"/>
      <path id="Path_598929" data-name="Path 598929" d="M68.634,46.122q-.611-.481-1.267-.9L45.2,67.389q.42.656.9,1.267Z" transform="translate(-42.708 -42.73)" fill="#4ca220"/>
      <path id="Path_598930" data-name="Path 598930" d="M0,15.009,15.009,0c-.434.026-.863.07-1.287.131L.131,13.722C.07,14.145.026,14.575,0,15.009Z" fill="#4ca220"/>
      <path id="Path_598931" data-name="Path 598931" d="M106.76,84.058l-22.7,22.7a16.114,16.114,0,0,0,1.365,1.222l22.559-22.559A16.123,16.123,0,0,0,106.76,84.058Z" transform="translate(-79.426 -79.426)" fill="#4ca220"/>
      <path id="Path_598932" data-name="Path 598932" d="M159.927,138.548a16.093,16.093,0,0,0-.877-1.6l-22.108,22.108a15.959,15.959,0,0,0,1.6.877Z" transform="translate(-129.396 -129.396)" fill="#4ca220"/>
      <path id="Path_598933" data-name="Path 598933" d="M28.816,19.794a16.1,16.1,0,0,0-9.022,9.022Z" transform="translate(-18.704 -18.704)" fill="#4ca220"/>
      <path id="Path_598934" data-name="Path 598934" d="M382.436,392.617a16.085,16.085,0,0,0,10.18-10.18Z" transform="translate(-361.361 -361.361)" fill="#4ca220"/>
      <path id="Path_598935" data-name="Path 598935" d="M220.714,200.477l-20.237,20.237a15.962,15.962,0,0,0,2.154.537l18.619-18.619A16.154,16.154,0,0,0,220.714,200.477Z" transform="translate(-189.429 -189.429)" fill="#4ca220"/>
    </g>
    <g id="Group_1015906" data-name="Group 1015906" transform="translate(754.828 2160.531)">
      <g id="Group_1015905" data-name="Group 1015905" clip-path="url(#clip-path)">
        <path id="Path_606157" data-name="Path 606157" d="M58.231,85.727c-.4,2.318-1.543,3.911-3.956,4.423-.335.071-.7.608-.818,1a4.828,4.828,0,0,1-8.1,2.309,1.931,1.931,0,0,0-2.3-.486c-2.968,1.095-5.572-.682-6.367-4.21-2.292-.471-4.055-1.587-4.456-4.177-.034-.223-.464-.481-.753-.553a5.053,5.053,0,0,1-3.981-4.5A4.884,4.884,0,0,1,23,75.348a1.591,1.591,0,0,0-.713-.865c-1.2-.765-2.444-1.473-3.736-2.241-.945,1.882-2.593,1.351-3.92.948C10.02,71.792,5.457,70.22.9,68.654a1.511,1.511,0,0,1-.858-1.086C-.008,57.345,0,47.123,0,36.678,2.42,36.84,4.82,36.1,6.99,37.762c1.009.773,2.338,1.152,3.28,1.984,2.214,1.954,4.351.859,6.827.114a9.516,9.516,0,0,0-.913-1.056,10.45,10.45,0,0,1-3.857-7.1c-.472-4.383-.269-8.615,3.206-11.953a10.574,10.574,0,0,1,7.88-2.98,5.368,5.368,0,0,0-.407-1.064c-1.391-2.034-.92-3.548.975-5.078a55.555,55.555,0,0,0,5.156-5.1c.6-.634,1.1-.744,1.743-.164,2.274,2.048,4.534,2.6,7.47.92,1.466-.84,2.479-1.42,2.594-3.178A21.459,21.459,0,0,1,41.6,0H53.282c.312,1.423.559,2.917,1,4.353a3.11,3.11,0,0,0,1.188,1.409c.461.334,1.156.34,1.628.664C59.383,8,61.432,7.643,63.363,5.8c1.118-1.069,1.975-.867,3.017.311,1.8,2.03,3.768,3.911,5.746,5.771a1.6,1.6,0,0,1,.42,2.291,23.59,23.59,0,0,0-1.095,2.568,10.642,10.642,0,0,1,8.97,4.394c2.2,2.914,2.475,6.264,2.272,9.715-.214,3.642-1.936,6.531-5.2,8.97,1.936.524,3.374.916,4.814,1.3a5.725,5.725,0,0,1,1.141.288,5.412,5.412,0,0,0,6.124-.72c1.543-1.148,3.293-1.15,5.326-.923v1.522c0,6.472-.021,12.945.022,19.417A1.894,1.894,0,0,1,93.7,62.725c-8.4,4.143-16.757,8.355-25.139,12.526a1.941,1.941,0,0,0-1.3,1.7,4.464,4.464,0,0,1-3.51,3.933c-.408.114-1.015.447-1.068.758-.435,2.535-2.138,3.625-4.455,4.085m33.6-42.7c-.738.364-1.211.584-1.673.827-8.414,4.425-16.849,8.809-25.221,13.311a6.712,6.712,0,0,1-5.378.52c-2.738-.8-5.494-1.535-8.226-2.35a6.6,6.6,0,0,0-4.892.378c-2.793,1.345-5.561,2.744-8.317,4.165a2.247,2.247,0,0,0-1.093,3.225c.621,1.08,1.872,1.313,3.2.544,1.621-.938,3.216-1.922,4.83-2.874,3.1-1.832,5.506-1.616,8.226.807q5.913,5.271,11.773,10.6c.581.526,1.048.881,1.925.438,8-4.042,16.022-8.025,24.017-12.068a1.661,1.661,0,0,0,.8-1.192c.053-5.329.035-10.659.035-16.336M53.018,70.663c2.724,2.271,5.328,4.456,7.95,6.622,1.043.861,2.285.879,2.9.047.748-1.02.3-1.846-.512-2.576-4.038-3.635-8.066-7.281-12.122-10.895a3.345,3.345,0,0,0-4.582-.441c-1.745,1.019-3.457,2.1-5.209,3.1a4.908,4.908,0,0,1-5.326-.056,5.354,5.354,0,0,1,.471-9.266c2.379-1.272,4.819-2.43,7.232-3.639a17.194,17.194,0,0,0-5.138-1.437c-5.123-.464-9.883,1.529-14.807,2.423a1.258,1.258,0,0,0-.717.8c-1.313,4.53-2.589,9.072-3.9,13.694l4.694,2.808c1.04-1.076,1.987-2.151,3.033-3.119,2.916-2.7,6.857-1.588,8.061,2.193a1.762,1.762,0,0,0,1,1.008,5.275,5.275,0,0,1,3.691,3.7,1.57,1.57,0,0,0,.873.919,4.745,4.745,0,0,1,3.668,3.826,1.133,1.133,0,0,0,.707.739,6.15,6.15,0,0,1,3.34,2.252,31.581,31.581,0,0,0,4.056,3.42,1.584,1.584,0,0,0,2.36-.335c.711-.917.25-1.671-.47-2.316-.588-.526-1.217-1.007-1.823-1.515-1.985-1.665-3.968-3.334-5.98-5.024l1.969-2.339c2.678,2.229,5.295,4.4,7.905,6.586.934.78,1.906,1.111,2.887.142.748-.738.461-1.744-.724-2.74-2.456-2.061-4.918-4.114-7.442-6.224l1.953-2.369m-20.75-21.29a3.238,3.238,0,0,0,.7-.007,18.146,18.146,0,0,1,8.782.141c3.416.911,6.817,1.877,10.222,2.829q4.551,1.272,9.1,2.569c1.148.327,1.81.128,1.73-1.278-.079-1.379.026-2.768-.03-4.15-.114-2.808-1.261-4.237-3.98-4.959-2.427-.645-4.874-1.212-7.3-1.873-.378-.1-.956-.529-.954-.8.015-2.043-.68-4.18,1.829-5.661a5.97,5.97,0,0,0,2.383-3.88,20.4,20.4,0,0,0-.2-7,7.234,7.234,0,0,0-6.771-5.467,7.75,7.75,0,0,0-7.271,4.456A10.608,10.608,0,0,0,43.8,37.227c.681.5.966,4.792.32,5.247a2.646,2.646,0,0,1-.845.222c-2.527.65-5.061,1.276-7.579,1.961-2.341.638-3.4,2.113-3.424,4.717m50.293-5c-1.747-.464-3.014-.83-4.3-1.137-3.277-.785-3.249-.775-3.289-4.206a2.116,2.116,0,0,1,1.114-2.152,6.609,6.609,0,0,0,3.31-5.013,25.025,25.025,0,0,0,.016-5.318,7.7,7.7,0,0,0-7.769-6.7,7.574,7.574,0,0,0-7.288,7.322c-.039,1.233-.033,2.469,0,3.7a6.375,6.375,0,0,0,2.764,5.464,3.592,3.592,0,0,1,1.756,3.924,5.739,5.739,0,0,0,0,1.184c.066.764-.184,1.118-1.017,1.268-1.36.246-2.684.694-4.216,1.109,2.645,2.726,2.144,5.991,2.219,9.349l16.7-8.791M28.527,50.328l2.212-6.681L26.03,42.427c0-1.213.05-2.391-.016-3.562a1.863,1.863,0,0,1,1-1.916A7.059,7.059,0,0,0,30.5,31.4a26.709,26.709,0,0,0-.013-4.584,7.752,7.752,0,0,0-7.69-6.975,7.544,7.544,0,0,0-7.388,7.2c-.06,1.083-.041,2.17-.05,3.255a7.628,7.628,0,0,0,3.7,6.82,1.748,1.748,0,0,1,.8,1.076c.094,1.411.038,2.833.038,4.225l-3.149.855c.073.119.1.233.176.276,1.524.9,3,1.907,4.594,2.674,2.046.986,3.582,2.162,2.979,4.752-.008.035.046.084.121.211l3.909-.857M65.981,39.743a11.446,11.446,0,0,1-.937-1.051c-1.111-1.6-2.6-3.085-3.2-4.865a16.082,16.082,0,0,1,.047-10.049,2.45,2.45,0,0,0-.006-1.753c-3.3-5.383-8.172-8.281-14.451-8.272S36.279,16.658,33,22.056a2.615,2.615,0,0,0-.1,1.618c.227,1.406.7,2.785.8,4.195.31,4.328-.549,8.267-4.183,11.146a4.21,4.21,0,0,0-.617.96c1.753.434,3.3.869,4.877,1.186a6.871,6.871,0,0,0,2.446.116,40.6,40.6,0,0,0,4-1.015,6.96,6.96,0,0,0,1.011-.457,4.12,4.12,0,0,0-.65-1.046,10.382,10.382,0,0,1-3.667-6.417,31.777,31.777,0,0,1-.14-4.878,10.621,10.621,0,0,1,20.323-4.4c1.843,4.015,1.852,12.5-2.924,15.788-.532.366-.975.953-.042,1.31a14.214,14.214,0,0,0,11.853-.419m-1.336-31.1c-1.219.792-2.281,1.418-3.27,2.146a1.768,1.768,0,0,1-2.22.112,21.07,21.07,0,0,0-4.96-2.222c-1.753-.438-2.611-1.174-2.91-3-.446-2.726-.574-2.705-3.4-2.705-3.869,0-3.9,0-4.573,3.872C43.159,7.711,42.76,8,41.95,8.289c-2.21.8-4.333,1.837-6.527,2.686a2.223,2.223,0,0,1-1.649-.087c-1.165-.62-2.24-1.409-3.516-2.237-1.474,1.512-2.939,2.971-4.336,4.492a1.522,1.522,0,0,0-.135,1.139c.538,2.741,2.488,4.281,4.781,5.514A20.124,20.124,0,0,1,64.3,19.785c.85-.574,1.673-1.194,2.555-1.714,1.675-.985,1.659-2.906,2.464-4.368.065-.118-.254-.5-.45-.7-1.364-1.425-2.742-2.836-4.221-4.36M3.33,39.629c-.148.312-.227.4-.227.489q-.025,12.659-.015,25.319a1.13,1.13,0,0,0,.551.871c1.93.694,3.888,1.312,5.9,1.974.125-.372.215-.591.273-.819,1.72-6.815,3.42-13.635,5.174-20.441.224-.867-.21-1.124-.8-1.464-3.115-1.8-6.21-3.626-9.331-5.411a8.068,8.068,0,0,0-1.523-.517M15.488,70.294a2.445,2.445,0,0,0,.272-.411q2.786-9.63,5.542-19.268a1.15,1.15,0,0,0-.281-1.016c-.95-.644-1.973-1.178-3.082-1.817l-5.369,21.49,2.918,1.021m10.38,4.552c.391.47.69,1.138,1.173,1.324a2.089,2.089,0,0,0,1.74-.2,22.634,22.634,0,0,0,2.745-2.648,1.69,1.69,0,1,0-2.366-2.41c-.909.818-1.764,1.7-2.591,2.6a6.609,6.609,0,0,0-.7,1.334m15.566,6.3c-.313-.447-.544-1.142-.965-1.289a2.338,2.338,0,0,0-1.893.121,13.168,13.168,0,0,0-2.879,2.91,2.471,2.471,0,0,0,.149,2.2,1.352,1.352,0,0,0,2.182.068c.968-.9,1.9-1.847,2.806-2.812a5.377,5.377,0,0,0,.6-1.2m-.168,9.04c.511-.086.773-.049.886-.162a43.928,43.928,0,0,0,3.526-3.672,1.841,1.841,0,0,0-.447-1.741,2.1,2.1,0,0,0-1.952-.105,19.279,19.279,0,0,0-3.111,3.1,1.79,1.79,0,0,0-.1,1.6c.24.476.889.746,1.193.978M32.4,80.961c.117-.025.437,0,.582-.141,1.244-1.234,2.511-2.455,3.628-3.8.2-.243-.1-1.218-.449-1.52-.406-.347-1.4-.638-1.671-.406a23.634,23.634,0,0,0-3.657,3.74c-.641.865.307,2.083,1.566,2.126m14.153,9.382c.781.837,1.535,1.693,2.762,1.225.457-.174,1.136-.911,1.049-1.161a17.741,17.741,0,0,0-1.491-2.756l-2.32,2.692" transform="translate(0)" fill="#fff"/>
      </g>
    </g>
  </g>
</svg>
