<svg xmlns="http://www.w3.org/2000/svg" xmlns:xlink="http://www.w3.org/1999/xlink" width="125.072" height="125.072" viewBox="0 0 125.072 125.072">
  <defs>
    <clipPath id="clip-path">
      <rect id="Rectangle_375590" data-name="Rectangle 375590" width="78" height="78" transform="translate(0 0)" fill="none"/>
    </clipPath>
  </defs>
  <g id="Group_1014544" data-name="Group 1014544" transform="translate(-1089 -2146)">
    <circle id="Ellipse_4840" data-name="Ellipse 4840" cx="62.5" cy="62.5" r="62.5" transform="translate(1089 2146)" fill="#304c8e"/>
    <g id="Group_43_" data-name="Group (43)" transform="translate(1182 2239)">
      <path id="Path_598926" data-name="Path 598926" d="M36.549,16.055,16.055,36.549a15.864,15.864,0,0,0,.655,1.582l21.422-21.42a15.863,15.863,0,0,0-1.582-.655Z" transform="translate(-15.17 -15.17)" fill="#4ca220"/>
      <path id="Path_598927" data-name="Path 598927" d="M18.367.8.8,18.367a16.022,16.022,0,0,0,.26,1.7L20.065,1.058A16.022,16.022,0,0,0,18.367.8Z" transform="translate(-0.754 -0.754)" fill="#4ca220"/>
      <path id="Path_598928" data-name="Path 598928" d="M299.7,283.668c0-.137-.008-.274-.01-.41l-16.454,16.453c.137,0,.273.01.41.01a16.091,16.091,0,0,0,1.678-.088l14.289-14.289a16.09,16.09,0,0,0,.088-1.678Z" transform="translate(-267.627 -267.648)" fill="#4ca220"/>
      <path id="Path_598929" data-name="Path 598929" d="M68.634,46.122q-.611-.481-1.267-.9L45.2,67.389q.42.656.9,1.267Z" transform="translate(-42.708 -42.73)" fill="#4ca220"/>
      <path id="Path_598930" data-name="Path 598930" d="M0,15.009,15.009,0c-.434.026-.863.07-1.287.131L.131,13.722C.07,14.145.026,14.575,0,15.009Z" fill="#4ca220"/>
      <path id="Path_598931" data-name="Path 598931" d="M106.76,84.058l-22.7,22.7a16.114,16.114,0,0,0,1.365,1.222l22.559-22.559A16.123,16.123,0,0,0,106.76,84.058Z" transform="translate(-79.426 -79.426)" fill="#4ca220"/>
      <path id="Path_598932" data-name="Path 598932" d="M159.927,138.548a16.093,16.093,0,0,0-.877-1.6l-22.108,22.108a15.959,15.959,0,0,0,1.6.877Z" transform="translate(-129.396 -129.396)" fill="#4ca220"/>
      <path id="Path_598933" data-name="Path 598933" d="M28.816,19.794a16.1,16.1,0,0,0-9.022,9.022Z" transform="translate(-18.704 -18.704)" fill="#4ca220"/>
      <path id="Path_598934" data-name="Path 598934" d="M382.436,392.617a16.085,16.085,0,0,0,10.18-10.18Z" transform="translate(-361.361 -361.361)" fill="#4ca220"/>
      <path id="Path_598935" data-name="Path 598935" d="M220.714,200.477l-20.237,20.237a15.962,15.962,0,0,0,2.154.537l18.619-18.619A16.154,16.154,0,0,0,220.714,200.477Z" transform="translate(-189.429 -189.429)" fill="#4ca220"/>
    </g>
    <g id="Group_1015908" data-name="Group 1015908" transform="translate(1113.847 2168.759)">
      <g id="Group_1015907" data-name="Group 1015907" transform="translate(-0.019 -0.355)" clip-path="url(#clip-path)">
        <path id="Path_606158" data-name="Path 606158" d="M0,38.82q0-16.552,0-33.1C0,2.088,2.083,0,5.7,0q33.1,0,66.207,0c3.628,0,5.716,2.082,5.717,5.7q0,33.1,0,66.207c0,3.628-2.083,5.717-5.7,5.717q-33.1,0-66.207,0C2.091,77.625,0,75.541,0,71.923q0-16.551,0-33.1M74.99,12.983H2.637v1.489q0,28.561,0,57.123c0,.4-.017.811.02,1.212a2.367,2.367,0,0,0,2.106,2.148c.955.066,1.919.014,2.949.014.021-.488.053-.881.054-1.274,0-2.87,0-5.741,0-8.611.007-2.747,1.509-4.233,4.281-4.244,1.5-.006,2.992-.009,4.487,0a3.8,3.8,0,0,1,4.15,4.129c.03,2.87.008,5.741.008,8.611V74.9h2.578V73.487c0-4.568-.006-9.136,0-13.7a3.96,3.96,0,0,1,4.167-4.195q2.3-.036,4.609,0a3.9,3.9,0,0,1,4.135,4.19c.012,4.608,0,9.217,0,13.826v1.309h2.619V73.524q0-10.006,0-20.011c0-2.81,1.512-4.32,4.336-4.341,1.334-.01,2.668,0,4,0,3.183.008,4.566,1.385,4.569,4.575q.009,9.884,0,19.769v1.38h2.615V73.357q0-13.28,0-26.56a3.882,3.882,0,0,1,4.087-4.113c1.374-.011,2.758.1,4.122-.023,2.761-.244,4.8,1.594,4.759,4.72-.117,8.69-.041,17.383-.041,26.075v1.534c1.6,0,3.047,0,4.495,0,2.451,0,3.224-.784,3.225-3.266q0-28.683,0-57.366ZM2.651,10.264H74.989c0-1.5,0-2.914,0-4.326,0-2.546-.758-3.3-3.31-3.3H5.945c-.364,0-.729-.014-1.091.017A2.356,2.356,0,0,0,2.665,4.848c-.055,1.773-.015,3.55-.015,5.415M64.716,74.923V58.773c0-3.838.008-7.676,0-11.514,0-1.557-.383-1.921-1.928-1.931-1.252-.008-2.5,0-3.757,0-1.873.005-2.074.2-2.074,2.1q0,13.09,0,26.18v1.316Zm-15.645.012a4.055,4.055,0,0,0,.089-.558q.008-10.485,0-20.971c0-1.211-.475-1.647-1.726-1.676-1.333-.031-2.667-.016-4-.006-1.631.012-1.982.365-1.982,1.989q0,10,0,20c0,.391.038.781.061,1.22Zm-15.555-.013c.069-.135.136-.2.136-.273.013-4.967.036-9.935.016-14.9a1.419,1.419,0,0,0-1.629-1.53c-1.373.015-2.746,0-4.12,0-1.7,0-1.994.287-2,1.949q-.008,6.846,0,13.692c0,.348.048.7.075,1.061Zm-15.412.02c0-3.467.019-6.814-.012-10.161-.009-.993-.675-1.418-1.607-1.428-1.5-.016-2.992-.023-4.487,0a1.449,1.449,0,0,0-1.625,1.651c.025,1.94.006,3.881.006,5.822,0,1.357,0,2.715,0,4.114Z" transform="translate(0.013 0.137)" fill="#fff"/>
        <path id="Path_606159" data-name="Path 606159" d="M85.374,103.675c-.509,0-1.019.022-1.527-.005-.8-.043-1.413-.51-1.281-1.273.086-.5.7-1.248,1.127-1.284a31.089,31.089,0,0,1,5.319-.009,1.886,1.886,0,0,1,1.2,1.348,48.033,48.033,0,0,1,.052,4.964,1.209,1.209,0,0,1-1.217,1.365c-.921.053-1.315-.523-1.412-1.325a18.13,18.13,0,0,1-.013-1.926c-1.034.879-1.875,1.6-2.726,2.314a123.131,123.131,0,0,1-34.2,19.777c-5.307,2.093-10.795,3.73-16.2,5.569-.227.077-.476.085-.711.141-.839.2-1.486-.061-1.682-.919s.274-1.348,1.1-1.586c2.2-.636,4.414-1.247,6.591-1.965,13.9-4.585,27.043-10.709,38.875-19.429,2.334-1.72,4.548-3.6,6.818-5.407l-.112-.349" transform="translate(-24.268 -76.359)" fill="#fff"/>
        <path id="Path_606160" data-name="Path 606160" d="M44.89,100.536A12.9,12.9,0,1,1,57.926,87.6,12.839,12.839,0,0,1,44.89,100.536M34.648,87.647a10.325,10.325,0,1,0,10.291-10.34,10.4,10.4,0,0,0-10.291,10.34" transform="translate(-24.251 -56.464)" fill="#fff"/>
        <path id="Path_606161" data-name="Path 606161" d="M261.147,23.715c-1.167,0-2.334,0-3.5,0-.879.005-1.539-.339-1.579-1.271-.041-.955.65-1.363,1.493-1.376q3.682-.055,7.365,0a1.333,1.333,0,1,1-.034,2.647c-1.248-.014-2.5,0-3.743,0" transform="translate(-193.937 -15.804)" fill="#fff"/>
        <path id="Path_606162" data-name="Path 606162" d="M50.039,23.52c-.859.07-1.761-.143-1.757-1.2a1.989,1.989,0,0,1,1.156-1.379,2.037,2.037,0,0,1,2.608.871c.344.978-.492,1.718-2.007,1.713" transform="translate(-36.557 -15.607)" fill="#fff"/>
        <path id="Path_606163" data-name="Path 606163" d="M23.294,23.5c-.842.1-1.717-.168-1.754-1.186a1.985,1.985,0,0,1,1.145-1.395,2.014,2.014,0,0,1,2.606.848c.351,1.022-.428,1.736-2,1.732" transform="translate(-16.302 -15.584)" fill="#fff"/>
        <path id="Path_606164" data-name="Path 606164" d="M76.776,23.744c-1,.047-1.866-.073-1.954-1.275-.065-.886.62-1.371,1.849-1.382,1.258-.011,2.105.532,2,1.38-.136,1.125-.957,1.364-1.9,1.277" transform="translate(-56.657 -15.835)" fill="#fff"/>
        <path id="Path_606165" data-name="Path 606165" d="M69.335,107.859c.456-.508.7-1.011,1.077-1.136a2.216,2.216,0,0,1,1.342.206c.274.106.438.468.7.651a1.055,1.055,0,0,0,1.715-.412,2.434,2.434,0,0,0-.378-1.661c-.111-.219-.648-.257-1-.311a3.808,3.808,0,0,1-3.488-3.164,3.922,3.922,0,0,1,1.869-4.023c.321-.224.468-.682.765-.956.359-.332.791-.806,1.194-.808s.835.471,1.2.8c.391.355.707.791,1.07,1.178a10.279,10.279,0,0,1,.932.942A1.238,1.238,0,0,1,76.169,101a1.22,1.22,0,0,1-1.822-.167,2.852,2.852,0,0,0-.616-.564c-.744-.387-1.476-.171-1.68.572-.128.466.24,1.124.521,1.619.106.186.592.174.909.219a3.9,3.9,0,0,1,3.412,2.828,3.985,3.985,0,0,1-1.71,4.331c-.356.25-.543.727-.867,1.039s-.717.748-1.1.772a1.978,1.978,0,0,1-1.185-.63,14.5,14.5,0,0,1-1.265-1.439c-.447-.529-.886-1.065-1.429-1.719" transform="translate(-52.415 -72.761)" fill="#fff"/>
      </g>
    </g>
  </g>
</svg>
