<svg xmlns="http://www.w3.org/2000/svg" xmlns:xlink="http://www.w3.org/1999/xlink" width="190" height="161" viewBox="0 0 190 161">
  <defs>
    <clipPath id="clip-path">
      <rect id="Rectangle_375651" data-name="Rectangle 375651" width="150.937" height="150.941" fill="none"/>
    </clipPath>
  </defs>
  <g id="Group_1071561" data-name="Group 1071561" transform="translate(-390 -6929)">
    <rect id="Rectangle_377675" data-name="Rectangle 377675" width="190" height="161" transform="translate(390 6929)" fill="none"/>
    <g id="Group_1071559" data-name="Group 1071559" transform="translate(410 6934)">
      <g id="Group_1015957" data-name="Group 1015957" clip-path="url(#clip-path)">
        <path id="Path_606253" data-name="Path 606253" d="M5.466,103.7a5.88,5.88,0,0,0-.439,2.7c.009,12.325.055,24.651-.041,36.975-.017,2.122.636,2.648,2.692,2.685,2.184.039,2.5-.893,2.413-2.7-.109-2.342-.037-4.694-.019-7.042.013-1.651.755-2.837,2.489-2.849s2.508,1.155,2.524,2.812c.024,2.515.143,5.04-.03,7.543-.151,2.194,1.074,2.174,2.639,2.183,1.525.009,2.527-.1,2.472-2.1-.127-4.608-.031-9.222-.044-13.833-.005-1.893-.13-4.09,2.455-4.12,2.779-.032,2.585,2.278,2.583,4.24-.007,4.528.1,9.059-.048,13.582-.072,2.128.968,2.21,2.6,2.244,1.739.036,2.565-.283,2.527-2.316-.124-6.537-.07-13.079-.033-19.619.014-2.448,1.54-3.776,3.365-3.053,1.535.608,1.663,1.92,1.659,3.327-.016,6.372.069,12.746-.051,19.116-.038,2,.565,2.581,2.548,2.566,1.931-.015,2.686-.486,2.573-2.541-.171-3.093-.027-6.2-.05-9.3-.014-1.821.562-3.282,2.609-3.236,1.889.042,2.445,1.448,2.433,3.163-.021,2.934.032,5.87-.019,8.8-.03,1.761-.192,3.165,2.47,3.151,2.491-.013,2.782-1.095,2.587-3.03a11.218,11.218,0,0,1,.008-2.01c.124-1.552.943-2.57,2.537-2.544s2.359,1.077,2.465,2.626c.011.167-.011.338.012.5.187,1.377-.707,3.4.5,4.012,1.817.917,4.1.352,6.179.263.921-.039.844-.882.86-1.545a33.961,33.961,0,0,1,.093-3.766,2.292,2.292,0,0,1,2.425-2.105,2.337,2.337,0,0,1,2.441,2.1,14.542,14.542,0,0,1,.077,2.509c.016,2.731,1.443,3.7,4.127,2.866,1.182-.365.889-1.283.892-2.055.025-5.617.016-11.235.012-16.852a4.019,4.019,0,0,1,.538-2.656,2.3,2.3,0,0,1,2.664-.9c1.419.454,1.837,1.567,1.834,2.95-.011,5.618.076,11.237-.045,16.852-.043,2.009.423,2.789,2.607,2.768,2.04-.021,2.594-.673,2.5-2.613-.141-3.1-.021-6.2-.043-9.305-.013-1.712.533-3.124,2.42-3.175,2.045-.055,2.633,1.4,2.621,3.224-.022,3.27.1,6.544-.043,9.808-.094,2.114,1.133,2,2.554,2s2.676.11,2.549-2c-.15-2.507-.036-5.029-.032-7.544,0-1.755.734-3.029,2.615-2.975,1.733.049,2.408,1.293,2.41,2.931,0,2.516.116,5.038-.032,7.544C97.955,146,99.1,146.047,100.582,146c1.372-.042,2.724.2,2.592-1.957-.143-2.339,0-4.694-.041-7.041-.029-1.862.356-3.557,2.58-3.512s2.5,1.8,2.468,3.627c-.038,2.179.114,4.369-.045,6.537-.143,1.959.648,2.6,2.462,2.331a3.412,3.412,0,0,1,.5,0c4.406.012,4.435.013,4.606-4.407.067-1.734.654-3.072,2.54-3.064s2.528,1.357,2.5,3.089c-.007.5,0,1.006,0,1.509.01,2.705,1.488,3.692,4.141,2.844,1.174-.376.872-1.3.876-2.066.026-5.617.017-11.235.012-16.853a3.968,3.968,0,0,1,.547-2.652A2.305,2.305,0,0,1,129,123.5c1.418.465,1.822,1.582,1.819,2.962-.011,5.618.079,11.237-.047,16.852-.045,2.032.467,2.759,2.624,2.752,2.073-.007,2.569-.72,2.486-2.63-.133-3.1-.021-6.2-.04-9.305-.011-1.716.548-3.12,2.437-3.158,2.047-.043,2.617,1.421,2.6,3.241-.023,3.27.1,6.544-.043,9.808-.094,2.131,1.168,1.968,2.57,1.984,1.444.017,2.66.073,2.533-2.02-.151-2.506-.039-5.028-.032-7.544.006-1.758.752-3.024,2.631-2.958,1.732.06,2.4,1.311,2.4,2.947q0,5.786,0,11.571c0,1.927-.943,2.967-2.9,3.011-.586.014-1.173.006-1.76.006H4.659c-4.207,0-4.656-.436-4.656-4.536Q0,75.546,0,4.613c0-.419.009-.839,0-1.258C-.036,1.524.6.082,2.641.155c1.886.068,2.4,1.492,2.4,3.2q-.023,14.338,0,28.675Q5.058,54.415,5.1,76.8q-.03,2.673-.061,5.348.015,6.81.031,13.619c.152,2.645-.526,5.331.4,7.937" transform="translate(0 -0.076)" fill="#c5c7ca"/>
        <path id="Path_606254" data-name="Path 606254" d="M10.007,131.621q.03-2.675.061-5.348c5.094-1.89,10.211-3.722,15.269-5.7a4.38,4.38,0,0,1,5.044.818c2.515,2.207,5.278,4.13,7.8,6.33,1.335,1.165,2.114,1.226,3.424-.131,5.121-5.305,10.389-10.467,15.6-15.682,1.059-1.06,2.015-2.371,3.815-1.884,1.872.506,1.894,2.223,2.139,3.646,1.26,7.332,2.495,14.669,3.6,22.026.3,2.014.888,1.513,1.922.6q6.851-6.085,13.738-12.13c1.736-1.86,3.786-1.848,5.976-1,2.988,1.035,6.016,1.971,8.949,3.145,1.61.645,2.392.408,3.348-1.14,4.787-7.747,9.737-15.393,14.633-23.072,1.989-3.119,3.939-3.075,5.709.134,1.291,2.341,2.56,4.694,3.838,7.041.921,1.639,1.554,3.447,2.84,4.875a107.934,107.934,0,0,0,5.073,9.612c1.551-4.255,3.074-7.736,4.032-11.428a17.862,17.862,0,0,0,1.866-4.953c.691-1.79,1.425-3.564,2.062-5.373.6-1.7,1.721-2.567,3.449-1.954,1.789.635,1.919,2.1,1.348,3.732-.8,2.282-1.577,4.574-2.364,6.862a20.5,20.5,0,0,0-1.812,4.99q-2.6,7.018-5.2,14.035c-.494,1.323-.891,2.763-2.689,2.9-1.781.133-2.414-1.176-3.11-2.431q-2.965-5.348-5.95-10.684a21.1,21.1,0,0,0-2.733-5.016l-3.649-7.02c-4.941,7.738-9.659,15.135-14.388,22.526-1.893,2.96-2.375,3.1-5.73,1.97-2.29-.77-4.6-1.483-6.9-2.222-.849-.337-1.707-.654-2.545-1.016-1.453-.628-2.655-.815-4.023.533-2.91,2.866-6.051,5.5-9.1,8.225-2.665,2.29-5.3,4.619-8,6.856-1.971,1.629-3.884.981-4.52-1.463-.23-.886-.333-1.805-.485-2.711-1.225-7.29-2.448-14.58-3.68-21.918-1.037.278-1.466,1.051-2.037,1.617-4.638,4.6-9.279,9.2-13.85,13.861-1.663,1.7-3.148,1.841-5,.276-2.294-1.942-4.737-3.709-7.115-5.552-1.662-1.175-2.7-3.986-5.526-2.109C20,127.8,15.2,130.266,10.007,131.621" transform="translate(-4.969 -49.55)" fill="#51a972"/>
        <path id="Path_606255" data-name="Path 606255" d="M121.612,128.876a21.106,21.106,0,0,1,2.733,5.016q-11.6,17.753-23.2,35.5c-.854,1.307-1.472,2.989-3.5,2.721-1.862-.246-2.142-1.894-2.678-3.283-3.181-8.251-6.363-16.5-9.755-25.3-2.446,5.366-4.676,10.25-6.9,15.138q-7.624,16.776-15.238,33.557c-.562,1.238-1.1,2.516-2.75,2.557-1.793.045-2.352-1.316-2.923-2.651-4.073-9.526-8.172-19.039-12.2-28.584-.638-1.512-1.1-2.055-2.416-.558-1.492,1.693-3.168,3.224-4.773,4.817-2.971,2.948-4.689,2.444-5.887-1.646-1.644-5.609-3.349-11.2-5.027-16.8-.159-.529-.073-1.329-.8-1.336-.358,0-.774.561-1.076.939q-7.441,9.317-14.856,18.656c-.924-2.606-.246-5.292-.4-7.937,5.2-6.186,10.322-12.435,15.1-18.961,2.827-1.876,3.865.934,5.526,2.11l5.716,19.737c2.3-2.395,4.074-4.287,5.9-6.129,2.8-2.831,4.338-2.555,5.881,1.039q5.531,12.891,11.058,25.784c.339.785.41,1.782,1.392,2.269q7.188-15.8,14.332-31.516a2.707,2.707,0,0,0,.411-2.15c3.047-2.728,6.187-5.359,9.1-8.226,1.368-1.348,2.57-1.161,4.023-.533.838.362,1.7.68,2.545,1.017,2.48,6.531,4.961,13.063,7.594,20,.875-1.332,1.468-2.232,2.058-3.134l21.013-32.116" transform="translate(-4.903 -63.998)" fill="#e02f34"/>
        <path id="Path_606256" data-name="Path 606256" d="M150.291,27.773A27.672,27.672,0,1,1,123.035,0a27.643,27.643,0,0,1,27.256,27.772m-5.032-.073a22.64,22.64,0,1,0-22.725,22.612A22.8,22.8,0,0,0,145.259,27.7" transform="translate(-47.149 0)" fill="#fea524"/>
        <path id="Path_606257" data-name="Path 606257" d="M270.939,110.75a20.507,20.507,0,0,1,1.812-4.99l3.59,2.577c.941-3.695,1.815-7.114,2.683-10.534.472-1.862.93-3.728,1.4-5.589.41-1.61,1.42-2.558,3.1-2.166s2.221,1.69,1.822,3.306c-1.6,6.486-3.187,12.976-4.887,19.436-.633,2.406-2.318,2.954-4.4,1.58-1.744-1.153-3.42-2.409-5.126-3.62" transform="translate(-134.544 -44.672)" fill="#e02f34"/>
        <path id="Path_606258" data-name="Path 606258" d="M241.014,116.714c-1.287-1.427-1.92-3.235-2.84-4.875,1.145-1.746,2.309-3.481,3.429-5.243,1.2-1.88,2.663-2.095,4.439-.834,1.975,1.4,3.962,2.79,5.944,4.184a17.841,17.841,0,0,1-1.866,4.953c-1.342-.956-2.734-1.852-4.012-2.887-.975-.79-1.577-.816-2.251.354-.863,1.5-1.888,2.9-2.843,4.348" transform="translate(-118.274 -52.125)" fill="#e02f34"/>
        <path id="Path_606259" data-name="Path 606259" d="M159.822,143.125c-2.19-.844-4.24-.856-5.976,1,.021-1.989.634-3.746,2.789-4.088s2.66,1.491,3.186,3.084" transform="translate(-76.398 -69.522)" fill="#e02f34"/>
        <path id="Path_606260" data-name="Path 606260" d="M150.224,32.665A22.64,22.64,0,1,1,127.777,10a22.757,22.757,0,0,1,22.446,22.667m-22.6,17.57c1.039-.14,2.2-.6,2.136-1.51-.218-3.129,1.81-4.693,3.863-6.352a3.364,3.364,0,0,0,.769-1.279c2.318-5.256-.59-10.312-6.361-10.948-1.626-.179-2.922-.751-2.874-2.468.048-1.751,1.3-2.595,3.067-2.587,1.173.006,2.347-.022,3.52.005,1.8.041,3.3-.478,3.31-2.532.01-1.886-1.352-2.588-3.079-2.488-1.414.082-1.979-.455-1.893-1.881.1-1.726-.591-3.093-2.476-3.091-2.051,0-2.657,1.5-2.521,3.3a2.572,2.572,0,0,1-1.587,2.762,6.854,6.854,0,0,0-3.448,5.793c-.354,4.448,2.357,7.672,6.959,8.169,1.753.19,3.013.932,3,2.677-.019,1.877-1.484,2.422-3.189,2.387-1.173-.024-2.347.016-3.519-.008-1.711-.035-3.107.521-3.186,2.408s1.2,2.7,2.954,2.6c1.529-.082,2.12.471,2.026,2.015a2.564,2.564,0,0,0,2.534,3.029" transform="translate(-52.114 -4.965)" fill="#ffc826"/>
        <path id="Path_606261" data-name="Path 606261" d="M142.5,55.271a2.564,2.564,0,0,1-2.534-3.029c.094-1.544-.5-2.1-2.026-2.015-1.754.094-3.033-.729-2.954-2.6s1.475-2.443,3.186-2.408c1.172.024,2.346-.017,3.519.008,1.705.035,3.17-.51,3.189-2.387.018-1.745-1.242-2.487-3-2.677-4.6-.5-7.313-3.721-6.959-8.169a6.854,6.854,0,0,1,3.448-5.793,2.572,2.572,0,0,0,1.587-2.762c-.136-1.8.47-3.293,2.521-3.3,1.885,0,2.579,1.365,2.476,3.091-.086,1.426.479,1.963,1.893,1.881,1.727-.1,3.089.6,3.079,2.488-.011,2.054-1.511,2.573-3.31,2.532-1.173-.027-2.346,0-3.52-.005-1.764-.008-3.019.836-3.067,2.587-.047,1.718,1.249,2.289,2.874,2.468,5.771.636,8.678,5.693,6.361,10.948a3.363,3.363,0,0,1-.769,1.279c-2.053,1.658-4.081,3.222-3.863,6.352.063.914-1.1,1.37-2.136,1.51" transform="translate(-66.986 -10.001)" fill="#fea524"/>
      </g>
    </g>
  </g>
</svg>
