<svg xmlns="http://www.w3.org/2000/svg" width="111.117" height="16.359" viewBox="0 0 111.117 16.359">
  <path id="Path_609156" data-name="Path 609156" d="M12.977,10.375a11.9,11.9,0,0,1,.484-3.426,9.4,9.4,0,0,1,1.422-2.9,5.646,5.646,0,0,1,1.984-1.793l.375,1.109a5.8,5.8,0,0,0-1.785,2.551,11.424,11.424,0,0,0-.746,3.926l-.008.672a12.42,12.42,0,0,0,.668,4.223,6.224,6.224,0,0,0,1.871,2.824l-.375,1.055a5.655,5.655,0,0,1-1.988-1.8,9.4,9.4,0,0,1-1.422-2.9A12.374,12.374,0,0,1,12.977,10.375ZM23.547,15H21.656V5.862l-2.789.951V5.219L23.3,3.586h.242Zm8.461-6.258h2.969v1.734H32.008v3.383H30.164V10.477H27.18V8.742h2.984V5.578h1.844Zm11.82,1.469a6.2,6.2,0,0,1-.918,3.7,3.242,3.242,0,0,1-2.793,1.246,3.285,3.285,0,0,1-2.777-1.215,5.94,5.94,0,0,1-.957-3.6V8.375A6.11,6.11,0,0,1,37.3,4.7a3.272,3.272,0,0,1,2.8-1.227,3.291,3.291,0,0,1,2.785,1.2,5.923,5.923,0,0,1,.941,3.578Zm-1.9-2.125a4.813,4.813,0,0,0-.437-2.348A1.672,1.672,0,0,0,38.735,5.7a4.448,4.448,0,0,0-.461,2.207v2.578a4.937,4.937,0,0,0,.445,2.375,1.5,1.5,0,0,0,1.4.781,1.469,1.469,0,0,0,1.352-.723,4.645,4.645,0,0,0,.461-2.262ZM45.9,17.563l-1.023-.609a5.521,5.521,0,0,0,.621-1.238,3.7,3.7,0,0,0,.176-1.074V13.164h1.711l-.008,1.367a3.81,3.81,0,0,1-.418,1.66A4.124,4.124,0,0,1,45.9,17.563ZM54.164,15H52.274V5.862l-2.789.951V5.219l4.438-1.633h.242Zm11.367-4.789a6.2,6.2,0,0,1-.918,3.7,3.242,3.242,0,0,1-2.793,1.246,3.285,3.285,0,0,1-2.777-1.215,5.94,5.94,0,0,1-.957-3.6V8.375A6.11,6.11,0,0,1,59,4.7a3.827,3.827,0,0,1,5.586-.031,5.924,5.924,0,0,1,.941,3.578Zm-1.9-2.125A4.813,4.813,0,0,0,63.2,5.738,1.672,1.672,0,0,0,60.438,5.7a4.448,4.448,0,0,0-.461,2.207v2.578a4.937,4.937,0,0,0,.445,2.375,1.5,1.5,0,0,0,1.4.781,1.469,1.469,0,0,0,1.352-.723,4.645,4.645,0,0,0,.461-2.262ZM70.992,10.5a11.754,11.754,0,0,1-.477,3.348,9.485,9.485,0,0,1-1.445,2.938,5.66,5.66,0,0,1-2.023,1.832l-.375-1.055a6,6,0,0,0,1.855-2.77,12.3,12.3,0,0,0,.684-4.254v-.18A12.484,12.484,0,0,0,68.617,6.4a6.98,6.98,0,0,0-1.7-2.863l-.242-.219.375-1.062a5.6,5.6,0,0,1,1.938,1.719,9.326,9.326,0,0,1,1.438,2.762,11.5,11.5,0,0,1,.563,3.152Zm2.785-4.323h.674a1.207,1.207,0,0,0,.809-.264.943.943,0,0,0,.3-.752,1.028,1.028,0,0,0-.248-.736,1,1,0,0,0-.759-.262,1.057,1.057,0,0,0-.734.257.86.86,0,0,0-.287.672H72.424a1.676,1.676,0,0,1,.271-.93,1.822,1.822,0,0,1,.756-.654,2.464,2.464,0,0,1,1.087-.235,2.282,2.282,0,0,1,1.561.5,1.751,1.751,0,0,1,.567,1.388A1.41,1.41,0,0,1,76.382,6a1.786,1.786,0,0,1-.736.595,1.628,1.628,0,0,1,.832.588,1.609,1.609,0,0,1,.285.957,1.782,1.782,0,0,1-.613,1.422,2.691,2.691,0,0,1-3.179.018,1.681,1.681,0,0,1-.611-1.358h1.107a.926.926,0,0,0,.294.711,1.115,1.115,0,0,0,.791.273,1.15,1.15,0,0,0,.811-.273,1.026,1.026,0,0,0,.3-.793,1.036,1.036,0,0,0-.31-.807,1.325,1.325,0,0,0-.921-.283h-.652Zm15.379,2.73H82.422V7.328h6.734Zm0,3.313H82.422v-1.57h6.734ZM100.219,15H98.328V5.862l-2.789.951V5.219l4.438-1.633h.242Zm4.344,2.563-1.023-.609a5.52,5.52,0,0,0,.621-1.238,3.7,3.7,0,0,0,.176-1.074V13.164h1.711l-.008,1.367a3.81,3.81,0,0,1-.418,1.66A4.124,4.124,0,0,1,104.562,17.563Zm5.32-9.117h1.156a2.069,2.069,0,0,0,1.387-.453,1.617,1.617,0,0,0,.512-1.289,1.762,1.762,0,0,0-.426-1.262,1.714,1.714,0,0,0-1.3-.449,1.813,1.813,0,0,0-1.258.441,1.475,1.475,0,0,0-.492,1.152h-1.9a2.873,2.873,0,0,1,.465-1.594,3.123,3.123,0,0,1,1.3-1.121,4.225,4.225,0,0,1,1.863-.4,3.912,3.912,0,0,1,2.676.855,3,3,0,0,1,.973,2.379,2.417,2.417,0,0,1-.488,1.441,3.062,3.062,0,0,1-1.262,1.02,2.791,2.791,0,0,1,1.426,1.008A2.759,2.759,0,0,1,115,11.813a3.055,3.055,0,0,1-1.051,2.438,4.613,4.613,0,0,1-5.449.031,2.882,2.882,0,0,1-1.047-2.328h1.9a1.588,1.588,0,0,0,.5,1.219,1.911,1.911,0,0,0,1.355.469,1.971,1.971,0,0,0,1.391-.469,1.758,1.758,0,0,0,.508-1.359,1.776,1.776,0,0,0-.531-1.383A2.271,2.271,0,0,0,111,9.945h-1.117Zm9.094,0h1.156a2.069,2.069,0,0,0,1.387-.453,1.617,1.617,0,0,0,.512-1.289,1.762,1.762,0,0,0-.426-1.262,1.714,1.714,0,0,0-1.3-.449,1.813,1.813,0,0,0-1.258.441,1.475,1.475,0,0,0-.492,1.152h-1.9a2.873,2.873,0,0,1,.465-1.594,3.123,3.123,0,0,1,1.3-1.121,4.225,4.225,0,0,1,1.863-.4,3.912,3.912,0,0,1,2.676.855A3,3,0,0,1,123.93,6.7a2.417,2.417,0,0,1-.488,1.441,3.062,3.062,0,0,1-1.262,1.02,2.791,2.791,0,0,1,1.426,1.008,2.759,2.759,0,0,1,.488,1.641,3.055,3.055,0,0,1-1.051,2.438,4.613,4.613,0,0,1-5.449.031,2.882,2.882,0,0,1-1.047-2.328h1.9a1.588,1.588,0,0,0,.5,1.219,1.911,1.911,0,0,0,1.355.469,1.971,1.971,0,0,0,1.391-.469,1.758,1.758,0,0,0,.508-1.359,1.776,1.776,0,0,0-.531-1.383,2.271,2.271,0,0,0-1.578-.484h-1.117Z" transform="translate(-12.977 -2.258)" fill="#12263f"/>
</svg>
