<svg xmlns="http://www.w3.org/2000/svg" width="111.383" height="16.359" viewBox="0 0 111.383 16.359">
  <path id="Path_609157" data-name="Path 609157" d="M12.977,10.375a11.9,11.9,0,0,1,.484-3.426,9.4,9.4,0,0,1,1.422-2.9,5.646,5.646,0,0,1,1.984-1.793l.375,1.109a5.8,5.8,0,0,0-1.785,2.551,11.424,11.424,0,0,0-.746,3.926l-.008.672a12.42,12.42,0,0,0,.668,4.223,6.224,6.224,0,0,0,1.871,2.824l-.375,1.055a5.655,5.655,0,0,1-1.988-1.8,9.4,9.4,0,0,1-1.422-2.9A12.374,12.374,0,0,1,12.977,10.375ZM23.547,15H21.656V5.862l-2.789.951V5.219L23.3,3.586h.242Zm8.461-6.258h2.969v1.734H32.008v3.383H30.164V10.477H27.18V8.742h2.984V5.578h1.844Zm11.82,1.469a6.2,6.2,0,0,1-.918,3.7,3.242,3.242,0,0,1-2.793,1.246,3.285,3.285,0,0,1-2.777-1.215,5.94,5.94,0,0,1-.957-3.6V8.375A6.11,6.11,0,0,1,37.3,4.7a3.272,3.272,0,0,1,2.8-1.227,3.291,3.291,0,0,1,2.785,1.2,5.923,5.923,0,0,1,.941,3.578Zm-1.9-2.125a4.813,4.813,0,0,0-.437-2.348A1.672,1.672,0,0,0,38.735,5.7a4.448,4.448,0,0,0-.461,2.207v2.578a4.937,4.937,0,0,0,.445,2.375,1.5,1.5,0,0,0,1.4.781,1.469,1.469,0,0,0,1.352-.723,4.645,4.645,0,0,0,.461-2.262ZM45.9,17.563l-1.023-.609a5.521,5.521,0,0,0,.621-1.238,3.7,3.7,0,0,0,.176-1.074V13.164h1.711l-.008,1.367a3.81,3.81,0,0,1-.418,1.66A4.124,4.124,0,0,1,45.9,17.563ZM54.164,15H52.274V5.862l-2.789.951V5.219l4.438-1.633h.242Zm11.367-4.789a6.2,6.2,0,0,1-.918,3.7,3.242,3.242,0,0,1-2.793,1.246,3.285,3.285,0,0,1-2.777-1.215,5.94,5.94,0,0,1-.957-3.6V8.375A6.11,6.11,0,0,1,59,4.7a3.827,3.827,0,0,1,5.586-.031,5.924,5.924,0,0,1,.941,3.578Zm-1.9-2.125A4.813,4.813,0,0,0,63.2,5.738,1.672,1.672,0,0,0,60.438,5.7a4.448,4.448,0,0,0-.461,2.207v2.578a4.937,4.937,0,0,0,.445,2.375,1.5,1.5,0,0,0,1.4.781,1.469,1.469,0,0,0,1.352-.723,4.645,4.645,0,0,0,.461-2.262ZM70.992,10.5a11.754,11.754,0,0,1-.477,3.348,9.485,9.485,0,0,1-1.445,2.938,5.66,5.66,0,0,1-2.023,1.832l-.375-1.055a6,6,0,0,0,1.855-2.77,12.3,12.3,0,0,0,.684-4.254v-.18A12.484,12.484,0,0,0,68.617,6.4a6.98,6.98,0,0,0-1.7-2.863l-.242-.219.375-1.062a5.6,5.6,0,0,1,1.938,1.719,9.326,9.326,0,0,1,1.438,2.762,11.5,11.5,0,0,1,.563,3.152Zm5.25-2.865h.825v.889h-.825V10H75.135V8.524H72.269l-.032-.674L75.1,3.365h1.144Zm-2.844,0h1.736V4.864l-.082.146ZM89.156,8.906H82.422V7.328h6.734Zm0,3.313H82.422v-1.57h6.734ZM100.219,15H98.328V5.862l-2.789.951V5.219l4.438-1.633h.242Zm4.344,2.563-1.023-.609a5.52,5.52,0,0,0,.621-1.238,3.7,3.7,0,0,0,.176-1.074V13.164h1.711l-.008,1.367a3.81,3.81,0,0,1-.418,1.66A4.124,4.124,0,0,1,104.562,17.563Zm9.547-6.617h1.414v1.523h-1.414V15h-1.9V12.469H107.3l-.055-1.156,4.906-7.687h1.961Zm-4.875,0h2.977V6.2l-.141.25ZM122.687,3.57v1.57h-.234a3.768,3.768,0,0,0-2.547.875,3.661,3.661,0,0,0-1.133,2.414,3.083,3.083,0,0,1,2.336-.961,2.912,2.912,0,0,1,2.379,1.063,4.185,4.185,0,0,1,.871,2.742,3.912,3.912,0,0,1-1.02,2.809,3.519,3.519,0,0,1-2.676,1.074A3.438,3.438,0,0,1,117.9,13.9a4.948,4.948,0,0,1-1.059-3.3V9.953A6.962,6.962,0,0,1,118.3,5.266a5.224,5.224,0,0,1,4.191-1.7ZM120.648,9a2,2,0,0,0-1.145.352,2.055,2.055,0,0,0-.762.938v.578a3.405,3.405,0,0,0,.531,2.012,1.62,1.62,0,0,0,1.375.746,1.6,1.6,0,0,0,1.336-.633,2.635,2.635,0,0,0,.492-1.664,2.673,2.673,0,0,0-.5-1.68A1.594,1.594,0,0,0,120.648,9Z" transform="translate(-12.977 -2.258)" fill="#12263f"/>
</svg>
