<svg xmlns="http://www.w3.org/2000/svg" xmlns:xlink="http://www.w3.org/1999/xlink" width="190" height="36.862" viewBox="0 0 190 36.862">
  <defs>
    <clipPath id="clip-path">
      <rect id="Rectangle_375655" data-name="Rectangle 375655" width="185.349" height="36.508" fill="#304c8e"/>
    </clipPath>
  </defs>
  <g id="Group_1071722" data-name="Group 1071722" transform="translate(-390 -6148)">
    <g id="Group_1015966" data-name="Group 1015966" transform="translate(390 6148)">
      <g id="Group_1015965" data-name="Group 1015965" transform="translate(0 0)" clip-path="url(#clip-path)">
        <path id="Path_606263" data-name="Path 606263" d="M12.195,36.082l-.954-3.143L4.95,14.827,0,.914Q3.5.967,6.229.965,7.9.965,11.48.914q.594,2.3.929,3.48.465,1.547,1.755,5.6l3.795,12.195q.568,1.907,1.395,4.976L20.538,24.2,29.522,4.5q.232-.541.527-1.237t.94-2.346Q34.726.967,37,.965q1.417,0,5.62-.051-2.627,4.9-5.948,11.439L27.783,29.976Q26.5,32.553,24.9,36.082q-4.33-.052-6.185-.051-1.727,0-6.519.051" transform="translate(0 -0.244)" fill="#304c8e"/>
        <path id="Path_606264" data-name="Path 606264" d="M51.82,36.082l2.14-3.71,13.327-25.1L68.7,4.469q.619-1.237,1.727-3.555,4.533.053,6.621.051,3.632,0,6.723-.051l3.76,10.744L95.182,32.32l1.494,3.762q-4.462-.052-5.416-.051-2.167,0-6.371.051-1.132-4.251-3.267-10H68.654q-2.24,4.535-4.634,10-4.8-.052-5.88-.051-1.961,0-6.319.051M71.768,18.588h8q-2.985-9.079-3.267-10-1.7,3.782-2.883,6.2Z" transform="translate(-13.843 -0.244)" fill="#304c8e"/>
        <path id="Path_606265" data-name="Path 606265" d="M116.754,36.082l.515-5.411,1-18.344.284-7.395V.914q4,.053,7.071.051,2.193,0,6.167-.051l11,20,1.516,2.938q.29-4.33.594-12.14t.3-10.8q3.165.053,5.07.051.875,0,5.045-.051L154.7,8.591l-1.159,21.333-.155,6.157q-3.352-.052-6.265-.051-2.424,0-6.7.051-1.339-2.525-1.982-3.66l-4.323-7.346q-2.136-3.608-3.937-6.907Q129,16.08,127.737,13.581L127.183,25.8l-.264,10.284q-3.191-.052-4.864-.051-1.416,0-5.3.051" transform="translate(-31.19 -0.244)" fill="#304c8e"/>
      </g>
    </g>
    <path id="Path_608895" data-name="Path 608895" d="M-7891-5548.875l15.154,16.362L-7891-5517.93" transform="translate(8417.914 11700)" fill="none" stroke="#707070" stroke-width="1"/>
    <path id="Path_608896" data-name="Path 608896" d="M-7888.295-5515.492l13.872-13.82" transform="translate(8417.914 11700)" fill="none" stroke="#707070" stroke-width="1"/>
    <path id="Path_608897" data-name="Path 608897" d="M227.172,0a16.879,16.879,0,0,1,7.485,1.623,11.246,11.246,0,0,1,5.2,5.552,21.376,21.376,0,0,1,1.867,9.262,30.556,30.556,0,0,1-1.146,8.271,18.572,18.572,0,0,1-3.118,6.583,12.9,12.9,0,0,1-5.192,3.852,17.443,17.443,0,0,1-6.879,1.365,16.8,16.8,0,0,1-5.848-1,12.021,12.021,0,0,1-4.792-3.272,12.7,12.7,0,0,1-2.886-5.372,25.764,25.764,0,0,1-.824-6.635,31.2,31.2,0,0,1,1.147-8.4A18.855,18.855,0,0,1,215.4,5.1a12.361,12.361,0,0,1,5.178-3.852,17.558,17.558,0,0,1,6.6-1.25m-.18,7.626a3.493,3.493,0,0,0-2.164.721,5.912,5.912,0,0,0-1.829,2.4,17.509,17.509,0,0,0-1.237,4.2,32.682,32.682,0,0,0-.464,5.72,16.66,16.66,0,0,0,.516,4.522,5.95,5.95,0,0,0,1.559,2.769,3.444,3.444,0,0,0,2.435.979,3.591,3.591,0,0,0,1.507-.335,4.585,4.585,0,0,0,1.546-1.34,9.19,9.19,0,0,0,1.43-2.885,22.345,22.345,0,0,0,.9-3.93,30.3,30.3,0,0,0,.284-4.16,13.644,13.644,0,0,0-1.211-6.519,3.661,3.661,0,0,0-3.272-2.138" transform="translate(338.271 6148)" fill="#304c8e"/>
  </g>
</svg>
