<svg id="Group_1015968" data-name="Group 1015968" xmlns="http://www.w3.org/2000/svg" xmlns:xlink="http://www.w3.org/1999/xlink" width="190" height="189.992" viewBox="0 0 190 189.992">
  <defs>
    <clipPath id="clip-path">
      <rect id="Rectangle_375656" data-name="Rectangle 375656" width="190" height="189.992" fill="none"/>
    </clipPath>
  </defs>
  <g id="Group_1015967" data-name="Group 1015967" clip-path="url(#clip-path)">
    <path id="Path_606267" data-name="Path 606267" d="M243.487,230.281l-53.879.007c-.476-1.288-.865-2.616-1.443-3.856q-6.8-14.594-13.658-29.157a13.59,13.59,0,0,1-1.522-8.019c.981-6.066,5.408-10.14,8.711-14.937.357,2.2.147,4.3.416,6.329a3.423,3.423,0,0,0,3.9,3.234,3.676,3.676,0,0,0,3.479-3.764c.048-.789.017-1.583.018-2.374q0-31.312,0-62.624c0-.792-.049-1.588.022-2.373a5.25,5.25,0,0,1,5.171-4.731,5.18,5.18,0,0,1,4.868,4.707c.084.883.032,1.779.033,2.67q0,25.524,0,51.048c0,3.495,1.3,5.206,3.86,5.179,2.524-.027,3.786-1.757,3.8-5.266.014-5.045.005-10.091,0-15.136a4.763,4.763,0,0,1,.782-3.37c1.424-1.671,3.05-2.864,5.393-2.129a5.139,5.139,0,0,1,3.893,5.309c.024,5.54-.007,11.08.028,16.62.014,2.3,1.131,3.786,3.521,3.935,2.422.151,3.6-1.294,3.959-3.519a15.333,15.333,0,0,0,.085-2.368q.012-7.271.005-14.542c0-1.87.432-3.53,2.1-4.623a4.612,4.612,0,0,1,5-.476A5.233,5.233,0,0,1,235,151.111c.037,5.441.01,10.883.032,16.324.01,2.4,1.031,4.015,3.609,4.16,2.374.133,3.759-1.383,3.818-4.223.065-3.164-.015-6.332.031-9.5.034-2.308.759-4.3,3.049-5.317,3.577-1.593,7.049.9,7.07,5.206.052,10.585-.007,21.171,0,31.757a72.519,72.519,0,0,1-2.86,20.148c-1.983,6.9-4.166,13.745-6.261,20.614" transform="translate(-70.194 -43.864)" fill="#fdc18a"/>
    <path id="Path_606268" data-name="Path 606268" d="M238.223,186.418c2.1-6.869,4.278-13.713,6.261-20.614a72.52,72.52,0,0,0,2.86-20.148c-.005-10.586.053-21.172,0-31.757-.021-4.309-3.494-6.8-7.07-5.206-2.29,1.02-3.014,3.009-3.049,5.317-.046,3.166.034,6.333-.031,9.5-.059,2.839-1.444,4.356-3.818,4.223-2.578-.144-3.6-1.761-3.609-4.16-.022-5.441,0-10.882-.032-16.324a5.233,5.233,0,0,0-2.964-5.055,4.612,4.612,0,0,0-5,.476c-1.664,1.093-2.1,2.753-2.1,4.623q.015,7.271-.005,14.542a15.333,15.333,0,0,1-.085,2.368c-.356,2.225-1.537,3.67-3.959,3.519-2.39-.149-3.506-1.633-3.521-3.935-.035-5.54,0-11.08-.028-16.62a5.139,5.139,0,0,0-3.893-5.309c-2.343-.735-3.97.458-5.393,2.129a4.763,4.763,0,0,0-.782,3.37c0,5.045.01,10.091,0,15.136-.01,3.509-1.272,5.238-3.8,5.266-2.559.027-3.858-1.684-3.86-5.179q-.012-25.524,0-51.048c0-.89.052-1.786-.033-2.67a5.181,5.181,0,0,0-4.868-4.707,5.25,5.25,0,0,0-5.171,4.731c-.071.785-.022,1.582-.022,2.373q0,31.312,0,62.624c0,.791.03,1.585-.018,2.374a3.676,3.676,0,0,1-3.479,3.764,3.423,3.423,0,0,1-3.9-3.234c-.269-2.033-.059-4.129-.416-6.329-3.3,4.8-7.73,8.871-8.711,14.937a13.589,13.589,0,0,0,1.522,8.019q6.853,14.567,13.658,29.157c.578,1.24.966,2.569,1.443,3.856-.479,1.994-1.509,3.458-3.74,3.562-2.276.107-3.263-1.5-4.09-3.269-4.717-10.066-9.526-20.089-14.124-30.209-3.487-7.674-2.853-15.141,1.9-22.174,3.7-5.476,7.383-10.967,11.169-16.385a6.234,6.234,0,0,0,1.225-3.818c-.041-9-.072-18.007.021-27.009.02-1.895-.428-2.636-2.427-2.475a15.783,15.783,0,0,1-6.451-.589,11.263,11.263,0,0,1-7.9-10.693q-.076-31.016,0-62.033A11.254,11.254,0,0,1,171.261.046q31.013-.092,62.026.005A10.889,10.889,0,0,1,244.3,10c.413,5.808.222,11.661.2,17.495-.009,2.393-1.7,3.392-3.774,3.9-2.7-.7-3.788-2.394-3.692-5.209.151-4.446.054-8.9.036-13.352-.016-4-1.294-5.331-5.322-5.336q-29.521-.033-59.044,0c-4.125,0-5.318,1.189-5.323,5.291q-.034,29.525,0,59.051c.005,4.442,1.309,5.257,6.787,5.408,4.434.122,1.9-3.062,2.45-4.735a12.217,12.217,0,0,0,.064-2.95c.411-7.308,5.153-12.387,11.848-12.716,6.917-.34,12.3,4.078,13.3,11.154a37.661,37.661,0,0,1,.113,7.108c-.086,1.7.486,2.139,2.146,2.126,9.4-.075,18.791-.01,28.186-.051,3.31-.014,4.761-1.57,4.786-5,.035-4.649.076-9.3-.017-13.946-.053-2.665.943-4.356,3.636-4.878,2.926.378,3.924,2.214,3.894,4.964-.051,4.647.04,9.3-.027,13.944-.11,7.658-4.752,12.339-12.409,12.4-9.2.078-18.393.084-27.588-.03-2.054-.026-2.769.473-2.611,2.583.19,2.541.045,5.107.045,7.8,4.718-1.152,9.049-1.134,12.826,1.934.95.771,1.481.361,2.3-.162,7.031-4.517,14.167-3.01,18.55,4.013.7,1.123,1.112,1.1,2.231.768,9.339-2.8,16.983,2.883,17,12.582.018,9.988-.1,19.979.03,29.965.158,12.319-2.97,23.975-6.777,35.519-.738,2.238-1.476,4.477-2.143,6.736-.571,1.938-1.489,3.514-3.734,3.606-2.415.1-3.483-1.483-4.048-3.564" transform="translate(-64.93 0)" fill="#0c0e0e"/>
    <path id="Path_606269" data-name="Path 606269" d="M58.495,85.988,51.4,85.968c-.665-1.985-1.639-3.686-4.078-3.57-2.221.106-3.289,1.532-3.672,3.591l-7.089-.02c-.731-2.7-2.469-3.74-5.272-3.639-4.346.157-8.7.052-13.055.038-4.234-.013-5.52-1.246-5.523-5.415q-.022-29.529,0-59.057c0-4.031,1.09-5.141,5.068-5.145q29.673-.029,59.346,0c3.85,0,5.188,1.335,5.191,5.144q.026,29.529,0,59.057c0,3.928-1.451,5.391-5.321,5.413-4.55.026-9.1.074-13.649-.02-2.667-.055-4.375.912-4.86,3.643M60.46,64.134a3.191,3.191,0,0,0,3.382-2.069,3.927,3.927,0,0,0-.9-4.376c-2.869-2.858-5.645-5.815-8.609-8.57-1.392-1.294-1.256-2.06.042-3.277,2.808-2.634,5.494-5.4,8.191-8.148,1.861-1.9,2.07-4.224.608-5.769-1.656-1.75-3.756-1.617-5.927.5-2.829,2.757-5.642,5.535-8.362,8.4-1.039,1.094-1.694,1.191-2.78.048-2.72-2.864-5.538-5.636-8.372-8.388-2.2-2.138-4.274-2.314-5.94-.636s-1.475,3.723.675,5.932c2.618,2.689,5.193,5.436,7.986,7.934,1.642,1.469,1.377,2.3-.084,3.644C37.611,51.893,35,54.6,32.384,57.288c-2.116,2.174-2.244,4.265-.486,5.925,1.552,1.465,3.862,1.255,5.764-.611,2.749-2.7,5.514-5.383,8.148-8.191,1.212-1.292,1.985-1.456,3.277-.056,2.611,2.828,5.424,5.47,8.138,8.2a4,4,0,0,0,3.234,1.575" transform="translate(-5.159 -5.172)" fill="#e3464e"/>
    <path id="Path_606270" data-name="Path 606270" d="M245.8,58.473c-2.693.523-3.689,2.213-3.636,4.878.093,4.647.052,9.3.017,13.946-.026,3.433-1.476,4.988-4.786,5-9.4.04-18.791-.024-28.186.05-1.661.013-2.231-.425-2.146-2.126a37.656,37.656,0,0,0-.113-7.107c-1-7.075-6.385-11.494-13.3-11.154-6.7.329-11.437,5.408-11.848,12.716a12.218,12.218,0,0,1-.064,2.95c-.546,1.673,1.984,4.858-2.45,4.735-5.478-.151-6.782-.966-6.787-5.408q-.037-29.526,0-59.051c0-4.1,1.2-5.286,5.323-5.291q29.522-.034,59.044,0c4.028,0,5.306,1.332,5.322,5.335.018,4.451.115,8.906-.036,13.352-.1,2.815.992,4.513,3.693,5.209q-.021,3.561-.043,7.123c-2.033.422-3.5,1.482-3.575,3.7-.078,2.407,1.606,3.4,3.623,4.015q-.024,3.564-.048,7.129m-40.623-1.665a3.676,3.676,0,0,0,2.889-1.227c6.988-6.971,13.987-13.931,20.924-20.952a3.449,3.449,0,0,0,0-5.256c-1.538-1.572-3.347-1.474-5.052-.139a19.693,19.693,0,0,0-1.712,1.63c-4.887,4.883-9.892,9.656-14.6,14.709-1.95,2.094-3.081,1.9-4.745-.119a64.782,64.782,0,0,0-4.989-5.053c-1.719-1.665-3.615-2.05-5.514-.348-1.75,1.567-1.617,3.616.373,5.662,3.166,3.254,6.387,6.456,9.611,9.653a3.945,3.945,0,0,0,2.815,1.439" transform="translate(-70.042 -5.115)" fill="#64c4f2"/>
    <path id="Path_606271" data-name="Path 606271" d="M53.335,80.829c.485-2.73,2.193-3.7,4.861-3.643,4.548.094,9.1.046,13.649.02,3.869-.021,5.318-1.484,5.321-5.413q.019-29.529,0-59.057c0-3.811-1.341-5.141-5.191-5.144q-29.674-.029-59.347,0c-3.978,0-5.064,1.114-5.068,5.145q-.026,29.528,0,59.057c0,4.169,1.289,5.4,5.523,5.415,4.352.014,8.708.119,13.055-.038,2.8-.1,4.54.937,5.271,3.639-.586,2.948-2.465,3.99-5.356,3.922-4.548-.107-9.1.023-13.652-.04C4.576,84.581.007,79.876,0,71.993Q0,42.309,0,12.626C.007,4.749,4.657.041,12.452.037q29.829-.014,59.657,0c7.686,0,12.495,4.584,12.524,12.25q.115,30.128,0,60.257c-.031,7.325-4.78,11.991-12.074,12.137-4.846.1-9.7,0-14.543.026-2.666.012-4.317-1.139-4.678-3.878" transform="translate(0 -0.012)" fill="#0c0e0e"/>
    <path id="Path_606272" data-name="Path 606272" d="M293.535,72.564c-2.017-.611-3.7-1.608-3.623-4.014.072-2.217,1.543-3.277,3.575-3.7,2.141.309,3.681,1.344,3.783,3.654.11,2.5-1.6,3.524-3.735,4.059" transform="translate(-117.73 -26.335)" fill="#0c0e0e"/>
    <path id="Path_606273" data-name="Path 606273" d="M64.816,133.616c.382-2.059,1.45-3.485,3.672-3.591,2.439-.115,3.413,1.585,4.078,3.571-.572,2.1-1.528,3.9-4.059,3.8-2.318-.091-3.381-1.617-3.69-3.778" transform="translate(-26.321 -52.8)" fill="#0c0e0e"/>
    <path id="Path_606274" data-name="Path 606274" d="M72.751,76.426a4,4,0,0,1-3.234-1.575c-2.714-2.734-5.526-5.376-8.138-8.2-1.292-1.4-2.066-1.236-3.277.056-2.634,2.808-5.4,5.494-8.148,8.191-1.9,1.866-4.213,2.076-5.764.611-1.758-1.659-1.629-3.751.486-5.925,2.617-2.69,5.227-5.4,7.989-7.932,1.462-1.343,1.726-2.175.084-3.644-2.794-2.5-5.368-5.245-7.986-7.934-2.151-2.209-2.345-4.25-.675-5.932s3.739-1.5,5.94.636c2.834,2.752,5.652,5.524,8.372,8.388,1.086,1.143,1.741,1.046,2.78-.048,2.72-2.864,5.533-5.642,8.362-8.4,2.171-2.116,4.271-2.249,5.927-.5,1.462,1.545,1.253,3.871-.608,5.769-2.7,2.75-5.383,5.514-8.191,8.148-1.3,1.217-1.433,1.984-.042,3.277,2.964,2.755,5.74,5.711,8.609,8.57a3.927,3.927,0,0,1,.9,4.376,3.191,3.191,0,0,1-3.382,2.069" transform="translate(-17.45 -17.465)" fill="#0d0506"/>
    <path id="Path_606275" data-name="Path 606275" d="M217.946,67.49a3.96,3.96,0,0,1-2.813-1.441c-3.223-3.2-6.444-6.4-9.61-9.653-1.99-2.045-2.123-4.1-.373-5.662,1.9-1.7,3.8-1.317,5.514.349a64.771,64.771,0,0,1,4.989,5.053c1.665,2.013,2.8,2.213,4.746.119,4.7-5.052,9.71-9.826,14.6-14.709a19.683,19.683,0,0,1,1.712-1.63c1.706-1.336,3.515-1.433,5.053.139a3.449,3.449,0,0,1,0,5.255c-6.937,7.022-13.936,13.981-20.924,20.952a3.688,3.688,0,0,1-2.892,1.23" transform="translate(-82.813 -15.794)" fill="#0c0e0e"/>
  </g>
</svg>
