<svg xmlns="http://www.w3.org/2000/svg" xmlns:xlink="http://www.w3.org/1999/xlink" width="1030" height="523" viewBox="0 0 1030 523">
  <defs>
    <linearGradient id="linear-gradient" x1="0.769" y1="0.751" x2="0.12" y2="0.05" gradientUnits="objectBoundingBox">
      <stop offset="0" stop-color="#c9d4ee"/>
      <stop offset="1" stop-color="#e4eaf6"/>
    </linearGradient>
    <clipPath id="clip-path">
      <rect id="Rectangle_375664" data-name="Rectangle 375664" width="424.921" height="368.928" fill="none"/>
    </clipPath>
    <clipPath id="clip-path-2">
      <rect id="Rectangle_347562" data-name="Rectangle 347562" width="14.907" height="18.022" fill="#123d7e"/>
    </clipPath>
    <clipPath id="clip-path-4">
      <rect id="Rectangle_375665" data-name="Rectangle 375665" width="152.726" height="137.703" fill="#304c8e"/>
    </clipPath>
    <clipPath id="clip-path-6">
      <rect id="Rectangle_377713" data-name="Rectangle 377713" width="63" height="63" transform="translate(0 0)" fill="none"/>
    </clipPath>
    <clipPath id="clip-path-7">
      <rect id="Rectangle_377714" data-name="Rectangle 377714" width="67.8" height="67.741" fill="none"/>
    </clipPath>
  </defs>
  <g id="Group_1071723" data-name="Group 1071723" transform="translate(-288 -8494)">
    <g id="Group_1071563" data-name="Group 1071563">
      <path id="Path_609158" data-name="Path 609158" d="M0,0H1030V523H0Z" transform="translate(288 8494)" opacity="0.72" fill="url(#linear-gradient)"/>
      <g id="Group_1016993" data-name="Group 1016993" transform="translate(591 8571)">
        <g id="Group_1016992" data-name="Group 1016992" clip-path="url(#clip-path)">
          <path id="Path_608360" data-name="Path 608360" d="M291.354,368.912l-162.718-2.879a50.224,50.224,0,0,1-42.6-24.527L6.387,204.837a46.514,46.514,0,0,1,.685-48.18L89.82,23.384A50.369,50.369,0,0,1,133.567.007l162.72,2.879a50.225,50.225,0,0,1,42.6,24.529l79.65,136.665a46.517,46.517,0,0,1-.685,48.181L335.1,345.535a50.348,50.348,0,0,1-43.748,23.385" transform="translate(0 -0.001)" fill="#123d7e"/>
          <path id="Path_608361" data-name="Path 608361" d="M262.088,323.263l-133.213-2.357A41.114,41.114,0,0,1,94,300.827L28.8,188.941a38.082,38.082,0,0,1,.561-39.443L97.1,40.393a41.227,41.227,0,0,1,35.816-19.137l133.211,2.357A41.112,41.112,0,0,1,301,43.692l65.209,111.882a38.085,38.085,0,0,1-.561,39.444L297.9,304.126a41.215,41.215,0,0,1-35.814,19.144" transform="translate(14.96 12.201)" fill="#ffd800"/>
          <path id="Path_608362" data-name="Path 608362" d="M224.792,265.089,129.183,263.4a29.5,29.5,0,0,1-25.028-14.412l-46.8-80.3a27.332,27.332,0,0,1,.4-28.309l48.619-78.306a29.6,29.6,0,0,1,25.7-13.736l95.608,1.692a29.5,29.5,0,0,1,25.028,14.413l46.8,80.3a27.339,27.339,0,0,1-.4,28.31L250.5,251.354a29.582,29.582,0,0,1-25.7,13.739" transform="translate(34.024 27.749)" fill="#86b22f"/>
        </g>
      </g>
      <g id="Group_1015850" data-name="Group 1015850" transform="translate(7660.915 2430.468) rotate(-109)">
        <path id="Path_606158" data-name="Path 606158" d="M184.382,108.231a1.63,1.63,0,0,1-1.31-2.6c.849-1.154,20.563-28.539-1.79-51.229-22.75-23.094-52.59-7.62-53.851-6.95a1.63,1.63,0,0,1-1.534-2.877c.329-.174,33.23-17.308,57.706,7.537,24.323,24.693,2.316,55.15,2.091,55.455a1.628,1.628,0,0,1-1.312.662" transform="matrix(0.998, -0.07, 0.07, 0.998, -3775.727, -8436.514)" fill="#123d7e"/>
        <path id="Path_606159" data-name="Path 606159" d="M179.9,102.1a.792.792,0,0,1-.44-.13.815.815,0,0,1-.244-1.126c.163-.253,16.113-25.592-1.014-45.017-19.277-21.87-50.508-6.846-50.821-6.691a.815.815,0,0,1-.722-1.462c.324-.158,32.66-15.733,52.766,7.072,17.948,20.359,1.332,46.716,1.162,46.981a.815.815,0,0,1-.686.373" transform="matrix(0.998, -0.07, 0.07, 0.998, -3774.833, -8434.253)" fill="#123d7e"/>
        <g id="Group_1015843" data-name="Group 1015843" transform="translate(-3591.375 -8354.673)">
          <g id="Group_1015842" data-name="Group 1015842" transform="translate(0 0)" clip-path="url(#clip-path-2)">
            <path id="Path_606178" data-name="Path 606178" d="M8.7,2.883l5.216,2.69c1.364.7,1.311,2.9-.091,3.946L8.445,13.544,3.067,17.568A1.849,1.849,0,0,1,0,15.987L.16,9.273.32,2.558C.362.8,2.117-.509,3.48.193Z" transform="translate(0 0.001)" fill="#123d7e"/>
          </g>
        </g>
      </g>
      <g id="Group_1016994" data-name="Group 1016994" transform="translate(966.226 8916.849) rotate(109)">
        <path id="Path_606158-2" data-name="Path 606158" d="M59.347,0a1.63,1.63,0,0,0-1.31,2.6c.849,1.154,20.563,28.539-1.79,51.229C33.5,76.921,3.657,61.447,2.4,60.777A1.63,1.63,0,0,0,.862,63.653c.329.174,33.23,17.308,57.706-7.537C82.891,31.424,60.884.967,60.659.662A1.628,1.628,0,0,0,59.347,0" transform="matrix(0.998, 0.07, -0.07, 0.998, 4.853, 0.617)" fill="#123d7e"/>
        <path id="Path_606159-2" data-name="Path 606159" d="M53.7,0a.792.792,0,0,0-.44.13.815.815,0,0,0-.244,1.126c.163.253,16.113,25.592-1.014,45.017C32.721,68.144,1.489,53.119,1.176,52.965a.815.815,0,1,0-.722,1.462c.324.158,32.66,15.733,52.766-7.072C71.168,27,54.551.639,54.382.373A.815.815,0,0,0,53.7,0" transform="matrix(0.998, 0.07, -0.07, 0.998, 6.482, 4.551)" fill="#123d7e"/>
        <g id="Group_1015843-2" data-name="Group 1015843" transform="translate(56.925 0)">
          <g id="Group_1015842-2" data-name="Group 1015842" transform="translate(0)" clip-path="url(#clip-path-2)">
            <path id="Path_606178-2" data-name="Path 606178" d="M8.7,15.138l5.216-2.69c1.364-.7,1.311-2.9-.091-3.946L8.444,4.478,3.067.453A1.849,1.849,0,0,0,0,2.034L.159,8.749l.16,6.714c.042,1.755,1.8,3.068,3.16,2.365Z" transform="translate(0.001 0)" fill="#123d7e"/>
          </g>
        </g>
      </g>
      <path id="Path_609159" data-name="Path 609159" d="M15.6,11.211A4.025,4.025,0,0,1,14.246,14.1a4.76,4.76,0,0,1-3.223,1.055,4.28,4.28,0,0,1-3.441-1.473A6.038,6.038,0,0,1,6.328,9.641v-.7a6.819,6.819,0,0,1,.578-2.891A4.332,4.332,0,0,1,8.559,4.137a4.629,4.629,0,0,1,2.5-.668,4.637,4.637,0,0,1,3.172,1.055,4.326,4.326,0,0,1,1.391,2.961H13.273a2.376,2.376,0,0,0-.613-1.6,2.271,2.271,0,0,0-1.605-.5A1.991,1.991,0,0,0,9.3,6.23a4.707,4.707,0,0,0-.6,2.605V9.7a5.038,5.038,0,0,0,.559,2.7,1.954,1.954,0,0,0,1.762.852,2.314,2.314,0,0,0,1.621-.5,2.241,2.241,0,0,0,.613-1.535ZM21.891,15a2.507,2.507,0,0,1-.227-.758,2.732,2.732,0,0,1-2.133.914,3,3,0,0,1-2.059-.719,2.312,2.312,0,0,1-.816-1.812,2.389,2.389,0,0,1,1-2.062,4.915,4.915,0,0,1,2.879-.727H21.57V9.352a1.393,1.393,0,0,0-.3-.937,1.183,1.183,0,0,0-.949-.352,1.345,1.345,0,0,0-.895.273.929.929,0,0,0-.324.75H16.844A2.268,2.268,0,0,1,17.3,7.727a3,3,0,0,1,1.281-.98,4.669,4.669,0,0,1,1.859-.355,3.689,3.689,0,0,1,2.48.785,2.747,2.747,0,0,1,.918,2.207v3.664a4.041,4.041,0,0,0,.336,1.82V15Zm-1.867-1.57a1.945,1.945,0,0,0,.922-.223,1.462,1.462,0,0,0,.625-.6V11.156h-.844q-1.7,0-1.8,1.172l-.008.133a.9.9,0,0,0,.3.7A1.153,1.153,0,0,0,20.023,13.43Zm5.2-2.719a5.094,5.094,0,0,1,.887-3.148,2.877,2.877,0,0,1,2.426-1.172,2.589,2.589,0,0,1,2.039.922V3h2.266V15H30.8l-.109-.9a2.657,2.657,0,0,1-2.172,1.055,2.869,2.869,0,0,1-2.395-1.176A5.258,5.258,0,0,1,25.219,10.711Zm2.258.168a3.337,3.337,0,0,0,.414,1.823,1.349,1.349,0,0,0,1.2.634,1.511,1.511,0,0,0,1.477-.884V9.111a1.489,1.489,0,0,0-1.461-.884Q27.477,8.227,27.477,10.879Zm11,4.277a4.15,4.15,0,0,1-3.027-1.141,4.054,4.054,0,0,1-1.168-3.039v-.219a5.106,5.106,0,0,1,.492-2.277,3.612,3.612,0,0,1,1.395-1.547,3.914,3.914,0,0,1,2.059-.543,3.508,3.508,0,0,1,2.73,1.094,4.444,4.444,0,0,1,1,3.1v.922H36.57a2.1,2.1,0,0,0,.66,1.328,2,2,0,0,0,1.395.5,2.437,2.437,0,0,0,2.039-.945l1.109,1.242A3.389,3.389,0,0,1,40.4,14.754,4.511,4.511,0,0,1,38.477,15.156Zm-.258-6.945a1.411,1.411,0,0,0-1.09.455,2.357,2.357,0,0,0-.535,1.3h3.141V9.788a1.681,1.681,0,0,0-.406-1.165A1.456,1.456,0,0,0,38.219,8.211Zm7.094-1.664.07.977a2.951,2.951,0,0,1,2.43-1.133,2.453,2.453,0,0,1,2,.789,3.682,3.682,0,0,1,.672,2.359V15H48.227V9.594a1.465,1.465,0,0,0-.312-1.043,1.4,1.4,0,0,0-1.039-.324,1.553,1.553,0,0,0-1.43.813V15H43.188V6.547ZM57.094,15a2.507,2.507,0,0,1-.227-.758,2.732,2.732,0,0,1-2.133.914,3,3,0,0,1-2.059-.719,2.312,2.312,0,0,1-.816-1.812,2.389,2.389,0,0,1,1-2.062,4.915,4.915,0,0,1,2.879-.727h1.039V9.352a1.393,1.393,0,0,0-.3-.937,1.183,1.183,0,0,0-.949-.352,1.345,1.345,0,0,0-.895.273.929.929,0,0,0-.324.75H52.047A2.268,2.268,0,0,1,52.5,7.727a3,3,0,0,1,1.281-.98,4.669,4.669,0,0,1,1.859-.355,3.689,3.689,0,0,1,2.48.785,2.747,2.747,0,0,1,.918,2.207v3.664a4.041,4.041,0,0,0,.336,1.82V15Zm-1.867-1.57a1.945,1.945,0,0,0,.922-.223,1.462,1.462,0,0,0,.625-.6V11.156H55.93q-1.7,0-1.8,1.172l-.008.133a.9.9,0,0,0,.3.7A1.153,1.153,0,0,0,55.227,13.43Zm9.18-2.719a5.094,5.094,0,0,1,.887-3.148,2.877,2.877,0,0,1,2.426-1.172,2.589,2.589,0,0,1,2.039.922V3h2.266V15H69.984l-.109-.9A2.657,2.657,0,0,1,67.7,15.156a2.869,2.869,0,0,1-2.395-1.176A5.258,5.258,0,0,1,64.406,10.711Zm2.258.168a3.337,3.337,0,0,0,.414,1.823,1.349,1.349,0,0,0,1.2.634,1.511,1.511,0,0,0,1.477-.884V9.111A1.489,1.489,0,0,0,68.3,8.227Q66.664,8.227,66.664,10.879Zm11,4.277a4.15,4.15,0,0,1-3.027-1.141,4.054,4.054,0,0,1-1.168-3.039v-.219a5.106,5.106,0,0,1,.492-2.277,3.612,3.612,0,0,1,1.395-1.547,3.914,3.914,0,0,1,2.059-.543,3.508,3.508,0,0,1,2.73,1.094,4.444,4.444,0,0,1,1,3.1v.922H75.758a2.1,2.1,0,0,0,.66,1.328,2,2,0,0,0,1.395.5,2.437,2.437,0,0,0,2.039-.945l1.109,1.242a3.389,3.389,0,0,1-1.375,1.121A4.511,4.511,0,0,1,77.664,15.156Zm-.258-6.945a1.411,1.411,0,0,0-1.09.455,2.357,2.357,0,0,0-.535,1.3h3.141V9.788a1.681,1.681,0,0,0-.406-1.165A1.456,1.456,0,0,0,77.406,8.211ZM90.758,12.18l2.578-8.555h2.609L91.984,15H89.539L85.594,3.625h2.6ZM101.406,15a2.507,2.507,0,0,1-.227-.758,2.732,2.732,0,0,1-2.133.914,3,3,0,0,1-2.059-.719,2.312,2.312,0,0,1-.816-1.812,2.389,2.389,0,0,1,1-2.062,4.915,4.915,0,0,1,2.879-.727h1.039V9.352a1.393,1.393,0,0,0-.3-.937,1.183,1.183,0,0,0-.949-.352,1.345,1.345,0,0,0-.895.273.929.929,0,0,0-.324.75H96.359a2.268,2.268,0,0,1,.453-1.359,3,3,0,0,1,1.281-.98,4.669,4.669,0,0,1,1.859-.355,3.689,3.689,0,0,1,2.48.785,2.747,2.747,0,0,1,.918,2.207v3.664a4.041,4.041,0,0,0,.336,1.82V15Zm-1.867-1.57a1.945,1.945,0,0,0,.922-.223,1.462,1.462,0,0,0,.625-.6V11.156h-.844q-1.7,0-1.8,1.172l-.008.133a.9.9,0,0,0,.3.7A1.153,1.153,0,0,0,99.539,13.43Zm7.93,1.57H105.2V3h2.266Zm1.508-4.3a5.013,5.013,0,0,1,.484-2.242,3.546,3.546,0,0,1,1.395-1.523,4.069,4.069,0,0,1,2.113-.539,3.849,3.849,0,0,1,2.793,1.047,4.2,4.2,0,0,1,1.207,2.844l.016.578A4.418,4.418,0,0,1,115.9,13.98a4.209,4.209,0,0,1-5.832,0,4.5,4.5,0,0,1-1.09-3.187Zm2.258.16a3.16,3.16,0,0,0,.453,1.843,1.628,1.628,0,0,0,2.578.008,3.457,3.457,0,0,0,.461-2.015,3.128,3.128,0,0,0-.461-1.831,1.5,1.5,0,0,0-1.3-.649,1.474,1.474,0,0,0-1.281.646A3.516,3.516,0,0,0,111.234,10.856Zm11.891-2.192a6.134,6.134,0,0,0-.812-.062,1.654,1.654,0,0,0-1.68.867V15h-2.258V6.547h2.133l.063,1.008a2.092,2.092,0,0,1,1.883-1.164,2.366,2.366,0,0,1,.7.1ZM22.859,34.711a5.094,5.094,0,0,1,.887-3.148,2.877,2.877,0,0,1,2.426-1.172,2.589,2.589,0,0,1,2.039.922V27h2.266V39H28.438l-.109-.9a2.657,2.657,0,0,1-2.172,1.055,2.869,2.869,0,0,1-2.395-1.176A5.258,5.258,0,0,1,22.859,34.711Zm2.258.168a3.337,3.337,0,0,0,.414,1.823,1.349,1.349,0,0,0,1.2.634,1.511,1.511,0,0,0,1.477-.884V33.111a1.489,1.489,0,0,0-1.461-.884Q25.117,32.227,25.117,34.879Zm11,4.277a4.15,4.15,0,0,1-3.027-1.141,4.054,4.054,0,0,1-1.168-3.039v-.219a5.106,5.106,0,0,1,.492-2.277,3.612,3.612,0,0,1,1.395-1.547,3.914,3.914,0,0,1,2.059-.543,3.508,3.508,0,0,1,2.73,1.094,4.444,4.444,0,0,1,1,3.1v.922H34.211a2.1,2.1,0,0,0,.66,1.328,2,2,0,0,0,1.395.5,2.437,2.437,0,0,0,2.039-.945l1.109,1.242a3.389,3.389,0,0,1-1.375,1.121A4.511,4.511,0,0,1,36.117,39.156Zm-.258-6.945a1.411,1.411,0,0,0-1.09.455,2.357,2.357,0,0,0-.535,1.3h3.141v-.181a1.681,1.681,0,0,0-.406-1.165A1.456,1.456,0,0,0,35.859,32.211ZM43.258,39H40.992V27h2.266Zm11.891-2.984A1.2,1.2,0,0,0,54.68,35a6.148,6.148,0,0,0-1.687-.75,11.963,11.963,0,0,1-1.93-.777,3.153,3.153,0,0,1-1.937-2.82A2.747,2.747,0,0,1,49.645,29a3.389,3.389,0,0,1,1.492-1.129,5.616,5.616,0,0,1,2.184-.406,5.112,5.112,0,0,1,2.172.441,3.458,3.458,0,0,1,1.48,1.246,3.261,3.261,0,0,1,.527,1.828H55.156a1.534,1.534,0,0,0-.492-1.215,2.023,2.023,0,0,0-1.383-.434,2.162,2.162,0,0,0-1.336.363,1.146,1.146,0,0,0-.477.957,1.1,1.1,0,0,0,.559.93,6.311,6.311,0,0,0,1.645.7,7.106,7.106,0,0,1,2.914,1.492A2.972,2.972,0,0,1,57.5,36a2.737,2.737,0,0,1-1.117,2.316,4.891,4.891,0,0,1-3.008.84,5.808,5.808,0,0,1-2.391-.48,3.783,3.783,0,0,1-1.645-1.316,3.371,3.371,0,0,1-.566-1.937h2.352q0,1.883,2.25,1.883a2.189,2.189,0,0,0,1.3-.34A1.106,1.106,0,0,0,55.148,36.016Zm7.68,3.141A4.15,4.15,0,0,1,59.8,38.016a4.054,4.054,0,0,1-1.168-3.039v-.219a5.106,5.106,0,0,1,.492-2.277,3.612,3.612,0,0,1,1.395-1.547,3.914,3.914,0,0,1,2.059-.543,3.508,3.508,0,0,1,2.73,1.094,4.444,4.444,0,0,1,1,3.1v.922H60.922a2.1,2.1,0,0,0,.66,1.328,2,2,0,0,0,1.395.5,2.437,2.437,0,0,0,2.039-.945l1.109,1.242a3.389,3.389,0,0,1-1.375,1.121A4.511,4.511,0,0,1,62.828,39.156Zm-.258-6.945a1.411,1.411,0,0,0-1.09.455,2.357,2.357,0,0,0-.535,1.3h3.141v-.181a1.681,1.681,0,0,0-.406-1.165A1.456,1.456,0,0,0,62.57,32.211Zm9.766.453a6.134,6.134,0,0,0-.812-.062,1.654,1.654,0,0,0-1.68.867V39H67.586V30.547h2.133l.063,1.008a2.092,2.092,0,0,1,1.883-1.164,2.366,2.366,0,0,1,.7.1Zm4.391,3.578,1.57-5.7h2.359L77.8,39H75.648L72.8,30.547h2.359ZM84.031,39H81.766V30.547h2.266Zm-2.4-10.641a1.112,1.112,0,0,1,.34-.836,1.465,1.465,0,0,1,1.848,0,1.193,1.193,0,0,1,0,1.68,1.448,1.448,0,0,1-1.836,0A1.108,1.108,0,0,1,81.633,28.359Zm7.773,8.977a1.481,1.481,0,0,0,1.016-.344,1.2,1.2,0,0,0,.406-.914h2.117a2.9,2.9,0,0,1-.469,1.574,3.093,3.093,0,0,1-1.262,1.109,3.949,3.949,0,0,1-1.77.395A3.67,3.67,0,0,1,86.586,38a4.56,4.56,0,0,1-1.047-3.184v-.148a4.508,4.508,0,0,1,1.039-3.117,3.627,3.627,0,0,1,2.852-1.164,3.555,3.555,0,0,1,2.543.9,3.2,3.2,0,0,1,.973,2.4H90.828a1.551,1.551,0,0,0-.406-1.072,1.51,1.51,0,0,0-2.223.163,3.333,3.333,0,0,0-.4,1.866v.235a3.375,3.375,0,0,0,.4,1.878A1.377,1.377,0,0,0,89.406,37.336ZM96.617,39H94.352V30.547h2.266Zm-2.4-10.641a1.112,1.112,0,0,1,.34-.836,1.465,1.465,0,0,1,1.848,0,1.193,1.193,0,0,1,0,1.68,1.448,1.448,0,0,1-1.836,0A1.108,1.108,0,0,1,94.219,28.359ZM98.125,34.7a5.013,5.013,0,0,1,.484-2.242A3.546,3.546,0,0,1,100,30.93a4.069,4.069,0,0,1,2.113-.539,3.849,3.849,0,0,1,2.793,1.047,4.2,4.2,0,0,1,1.207,2.844l.016.578a4.418,4.418,0,0,1-1.086,3.121,4.209,4.209,0,0,1-5.832,0,4.5,4.5,0,0,1-1.09-3.187Zm2.258.16a3.16,3.16,0,0,0,.453,1.843,1.628,1.628,0,0,0,2.578.008,3.457,3.457,0,0,0,.461-2.015,3.128,3.128,0,0,0-.461-1.831,1.5,1.5,0,0,0-1.3-.649,1.474,1.474,0,0,0-1.281.646A3.516,3.516,0,0,0,100.383,34.856Z" transform="translate(739 8733)" fill="#fff"/>
      <path id="Path_609160" data-name="Path 609160" d="M56.688,13.563A4.068,4.068,0,0,1,54.9,14.738a7.492,7.492,0,0,1-2.562.418,5.076,5.076,0,0,1-2.59-.645,4.3,4.3,0,0,1-1.719-1.871,6.585,6.585,0,0,1-.621-2.883V8.984a6.994,6.994,0,0,1,.574-2.949,4.248,4.248,0,0,1,1.656-1.906,5.453,5.453,0,0,1,5.7.3,4.123,4.123,0,0,1,1.352,2.809H54.406a2.268,2.268,0,0,0-.691-1.43,2.208,2.208,0,0,0-1.473-.453,2.078,2.078,0,0,0-1.82.9,4.724,4.724,0,0,0-.633,2.672v.727a4.5,4.5,0,0,0,.68,2.7,2.327,2.327,0,0,0,1.992.914,2.6,2.6,0,0,0,1.883-.562V10.75H52.211V9.023h4.477Zm1.4-2.867a5.013,5.013,0,0,1,.484-2.242A3.546,3.546,0,0,1,59.965,6.93a4.069,4.069,0,0,1,2.113-.539,3.849,3.849,0,0,1,2.793,1.047,4.2,4.2,0,0,1,1.207,2.844l.016.578a4.418,4.418,0,0,1-1.086,3.121,4.209,4.209,0,0,1-5.832,0,4.5,4.5,0,0,1-1.09-3.187Zm2.258.16A3.16,3.16,0,0,0,60.8,12.7a1.628,1.628,0,0,0,2.578.008,3.457,3.457,0,0,0,.461-2.015,3.128,3.128,0,0,0-.461-1.831,1.5,1.5,0,0,0-1.3-.649,1.474,1.474,0,0,0-1.281.646A3.516,3.516,0,0,0,60.344,10.856Zm14.758,0a5.119,5.119,0,0,1-.867,3.168,2.872,2.872,0,0,1-2.422,1.137,2.639,2.639,0,0,1-2.2-1.055l-.1.9H67.484V3h2.258V7.3A2.571,2.571,0,0,1,71.8,6.391a2.9,2.9,0,0,1,2.426,1.137,5.126,5.126,0,0,1,.879,3.2Zm-2.258-.164a3.363,3.363,0,0,0-.406-1.871,1.374,1.374,0,0,0-1.211-.59,1.489,1.489,0,0,0-1.484.883v3.336a1.509,1.509,0,0,0,1.5.891,1.394,1.394,0,0,0,1.438-1.078A5.562,5.562,0,0,0,72.844,10.688Zm7.539,4.469a4.15,4.15,0,0,1-3.027-1.141,4.054,4.054,0,0,1-1.168-3.039v-.219A5.106,5.106,0,0,1,76.68,8.48a3.612,3.612,0,0,1,1.395-1.547,3.914,3.914,0,0,1,2.059-.543,3.508,3.508,0,0,1,2.73,1.094,4.444,4.444,0,0,1,1,3.1v.922H78.477a2.1,2.1,0,0,0,.66,1.328,2,2,0,0,0,1.395.5,2.437,2.437,0,0,0,2.039-.945l1.109,1.242A3.389,3.389,0,0,1,82.3,14.754,4.511,4.511,0,0,1,80.383,15.156Zm-.258-6.945a1.411,1.411,0,0,0-1.09.455,2.357,2.357,0,0,0-.535,1.3h3.141V9.788a1.681,1.681,0,0,0-.406-1.165A1.456,1.456,0,0,0,80.125,8.211Zm9.766.453a6.134,6.134,0,0,0-.812-.062,1.654,1.654,0,0,0-1.68.867V15H85.141V6.547h2.133l.063,1.008a2.092,2.092,0,0,1,1.883-1.164,2.366,2.366,0,0,1,.7.1Zm3.164-2.117.07.977a2.951,2.951,0,0,1,2.43-1.133,2.453,2.453,0,0,1,2,.789,3.682,3.682,0,0,1,.672,2.359V15H95.969V9.594a1.465,1.465,0,0,0-.312-1.043,1.4,1.4,0,0,0-1.039-.324,1.553,1.553,0,0,0-1.43.813V15H90.93V6.547ZM104.836,15a2.507,2.507,0,0,1-.227-.758,2.732,2.732,0,0,1-2.133.914,3,3,0,0,1-2.059-.719,2.312,2.312,0,0,1-.816-1.812,2.389,2.389,0,0,1,1-2.062,4.915,4.915,0,0,1,2.879-.727h1.039V9.352a1.393,1.393,0,0,0-.3-.937,1.183,1.183,0,0,0-.949-.352,1.345,1.345,0,0,0-.895.273.929.929,0,0,0-.324.75H99.789a2.268,2.268,0,0,1,.453-1.359,3,3,0,0,1,1.281-.98,4.669,4.669,0,0,1,1.859-.355,3.689,3.689,0,0,1,2.48.785,2.747,2.747,0,0,1,.918,2.207v3.664a4.041,4.041,0,0,0,.336,1.82V15Zm-1.867-1.57a1.945,1.945,0,0,0,.922-.223,1.462,1.462,0,0,0,.625-.6V11.156h-.844q-1.7,0-1.8,1.172l-.008.133a.9.9,0,0,0,.3.7A1.153,1.153,0,0,0,102.969,13.43Zm7.625-6.883.07.977a2.951,2.951,0,0,1,2.43-1.133,2.453,2.453,0,0,1,2,.789,3.682,3.682,0,0,1,.672,2.359V15h-2.258V9.594a1.465,1.465,0,0,0-.312-1.043,1.4,1.4,0,0,0-1.039-.324,1.553,1.553,0,0,0-1.43.813V15h-2.258V6.547Zm9.477,6.633H124.2V15h-7.016V13.625l3.977-5.258H117.3V6.547h6.773v1.33ZM130.516,15a2.507,2.507,0,0,1-.227-.758,2.732,2.732,0,0,1-2.133.914,3,3,0,0,1-2.059-.719,2.312,2.312,0,0,1-.816-1.812,2.389,2.389,0,0,1,1-2.062,4.915,4.915,0,0,1,2.879-.727H130.2V9.352a1.393,1.393,0,0,0-.3-.937,1.183,1.183,0,0,0-.949-.352,1.345,1.345,0,0,0-.895.273.929.929,0,0,0-.324.75h-2.258a2.268,2.268,0,0,1,.453-1.359,3,3,0,0,1,1.281-.98,4.669,4.669,0,0,1,1.859-.355,3.689,3.689,0,0,1,2.48.785,2.747,2.747,0,0,1,.918,2.207v3.664a4.041,4.041,0,0,0,.336,1.82V15Zm-1.867-1.57a1.945,1.945,0,0,0,.922-.223,1.462,1.462,0,0,0,.625-.6V11.156h-.844q-1.7,0-1.8,1.172l-.008.133a.9.9,0,0,0,.3.7A1.153,1.153,0,0,0,128.648,13.43Z" transform="translate(713 8616)" fill="#12263f"/>
      <path id="Path_609161" data-name="Path 609161" d="M59.539,10.992V15H57.2V3.625h4.438a5.134,5.134,0,0,1,2.254.469,3.454,3.454,0,0,1,1.5,1.332,3.714,3.714,0,0,1,.523,1.965,3.266,3.266,0,0,1-1.145,2.637,4.767,4.767,0,0,1-3.168.965Zm0-1.9h2.094a2.059,2.059,0,0,0,1.418-.437,1.591,1.591,0,0,0,.488-1.25,1.876,1.876,0,0,0-.492-1.352,1.839,1.839,0,0,0-1.359-.531H59.539Zm12.578-.43A6.134,6.134,0,0,0,71.3,8.6a1.654,1.654,0,0,0-1.68.867V15H67.367V6.547H69.5l.063,1.008a2.092,2.092,0,0,1,1.883-1.164,2.366,2.366,0,0,1,.7.1ZM77.867,15a2.507,2.507,0,0,1-.227-.758,2.732,2.732,0,0,1-2.133.914,3,3,0,0,1-2.059-.719,2.312,2.312,0,0,1-.816-1.812,2.389,2.389,0,0,1,1-2.062,4.915,4.915,0,0,1,2.879-.727h1.039V9.352a1.393,1.393,0,0,0-.3-.937,1.183,1.183,0,0,0-.949-.352,1.345,1.345,0,0,0-.895.273.929.929,0,0,0-.324.75H72.82a2.268,2.268,0,0,1,.453-1.359,3,3,0,0,1,1.281-.98,4.669,4.669,0,0,1,1.859-.355,3.689,3.689,0,0,1,2.48.785,2.747,2.747,0,0,1,.918,2.207v3.664a4.041,4.041,0,0,0,.336,1.82V15ZM76,13.43a1.945,1.945,0,0,0,.922-.223,1.462,1.462,0,0,0,.625-.6V11.156H76.7q-1.7,0-1.8,1.172l-.008.133a.9.9,0,0,0,.3.7A1.153,1.153,0,0,0,76,13.43ZM76.859,3H79.32L77.156,5.422H75.32Zm8.2,10.336a1.481,1.481,0,0,0,1.016-.344,1.2,1.2,0,0,0,.406-.914H88.6a2.9,2.9,0,0,1-.469,1.574,3.093,3.093,0,0,1-1.262,1.109,3.949,3.949,0,0,1-1.77.395A3.67,3.67,0,0,1,82.242,14,4.56,4.56,0,0,1,81.2,10.82v-.148a4.508,4.508,0,0,1,1.039-3.117,3.627,3.627,0,0,1,2.852-1.164,3.555,3.555,0,0,1,2.543.9A3.2,3.2,0,0,1,88.6,9.7H86.484a1.551,1.551,0,0,0-.406-1.072,1.51,1.51,0,0,0-2.223.163,3.333,3.333,0,0,0-.4,1.866v.235a3.375,3.375,0,0,0,.4,1.878A1.377,1.377,0,0,0,85.063,13.336Zm7.531-8.867V6.547h1.445V8.2H92.594v4.219a1.007,1.007,0,0,0,.18.672.9.9,0,0,0,.688.2,3.6,3.6,0,0,0,.664-.055v1.711a4.648,4.648,0,0,1-1.367.2,2.156,2.156,0,0,1-2.422-2.4V8.2H89.1V6.547h1.234V4.469ZM97.68,15H95.414V6.547H97.68Zm-2.4-10.641a1.112,1.112,0,0,1,.34-.836,1.465,1.465,0,0,1,1.848,0,1.105,1.105,0,0,1,.344.836,1.108,1.108,0,0,1-.348.844,1.448,1.448,0,0,1-1.836,0A1.108,1.108,0,0,1,95.281,4.359Zm7.773,8.977a1.481,1.481,0,0,0,1.016-.344,1.2,1.2,0,0,0,.406-.914h2.117a2.9,2.9,0,0,1-.469,1.574,3.093,3.093,0,0,1-1.262,1.109,3.949,3.949,0,0,1-1.77.395A3.67,3.67,0,0,1,100.234,14a4.56,4.56,0,0,1-1.047-3.184v-.148a4.508,4.508,0,0,1,1.039-3.117,3.627,3.627,0,0,1,2.852-1.164,3.555,3.555,0,0,1,2.543.9,3.2,3.2,0,0,1,.973,2.4h-2.117a1.551,1.551,0,0,0-.406-1.072,1.51,1.51,0,0,0-2.223.163,3.333,3.333,0,0,0-.4,1.866v.235a3.375,3.375,0,0,0,.4,1.878A1.377,1.377,0,0,0,103.055,13.336ZM112.781,15a2.507,2.507,0,0,1-.227-.758,2.732,2.732,0,0,1-2.133.914,3,3,0,0,1-2.059-.719,2.312,2.312,0,0,1-.816-1.812,2.389,2.389,0,0,1,1-2.062,4.915,4.915,0,0,1,2.879-.727h1.039V9.352a1.393,1.393,0,0,0-.3-.937,1.183,1.183,0,0,0-.949-.352,1.345,1.345,0,0,0-.895.273.929.929,0,0,0-.324.75h-2.258a2.268,2.268,0,0,1,.453-1.359,3,3,0,0,1,1.281-.98,4.669,4.669,0,0,1,1.859-.355,3.689,3.689,0,0,1,2.48.785,2.747,2.747,0,0,1,.918,2.207v3.664a4.041,4.041,0,0,0,.336,1.82V15Zm-1.867-1.57a1.945,1.945,0,0,0,.922-.223,1.462,1.462,0,0,0,.625-.6V11.156h-.844q-1.7,0-1.8,1.172l-.008.133a.9.9,0,0,0,.3.7A1.153,1.153,0,0,0,110.914,13.43Zm10.125-.766a.727.727,0,0,0-.41-.652,4.659,4.659,0,0,0-1.316-.426q-3.016-.633-3.016-2.562a2.323,2.323,0,0,1,.934-1.879,3.766,3.766,0,0,1,2.441-.754,4.053,4.053,0,0,1,2.574.758,2.388,2.388,0,0,1,.965,1.969h-2.258a1.092,1.092,0,0,0-.312-.8A1.322,1.322,0,0,0,119.664,8a1.351,1.351,0,0,0-.883.258.814.814,0,0,0-.312.656.7.7,0,0,0,.355.605,3.657,3.657,0,0,0,1.2.4,9.8,9.8,0,0,1,1.422.379,2.336,2.336,0,0,1,1.789,2.273,2.2,2.2,0,0,1-.992,1.871,4.28,4.28,0,0,1-2.562.715,4.47,4.47,0,0,1-1.887-.379,3.166,3.166,0,0,1-1.293-1.039,2.414,2.414,0,0,1-.469-1.426h2.141a1.179,1.179,0,0,0,.445.922,1.766,1.766,0,0,0,1.109.32,1.635,1.635,0,0,0,.98-.246A.766.766,0,0,0,121.039,12.664Z" transform="translate(713 8872)" fill="#12263f"/>
      <path id="Path_609162" data-name="Path 609162" d="M3.359,10.992V15H1.016V3.625H5.453a5.134,5.134,0,0,1,2.254.469A3.454,3.454,0,0,1,9.2,5.426a3.714,3.714,0,0,1,.523,1.965,3.266,3.266,0,0,1-1.145,2.637,4.767,4.767,0,0,1-3.168.965Zm0-1.9H5.453a2.059,2.059,0,0,0,1.418-.437,1.591,1.591,0,0,0,.488-1.25,1.876,1.876,0,0,0-.492-1.352,1.839,1.839,0,0,0-1.359-.531H3.359Zm12.578-.43a6.134,6.134,0,0,0-.812-.062,1.654,1.654,0,0,0-1.68.867V15H11.188V6.547H13.32l.063,1.008a2.092,2.092,0,0,1,1.883-1.164,2.366,2.366,0,0,1,.7.1ZM19.406,15H17.141V6.547h2.266Zm-2.4-10.641a1.112,1.112,0,0,1,.34-.836,1.465,1.465,0,0,1,1.848,0,1.105,1.105,0,0,1,.344.836,1.108,1.108,0,0,1-.348.844,1.448,1.448,0,0,1-1.836,0A1.108,1.108,0,0,1,17.008,4.359Zm6.336,2.188.07.977a2.951,2.951,0,0,1,2.43-1.133,2.453,2.453,0,0,1,2,.789,3.682,3.682,0,0,1,.672,2.359V15H26.258V9.594a1.465,1.465,0,0,0-.312-1.043,1.4,1.4,0,0,0-1.039-.324,1.553,1.553,0,0,0-1.43.813V15H21.219V6.547Zm10.4,6.789a1.481,1.481,0,0,0,1.016-.344,1.2,1.2,0,0,0,.406-.914h2.117a2.9,2.9,0,0,1-.469,1.574,3.093,3.093,0,0,1-1.262,1.109,3.949,3.949,0,0,1-1.77.395A3.67,3.67,0,0,1,30.922,14a4.56,4.56,0,0,1-1.047-3.184v-.148a4.508,4.508,0,0,1,1.039-3.117,3.627,3.627,0,0,1,2.852-1.164,3.555,3.555,0,0,1,2.543.9,3.2,3.2,0,0,1,.973,2.4H35.164a1.551,1.551,0,0,0-.406-1.072,1.51,1.51,0,0,0-2.223.163,3.333,3.333,0,0,0-.4,1.866v.235a3.375,3.375,0,0,0,.4,1.878A1.377,1.377,0,0,0,33.742,13.336ZM40.953,15H38.688V6.547h2.266Zm-2.4-10.641a1.112,1.112,0,0,1,.34-.836,1.465,1.465,0,0,1,1.848,0,1.105,1.105,0,0,1,.344.836,1.108,1.108,0,0,1-.348.844,1.448,1.448,0,0,1-1.836,0A1.108,1.108,0,0,1,38.555,4.359Zm11.867,6.492a5.07,5.07,0,0,1-.887,3.129,2.843,2.843,0,0,1-2.395,1.176,2.633,2.633,0,0,1-2.07-.891V18.25H42.813V6.547h2.094l.078.828a2.654,2.654,0,0,1,2.141-.984,2.862,2.862,0,0,1,2.43,1.156,5.207,5.207,0,0,1,.867,3.188Zm-2.258-.164a3.327,3.327,0,0,0-.418-1.82,1.361,1.361,0,0,0-1.215-.641,1.479,1.479,0,0,0-1.461.813V12.5a1.5,1.5,0,0,0,1.477.836Q48.164,13.336,48.164,10.688ZM54.2,15H51.938V6.547H54.2ZM51.8,4.359a1.112,1.112,0,0,1,.34-.836,1.465,1.465,0,0,1,1.848,0,1.105,1.105,0,0,1,.344.836,1.108,1.108,0,0,1-.348.844,1.448,1.448,0,0,1-1.836,0A1.108,1.108,0,0,1,51.8,4.359ZM55.711,10.7A5.013,5.013,0,0,1,56.2,8.453,3.546,3.546,0,0,1,57.59,6.93,4.069,4.069,0,0,1,59.7,6.391,3.849,3.849,0,0,1,62.5,7.438,4.2,4.2,0,0,1,63.7,10.281l.016.578a4.418,4.418,0,0,1-1.086,3.121,4.209,4.209,0,0,1-5.832,0,4.5,4.5,0,0,1-1.09-3.187Zm2.258.16a3.16,3.16,0,0,0,.453,1.843A1.628,1.628,0,0,0,61,12.706a3.457,3.457,0,0,0,.461-2.015A3.128,3.128,0,0,0,61,8.86a1.5,1.5,0,0,0-1.3-.649,1.474,1.474,0,0,0-1.281.646A3.516,3.516,0,0,0,57.969,10.856Zm11.719,1.808a.727.727,0,0,0-.41-.652,4.659,4.659,0,0,0-1.316-.426q-3.016-.633-3.016-2.562a2.323,2.323,0,0,1,.934-1.879,3.766,3.766,0,0,1,2.441-.754,4.053,4.053,0,0,1,2.574.758,2.388,2.388,0,0,1,.965,1.969H69.6a1.092,1.092,0,0,0-.312-.8A1.322,1.322,0,0,0,68.313,8a1.351,1.351,0,0,0-.883.258.814.814,0,0,0-.312.656.7.7,0,0,0,.355.605,3.657,3.657,0,0,0,1.2.4,9.8,9.8,0,0,1,1.422.379,2.336,2.336,0,0,1,1.789,2.273,2.2,2.2,0,0,1-.992,1.871,4.28,4.28,0,0,1-2.562.715,4.47,4.47,0,0,1-1.887-.379,3.166,3.166,0,0,1-1.293-1.039,2.414,2.414,0,0,1-.469-1.426H66.82a1.179,1.179,0,0,0,.445.922,1.766,1.766,0,0,0,1.109.32,1.635,1.635,0,0,0,.98-.246A.766.766,0,0,0,69.688,12.664ZM81.68,10.836H79.813V15H77.469V3.625H81.7a4.778,4.778,0,0,1,3.109.9A3.1,3.1,0,0,1,85.9,7.063,3.5,3.5,0,0,1,85.395,9a3.437,3.437,0,0,1-1.527,1.238l2.461,4.648V15H83.813Zm-1.867-1.9H81.7a1.936,1.936,0,0,0,1.367-.449,1.606,1.606,0,0,0,.484-1.238A1.719,1.719,0,0,0,83.1,5.984a1.9,1.9,0,0,0-1.4-.461H79.813Zm11.609,6.219a4.15,4.15,0,0,1-3.027-1.141,4.054,4.054,0,0,1-1.168-3.039v-.219a5.106,5.106,0,0,1,.492-2.277,3.612,3.612,0,0,1,1.395-1.547,3.914,3.914,0,0,1,2.059-.543A3.508,3.508,0,0,1,93.9,7.484a4.444,4.444,0,0,1,1,3.1v.922H89.516a2.1,2.1,0,0,0,.66,1.328,2,2,0,0,0,1.395.5,2.437,2.437,0,0,0,2.039-.945l1.109,1.242a3.389,3.389,0,0,1-1.375,1.121A4.511,4.511,0,0,1,91.422,15.156Zm-.258-6.945a1.411,1.411,0,0,0-1.09.455,2.357,2.357,0,0,0-.535,1.3H92.68V9.788a1.681,1.681,0,0,0-.406-1.165A1.456,1.456,0,0,0,91.164,8.211ZM99.7,13.336a1.481,1.481,0,0,0,1.016-.344,1.2,1.2,0,0,0,.406-.914h2.117a2.9,2.9,0,0,1-.469,1.574,3.093,3.093,0,0,1-1.262,1.109,3.949,3.949,0,0,1-1.77.395A3.67,3.67,0,0,1,96.875,14a4.56,4.56,0,0,1-1.047-3.184v-.148a4.508,4.508,0,0,1,1.039-3.117,3.627,3.627,0,0,1,2.852-1.164,3.555,3.555,0,0,1,2.543.9,3.2,3.2,0,0,1,.973,2.4h-2.117a1.551,1.551,0,0,0-.406-1.072,1.51,1.51,0,0,0-2.223.163,3.333,3.333,0,0,0-.4,1.866v.235a3.375,3.375,0,0,0,.4,1.878A1.377,1.377,0,0,0,99.7,13.336Zm7.531-8.867V6.547h1.445V8.2h-1.445v4.219a1.007,1.007,0,0,0,.18.672.9.9,0,0,0,.688.2,3.6,3.6,0,0,0,.664-.055v1.711a4.648,4.648,0,0,1-1.367.2,2.156,2.156,0,0,1-2.422-2.4V8.2h-1.234V6.547h1.234V4.469Zm2.117,6.227a5.013,5.013,0,0,1,.484-2.242,3.546,3.546,0,0,1,1.395-1.523,4.069,4.069,0,0,1,2.113-.539,3.849,3.849,0,0,1,2.793,1.047,4.2,4.2,0,0,1,1.207,2.844l.016.578a4.418,4.418,0,0,1-1.086,3.121,4.209,4.209,0,0,1-5.832,0,4.5,4.5,0,0,1-1.09-3.187Zm2.258.16a3.16,3.16,0,0,0,.453,1.843,1.628,1.628,0,0,0,2.578.008,3.457,3.457,0,0,0,.461-2.015,3.128,3.128,0,0,0-.461-1.831,1.5,1.5,0,0,0-1.3-.649,1.474,1.474,0,0,0-1.281.646A3.516,3.516,0,0,0,111.6,10.856Zm11.891-2.192a6.134,6.134,0,0,0-.812-.062,1.654,1.654,0,0,0-1.68.867V15h-2.258V6.547h2.133l.063,1.008a2.092,2.092,0,0,1,1.883-1.164,2.366,2.366,0,0,1,.7.1Zm4.828,6.492a4.15,4.15,0,0,1-3.027-1.141,4.054,4.054,0,0,1-1.168-3.039v-.219a5.106,5.106,0,0,1,.492-2.277,3.612,3.612,0,0,1,1.395-1.547,3.914,3.914,0,0,1,2.059-.543,3.508,3.508,0,0,1,2.73,1.094,4.444,4.444,0,0,1,1,3.1v.922h-5.383a2.1,2.1,0,0,0,.66,1.328,2,2,0,0,0,1.395.5,2.437,2.437,0,0,0,2.039-.945l1.109,1.242a3.389,3.389,0,0,1-1.375,1.121A4.511,4.511,0,0,1,128.32,15.156Zm-.258-6.945a1.411,1.411,0,0,0-1.09.455,2.357,2.357,0,0,0-.535,1.3h3.141V9.788a1.681,1.681,0,0,0-.406-1.165A1.456,1.456,0,0,0,128.063,8.211Zm9.594,4.453a.727.727,0,0,0-.41-.652,4.659,4.659,0,0,0-1.316-.426q-3.016-.633-3.016-2.562a2.323,2.323,0,0,1,.934-1.879,3.766,3.766,0,0,1,2.441-.754,4.053,4.053,0,0,1,2.574.758,2.388,2.388,0,0,1,.965,1.969H137.57a1.092,1.092,0,0,0-.312-.8A1.322,1.322,0,0,0,136.281,8a1.351,1.351,0,0,0-.883.258.814.814,0,0,0-.312.656.7.7,0,0,0,.355.605,3.657,3.657,0,0,0,1.2.4,9.8,9.8,0,0,1,1.422.379,2.336,2.336,0,0,1,1.789,2.273,2.205,2.205,0,0,1-.992,1.871,4.28,4.28,0,0,1-2.562.715,4.47,4.47,0,0,1-1.887-.379,3.166,3.166,0,0,1-1.293-1.039,2.414,2.414,0,0,1-.469-1.426h2.141a1.179,1.179,0,0,0,.445.922,1.766,1.766,0,0,0,1.109.32,1.635,1.635,0,0,0,.98-.246A.766.766,0,0,0,137.656,12.664Z" transform="translate(966 8524)" fill="#12263f"/>
      <path id="Path_609163" data-name="Path 609163" d="M6.914,12.016A1.2,1.2,0,0,0,6.445,11a6.148,6.148,0,0,0-1.687-.75,11.963,11.963,0,0,1-1.93-.777A3.153,3.153,0,0,1,.891,6.648,2.747,2.747,0,0,1,1.41,5,3.389,3.389,0,0,1,2.9,3.875a5.616,5.616,0,0,1,2.184-.406,5.112,5.112,0,0,1,2.172.441,3.458,3.458,0,0,1,1.48,1.246,3.261,3.261,0,0,1,.527,1.828H6.922A1.534,1.534,0,0,0,6.43,5.77a2.023,2.023,0,0,0-1.383-.434A2.162,2.162,0,0,0,3.711,5.7a1.146,1.146,0,0,0-.477.957,1.1,1.1,0,0,0,.559.93,6.311,6.311,0,0,0,1.645.7A7.106,7.106,0,0,1,8.352,9.781,2.972,2.972,0,0,1,9.266,12a2.737,2.737,0,0,1-1.117,2.316,4.891,4.891,0,0,1-3.008.84,5.808,5.808,0,0,1-2.391-.48,3.783,3.783,0,0,1-1.645-1.316,3.371,3.371,0,0,1-.566-1.937H2.891q0,1.883,2.25,1.883a2.189,2.189,0,0,0,1.3-.34A1.106,1.106,0,0,0,6.914,12.016ZM13.086,15H10.82V6.547h2.266Zm-2.4-10.641a1.112,1.112,0,0,1,.34-.836,1.277,1.277,0,0,1,.926-.328,1.28,1.28,0,0,1,.922.328,1.105,1.105,0,0,1,.344.836,1.108,1.108,0,0,1-.348.844,1.448,1.448,0,0,1-1.836,0A1.108,1.108,0,0,1,10.688,4.359Zm8.836,8.3a.727.727,0,0,0-.41-.652,4.659,4.659,0,0,0-1.316-.426q-3.016-.633-3.016-2.562a2.323,2.323,0,0,1,.934-1.879,3.766,3.766,0,0,1,2.441-.754,4.053,4.053,0,0,1,2.574.758A2.388,2.388,0,0,1,21.7,9.117H19.438a1.092,1.092,0,0,0-.312-.8A1.322,1.322,0,0,0,18.148,8a1.351,1.351,0,0,0-.883.258.814.814,0,0,0-.312.656.7.7,0,0,0,.355.605,3.657,3.657,0,0,0,1.2.4,9.8,9.8,0,0,1,1.422.379,2.336,2.336,0,0,1,1.789,2.273,2.2,2.2,0,0,1-.992,1.871,4.28,4.28,0,0,1-2.562.715,4.47,4.47,0,0,1-1.887-.379,3.166,3.166,0,0,1-1.293-1.039,2.414,2.414,0,0,1-.469-1.426h2.141a1.179,1.179,0,0,0,.445.922,1.766,1.766,0,0,0,1.109.32,1.635,1.635,0,0,0,.98-.246A.766.766,0,0,0,19.523,12.664Zm6.352-8.2V6.547H27.32V8.2H25.875v4.219a1.007,1.007,0,0,0,.18.672.9.9,0,0,0,.688.2,3.6,3.6,0,0,0,.664-.055v1.711a4.648,4.648,0,0,1-1.367.2,2.156,2.156,0,0,1-2.422-2.4V8.2H22.383V6.547h1.234V4.469Zm6.594,10.688a4.15,4.15,0,0,1-3.027-1.141,4.054,4.054,0,0,1-1.168-3.039v-.219a5.106,5.106,0,0,1,.492-2.277A3.612,3.612,0,0,1,30.16,6.934a3.914,3.914,0,0,1,2.059-.543,3.508,3.508,0,0,1,2.73,1.094,4.444,4.444,0,0,1,1,3.1v.922H30.563a2.1,2.1,0,0,0,.66,1.328,2,2,0,0,0,1.395.5,2.437,2.437,0,0,0,2.039-.945l1.109,1.242a3.389,3.389,0,0,1-1.375,1.121A4.511,4.511,0,0,1,32.469,15.156Zm-.258-6.945a1.411,1.411,0,0,0-1.09.455,2.357,2.357,0,0,0-.535,1.3h3.141V9.788a1.681,1.681,0,0,0-.406-1.165A1.456,1.456,0,0,0,32.211,8.211Zm7.133-1.664.07.945a2.971,2.971,0,0,1,2.43-1.1A2.255,2.255,0,0,1,44.086,7.68a2.9,2.9,0,0,1,2.539-1.289,2.521,2.521,0,0,1,2.047.8,3.681,3.681,0,0,1,.672,2.41V15H47.078V9.609A1.61,1.61,0,0,0,46.8,8.559a1.246,1.246,0,0,0-.992-.332A1.409,1.409,0,0,0,44.4,9.2l.008,5.8H42.148V9.617a1.59,1.59,0,0,0-.289-1.062,1.259,1.259,0,0,0-.984-.328,1.463,1.463,0,0,0-1.391.8V15H37.227V6.547ZM55.977,15a2.507,2.507,0,0,1-.227-.758,2.732,2.732,0,0,1-2.133.914,3,3,0,0,1-2.059-.719,2.312,2.312,0,0,1-.816-1.812,2.389,2.389,0,0,1,1-2.062,4.915,4.915,0,0,1,2.879-.727h1.039V9.352a1.393,1.393,0,0,0-.3-.937,1.183,1.183,0,0,0-.949-.352,1.345,1.345,0,0,0-.895.273.929.929,0,0,0-.324.75H50.93a2.268,2.268,0,0,1,.453-1.359,3,3,0,0,1,1.281-.98,4.669,4.669,0,0,1,1.859-.355A3.689,3.689,0,0,1,57,7.176a2.747,2.747,0,0,1,.918,2.207v3.664a4.041,4.041,0,0,0,.336,1.82V15Zm-1.867-1.57a1.945,1.945,0,0,0,.922-.223,1.462,1.462,0,0,0,.625-.6V11.156h-.844q-1.7,0-1.8,1.172L53,12.461a.9.9,0,0,0,.3.7A1.153,1.153,0,0,0,54.109,13.43Zm10.125-.766a.727.727,0,0,0-.41-.652,4.659,4.659,0,0,0-1.316-.426q-3.016-.633-3.016-2.562a2.323,2.323,0,0,1,.934-1.879,3.766,3.766,0,0,1,2.441-.754,4.053,4.053,0,0,1,2.574.758,2.388,2.388,0,0,1,.965,1.969H64.148a1.092,1.092,0,0,0-.312-.8A1.322,1.322,0,0,0,62.859,8a1.351,1.351,0,0,0-.883.258.814.814,0,0,0-.312.656.7.7,0,0,0,.355.605,3.657,3.657,0,0,0,1.2.4,9.8,9.8,0,0,1,1.422.379A2.336,2.336,0,0,1,66.43,12.57a2.2,2.2,0,0,1-.992,1.871,4.28,4.28,0,0,1-2.562.715,4.47,4.47,0,0,1-1.887-.379A3.166,3.166,0,0,1,59.7,13.738a2.414,2.414,0,0,1-.469-1.426h2.141a1.179,1.179,0,0,0,.445.922,1.766,1.766,0,0,0,1.109.32,1.635,1.635,0,0,0,.98-.246A.766.766,0,0,0,64.234,12.664Zm7.281-1.953A5.094,5.094,0,0,1,72.4,7.563a2.877,2.877,0,0,1,2.426-1.172,2.589,2.589,0,0,1,2.039.922V3h2.266V15H77.094l-.109-.9a2.657,2.657,0,0,1-2.172,1.055,2.869,2.869,0,0,1-2.395-1.176A5.258,5.258,0,0,1,71.516,10.711Zm2.258.168a3.337,3.337,0,0,0,.414,1.823,1.349,1.349,0,0,0,1.2.634,1.511,1.511,0,0,0,1.477-.884V9.111a1.489,1.489,0,0,0-1.461-.884Q73.773,8.227,73.773,10.879Zm11,4.277a4.15,4.15,0,0,1-3.027-1.141,4.054,4.054,0,0,1-1.168-3.039v-.219A5.106,5.106,0,0,1,81.07,8.48a3.612,3.612,0,0,1,1.395-1.547,3.914,3.914,0,0,1,2.059-.543,3.508,3.508,0,0,1,2.73,1.094,4.444,4.444,0,0,1,1,3.1v.922H82.867a2.1,2.1,0,0,0,.66,1.328,2,2,0,0,0,1.395.5,2.437,2.437,0,0,0,2.039-.945l1.109,1.242A3.389,3.389,0,0,1,86.7,14.754,4.511,4.511,0,0,1,84.773,15.156Zm-.258-6.945a1.411,1.411,0,0,0-1.09.455,2.357,2.357,0,0,0-.535,1.3h3.141V9.788a1.681,1.681,0,0,0-.406-1.165A1.456,1.456,0,0,0,84.516,8.211ZM95.9,15H93.633V6.547H95.9ZM93.5,4.359a1.112,1.112,0,0,1,.34-.836,1.465,1.465,0,0,1,1.848,0,1.105,1.105,0,0,1,.344.836,1.108,1.108,0,0,1-.348.844,1.448,1.448,0,0,1-1.836,0A1.108,1.108,0,0,1,93.5,4.359Zm6.336,2.188.07.977a2.951,2.951,0,0,1,2.43-1.133,2.453,2.453,0,0,1,2,.789,3.682,3.682,0,0,1,.672,2.359V15H102.75V9.594a1.465,1.465,0,0,0-.312-1.043,1.4,1.4,0,0,0-1.039-.324,1.553,1.553,0,0,0-1.43.813V15H97.711V6.547Zm7.5,8.453V8.2h-1.258V6.547h1.258V5.828a2.918,2.918,0,0,1,.816-2.207,3.162,3.162,0,0,1,2.285-.785,5.278,5.278,0,0,1,1.148.156l-.023,1.75a2.878,2.878,0,0,0-.687-.07q-1.273,0-1.273,1.2v.68h1.68V8.2H109.6V15Zm4.766-4.3a5.013,5.013,0,0,1,.484-2.242A3.546,3.546,0,0,1,113.98,6.93a4.069,4.069,0,0,1,2.113-.539,3.849,3.849,0,0,1,2.793,1.047,4.2,4.2,0,0,1,1.207,2.844l.016.578a4.418,4.418,0,0,1-1.086,3.121,4.209,4.209,0,0,1-5.832,0A4.5,4.5,0,0,1,112.1,10.8Zm2.258.16a3.16,3.16,0,0,0,.453,1.843,1.628,1.628,0,0,0,2.578.008,3.457,3.457,0,0,0,.461-2.015,3.128,3.128,0,0,0-.461-1.831,1.5,1.5,0,0,0-1.3-.649,1.474,1.474,0,0,0-1.281.646A3.516,3.516,0,0,0,114.359,10.856ZM126.25,8.664a6.134,6.134,0,0,0-.812-.062,1.654,1.654,0,0,0-1.68.867V15H121.5V6.547h2.133l.063,1.008a2.092,2.092,0,0,1,1.883-1.164,2.366,2.366,0,0,1,.7.1Zm3.2-2.117.07.945a2.971,2.971,0,0,1,2.43-1.1A2.255,2.255,0,0,1,134.2,7.68a2.9,2.9,0,0,1,2.539-1.289,2.521,2.521,0,0,1,2.047.8,3.681,3.681,0,0,1,.672,2.41V15h-2.266V9.609a1.61,1.61,0,0,0-.281-1.051,1.246,1.246,0,0,0-.992-.332,1.409,1.409,0,0,0-1.406.969l.008,5.8h-2.258V9.617a1.59,1.59,0,0,0-.289-1.062,1.259,1.259,0,0,0-.984-.328,1.463,1.463,0,0,0-1.391.8V15h-2.258V6.547ZM146.086,15a2.507,2.507,0,0,1-.227-.758,2.732,2.732,0,0,1-2.133.914,3,3,0,0,1-2.059-.719,2.312,2.312,0,0,1-.816-1.812,2.389,2.389,0,0,1,1-2.062,4.915,4.915,0,0,1,2.879-.727h1.039V9.352a1.393,1.393,0,0,0-.3-.937,1.183,1.183,0,0,0-.949-.352,1.345,1.345,0,0,0-.895.273.929.929,0,0,0-.324.75h-2.258a2.268,2.268,0,0,1,.453-1.359,3,3,0,0,1,1.281-.98,4.669,4.669,0,0,1,1.859-.355,3.689,3.689,0,0,1,2.48.785,2.747,2.747,0,0,1,.918,2.207v3.664a4.041,4.041,0,0,0,.336,1.82V15Zm-1.867-1.57a1.945,1.945,0,0,0,.922-.223,1.462,1.462,0,0,0,.625-.6V11.156h-.844q-1.7,0-1.8,1.172l-.008.133a.9.9,0,0,0,.3.7A1.153,1.153,0,0,0,144.219,13.43Zm9.063-.094a1.481,1.481,0,0,0,1.016-.344,1.2,1.2,0,0,0,.406-.914h2.117a2.9,2.9,0,0,1-.469,1.574,3.093,3.093,0,0,1-1.262,1.109,3.949,3.949,0,0,1-1.77.395A3.67,3.67,0,0,1,150.461,14a4.56,4.56,0,0,1-1.047-3.184v-.148a4.508,4.508,0,0,1,1.039-3.117A3.627,3.627,0,0,1,153.3,6.391a3.555,3.555,0,0,1,2.543.9,3.2,3.2,0,0,1,.973,2.4H154.7a1.551,1.551,0,0,0-.406-1.072,1.51,1.51,0,0,0-2.223.163,3.333,3.333,0,0,0-.4,1.866v.235a3.375,3.375,0,0,0,.4,1.878A1.377,1.377,0,0,0,153.281,13.336ZM160.492,15h-2.266V6.547h2.266Zm-2.4-10.641a1.112,1.112,0,0,1,.34-.836,1.465,1.465,0,0,1,1.848,0,1.105,1.105,0,0,1,.344.836,1.109,1.109,0,0,1-.348.844,1.448,1.448,0,0,1-1.836,0A1.109,1.109,0,0,1,158.094,4.359ZM162,10.7a5.013,5.013,0,0,1,.484-2.242,3.546,3.546,0,0,1,1.395-1.523,4.069,4.069,0,0,1,2.113-.539,3.849,3.849,0,0,1,2.793,1.047,4.2,4.2,0,0,1,1.207,2.844l.016.578a4.418,4.418,0,0,1-1.086,3.121,4.209,4.209,0,0,1-5.832,0A4.5,4.5,0,0,1,162,10.8Zm2.258.16a3.16,3.16,0,0,0,.453,1.843,1.628,1.628,0,0,0,2.578.008,3.457,3.457,0,0,0,.461-2.015,3.128,3.128,0,0,0-.461-1.831,1.5,1.5,0,0,0-1.3-.649,1.474,1.474,0,0,0-1.281.646A3.516,3.516,0,0,0,164.258,10.856ZM166.438,3H168.9l-2.164,2.422H164.9Zm7.039,3.547.07.977a2.951,2.951,0,0,1,2.43-1.133,2.453,2.453,0,0,1,2,.789,3.682,3.682,0,0,1,.672,2.359V15h-2.258V9.594a1.465,1.465,0,0,0-.312-1.043,1.4,1.4,0,0,0-1.039-.324,1.553,1.553,0,0,0-1.43.813V15h-2.258V6.547Z" transform="translate(960 8960)" fill="#12263f"/>
      <g id="Group_1016996" data-name="Group 1016996" transform="translate(390 8687)">
        <g id="Group_1016995" data-name="Group 1016995" clip-path="url(#clip-path-4)">
          <path id="Path_608363" data-name="Path 608363" d="M104.719,137.7l-58.485-1.075a17.934,17.934,0,0,1-15.31-9.155L2.3,76.456a17.936,17.936,0,0,1,.247-17.983L32.283,8.729A17.938,17.938,0,0,1,48.007,0l58.485,1.075a17.936,17.936,0,0,1,15.31,9.155l28.629,51.01a17.94,17.94,0,0,1-.246,17.984l-29.742,49.745a17.933,17.933,0,0,1-15.724,8.728" fill="#304c8e"/>
        </g>
      </g>
      <g id="Group_1016997" data-name="Group 1016997" transform="translate(1057.274 8687)">
        <g id="Group_1016995-2" data-name="Group 1016995" clip-path="url(#clip-path-4)">
          <path id="Path_608363-2" data-name="Path 608363" d="M104.719,137.7l-58.485-1.075a17.934,17.934,0,0,1-15.31-9.155L2.3,76.456a17.936,17.936,0,0,1,.247-17.983L32.283,8.729A17.938,17.938,0,0,1,48.007,0l58.485,1.075a17.936,17.936,0,0,1,15.31,9.155l28.629,51.01a17.94,17.94,0,0,1-.246,17.984l-29.742,49.745a17.933,17.933,0,0,1-15.724,8.728" fill="#304c8e"/>
        </g>
      </g>
      <path id="Path_609164" data-name="Path 609164" d="M27.121,9.57a6.867,6.867,0,0,1-.594,2.945,4.472,4.472,0,0,1-1.7,1.953,5.021,5.021,0,0,1-5.059.008,4.515,4.515,0,0,1-1.719-1.941,6.67,6.67,0,0,1-.617-2.9V9.07a6.831,6.831,0,0,1,.605-2.957A4.508,4.508,0,0,1,19.75,4.152a5.014,5.014,0,0,1,5.055,0,4.508,4.508,0,0,1,1.711,1.961,6.811,6.811,0,0,1,.605,2.949Zm-2.375-.516a4.787,4.787,0,0,0-.641-2.719,2.263,2.263,0,0,0-3.648-.012,4.732,4.732,0,0,0-.648,2.691V9.57a4.847,4.847,0,0,0,.641,2.7,2.243,2.243,0,0,0,3.656.035,4.819,4.819,0,0,0,.641-2.7Zm11.539,1.8A5.07,5.07,0,0,1,35.4,13.98,2.843,2.843,0,0,1,33,15.156a2.633,2.633,0,0,1-2.07-.891V18.25H28.676V6.547H30.77l.078.828a2.654,2.654,0,0,1,2.141-.984,2.862,2.862,0,0,1,2.43,1.156,5.207,5.207,0,0,1,.867,3.188Zm-2.258-.164a3.327,3.327,0,0,0-.418-1.82,1.361,1.361,0,0,0-1.215-.641,1.478,1.478,0,0,0-1.461.813V12.5a1.5,1.5,0,0,0,1.477.836Q34.027,13.336,34.027,10.688Zm3.3.008a5.013,5.013,0,0,1,.484-2.242A3.546,3.546,0,0,1,39.211,6.93a4.069,4.069,0,0,1,2.113-.539,3.849,3.849,0,0,1,2.793,1.047,4.2,4.2,0,0,1,1.207,2.844l.016.578a4.418,4.418,0,0,1-1.086,3.121,4.209,4.209,0,0,1-5.832,0,4.5,4.5,0,0,1-1.09-3.187Zm2.258.16a3.16,3.16,0,0,0,.453,1.843,1.628,1.628,0,0,0,2.578.008,3.457,3.457,0,0,0,.461-2.015,3.128,3.128,0,0,0-.461-1.831,1.5,1.5,0,0,0-1.3-.649,1.474,1.474,0,0,0-1.281.646A3.516,3.516,0,0,0,39.59,10.856ZM51.48,8.664a6.134,6.134,0,0,0-.812-.062,1.654,1.654,0,0,0-1.68.867V15H46.73V6.547h2.133l.063,1.008a2.092,2.092,0,0,1,1.883-1.164,2.366,2.366,0,0,1,.7.1Zm4.18-4.2V6.547h1.445V8.2H55.66v4.219a1.007,1.007,0,0,0,.18.672.9.9,0,0,0,.688.2,3.6,3.6,0,0,0,.664-.055v1.711a4.648,4.648,0,0,1-1.367.2,2.156,2.156,0,0,1-2.422-2.4V8.2H52.168V6.547H53.4V4.469Zm7.766,9.672a2.831,2.831,0,0,1-2.312,1.016,2.67,2.67,0,0,1-2.074-.781,3.335,3.335,0,0,1-.73-2.289V6.547h2.258v5.467q0,1.322,1.2,1.322a1.63,1.63,0,0,0,1.578-.8V6.547h2.266V15H63.488Zm5.969-7.594.07.977a2.951,2.951,0,0,1,2.43-1.133,2.453,2.453,0,0,1,2,.789,3.682,3.682,0,0,1,.672,2.359V15H72.309V9.594A1.465,1.465,0,0,0,72,8.551a1.4,1.4,0,0,0-1.039-.324,1.553,1.553,0,0,0-1.43.813V15H67.27V6.547ZM78.66,15H76.395V6.547H78.66Zm-2.4-10.641a1.112,1.112,0,0,1,.34-.836,1.465,1.465,0,0,1,1.848,0,1.105,1.105,0,0,1,.344.836,1.108,1.108,0,0,1-.348.844,1.448,1.448,0,0,1-1.836,0A1.108,1.108,0,0,1,76.262,4.359Zm3.906,6.352a5.094,5.094,0,0,1,.887-3.148A2.877,2.877,0,0,1,83.48,6.391a2.589,2.589,0,0,1,2.039.922V3h2.266V15H85.746l-.109-.9a2.657,2.657,0,0,1-2.172,1.055A2.869,2.869,0,0,1,81.07,13.98,5.258,5.258,0,0,1,80.168,10.711Zm2.258.168A3.337,3.337,0,0,0,82.84,12.7a1.349,1.349,0,0,0,1.2.634,1.511,1.511,0,0,0,1.477-.884V9.111a1.489,1.489,0,0,0-1.461-.884Q82.426,8.227,82.426,10.879ZM94.434,15a2.507,2.507,0,0,1-.227-.758,2.732,2.732,0,0,1-2.133.914,3,3,0,0,1-2.059-.719,2.312,2.312,0,0,1-.816-1.812,2.389,2.389,0,0,1,1-2.062,4.915,4.915,0,0,1,2.879-.727h1.039V9.352a1.393,1.393,0,0,0-.3-.937,1.183,1.183,0,0,0-.949-.352,1.345,1.345,0,0,0-.895.273.929.929,0,0,0-.324.75H89.387a2.268,2.268,0,0,1,.453-1.359,3,3,0,0,1,1.281-.98,4.669,4.669,0,0,1,1.859-.355,3.689,3.689,0,0,1,2.48.785,2.747,2.747,0,0,1,.918,2.207v3.664a4.041,4.041,0,0,0,.336,1.82V15Zm-1.867-1.57a1.945,1.945,0,0,0,.922-.223,1.462,1.462,0,0,0,.625-.6V11.156H93.27q-1.7,0-1.8,1.172l-.008.133a.9.9,0,0,0,.3.7A1.153,1.153,0,0,0,92.566,13.43Zm5.2-2.719a5.094,5.094,0,0,1,.887-3.148,2.877,2.877,0,0,1,2.426-1.172,2.589,2.589,0,0,1,2.039.922V3h2.266V15H103.34l-.109-.9a2.657,2.657,0,0,1-2.172,1.055,2.869,2.869,0,0,1-2.395-1.176A5.258,5.258,0,0,1,97.762,10.711Zm2.258.168a3.337,3.337,0,0,0,.414,1.823,1.349,1.349,0,0,0,1.2.634,1.511,1.511,0,0,0,1.477-.884V9.111a1.489,1.489,0,0,0-1.461-.884Q100.02,8.227,100.02,10.879Zm7.82,5.1h-1.68l4.188-12.352h1.68ZM31.5,39V27.625H35a5.315,5.315,0,0,1,2.684.676,4.712,4.712,0,0,1,1.848,1.922,5.928,5.928,0,0,1,.664,2.832v.523a5.945,5.945,0,0,1-.652,2.82,4.672,4.672,0,0,1-1.84,1.914,5.355,5.355,0,0,1-2.68.688Zm2.344-9.477v7.594h1.133a2.545,2.545,0,0,0,2.1-.9,4.06,4.06,0,0,0,.742-2.57v-.6a4.124,4.124,0,0,0-.719-2.629,2.537,2.537,0,0,0-2.1-.895Zm11.8,9.633a4.15,4.15,0,0,1-3.027-1.141,4.054,4.054,0,0,1-1.168-3.039v-.219a5.106,5.106,0,0,1,.492-2.277,3.612,3.612,0,0,1,1.395-1.547,3.914,3.914,0,0,1,2.059-.543,3.508,3.508,0,0,1,2.73,1.094,4.444,4.444,0,0,1,1,3.1v.922H43.734a2.1,2.1,0,0,0,.66,1.328,2,2,0,0,0,1.395.5,2.437,2.437,0,0,0,2.039-.945l1.109,1.242a3.389,3.389,0,0,1-1.375,1.121A4.511,4.511,0,0,1,45.641,39.156Zm-.258-6.945a1.411,1.411,0,0,0-1.09.455,2.357,2.357,0,0,0-.535,1.3H46.9v-.181a1.681,1.681,0,0,0-.406-1.165A1.456,1.456,0,0,0,45.383,32.211Zm7.133-1.664.07.945a2.971,2.971,0,0,1,2.43-1.1,2.255,2.255,0,0,1,2.242,1.289A2.9,2.9,0,0,1,59.8,30.391a2.521,2.521,0,0,1,2.047.8,3.681,3.681,0,0,1,.672,2.41V39H60.25V33.609a1.61,1.61,0,0,0-.281-1.051,1.246,1.246,0,0,0-.992-.332,1.409,1.409,0,0,0-1.406.969l.008,5.8H55.32V33.617a1.59,1.59,0,0,0-.289-1.062,1.259,1.259,0,0,0-.984-.328,1.463,1.463,0,0,0-1.391.8V39H50.4V30.547ZM69.148,39a2.507,2.507,0,0,1-.227-.758,2.732,2.732,0,0,1-2.133.914,3,3,0,0,1-2.059-.719,2.312,2.312,0,0,1-.816-1.812,2.389,2.389,0,0,1,1-2.062,4.915,4.915,0,0,1,2.879-.727h1.039v-.484a1.393,1.393,0,0,0-.3-.937,1.183,1.183,0,0,0-.949-.352,1.345,1.345,0,0,0-.895.273.929.929,0,0,0-.324.75H64.1a2.268,2.268,0,0,1,.453-1.359,3,3,0,0,1,1.281-.98,4.669,4.669,0,0,1,1.859-.355,3.689,3.689,0,0,1,2.48.785,2.747,2.747,0,0,1,.918,2.207v3.664a4.041,4.041,0,0,0,.336,1.82V39Zm-1.867-1.57a1.945,1.945,0,0,0,.922-.223,1.462,1.462,0,0,0,.625-.6V35.156h-.844q-1.7,0-1.8,1.172l-.008.133a.9.9,0,0,0,.3.7A1.153,1.153,0,0,0,67.281,37.43Zm7.625-6.883.07.977a2.951,2.951,0,0,1,2.43-1.133,2.453,2.453,0,0,1,2,.789,3.682,3.682,0,0,1,.672,2.359V39H77.82V33.594a1.465,1.465,0,0,0-.312-1.043,1.4,1.4,0,0,0-1.039-.324,1.553,1.553,0,0,0-1.43.813V39H72.781V30.547Zm6.531,4.164a5.094,5.094,0,0,1,.887-3.148,2.877,2.877,0,0,1,2.426-1.172,2.589,2.589,0,0,1,2.039.922V27h2.266V39H87.016l-.109-.9a2.657,2.657,0,0,1-2.172,1.055A2.869,2.869,0,0,1,82.34,37.98,5.258,5.258,0,0,1,81.438,34.711Zm2.258.168a3.337,3.337,0,0,0,.414,1.823,1.349,1.349,0,0,0,1.2.634,1.511,1.511,0,0,0,1.477-.884V33.111a1.489,1.489,0,0,0-1.461-.884Q83.7,32.227,83.7,34.879ZM95.7,39a2.507,2.507,0,0,1-.227-.758,2.732,2.732,0,0,1-2.133.914,3,3,0,0,1-2.059-.719,2.312,2.312,0,0,1-.816-1.812,2.389,2.389,0,0,1,1-2.062,4.915,4.915,0,0,1,2.879-.727h1.039v-.484a1.393,1.393,0,0,0-.3-.937,1.183,1.183,0,0,0-.949-.352,1.345,1.345,0,0,0-.895.273.929.929,0,0,0-.324.75H90.656a2.268,2.268,0,0,1,.453-1.359,3,3,0,0,1,1.281-.98,4.669,4.669,0,0,1,1.859-.355,3.689,3.689,0,0,1,2.48.785,2.747,2.747,0,0,1,.918,2.207v3.664a4.041,4.041,0,0,0,.336,1.82V39Zm-1.867-1.57a1.945,1.945,0,0,0,.922-.223,1.462,1.462,0,0,0,.625-.6V35.156h-.844q-1.7,0-1.8,1.172l-.008.133a.9.9,0,0,0,.3.7A1.153,1.153,0,0,0,93.836,37.43Z" transform="translate(401 8706)" fill="#fff"/>
      <path id="Path_609165" data-name="Path 609165" d="M50.816,12.18l2.578-8.555H56L52.043,15H49.6L45.652,3.625h2.6ZM61.465,15a2.507,2.507,0,0,1-.227-.758,2.732,2.732,0,0,1-2.133.914,3,3,0,0,1-2.059-.719,2.312,2.312,0,0,1-.816-1.812,2.389,2.389,0,0,1,1-2.062,4.915,4.915,0,0,1,2.879-.727h1.039V9.352a1.393,1.393,0,0,0-.3-.937,1.183,1.183,0,0,0-.949-.352A1.345,1.345,0,0,0,59,8.336a.929.929,0,0,0-.324.75H56.418a2.268,2.268,0,0,1,.453-1.359,3,3,0,0,1,1.281-.98,4.669,4.669,0,0,1,1.859-.355,3.689,3.689,0,0,1,2.48.785,2.747,2.747,0,0,1,.918,2.207v3.664a4.041,4.041,0,0,0,.336,1.82V15ZM59.6,13.43a1.945,1.945,0,0,0,.922-.223,1.462,1.462,0,0,0,.625-.6V11.156H60.3q-1.7,0-1.8,1.172l-.008.133a.9.9,0,0,0,.3.7A1.153,1.153,0,0,0,59.6,13.43ZM67.527,15H65.262V3h2.266Zm1.508-4.3a5.013,5.013,0,0,1,.484-2.242A3.546,3.546,0,0,1,70.914,6.93a4.069,4.069,0,0,1,2.113-.539A3.849,3.849,0,0,1,75.82,7.438a4.2,4.2,0,0,1,1.207,2.844l.016.578a4.418,4.418,0,0,1-1.086,3.121,4.209,4.209,0,0,1-5.832,0,4.5,4.5,0,0,1-1.09-3.187Zm2.258.16a3.16,3.16,0,0,0,.453,1.843,1.628,1.628,0,0,0,2.578.008,3.457,3.457,0,0,0,.461-2.015,3.128,3.128,0,0,0-.461-1.831,1.5,1.5,0,0,0-1.3-.649,1.474,1.474,0,0,0-1.281.646A3.516,3.516,0,0,0,71.293,10.856ZM83.184,8.664a6.134,6.134,0,0,0-.812-.062,1.654,1.654,0,0,0-1.68.867V15H78.434V6.547h2.133l.063,1.008a2.092,2.092,0,0,1,1.883-1.164,2.366,2.366,0,0,1,.7.1Z" transform="translate(1069 8708)" fill="#fff"/>
      <g id="Group_1071680" data-name="Group 1071680" transform="translate(431.2 8754.995)">
        <g id="Group_1071679" data-name="Group 1071679" transform="translate(-0.2 0.005)" clip-path="url(#clip-path-6)">
          <path id="Path_608991" data-name="Path 608991" d="M103.625,164.926c6.467,2.557,10.467,7.774,9.568,17.49H84.925c-.875-7.109,1.057-14.128,9.566-17.515a8.219,8.219,0,0,1-3.584-7.41,7.824,7.824,0,0,1,2.65-5.417,8.09,8.09,0,0,1,11.263.331c3.482,3.547,3.055,8.024-1.2,12.521m1.487-6.832a6.094,6.094,0,1,0-6.146,6.094,6.122,6.122,0,0,0,6.146-6.094m-6.2,19.774.231-.026,3.622-10.985a11.359,11.359,0,0,0-7.485.02l3.632,10.992m-9.331-6.945a12.359,12.359,0,0,0-2.706,9.47h7.371l.179-.239-4.033-3.66,1.927-2.036c-1.45-.839-2.928-1.533-2.737-3.535m18.095,5.2.051.557-4.044,3.7h7.483c.438-4.169-1.152-8.357-2.853-9.426.452,2.1-1.308,2.6-2.635,3.622l2,1.542m-3.034-8.393-2.016,6.125c.972-.395,1.725-1.024,2.584-1.426,1.129-.528,1.1-1.54,1.352-2.49.388-1.451-.877-1.572-1.608-2.131-.046-.036-.123-.032-.312-.077m-11.272-.092a8.764,8.764,0,0,0-1.007.606c-.35.286-.942.642-.925.94a4.423,4.423,0,0,0,.607,2.574,16.967,16.967,0,0,0,3.194,2.23l.18-.13-2.048-6.219m11.08,8.836-1.966-2.218-2.038,6.21,4-3.992m-6.839,4-2.026-6.121-2.1,1.987,4.127,4.133" transform="translate(-67.289 -119.495)" fill="#fff"/>
          <path id="Path_608992" data-name="Path 608992" d="M197.29,75.406l-3.6-3.3,17.568-3.518-3.526,17.63-3.342-3.6-8.676,8.99-7.457-7.488,9.029-8.718m11.357-4.2L198.054,73.33l-.264.436,2.393,1.72-8.927,8.586,4.458,4.6,8.752-9.091,2.016,2.494,2.165-10.874" transform="translate(-149.77 -54.675)" fill="#fff"/>
          <path id="Path_608993" data-name="Path 608993" d="M26.215,72.092l-3.6,3.347,9,8.686-7.486,7.461-8.653-8.968-3.36,3.6L8.578,68.561l17.637,3.531M15.488,79.661l8.66,9.007,4.523-4.544-9.147-8.8,2.613-1.961L11.2,71.184,13.38,82.11l2.108-2.449" transform="translate(-6.617 -54.651)" fill="#fff"/>
          <path id="Path_608994" data-name="Path 608994" d="M115.6,5.919,125.62,20.947h-4.9V33.117H110.539V21.005h-4.99L115.6,5.919m3.074,25.2V18.905H121.8l-6.2-9.293L109.353,19h3.261V31.121Z" transform="translate(-83.873 -4.745)" fill="#fff"/>
          <path id="Path_608995" data-name="Path 608995" d="M6.1,3.006A3.049,3.049,0,1,1,3.034,0,3.058,3.058,0,0,1,6.1,3.006M3.064,1.641C2.6,2.262,2.161,2.6,2.087,3a.877.877,0,0,0,.957,1.039.876.876,0,0,0,.973-1.024c-.067-.4-.5-.742-.952-1.371" transform="translate(0.215 -0.03)" fill="#fff"/>
          <path id="Path_608996" data-name="Path 608996" d="M283.012,0A3.049,3.049,0,1,1,280,3.063,3.053,3.053,0,0,1,283.012,0M283,4.456c.488-.609.934-.929,1.02-1.327A.82.82,0,0,0,283.1,2.1a1.508,1.508,0,0,0-.985.978c-.064.309.446.738.882,1.38" transform="translate(-222.861 -0.03)" fill="#fff"/>
          <path id="Path_608997" data-name="Path 608997" d="M3.095,191.1a3.049,3.049,0,1,1,3-3.07,3.056,3.056,0,0,1-3,3.07m1.12-2.87-.025-.425c-.379-.252-.812-.76-1.122-.693-.393.085-.685.636-1.02.986.333.319.66.883,1,.891.383.009.778-.484,1.167-.759" transform="translate(0.217 -147.419)" fill="#fff"/>
          <path id="Path_608998" data-name="Path 608998" d="M286.1,188.084A3.049,3.049,0,1,1,283.11,185a3.056,3.056,0,0,1,2.987,3.085m-1.6.041c-.656-.516-.981-.961-1.38-1.042a.827.827,0,0,0-1.026.931,1.379,1.379,0,0,0,.883.972c.382.036.811-.429,1.524-.861" transform="translate(-222.856 -147.417)" fill="#fff"/>
          <path id="Path_608999" data-name="Path 608999" d="M3.04,286.1A3.049,3.049,0,1,1,6.1,283.085,3.052,3.052,0,0,1,3.04,286.1m.009-4.457c-.461.628-.892.966-.961,1.367a.876.876,0,0,0,.968,1.029A.877.877,0,0,0,4.017,283c-.071-.4-.5-.736-.969-1.362" transform="translate(0.214 -223.103)" fill="#fff"/>
          <path id="Path_609000" data-name="Path 609000" d="M283.085,286.1a3.049,3.049,0,1,1,3.014-3.059,3.055,3.055,0,0,1-3.014,3.059m.194-4.191-.427-.02c-.268.394-.754.8-.739,1.179a1.378,1.378,0,0,0,.916.939.825.825,0,0,0,.986-.971c-.058-.4-.478-.753-.736-1.128" transform="translate(-222.859 -223.104)" fill="#fff"/>
          <path id="Path_609001" data-name="Path 609001" d="M28.58,270.259l1.428,1.239-1.426,1.387-1.354-1.516,1.352-1.11" transform="translate(-21.475 -215.343)" fill="#fff"/>
          <path id="Path_609002" data-name="Path 609002" d="M27.112,27.769l1.3-1.52L29.9,27.715l-1.464,1.49-1.322-1.436" transform="translate(-21.383 -20.942)" fill="#fff"/>
          <path id="Path_609003" data-name="Path 609003" d="M270.579,29.693l-1.509-1.4,1.532-1.337,1.387,1.43-1.41,1.306" transform="translate(-214.15 -21.506)" fill="#fff"/>
          <path id="Path_609004" data-name="Path 609004" d="M271.776,270.126l1.372,1.271-1.513,1.409-1.176-1.492,1.317-1.188" transform="translate(-215.256 -215.237)" fill="#fff"/>
          <path id="Path_609005" data-name="Path 609005" d="M57.946,56.407,56.54,57.771l-1.168-1.383,1.365-1.35,1.209,1.369" transform="translate(-43.898 -43.878)" fill="#fff"/>
          <path id="Path_609006" data-name="Path 609006" d="M40.618,256.526l1.429-1.507,1.279,1.582-1.445,1.115-1.262-1.19" transform="translate(-32.143 -203.202)" fill="#fff"/>
          <path id="Path_609007" data-name="Path 609007" d="M257.1,256.026l1.355,1.281-1.468,1.381-1.333-1.5,1.446-1.16" transform="translate(-203.46 -204.004)" fill="#fff"/>
          <path id="Path_609008" data-name="Path 609008" d="M241.874,56.2l1.195-1.242,1.454,1.518L243.2,57.653,241.874,56.2" transform="translate(-192.483 -43.813)" fill="#fff"/>
          <path id="Path_609009" data-name="Path 609009" d="M257.331,41.377l1.3,1.27-1.6,1.3-1.149-1.38,1.451-1.193" transform="translate(-203.641 -32.994)" fill="#fff"/>
          <path id="Path_609010" data-name="Path 609010" d="M57.761,243.168l-1.37,1.152-1.329-1.351,1.3-1.257,1.4,1.455" transform="translate(-43.651 -192.601)" fill="#fff"/>
          <path id="Path_609011" data-name="Path 609011" d="M241.789,242.686l1.371-1.477,1.279,1.39-1.414,1.392-1.236-1.3" transform="translate(-192.415 -192.199)" fill="#fff"/>
          <path id="Path_609012" data-name="Path 609012" d="M44.339,42.886l-1.263,1.2-1.2-1.466,1.293-1.167,1.166,1.428" transform="translate(-33.149 -33.059)" fill="#fff"/>
          <rect id="Rectangle_377707" data-name="Rectangle 377707" width="1.923" height="1.905" transform="translate(44.99 39.688)" fill="#fff"/>
          <rect id="Rectangle_377708" data-name="Rectangle 377708" width="1.946" height="1.873" transform="translate(49.03 39.692)" fill="#fff"/>
          <rect id="Rectangle_377709" data-name="Rectangle 377709" width="1.906" height="1.924" transform="translate(53.131 39.66)" fill="#fff"/>
          <rect id="Rectangle_377710" data-name="Rectangle 377710" width="1.946" height="1.897" transform="translate(8.417 39.674)" fill="#fff"/>
          <rect id="Rectangle_377711" data-name="Rectangle 377711" width="1.913" height="1.931" transform="translate(12.466 39.657)" fill="#fff"/>
          <rect id="Rectangle_377712" data-name="Rectangle 377712" width="1.905" height="1.923" transform="translate(16.536 39.661)" fill="#fff"/>
        </g>
      </g>
      <g id="Group_1071682" data-name="Group 1071682" transform="translate(1100 8745.396)">
        <g id="Group_1071681" data-name="Group 1071681" clip-path="url(#clip-path-7)">
          <path id="Path_609013" data-name="Path 609013" d="M2.423,65.693H4.553c0-1.395.012-2.74,0-4.084-.01-.812.214-1.482,1.137-1.48s1.142.676,1.132,1.486c-.017,1.344,0,2.688,0,4.08H9.07q0-3.04,0-6.061c0-.565-.007-1.129,0-1.693a1.073,1.073,0,0,1,1.071-1.2,1.07,1.07,0,0,1,1.177,1.207c.015,2.107.007,4.215.007,6.322,0,.446,0,.892,0,1.407h2.257c0-3.031,0-6.031,0-9.03,0-.376-.127-.833.041-1.11.255-.422.716-.993,1.089-.992a1.518,1.518,0,0,1,1.07.986A11.687,11.687,0,0,1,15.847,58c0,2.548,0,5.1,0,7.695h2.26c0-1.835-.006-3.664,0-5.493a1.074,1.074,0,0,1,1.067-1.207,1.063,1.063,0,0,1,1.176,1.093c.03.3.011.6.011.9,0,1.537,0,3.074,0,4.683h2.259c0-.692,0-1.359,0-2.027,0-.749.348-1.262,1.124-1.263s1.123.509,1.13,1.258c.006.667,0,1.335,0,2.051H28.27c0-.7-.013-1.4,0-2.1.018-.756.4-1.235,1.176-1.208a1.073,1.073,0,0,1,1.072,1.2c.013.672,0,1.344,0,2.088h2.26c0-2.535,0-5.045,0-7.556,0-.376.007-.753,0-1.129-.016-.784.278-1.373,1.125-1.377s1.139.582,1.137,1.367c-.006,2.521,0,5.042,0,7.564v1.151H37.3c0-1.828-.005-3.657,0-5.485a1.077,1.077,0,0,1,1.062-1.213,1.061,1.061,0,0,1,1.181,1.088,8.9,8.9,0,0,1,.011.9c0,1.538,0,3.075,0,4.687H41.82c0-1.364.013-2.708,0-4.052-.011-.809.2-1.485,1.127-1.49s1.151.663,1.142,1.475c-.016,1.345,0,2.69,0,4.087h2.258c0-1.336.014-2.676-.005-4.015-.012-.847.184-1.574,1.182-1.546.924.026,1.1.733,1.088,1.53-.019,1.312,0,2.624,0,4.01h3.388c0-.686,0-1.353,0-2.019,0-.748.343-1.263,1.12-1.268s1.127.5,1.135,1.254c.007.668,0,1.336,0,2.055H56.5V61.338c0-1.43.01-2.86,0-4.29-.008-.825.262-1.462,1.179-1.436.848.024,1.09.645,1.088,1.417-.01,2.855,0,5.71,0,8.64h2.258c0-1.7.013-3.382-.005-5.064-.009-.827.12-1.6,1.124-1.6s1.155.749,1.146,1.583c-.018,1.684-.005,3.368-.005,5.1h2.258c0-1.332.014-2.671-.005-4.01-.012-.846.18-1.575,1.179-1.549.924.024,1.1.729,1.091,1.526-.018,1.543,0,3.086-.006,4.629,0,1.411-.307,1.718-1.715,1.718q-15.7,0-31.392,0H1.94c-1.66,0-1.9-.239-1.9-1.869q0-32,0-64.009c0-.3-.1-.688.041-.884.282-.38.705-.9,1.075-.9s.839.489,1.088.878c.173.27.054.732.054,1.107q0,15.523,0,31.045v1.376C4.632,33.873,6.856,33.1,9.033,32.2a2.166,2.166,0,0,1,2.548.43c1.325,1.16,2.746,2.21,4.223,3.383L23.3,28.458c.186-.187.367-.379.561-.557,1.006-.925,1.92-.663,2.165.68.478,2.62.9,5.25,1.338,7.877.174,1.035.345,2.071.535,3.212a3.97,3.97,0,0,0,.646-.371c1.819-1.577,3.659-3.133,5.423-4.769.47-.436.654-1.164,1.06-1.688.295-.38.732-.881,1.118-.892s.783.517,1.156.833c.292.248.505.658.834.781,1.4.521,2.828.962,4.326,1.459q2.743-4.293,5.464-8.551c.626-.981,1.221-1.984,1.879-2.943a1.14,1.14,0,0,1,2.133.07c.647,1.094,1.231,2.226,1.915,3.473.559-.851,1.031-1.6,1.53-2.322.626-.912,1.143-1,2.067-.37.858.59,1.7,1.2,2.639,1.87.34-.908.633-1.713.941-2.512.265-.686.751-1.08,1.49-.805a1.088,1.088,0,0,1,.642,1.565c-.192.529-.367,1.063-.559,1.592-.629,1.727-.631,1.726,1.132,2.632.533-2.124,1.052-4.229,1.591-6.328.219-.85.255-1.926,1.568-1.772.815.1,1.022.82.675,2.233q-.94,3.82-1.914,7.632c-.388,1.511-1.09,1.763-2.34.878-.642-.455-1.284-.912-2.068-1.469-.393,1.033-.766,1.988-1.121,2.95-.428,1.161-.778,2.356-1.291,3.477a2.024,2.024,0,0,1-1.174,1.116c-.353.061-.963-.484-1.216-.9-.943-1.574-1.786-3.207-2.748-4.966-.318.463-.569.81-.8,1.168-3.239,4.976-6.46,9.963-9.736,14.914A2.292,2.292,0,0,1,41.663,48.7c-.388,0-.934-.766-1.146-1.3-1.418-3.549-2.766-7.126-4.139-10.693-.066-.171-.159-.331-.316-.655-.668,1.436-1.288,2.738-1.884,4.052-2.668,5.876-5.315,11.762-8.022,17.62-.231.5-.842,1.143-1.278,1.144s-1.042-.65-1.263-1.152c-1.98-4.495-3.891-9.02-5.934-13.8-.928.984-1.756,1.9-2.62,2.77-1.518,1.537-2.236,1.346-2.827-.689-.752-2.59-1.53-5.173-2.3-7.757a2.421,2.421,0,0,0-.288-.46c-2.407,3.006-4.78,5.962-7.136,8.932a1.245,1.245,0,0,0-.2.728q0,9.03.021,18.061c0,.032.032.063.1.184M24.143,30.9c-.432.406-.734.676-1.02.961q-3.036,3.031-6.067,6.064c-.969.964-1.319.965-2.4.1-.978-.784-1.963-1.558-3.207-2.544l2.725,9.051c1-1.075,1.8-1.969,2.642-2.823,1.2-1.217,1.932-1.08,2.586.45q1.948,4.552,3.889,9.107c.51,1.189,1.037,2.371,1.63,3.727l6.951-15.3a42.432,42.432,0,0,0-3.753,2.988c-1,.844-1.831.555-2.132-.7-.052-.219-.115-.437-.151-.659-.557-3.406-1.109-6.813-1.7-10.423m17.942,14.29c3.466-5.335,6.8-10.461,10.113-15.6a.818.818,0,0,0,.026-.686c-.432-.866-.916-1.706-1.433-2.651-.334.5-.609.889-.866,1.292-1.917,3.007-3.845,6.008-5.734,9.032a1.5,1.5,0,0,1-2.061.749c-1.095-.423-2.229-.746-3.525-1.171l3.479,9.032M9.027,34.906l-.111-.186L2.373,37.152v6.069l6.654-8.315m48.4-1.286c.374-1.036.643-1.8.925-2.56,1.012-2.727,1.014-2.726-1.556-4.275-.407.613-.784,1.255-1.237,1.839a1.158,1.158,0,0,0-.058,1.512c.641,1.047,1.194,2.147,1.926,3.484" transform="translate(0 -0.264)" fill="#fff"/>
          <path id="Path_609014" data-name="Path 609014" d="M103.717,27.1a13.548,13.548,0,1,1,13.594-13.5,13.555,13.555,0,0,1-13.594,13.5M115.051,13.57a11.29,11.29,0,1,0-11.4,11.262,11.335,11.335,0,0,0,11.4-11.262" transform="translate(-69.846 0)" fill="#fff"/>
          <path id="Path_609015" data-name="Path 609015" d="M137.4,38.663c-.428,0-.764.027-1.1-.006-.7-.069-1.217-.495-1.056-1.165a1.763,1.763,0,0,1,1.07-1.035,6.279,6.279,0,0,1,1.9-.046c.767.016,1.4-.233,1.447-1.066s-.53-1.119-1.311-1.21a3.347,3.347,0,0,1-3.1-2.666,3.493,3.493,0,0,1,1.63-3.664,1.438,1.438,0,0,0,.53-.954c.045-.841.072-1.7,1.157-1.7s1.161.858,1.135,1.7a4.3,4.3,0,0,0,.061.532c.4,0,.847-.133,1.113.03.421.258.993.715.993,1.089s-.563.947-.986,1.074a6.989,6.989,0,0,1-2.016.056c-.778-.008-1.375.279-1.394,1.117-.017.77.522,1.061,1.255,1.153a3.342,3.342,0,0,1,3.136,2.615,3.458,3.458,0,0,1-1.559,3.693,1.575,1.575,0,0,0-.578,1.037c-.051.862-.141,1.68-1.217,1.643-1-.035-1.111-.835-1.076-1.647a5.83,5.83,0,0,0-.045-.582" transform="translate(-104.666 -19.473)" fill="#fff"/>
        </g>
      </g>
    </g>
  </g>
</svg>
