<svg xmlns="http://www.w3.org/2000/svg" xmlns:xlink="http://www.w3.org/1999/xlink" width="69" height="68.998" viewBox="0 0 69 68.998">
  <defs>
    <clipPath id="clip-path">
      <rect id="Rectangle_377715" data-name="Rectangle 377715" width="69" height="68.998" fill="none"/>
    </clipPath>
  </defs>
  <g id="Group_1071684" data-name="Group 1071684" transform="translate(0 -14)">
    <g id="Group_1071683" data-name="Group 1071683" transform="translate(0 14)" clip-path="url(#clip-path)">
      <path id="Path_609016" data-name="Path 609016" d="M34.473,0A34.5,34.5,0,1,1,0,34.312,34.454,34.454,0,0,1,34.473,0M7.772,33.407c.249.017.5.015.747.053,1.017.161,1.472-.12,1.373-1.287a43.6,43.6,0,0,1-.023-4.4,2.008,2.008,0,0,1,2.105-2.177c.643-.036,1.289-.019,1.933-.011.312,0,.554-.037.631-.409.384-1.867.78-3.732,1.2-5.711A27.244,27.244,0,0,0,9.9,22.585a18.4,18.4,0,0,0-4.983,4.371,12.7,12.7,0,0,0-2.7,5.652c-.1.514-.151.888.606.859,1.649-.062,3.3-.045,4.951-.06M9.9,46.415a25.877,25.877,0,0,0,5.9,3.125c-.476-1.958-.951-3.708-1.2-5.5-.067-.48-.3-.657-.793-.626a15.288,15.288,0,0,1-1.825,0,2.012,2.012,0,0,1-2.108-2.176c-.024-1.253-.006-2.507-.007-3.76,0-2.03,0-2.03-2.09-1.876-1.579-.015-3.158,0-4.735-.06-.783-.031-.981.169-.8.964C3.26,41,6.18,44.009,9.9,46.415m2.227,3.79a30.472,30.472,0,0,1-8.406-6.3,1.931,1.931,0,0,0,.191,1.434,30.646,30.646,0,0,0,2.421,5.251A32.06,32.06,0,0,0,24.737,65.4a.322.322,0,0,0,.448.083l-.251-.28a32.767,32.767,0,0,1-3.922-4.367,39.5,39.5,0,0,1-4.178-8.2,1.048,1.048,0,0,0-.665-.738c-1.363-.522-2.7-1.122-4.042-1.692M21.011,8.167A32.539,32.539,0,0,1,24.931,3.8l.256-.28a.326.326,0,0,0-.453.079c-.345.1-.7.166-1.034.291A32.456,32.456,0,0,0,4.834,21.382a10.265,10.265,0,0,0-1.129,3.587,32.77,32.77,0,0,1,8.424-6.175c1.345-.57,2.678-1.169,4.042-1.691a1.046,1.046,0,0,0,.664-.739,39.421,39.421,0,0,1,4.177-8.2M65.2,43.992A30.656,30.656,0,0,1,53.044,51.8a1.5,1.5,0,0,0-.962,1.008A30.592,30.592,0,0,1,44.06,65.2l-.256.289a.346.346,0,0,0,.468-.083,25.53,25.53,0,0,0,6.267-2.71A32.019,32.019,0,0,0,65.4,44.269c.145-.119.21-.3.085-.422-.1-.1-.227.017-.286.145M44.275,3.591a.356.356,0,0,0-.467-.082l.247.289c.8.823,1.624,1.623,2.388,2.477.528.591,1.357,1.282.389,2.065s-1.452-.18-1.975-.786a15.033,15.033,0,0,0-8.34-5.326c-.738-.155-1-.047-.987.78.043,3.373.035,6.748,0,10.121-.006.675.14.894.867.912a49.79,49.79,0,0,1,9.9,1.185l3.581.816c-.626-1.307-1.146-2.441-1.709-3.552-.334-.659-.436-1.28.32-1.643.731-.352,1.214.074,1.537.73a35.445,35.445,0,0,1,1.982,4.5,1.678,1.678,0,0,0,1.108,1.155,30.42,30.42,0,0,1,12.073,7.757c.1.124.143.453.274.359.2-.142.124-.425-.059-.622Q60.1,8.9,44.275,3.591m2.043,38.865c.1-.872.652-1.07,1.439-1.063,2.727.024,5.455-.032,8.18.032.883.021,1.044-.271,1.036-1.077-.039-3.911-.048-7.822.005-11.732.012-.878-.265-1.039-1.075-1.036-9.58.027-19.161.014-28.741.019-3.085,0-6.17.024-9.255.036-1.793-.012-3.586-.009-5.377-.045-.51-.01-.678.15-.675.669q.026,6.24,0,12.481c0,.519.165.679.675.669,1.792-.035,3.585-.033,5.377-.045.393.013.787.036,1.18.036q11.45,0,22.9-.012c.828,0,1.4.2,1.591,1.064-.22.81-.81.982-1.564.973-1.9-.023-3.808,0-5.712-.01-.42,0-.769-.024-.764.587.021,2.8.013,5.6.006,8.405,0,.386.085.576.543.556a54.339,54.339,0,0,0,14.048-2.294,1.127,1.127,0,0,0,.8-.876c.591-1.841.983-3.724,1.393-5.608.148-.679-.093-.792-.692-.777-1.328.033-2.658,0-3.987.011-.686,0-1.194-.215-1.326-.963M43.87,25.581c2.546,0,5.092-.028,7.638.016.807.014.943-.194.773-.977-.347-1.6-.742-3.191-1.135-4.783a2.129,2.129,0,0,0-1.7-1.737,57.758,57.758,0,0,0-13.2-2.06c-.618-.03-.713.19-.709.714.016,2.689.027,5.379-.006,8.068-.008.638.223.776.808.769,2.51-.026,5.02-.011,7.53-.011M25.059,43.418c-2.546,0-5.092.017-7.637-.012-.648-.008-.9.09-.738.832.364,1.709.783,3.4,1.208,5.1a1.918,1.918,0,0,0,1.521,1.527,58.025,58.025,0,0,0,13.3,2.1c.693.031.75-.233.746-.786-.019-2.617-.042-5.235.011-7.852.016-.808-.29-.928-.993-.917-2.474.038-4.948.015-7.422.015M24.9,25.581c2.474,0,4.95-.057,7.422.028,1,.035,1.179-.3,1.151-1.2-.065-2.149-.021-4.3-.021-6.454,0-1.912,0-1.9-1.869-1.819A53.759,53.759,0,0,0,19.46,18.127a1.966,1.966,0,0,0-1.584,1.595c-.4,1.662-.822,3.319-1.182,4.992-.172.8.108.887.786.879,2.474-.03,4.948-.012,7.423-.012m-5.724-9.626a2.6,2.6,0,0,0,.554,0,52.153,52.153,0,0,1,13.144-1.919c.617-.014.582-.331.581-.746-.006-3.485-.022-6.971.012-10.456.007-.727-.318-.757-.845-.626a14.033,14.033,0,0,0-2.455.746c-5.7,2.581-8.547,7.545-10.991,13.006m.013,37.023A30.953,30.953,0,0,0,23.5,60.652c2.362,3,5.186,5.33,9.049,6.134.7.145.935.023.926-.753q-.062-5.119,0-10.24c.007-.677-.191-.816-.84-.832a50.427,50.427,0,0,1-9.281-1.052c-1.35-.288-2.695-.6-4.16-.93m30.608.068a2.463,2.463,0,0,0-.536,0A52.3,52.3,0,0,1,36.12,54.968c-.621.015-.577.339-.577.75,0,3.449.03,6.9-.017,10.347-.012.846.321.84.958.711A12.472,12.472,0,0,0,41.1,64.838c4.22-2.891,6.687-7.083,8.7-11.791M53.193,19.4c.346,1.472.684,2.671.9,3.891.395,2.193.365,2.2,2.621,2.294a2.185,2.185,0,0,1,2.359,2.434c.01,1.579.028,3.159-.011,4.738-.014.578.175.729.73.714,1.4-.036,2.8-.011,4.2-.011,3.377,0,3.462-.079,2.03-3.251-2.507-5.553-7.373-8.343-12.833-10.81m.074,30.133a28.061,28.061,0,0,0,9.876-6.4,13.536,13.536,0,0,0,3.635-6.692c.113-.557.169-.936-.648-.915-2.117.054-4.236.039-6.353,0-.583-.009-.722.183-.71.735.034,1.615.026,3.23.007,4.845A2.125,2.125,0,0,1,56.914,43.4a18.1,18.1,0,0,1-1.83.009.559.559,0,0,0-.655.529c-.369,1.81-.75,3.617-1.162,5.59M3.627,43.861c-.025-.013-.056-.041-.073-.035-.1.042-.1.1,0,.14.017.007.056-.015.072-.035s0-.047,0-.071M3.535,25.047c-.013.024-.044.055-.037.071.041.1.1.1.145,0,.007-.016-.015-.056-.035-.071s-.048,0-.073,0" transform="translate(0 -0.001)" fill="#090c0d"/>
      <path id="Path_609017" data-name="Path 609017" d="M83.011,127.907c3.085-.013,6.17-.035,9.255-.036,9.58,0,19.161.008,28.741-.019.81,0,1.087.158,1.076,1.036-.053,3.91-.045,7.822-.005,11.732.008.806-.153,1.1-1.036,1.077-2.725-.064-5.454-.009-8.18-.033-.787-.007-1.341.191-1.439,1.063l-2.74,0c-.193-.86-.763-1.066-1.591-1.064q-11.45.034-22.9.011c-.393,0-.787-.024-1.18-.036l.008-5.375c.21.485.408.976.632,1.455a1.321,1.321,0,0,0,1.212.915c.653,0,.956-.449,1.148-.97.339-.92.636-1.857,1-2.94.392,1.123.718,2.1,1.078,3.07a1.141,1.141,0,0,0,1.014.84,1.086,1.086,0,0,0,1.139-.666q1.1-2.789,2.093-5.622a.91.91,0,0,0-.618-1.2.984.984,0,0,0-1.341.555c-.131.291-.186.615-.3.914a13.607,13.607,0,0,1-.938,2.595c-.33-1.033-.629-1.988-.942-2.937-.194-.59-.413-1.18-1.182-1.2-.807-.019-.973.645-1.173,1.2-.351.977-.637,1.976-1,3.121-.349-1.106-.647-2.023-.925-2.946a1.9,1.9,0,0,0-.9-1.384v-3.151m13.512,7.46c-.412-1.345-.721-2.431-1.082-3.5a1.025,1.025,0,0,0-1.346-.753.981.981,0,0,0-.708,1.354c.626,1.785,1.309,3.552,2,5.313a1.2,1.2,0,0,0,1.248.843,1.183,1.183,0,0,0,1.048-.937c.3-.895.632-1.781,1.046-2.937.357,1.041.624,1.838.9,2.63.219.621.455,1.26,1.273,1.244.782-.015,1.084-.606,1.318-1.23.577-1.539,1.124-3.09,1.725-4.619.3-.767.213-1.389-.6-1.65-.759-.243-1.193.194-1.4.933-.287,1-.625,1.987-1.031,3.26-.418-1.225-.762-2.149-1.046-3.091-.19-.631-.443-1.164-1.2-1.154-.722.009-.906.58-1.089,1.142-.316.972-.649,1.939-1.057,3.152m14.031-.755c.355,1.021.631,1.818.91,2.614.217.619.426,1.247,1.257,1.251.809,0,1.092-.588,1.328-1.2.575-1.5,1.11-3.014,1.7-4.508.3-.766.348-1.468-.538-1.774-.917-.317-1.236.344-1.491,1.1a13.6,13.6,0,0,1-1.046,2.937c-.353-1.068-.685-2.01-.973-2.965-.177-.588-.422-1.1-1.106-1.139-.777-.039-.993.572-1.189,1.167l-1.039,3.152c-.421-1.361-.733-2.458-1.1-3.535a1.065,1.065,0,1,0-2.027.649c.628,1.784,1.307,3.55,2,5.309a1.172,1.172,0,0,0,1.26.812,1.193,1.193,0,0,0,1.033-.951c.306-.892.624-1.78,1.022-2.912" transform="translate(-65.105 -100.273)" fill="#ffc748"/>
      <path id="Path_609018" data-name="Path 609018" d="M194.362,32.871a30.423,30.423,0,0,0-12.073-7.757,1.677,1.677,0,0,1-1.108-1.155,35.477,35.477,0,0,0-1.981-4.5c-.323-.656-.806-1.082-1.538-.73-.755.363-.654.984-.32,1.643.564,1.112,1.084,2.245,1.709,3.552l-3.58-.816a49.791,49.791,0,0,0-9.9-1.184c-.727-.018-.873-.237-.867-.912.032-3.374.04-6.748,0-10.122-.011-.828.249-.936.987-.78a15.034,15.034,0,0,1,8.34,5.326c.523.606,1.021,1.559,1.975.786s.139-1.474-.389-2.065c-.764-.854-1.589-1.654-2.388-2.477l.221-.207q15.812,5.324,21.128,21.139l-.214.263" transform="translate(-129.173 -7.879)" fill="#9bd4ed"/>
      <path id="Path_609019" data-name="Path 609019" d="M172.784,196.8l2.74,0c.132.748.64.967,1.326.963,1.329-.007,2.659.021,3.987-.011.6-.015.84.1.692.777-.41,1.883-.8,3.767-1.393,5.608a1.126,1.126,0,0,1-.8.876,54.321,54.321,0,0,1-14.048,2.294c-.458.02-.544-.169-.543-.556.007-2.8.016-5.6-.005-8.405,0-.61.345-.588.764-.587,1.9.007,3.808-.012,5.711.01.755.009,1.344-.164,1.565-.973" transform="translate(-129.207 -154.35)" fill="#9bd4ed"/>
      <path id="Path_609020" data-name="Path 609020" d="M173.058,83.889c-2.51,0-5.02-.015-7.53.011-.585.006-.816-.131-.808-.769.033-2.689.023-5.378.006-8.068,0-.524.091-.744.709-.714a57.758,57.758,0,0,1,13.2,2.06,2.129,2.129,0,0,1,1.7,1.737c.393,1.591.788,3.18,1.135,4.783.17.783.034.991-.773.977-2.545-.044-5.092-.016-7.638-.016" transform="translate(-129.188 -58.309)" fill="#9bd4ed"/>
      <path id="Path_609021" data-name="Path 609021" d="M85.551,201.223c2.474,0,4.949.023,7.422-.015.7-.011,1.01.109.993.917-.053,2.616-.03,5.235-.011,7.852,0,.553-.053.817-.746.785a58.025,58.025,0,0,1-13.3-2.1,1.918,1.918,0,0,1-1.521-1.527c-.425-1.694-.844-3.387-1.208-5.1-.158-.742.09-.839.738-.832,2.546.029,5.092.012,7.637.012" transform="translate(-60.492 -157.806)" fill="#9bd4ed"/>
      <path id="Path_609022" data-name="Path 609022" d="M85.421,84.138c-2.474,0-4.949-.018-7.423.012-.678.008-.958-.081-.786-.879.36-1.673.778-3.33,1.182-4.992a1.966,1.966,0,0,1,1.584-1.595A53.772,53.772,0,0,1,92.1,74.689c1.869-.08,1.869-.093,1.869,1.819,0,2.151-.044,4.3.021,6.454.027.9-.149,1.239-1.151,1.2-2.471-.085-4.948-.028-7.422-.028" transform="translate(-60.518 -58.558)" fill="#9bd4ed"/>
      <path id="Path_609023" data-name="Path 609023" d="M88.91,23.741C91.353,18.28,94.2,13.316,99.9,10.735a14.033,14.033,0,0,1,2.455-.746c.527-.131.853-.1.845.626-.034,3.485-.018,6.971-.012,10.456,0,.415.036.732-.581.746a52.154,52.154,0,0,0-13.144,1.919,2.582,2.582,0,0,1-.554,0" transform="translate(-69.731 -7.787)" fill="#9bd4ed"/>
      <path id="Path_609024" data-name="Path 609024" d="M88.971,245.6c1.465.329,2.809.642,4.16.93a50.431,50.431,0,0,0,9.281,1.052c.649.016.847.155.84.832q-.056,5.119,0,10.24c.009.776-.231.9-.926.753-3.864-.8-6.687-3.132-9.049-6.134a30.958,30.958,0,0,1-4.306-7.673" transform="translate(-69.779 -192.62)" fill="#9bd4ed"/>
      <path id="Path_609025" data-name="Path 609025" d="M178.966,245.867c-2.015,4.708-4.482,8.9-8.7,11.791a12.476,12.476,0,0,1-4.614,1.938c-.637.13-.97.135-.958-.711.048-3.448.022-6.9.017-10.347,0-.411-.044-.735.577-.75a52.317,52.317,0,0,0,13.143-1.917,2.447,2.447,0,0,1,.536,0" transform="translate(-129.166 -192.821)" fill="#9bd4ed"/>
      <path id="Path_609026" data-name="Path 609026" d="M204.257,225.142a30.593,30.593,0,0,0,8.022-12.392,1.5,1.5,0,0,1,.962-1.008,30.654,30.654,0,0,0,12.158-7.807l.2.278a32.019,32.019,0,0,1-14.864,18.425,25.523,25.523,0,0,1-6.267,2.71l-.212-.206" transform="translate(-160.197 -159.944)" fill="#9bd4ed"/>
      <path id="Path_609027" data-name="Path 609027" d="M38.4,16.892a32.563,32.563,0,0,0-3.921,4.365,1.858,1.858,0,0,0-1.062.473,34.989,34.989,0,0,0-7.682,9.141c-.162.278-.629.608-.137,1.013a32.766,32.766,0,0,0-8.424,6.175,10.27,10.27,0,0,1,1.129-3.587,32.458,32.458,0,0,1,18.866-17.49c.334-.125.689-.2,1.034-.291l.2.2" transform="translate(-13.472 -13.091)" fill="#70b1d1"/>
      <path id="Path_609028" data-name="Path 609028" d="M38,225.021a32.06,32.06,0,0,1-18.4-14.808,30.624,30.624,0,0,1-2.421-5.251,1.931,1.931,0,0,1-.191-1.434,30.471,30.471,0,0,0,8.406,6.3c-.473.609.137.977.36,1.382a30.956,30.956,0,0,0,4.644,6.136,10.652,10.652,0,0,0,3.881,3.111,32.784,32.784,0,0,0,3.922,4.367l-.2.2" transform="translate(-13.266 -159.625)" fill="#70b1d1"/>
      <path id="Path_609029" data-name="Path 609029" d="M246.6,89.917c5.46,2.467,10.327,5.257,12.833,10.81,1.432,3.171,1.347,3.251-2.03,3.251-1.4,0-2.8-.024-4.2.012-.555.014-.744-.136-.73-.714.039-1.579.021-3.159.011-4.738a2.186,2.186,0,0,0-2.359-2.434c-2.256-.1-2.227-.1-2.621-2.294-.22-1.22-.557-2.419-.9-3.891" transform="translate(-193.406 -70.521)" fill="#9bd4ed"/>
      <path id="Path_609030" data-name="Path 609030" d="M246.943,178.684c.412-1.973.793-3.78,1.162-5.589a.559.559,0,0,1,.655-.529,18.037,18.037,0,0,0,1.83-.009,2.125,2.125,0,0,0,2.161-2.293c.019-1.615.027-3.231-.007-4.845-.012-.552.127-.744.71-.735,2.117.034,4.237.049,6.353,0,.817-.021.761.358.647.915a13.538,13.538,0,0,1-3.635,6.692,28.064,28.064,0,0,1-9.876,6.4" transform="translate(-193.675 -129.155)" fill="#9bd4ed"/>
      <path id="Path_609031" data-name="Path 609031" d="M61,127.945q0,1.576,0,3.151c-1.243.126-1.583.606-1.2,1.772s.8,2.289,1.205,3.432q0,2.688-.008,5.375c-1.793.012-3.585.009-5.377.045-.51.01-.678-.15-.675-.669q.027-6.241,0-12.481c0-.519.165-.679.675-.669,1.792.035,3.585.033,5.377.045" transform="translate(-43.098 -100.311)" fill="#f89628"/>
      <path id="Path_609032" data-name="Path 609032" d="M17.805,175.591c-3.72-2.4-6.64-5.417-7.664-9.918-.181-.8.017-1,.8-.964,1.577.063,3.157.045,4.735.06.112,1.165.214,2.331.34,3.494a40.882,40.882,0,0,0,1.789,7.328" transform="translate(-7.905 -129.177)" fill="#70b1d1"/>
      <path id="Path_609033" data-name="Path 609033" d="M15.617,115.518c-1.65.015-3.3,0-4.951.06-.757.028-.708-.346-.606-.859a12.7,12.7,0,0,1,2.7-5.652,18.4,18.4,0,0,1,4.983-4.371c-.052.2-.086.416-.158.614a35.717,35.717,0,0,0-1.971,10.209" transform="translate(-7.846 -82.112)" fill="#70b1d1"/>
      <path id="Path_609034" data-name="Path 609034" d="M38.157,175.6a40.882,40.882,0,0,1-1.789-7.328c-.126-1.163-.228-2.329-.34-3.494,2.09-.155,2.089-.155,2.09,1.876,0,1.253-.017,2.507.007,3.76a2.012,2.012,0,0,0,2.108,2.176,15.285,15.285,0,0,0,1.825,0c.488-.03.725.146.793.626.251,1.8.726,3.546,1.2,5.5a25.857,25.857,0,0,1-5.9-3.125" transform="translate(-28.256 -129.189)" fill="#9bd4ed"/>
      <path id="Path_609035" data-name="Path 609035" d="M36.028,104.17A35.717,35.717,0,0,1,38,93.962c.072-.2.106-.409.158-.614a27.253,27.253,0,0,1,5.833-3.121c-.415,1.978-.811,3.843-1.2,5.711-.077.373-.319.413-.631.409-.644-.008-1.291-.025-1.933.011a2.008,2.008,0,0,0-2.105,2.177,43.658,43.658,0,0,0,.023,4.4c.1,1.167-.356,1.448-1.373,1.287-.246-.039-.5-.037-.747-.053" transform="translate(-28.256 -70.764)" fill="#9bd4ed"/>
      <path id="Path_609036" data-name="Path 609036" d="M64.468,243.367a10.651,10.651,0,0,1-3.881-3.111,30.949,30.949,0,0,1-4.644-6.136c-.223-.4-.833-.773-.36-1.382,1.345.57,2.678,1.17,4.042,1.692a1.047,1.047,0,0,1,.665.738,39.5,39.5,0,0,0,4.178,8.2" transform="translate(-43.457 -182.534)" fill="#9bd4ed"/>
      <path id="Path_609037" data-name="Path 609037" d="M55.431,48.484c-.492-.4-.025-.735.137-1.013A34.993,34.993,0,0,1,63.25,38.33a1.86,1.86,0,0,1,1.062-.473,39.439,39.439,0,0,0-4.176,8.2,1.046,1.046,0,0,1-.664.739c-1.363.522-2.7,1.121-4.042,1.691" transform="translate(-43.302 -29.691)" fill="#9bd4ed"/>
      <path id="Path_609038" data-name="Path 609038" d="M302.421,114.641c.183.2.258.48.059.622-.131.094-.172-.235-.274-.359l.214-.264" transform="translate(-237.018 -89.912)" fill="#9bd4ed"/>
      <path id="Path_609039" data-name="Path 609039" d="M302.271,203.265c.059-.128.183-.249.286-.145.124.126.06.3-.085.422l-.2-.277" transform="translate(-237.069 -159.274)" fill="#9bd4ed"/>
      <path id="Path_609040" data-name="Path 609040" d="M203.332,16.356l-.247-.289a.356.356,0,0,1,.468.082l-.221.206" transform="translate(-159.278 -12.558)" fill="#9bd4ed"/>
      <path id="Path_609041" data-name="Path 609041" d="M114.666,16.186a.326.326,0,0,1,.453-.079l-.256.28-.2-.2" transform="translate(-89.932 -12.585)" fill="#70b1d1"/>
      <path id="Path_609042" data-name="Path 609042" d="M114.875,302.254l.251.28a.322.322,0,0,1-.449-.083l.2-.2" transform="translate(-89.941 -237.055)" fill="#70b1d1"/>
      <path id="Path_609043" data-name="Path 609043" d="M203.539,302.453a.346.346,0,0,1-.468.083l.256-.289.212.206" transform="translate(-159.267 -237.05)" fill="#9bd4ed"/>
      <path id="Path_609044" data-name="Path 609044" d="M16.266,203.2c0,.024.009.056,0,.071s-.055.042-.072.035c-.1-.044-.1-.1,0-.14.017-.007.049.022.073.035" transform="translate(-12.64 -159.342)" fill="#70b1d1"/>
      <path id="Path_609045" data-name="Path 609045" d="M16.251,116.108c.025,0,.057-.008.073,0s.042.055.035.071c-.048.1-.1.1-.145,0-.006-.016.024-.047.037-.069" transform="translate(-12.716 -91.061)" fill="#70b1d1"/>
      <path id="Path_609046" data-name="Path 609046" d="M133.978,147.025c.408-1.213.741-2.18,1.057-3.152.183-.562.367-1.133,1.089-1.142.752-.01,1.006.523,1.2,1.154.284.942.627,1.867,1.046,3.091.406-1.273.744-2.259,1.031-3.26.212-.739.646-1.176,1.4-.933.814.261.9.883.6,1.65-.6,1.53-1.147,3.081-1.725,4.619-.234.624-.536,1.215-1.318,1.23-.819.016-1.054-.622-1.273-1.244-.279-.792-.546-1.588-.9-2.63-.413,1.156-.741,2.043-1.046,2.937a1.183,1.183,0,0,1-1.048.937,1.2,1.2,0,0,1-1.248-.843c-.691-1.762-1.374-3.528-2-5.313a.981.981,0,0,1,.708-1.354,1.025,1.025,0,0,1,1.346.753c.361,1.068.67,2.155,1.082,3.5" transform="translate(-102.56 -111.931)" fill="#090c0d"/>
      <path id="Path_609047" data-name="Path 609047" d="M191.072,145.73c-.4,1.132-.716,2.02-1.022,2.912a1.193,1.193,0,0,1-1.033.951,1.172,1.172,0,0,1-1.26-.812c-.7-1.758-1.376-3.525-2-5.309a1.065,1.065,0,1,1,2.027-.649c.371,1.077.683,2.174,1.1,3.535l1.039-3.152c.2-.595.412-1.205,1.189-1.167.684.034.929.551,1.106,1.139.288.955.62,1.9.973,2.965a13.593,13.593,0,0,0,1.046-2.937c.255-.752.574-1.413,1.491-1.1.886.306.839,1.008.538,1.774-.588,1.494-1.123,3.009-1.7,4.508-.235.613-.519,1.206-1.328,1.2-.831,0-1.04-.633-1.257-1.251-.279-.8-.555-1.593-.91-2.614" transform="translate(-145.624 -111.39)" fill="#090c0d"/>
      <path id="Path_609048" data-name="Path 609048" d="M78.12,147.908c-.4-1.143-.826-2.281-1.205-3.432s-.044-1.646,1.2-1.771a1.9,1.9,0,0,1,.905,1.384c.278.923.576,1.84.925,2.946.363-1.145.649-2.145,1-3.121.2-.556.366-1.22,1.173-1.2.769.019.988.609,1.182,1.2.313.95.611,1.9.942,2.937a13.606,13.606,0,0,0,.938-2.595c.115-.3.17-.623.3-.914a.984.984,0,0,1,1.341-.555.91.91,0,0,1,.618,1.2q-1,2.829-2.093,5.622a1.086,1.086,0,0,1-1.139.666,1.141,1.141,0,0,1-1.014-.84c-.36-.967-.686-1.947-1.078-3.07-.366,1.083-.662,2.019-1,2.94-.192.521-.495.974-1.148.97a1.322,1.322,0,0,1-1.212-.915c-.223-.479-.422-.969-.632-1.455" transform="translate(-60.206 -111.919)" fill="#090c0d"/>
    </g>
  </g>
</svg>
