<svg xmlns="http://www.w3.org/2000/svg" xmlns:xlink="http://www.w3.org/1999/xlink" width="120" height="120" viewBox="0 0 120 120">
  <defs>
    <clipPath id="clip-path">
      <rect id="Rectangle_377698" data-name="Rectangle 377698" width="71.893" height="90.733" fill="none"/>
    </clipPath>
  </defs>
  <g id="Group_1071553" data-name="Group 1071553" transform="translate(-269 -958)">
    <circle id="Ellipse_5614" data-name="Ellipse 5614" cx="60" cy="60" r="60" transform="translate(269 958)" fill="#304c8e"/>
    <g id="Group_1071650" data-name="Group 1071650" transform="translate(297.054 969.633)">
      <g id="Group_1071649" data-name="Group 1071649" clip-path="url(#clip-path)">
        <path id="Path_608949" data-name="Path 608949" d="M17.336,8.932c.437-2.141.476-2.173,2.561-2.175,1.859,0,3.718,0,5.551,0C26.165,2.088,28.035-.025,31.317,0c3.3.025,5.054,2.036,5.756,6.757,1.815,0,3.671.073,5.517-.022,1.526-.079,2.593.227,2.472,2.2h4.817c2.975,0,5.949-.012,8.924,0,2.781.015,3.719.956,3.719,3.712q0,20.87-.025,41.741a2.2,2.2,0,0,0,1.538,2.423c5.113,2.307,7.869,6.423,7.858,12-.011,5.64-2.864,9.692-8,12.087-.43.2-.874.371-1.371.581,0,1.838,0,3.659,0,5.479-.006,2.789-.991,3.77-3.83,3.771q-15.257.009-30.514,0-12.018,0-24.037,0C.9,90.73,0,89.815,0,86.523Q0,49.748,0,12.973c0-3.136.886-4.034,4-4.04q5.9-.01,11.8,0h1.532M7.82,16.547V83.037H54.771c.238-1.561.225-1.533-1.1-2.157-5.116-2.4-7.938-6.385-7.942-12.094,0-5.649,2.789-9.629,7.834-12a1.939,1.939,0,0,0,1.4-2.074c-.049-12.187-.031-24.375-.031-36.562V16.572h-9.8a5.944,5.944,0,0,0-.114.636c-.147,2.493-.145,2.493-2.71,2.494H20.574c-2.889,0-2.888,0-3.1-2.86-.006-.081-.1-.156-.186-.3ZM57.378,81.975c0,.566,0,.99,0,1.413-.02,2.211-.108,2.3-2.257,2.3q-23.825,0-47.65,0c-2.219,0-2.33-.115-2.33-2.4q0-14.54,0-29.079,0-19.074,0-38.149c0-1.952.181-2.126,2.159-2.129q3.527-.005,7.054,0h3.081V11.509c-.549-.026-1.019-.067-1.488-.067-3.887-.005-7.775.058-11.66-.035-1.41-.034-1.737.419-1.735,1.778q.06,36.637-.006,73.274c0,1.484.411,1.823,1.85,1.819q26.848-.075,53.7-.033a2.809,2.809,0,0,0,1-.027c.333-.136.832-.447.842-.7.072-1.841.039-3.686.039-5.544Zm1.347-2.622a10.5,10.5,0,0,0,10.644-10.5,10.6,10.6,0,1,0-10.644,10.5M42.454,9.425H20.181v7.629H42.454ZM45.1,13.938c3.4,0,6.653,0,9.91,0,2.279,0,2.371.088,2.372,2.335q0,18.789,0,37.577v1.727h2.5a3.4,3.4,0,0,0,.1-.527q.012-21.236.031-42.472c0-1.031-.508-1.156-1.347-1.151-4.271.024-8.542.011-12.814.017a6.1,6.1,0,0,0-.75.1ZM34.354,6.7c.142-1.638-.144-2.921-1.533-3.741a2.862,2.862,0,0,0-3.36.184A3.141,3.141,0,0,0,28.291,6.7Z" transform="translate(0 0.001)" fill="#fff"/>
        <path id="Path_608950" data-name="Path 608950" d="M38.9,84.016c0-1.628.016-3.256-.005-4.883-.013-.991.428-1.585,1.423-1.582,3.633.011,7.265.077,10.9.083.353,0,.695-.352,1.061-.4a16.721,16.721,0,0,1,1.809-.08c-.039.636.171,1.615-.158,1.854-1.99,1.449-2.139,3.416-1.986,5.593.1,1.477-.011,2.968.027,4.451C52,90.12,51.5,90.7,50.461,90.706c-3.351.028-6.7.035-10.054,0-1.011-.011-1.548-.567-1.52-1.662.044-1.674.012-3.351.012-5.027m6.382-.229,3.653-3.573H41.529v7.82H49.4V83.976l-.392-.288c-.844.96-1.674,1.933-2.537,2.876a1.271,1.271,0,0,1-2.013.064A9.734,9.734,0,0,1,42.67,84.77c-.278-.458-.107-1.189-.137-1.8A6.986,6.986,0,0,1,44.351,83c.4.109.707.589.93.79" transform="translate(-27.689 -54.932)" fill="#fff"/>
        <path id="Path_608951" data-name="Path 608951" d="M45.857,148.985c1.771,0,3.542.033,5.311-.024.414-.013.8-.419,1.23-.485.552-.086,1.456-.222,1.622.038.277.434.329,1.539.059,1.712-2.559,1.637-2.1,4.154-2.1,6.557,0,1.2-.018,2.4,0,3.592.019,1.051-.395,1.609-1.517,1.6-3.353-.021-6.706-.013-10.059-.005a1.294,1.294,0,0,1-1.492-1.482q.017-5.029,0-10.059c0-1.112.578-1.525,1.621-1.514,1.772.018,3.545,0,5.317,0v.066m3.6,6.395-.338-.293a26.484,26.484,0,0,1-2.524,2.67,2.04,2.04,0,0,1-1.821.334,7.859,7.859,0,0,1-2.236-2.192,1.652,1.652,0,0,1,.154-1.611c.293-.28,1.118-.181,1.624,0,.437.153.754.65,1.124.994l-.233-.383,3.416-3.342H41.582v7.776h7.876Z" transform="translate(-27.712 -105.64)" fill="#fff"/>
        <path id="Path_608952" data-name="Path 608952" d="M97.972,228.679c0-2.251.014-4.5-.006-6.754-.011-1.231.491-1.888,1.789-1.856,1.245.031,2.491.015,3.736.006a1.4,1.4,0,0,1,1.615,1.562q.006,6.9,0,13.8c0,1.077-.543,1.553-1.618,1.526-1.293-.032-2.587-.035-3.88,0-1.18.032-1.64-.572-1.639-1.67q0-3.305,0-6.611m4.469-6.035h-1.805V234.4h1.805Z" transform="translate(-69.755 -156.697)" fill="#fff"/>
        <path id="Path_608953" data-name="Path 608953" d="M74.415,240.141c0,1.533-.039,3.066.012,4.6.043,1.3-.532,1.827-1.808,1.776-1.243-.05-2.491-.035-3.735,0-1.005.024-1.553-.417-1.557-1.426-.013-3.353-.02-6.705,0-10.058a1.414,1.414,0,0,1,1.643-1.544c1.245.019,2.491.016,3.736,0,1.213-.016,1.728.593,1.714,1.773-.021,1.628-.005,3.257-.005,4.885m-2.665-3.975H69.919v7.789H71.75Z" transform="translate(-47.931 -166.248)" fill="#fff"/>
        <path id="Path_608954" data-name="Path 608954" d="M43.729,250.185c0,1.1-.016,2.2,0,3.3.017.967-.46,1.4-1.4,1.4-1.387,0-2.774-.011-4.16,0-.946.01-1.421-.423-1.42-1.379q0-3.371,0-6.743a1.309,1.309,0,0,1,1.475-1.51q2.009,0,4.017,0c1.1,0,1.53.564,1.495,1.627-.037,1.1-.008,2.2-.009,3.3m-2.605-2.344H39.388v4.5h1.735Z" transform="translate(-26.168 -174.633)" fill="#fff"/>
        <path id="Path_608955" data-name="Path 608955" d="M112.669,99.363c-2.877,0-5.753-.01-8.63.006-.914.005-1.707-.182-1.682-1.268.022-.96.765-1.258,1.612-1.259q8.774-.01,17.548.008c.827,0,1.541.277,1.515,1.317-.026,1.058-.749,1.2-1.589,1.2q-4.387-.007-8.774,0" transform="translate(-72.882 -68.951)" fill="#fff"/>
        <path id="Path_608956" data-name="Path 608956" d="M112.661,189.361c-2.877,0-5.753-.009-8.63,0-.841,0-1.616-.135-1.665-1.138-.052-1.057.712-1.386,1.621-1.388q8.7-.015,17.4,0c.871,0,1.675.2,1.642,1.336-.034,1.172-.89,1.185-1.742,1.185q-4.315,0-8.63,0" transform="translate(-72.887 -133.032)" fill="#fff"/>
        <path id="Path_608957" data-name="Path 608957" d="M112.681,115.365c2.877,0,5.754.005,8.631,0,.88,0,1.687.1,1.726,1.223s-.792,1.331-1.649,1.334q-8.631.029-17.261.008c-.881,0-1.738-.229-1.753-1.271-.017-1.151.863-1.305,1.82-1.3,2.829.022,5.658.008,8.487.008" transform="translate(-72.894 -82.139)" fill="#fff"/>
        <path id="Path_608958" data-name="Path 608958" d="M112.661,171.067h-7.915c-1.008,0-2.273.157-2.3-1.259s1.2-1.33,2.231-1.329q8.13.012,16.261,0c.959,0,2.114-.147,2.135,1.252.023,1.521-1.216,1.322-2.205,1.327-2.734.013-5.468,0-8.2,0" transform="translate(-72.942 -119.962)" fill="#fff"/>
        <path id="Path_608959" data-name="Path 608959" d="M109.119,81.068c-1.677,0-3.363.105-5.024-.056a2.132,2.132,0,0,1-1.585-1.181c-.178-.958.629-1.353,1.581-1.35,3.5.012,6.994.006,10.491,0,.884,0,1.541.344,1.551,1.3.01.978-.688,1.281-1.552,1.284-1.82.006-3.641,0-5.461,0" transform="translate(-72.973 -55.882)" fill="#fff"/>
        <path id="Path_608960" data-name="Path 608960" d="M109.191,152.779c-1.721,0-3.441.011-5.162,0-.883-.006-1.7-.225-1.659-1.314.038-.971.761-1.193,1.625-1.189q5.234.022,10.468,0c.868,0,1.557.253,1.585,1.23.03,1.018-.719,1.256-1.552,1.265-1.768.018-3.537.006-5.305.007" transform="translate(-72.89 -107.001)" fill="#fff"/>
        <path id="Path_608961" data-name="Path 608961" d="M185.1,229.524c2.144-2.2,4.07-4.184,6-6.163.267-.274.51-.705.825-.77a10.269,10.269,0,0,1,1.93-.058c-.045.607.132,1.388-.179,1.788a33.014,33.014,0,0,1-2.793,2.883c-1.454,1.457-2.9,2.922-4.367,4.366-1.118,1.1-1.627,1.087-2.764-.033-.819-.807-1.631-1.619-2.427-2.448-.564-.587-.836-1.374-.07-1.835a2.09,2.09,0,0,1,1.853.1,12.662,12.662,0,0,1,1.994,2.168" transform="translate(-128.726 -158.441)" fill="#fff"/>
      </g>
    </g>
  </g>
</svg>
