<svg xmlns="http://www.w3.org/2000/svg" xmlns:xlink="http://www.w3.org/1999/xlink" width="125.072" height="125" viewBox="0 0 125.072 125">
  <defs>
    <clipPath id="clip-path">
      <rect id="Rectangle_377369" data-name="Rectangle 377369" width="92.688" height="92.008" fill="none"/>
    </clipPath>
  </defs>
  <g id="Group_1014546" data-name="Group 1014546" transform="translate(-1089 -2146.403)">
    <circle id="Ellipse_4840" data-name="Ellipse 4840" cx="62.5" cy="62.5" r="62.5" transform="translate(1089 2146.403)" fill="#304c8e"/>
    <g id="Group_43_" data-name="Group (43)" transform="translate(1182 2239)">
      <path id="Path_598926" data-name="Path 598926" d="M36.549,16.055,16.055,36.549a15.864,15.864,0,0,0,.655,1.582l21.422-21.42a15.863,15.863,0,0,0-1.582-.655Z" transform="translate(-15.17 -15.17)" fill="#4ca220"/>
      <path id="Path_598927" data-name="Path 598927" d="M18.367.8.8,18.367a16.022,16.022,0,0,0,.26,1.7L20.065,1.058A16.022,16.022,0,0,0,18.367.8Z" transform="translate(-0.754 -0.754)" fill="#4ca220"/>
      <path id="Path_598928" data-name="Path 598928" d="M299.7,283.668c0-.137-.008-.274-.01-.41l-16.454,16.453c.137,0,.273.01.41.01a16.091,16.091,0,0,0,1.678-.088l14.289-14.289a16.09,16.09,0,0,0,.088-1.678Z" transform="translate(-267.627 -267.648)" fill="#4ca220"/>
      <path id="Path_598929" data-name="Path 598929" d="M68.634,46.122q-.611-.481-1.267-.9L45.2,67.389q.42.656.9,1.267Z" transform="translate(-42.708 -42.73)" fill="#4ca220"/>
      <path id="Path_598930" data-name="Path 598930" d="M0,15.009,15.009,0c-.434.026-.863.07-1.287.131L.131,13.722C.07,14.145.026,14.575,0,15.009Z" fill="#4ca220"/>
      <path id="Path_598931" data-name="Path 598931" d="M106.76,84.058l-22.7,22.7a16.114,16.114,0,0,0,1.365,1.222l22.559-22.559A16.123,16.123,0,0,0,106.76,84.058Z" transform="translate(-79.426 -79.426)" fill="#4ca220"/>
      <path id="Path_598932" data-name="Path 598932" d="M159.927,138.548a16.093,16.093,0,0,0-.877-1.6l-22.108,22.108a15.959,15.959,0,0,0,1.6.877Z" transform="translate(-129.396 -129.396)" fill="#4ca220"/>
      <path id="Path_598933" data-name="Path 598933" d="M28.816,19.794a16.1,16.1,0,0,0-9.022,9.022Z" transform="translate(-18.704 -18.704)" fill="#4ca220"/>
      <path id="Path_598934" data-name="Path 598934" d="M382.436,392.617a16.085,16.085,0,0,0,10.18-10.18Z" transform="translate(-361.361 -361.361)" fill="#4ca220"/>
      <path id="Path_598935" data-name="Path 598935" d="M220.714,200.477l-20.237,20.237a15.962,15.962,0,0,0,2.154.537l18.619-18.619A16.154,16.154,0,0,0,220.714,200.477Z" transform="translate(-189.429 -189.429)" fill="#4ca220"/>
    </g>
    <g id="Group_1017007" data-name="Group 1017007" transform="translate(1105.156 2160.537)">
      <g id="Group_1017006" data-name="Group 1017006" clip-path="url(#clip-path)">
        <path id="Path_608396" data-name="Path 608396" d="M49.81,63.116c0-2.667-.074-5.213.016-7.752a10.019,10.019,0,0,1,9.505-9.644c5.2-.159,10.416-.067,15.624-.1,1.314-.009,1.789.667,1.77,1.9-.027,1.831-.095,3.67.042,5.492.049.652.525,1.645,1.016,1.795a2.911,2.911,0,0,0,2.128-.615,11.149,11.149,0,0,0,1.86-2.006c.651-.768,1.437-1.087,2.253-.413s.5,1.458-.115,2.136c-.812.889-1.6,1.81-2.462,2.644a4.369,4.369,0,0,1-7.378-2.678c-.1-1.774-.021-3.558-.021-5.559H72.5q-5.86,0-11.721,0c-5.063.009-8.334,3.259-8.336,8.288q-.007,16.559,0,33.118c0,1.968-.31,2.284-2.235,2.287-2.653,0-5.306.011-7.958,0-1.559-.008-1.963-.413-1.966-1.973-.009-5.351,0-10.7-.007-16.053A7.653,7.653,0,0,0,32.3,65.96c-4.432-.022-8.864,0-13.575,0,0,1.74.092,3.406-.02,5.058a4.236,4.236,0,0,1-5.324,4.175A4.839,4.839,0,0,1,10.95,73.8q-4.927-5.29-9.686-10.735a4.269,4.269,0,0,1,.059-6.122C4.452,53.4,7.648,49.924,10.787,46.4a4.388,4.388,0,0,1,4.96-1.4,4.258,4.258,0,0,1,2.991,4.321c.023,1.391,0,2.783,0,4.418,3.728,0,7.321.021,10.914-.006,3.571-.027,7.131-.016,10.619,1.535V40.623c0-2.024.031-4.05-.013-6.073-.022-1.019.143-1.987,1.305-2.023,1.315-.04,1.384,1.034,1.379,2.066-.017,3.6-.007,7.2-.007,11.171.449-.561.651-.848.887-1.1,1.273-1.377,2.357-3.05,3.884-4.038,1.836-1.187,2.133-2.593,2.1-4.551-.105-5.976-.043-11.955-.035-17.932,0-1.837.356-2.176,2.211-2.186,1.688-.01,3.383.082,5.061-.05A2.182,2.182,0,0,0,58.7,14.93a2.3,2.3,0,0,0-.482-2c-3.445-3.229-6.979-6.365-10.5-9.518a1.84,1.84,0,0,0-2.717-.009c-3.516,3.154-7.051,6.288-10.5,9.516a2.218,2.218,0,0,0-.5,1.979,2.4,2.4,0,0,0,1.781,1c1.676.139,3.372.037,5.06.051s2.079.392,2.087,2.018c.016,3.326,0,6.652.009,9.979,0,.96-.193,1.841-1.334,1.826-1.1-.015-1.354-.84-1.345-1.83.027-2.982.01-5.964.01-9.16-1.47,0-2.847.008-4.223,0-2.343-.016-4-1.037-4.727-2.892-.736-1.887-.211-3.661,1.581-5.282q5.042-4.557,10.1-9.1C45.24-.5,47.461-.505,49.7,1.5q5.118,4.58,10.2,9.2a4.472,4.472,0,0,1,1.488,5.183,4.616,4.616,0,0,1-4.57,2.9c-1.393.017-2.786,0-4.28,0V37.547c6.91-2.57,14.123-.845,21.418-1.553,0-1.194-.01-2.424,0-3.653.027-2.619.911-4.132,2.833-4.878,1.984-.77,3.751-.212,5.5,1.739,2.993,3.337,6,6.664,8.975,10.013a4.446,4.446,0,0,1,.04,6.474c-1.074,1.237-2.184,2.443-3.284,3.657-.607.669-1.321,1.1-2.122.379-.84-.751-.539-1.528.129-2.26,1.072-1.175,2.108-2.383,3.19-3.549A1.892,1.892,0,0,0,89.23,41c-3.078-3.39-6.1-6.831-9.227-10.176a2.853,2.853,0,0,0-2.086-.814c-.986.107-1.229,1.047-1.208,2.009.034,1.638-.014,3.278.015,4.917.023,1.336-.573,1.91-1.924,1.9-4.775-.032-9.55-.026-14.325-.008a17.223,17.223,0,0,0-17.1,13.619c-.066.281-.1.569-.173.846a4.1,4.1,0,0,0,1.939,5.05c1.746,1.168,3.021,3.038,4.672,4.774m-.142,26c.038-.448.1-.821.1-1.194.006-4.673.03-9.345-.014-14.017a18.431,18.431,0,0,0-.386-3.725,17.184,17.184,0,0,0-17.1-13.757c-4.675-.006-9.35,0-14.025,0-1.9,0-2.238-.35-2.246-2.291a43.806,43.806,0,0,0-.055-4.618A2.618,2.618,0,0,0,14.8,47.643a2.267,2.267,0,0,0-1.969.63c-3.183,3.418-6.265,6.93-9.4,10.4a1.766,1.766,0,0,0-.061,2.677c3.155,3.51,6.274,7.054,9.49,10.507a2.236,2.236,0,0,0,1.979.587,2.642,2.642,0,0,0,1.1-1.9c.154-1.72.044-3.464.054-5.2.011-1.779.442-2.22,2.216-2.223,4.579-.009,9.157-.019,13.736,0,6.533.029,10.956,4.446,10.988,10.972.022,4.48,0,8.96,0,13.44v1.587Z" transform="translate(0 0)" fill="#fff"/>
      </g>
    </g>
  </g>
</svg>
