<svg xmlns="http://www.w3.org/2000/svg" xmlns:xlink="http://www.w3.org/1999/xlink" width="125.072" height="125" viewBox="0 0 125.072 125">
  <defs>
    <clipPath id="clip-path">
      <rect id="Rectangle_377370" data-name="Rectangle 377370" width="80.867" height="73.124" fill="none"/>
    </clipPath>
  </defs>
  <g id="Group_1014548" data-name="Group 1014548" transform="translate(-1089 -2146.403)">
    <circle id="Ellipse_4840" data-name="Ellipse 4840" cx="62.5" cy="62.5" r="62.5" transform="translate(1089 2146.403)" fill="#304c8e"/>
    <g id="Group_43_" data-name="Group (43)" transform="translate(1182 2239)">
      <path id="Path_598926" data-name="Path 598926" d="M36.549,16.055,16.055,36.549a15.864,15.864,0,0,0,.655,1.582l21.422-21.42a15.863,15.863,0,0,0-1.582-.655Z" transform="translate(-15.17 -15.17)" fill="#4ca220"/>
      <path id="Path_598927" data-name="Path 598927" d="M18.367.8.8,18.367a16.022,16.022,0,0,0,.26,1.7L20.065,1.058A16.022,16.022,0,0,0,18.367.8Z" transform="translate(-0.754 -0.754)" fill="#4ca220"/>
      <path id="Path_598928" data-name="Path 598928" d="M299.7,283.668c0-.137-.008-.274-.01-.41l-16.454,16.453c.137,0,.273.01.41.01a16.091,16.091,0,0,0,1.678-.088l14.289-14.289a16.09,16.09,0,0,0,.088-1.678Z" transform="translate(-267.627 -267.648)" fill="#4ca220"/>
      <path id="Path_598929" data-name="Path 598929" d="M68.634,46.122q-.611-.481-1.267-.9L45.2,67.389q.42.656.9,1.267Z" transform="translate(-42.708 -42.73)" fill="#4ca220"/>
      <path id="Path_598930" data-name="Path 598930" d="M0,15.009,15.009,0c-.434.026-.863.07-1.287.131L.131,13.722C.07,14.145.026,14.575,0,15.009Z" fill="#4ca220"/>
      <path id="Path_598931" data-name="Path 598931" d="M106.76,84.058l-22.7,22.7a16.114,16.114,0,0,0,1.365,1.222l22.559-22.559A16.123,16.123,0,0,0,106.76,84.058Z" transform="translate(-79.426 -79.426)" fill="#4ca220"/>
      <path id="Path_598932" data-name="Path 598932" d="M159.927,138.548a16.093,16.093,0,0,0-.877-1.6l-22.108,22.108a15.959,15.959,0,0,0,1.6.877Z" transform="translate(-129.396 -129.396)" fill="#4ca220"/>
      <path id="Path_598933" data-name="Path 598933" d="M28.816,19.794a16.1,16.1,0,0,0-9.022,9.022Z" transform="translate(-18.704 -18.704)" fill="#4ca220"/>
      <path id="Path_598934" data-name="Path 598934" d="M382.436,392.617a16.085,16.085,0,0,0,10.18-10.18Z" transform="translate(-361.361 -361.361)" fill="#4ca220"/>
      <path id="Path_598935" data-name="Path 598935" d="M220.714,200.477l-20.237,20.237a15.962,15.962,0,0,0,2.154.537l18.619-18.619A16.154,16.154,0,0,0,220.714,200.477Z" transform="translate(-189.429 -189.429)" fill="#4ca220"/>
    </g>
    <g id="Group_1017009" data-name="Group 1017009" transform="translate(1111.067 2172.341)">
      <g id="Group_1017008" data-name="Group 1017008" clip-path="url(#clip-path)">
        <path id="Path_608397" data-name="Path 608397" d="M110.13,86c1.2,1.16,2.34,2.282,3.5,3.388.618.589,1,1.273.307,1.963-.663.659-1.374.376-1.974-.253-.984-1.033-1.981-2.053-2.651-2.746L104,93.741l-.609-.194c.625.55,1.279,1.07,1.869,1.655,2.965,2.941,5.908,5.9,8.868,8.85,1.046,1.042,1.479,1.04,2.53.009.994-.975,1.955-1.985,2.961-2.948a1.418,1.418,0,0,0,.016-2.367c-1.157-1.109-2.269-2.265-3.409-3.392-.551-.545-.782-1.14-.194-1.766.621-.661,1.271-.518,1.87.082,1.282,1.284,2.6,2.533,3.836,3.861a3.4,3.4,0,0,1,0,4.808c-1.25,1.37-2.564,2.691-3.937,3.938a3.5,3.5,0,0,1-5.093-.284q-5.215-5.169-10.39-10.378a9.347,9.347,0,0,1-.766-1,25.041,25.041,0,0,1-9.727,3.211A24.134,24.134,0,0,1,76.57,94.4c-.641-.382-1.184-.916-.657-1.758.538-.858,1.241-.683,1.965-.246A22.132,22.132,0,0,0,90.694,95.46a21.778,21.778,0,0,0,3.361-42.974C82.6,49.635,70.245,57.478,67.873,69.148a21.354,21.354,0,0,0,5.1,19.144c.56.645,1.085,1.329.268,2.069-.8.721-1.453.235-2.03-.44-6.045-7.081-7.841-15.139-4.864-23.932,2.894-8.548,9-13.96,17.852-15.839A24.181,24.181,0,0,1,110.13,86" transform="translate(-48.502 -37.041)" fill="#fff"/>
        <path id="Path_608398" data-name="Path 608398" d="M8.43,241.327H9.8c0-2,0-3.926,0-5.854,0-1.56-.026-3.121.01-4.681.037-1.616.649-2.193,2.247-2.205q1.772-.013,3.543,0c1.569.013,2.188.636,2.193,2.24.01,3.456,0,6.912,0,10.474h1.684c0-1.893,0-3.775,0-5.656,0-2.451.345-2.8,2.76-2.8,1.012,0,2.025-.01,3.037,0,1.518.02,2.147.635,2.158,2.139.015,2.064,0,4.128,0,6.311.418.041.776.1,1.136.106,1.012.015,2.025,0,3.037.014.81.014,1.427.3,1.387,1.246-.035.857-.591,1.14-1.365,1.137-.211,0-.422,0-.633,0q-14.554,0-29.107,0c-2.02,0-2.177-.347-1.63-2.261A12.273,12.273,0,0,0,.4,238.4c.026-2.018.54-2.541,2.561-2.551,1.139-.006,2.279-.025,3.417.008a1.9,1.9,0,0,1,2.047,2.052c.035,1.094.007,2.19.007,3.416m3.894,0H15.3V230.95h-2.98Zm9.61.074a22.664,22.664,0,0,0,2.428-.032.959.959,0,0,0,.654-.657c.055-1.8.03-3.61.03-5.448H21.934ZM2.91,241.3H5.871v-3H2.91Z" transform="translate(0 -170.712)" fill="#fff"/>
        <path id="Path_608399" data-name="Path 608399" d="M111.075,104.123c2.294.62,4.592,1.232,6.882,1.866a1.175,1.175,0,0,1,.928,1.639c-.315.909-1.114.848-1.8.564-8.033-3.321-14.278.134-20.079,5.267a1.3,1.3,0,0,0-.142,2.1c4.515,4.19,9.5,7.365,16.02,6.617a19.583,19.583,0,0,0,9.444-4.258c.809-.605,1.573-1.275,2.324-1.952,1.186-1.069,1.177-1.706-.042-2.789-.755-.672-1.546-1.306-2.339-1.934-.639-.506-.993-1.117-.46-1.836s1.252-.591,1.879-.075a41.027,41.027,0,0,1,3.161,2.715,3.559,3.559,0,0,1,.136,4.941c-4.468,4.388-9.568,7.666-16.087,7.724-4.832.042-8.959-2.06-12.738-4.893a31.99,31.99,0,0,1-2.9-2.445,3.7,3.7,0,0,1-.024-5.511c3.89-3.7,8.311-6.441,13.721-7.289a20.089,20.089,0,0,1,2.018-.119l.1-.33" transform="translate(-70.219 -77.763)" fill="#fff"/>
        <path id="Path_608400" data-name="Path 608400" d="M255.75,11.608c-1.791,1.822-3.575,3.65-5.375,5.463-1.542,1.553-2.238,1.549-3.77.008-.5-.507-.987-1.035-1.607-1.688-1.544,1.576-3.009,3.075-4.478,4.569-.266.27-.522.7-.828.747a2.21,2.21,0,0,1-1.562-.224,1.427,1.427,0,0,1-.017-1.408q2.809-2.991,5.787-5.821a1.647,1.647,0,0,1,2.477.218c.687.677,1.341,1.388,1.88,1.95l5.66-5.575c-.407-.026-.9.084-1.193-.108-.429-.278-.945-.75-.99-1.185a1.428,1.428,0,0,1,.938-1.061,27.091,27.091,0,0,1,4.668.008c.38.036.933.815.982,1.3.135,1.335.03,2.693.053,4.041.014.824-.365,1.336-1.167,1.327s-1.19-.538-1.174-1.346c.007-.335,0-.671,0-1.006l-.286-.2" transform="translate(-177.7 -5.523)" fill="#fff"/>
        <path id="Path_608401" data-name="Path 608401" d="M12.683,134a6.189,6.189,0,0,1-6.049,6.182A6.144,6.144,0,1,1,6.566,127.9,6.167,6.167,0,0,1,12.683,134m-9.8-.019a3.642,3.642,0,0,0,3.7,3.759,3.708,3.708,0,0,0-.023-7.415,3.638,3.638,0,0,0-3.674,3.656" transform="translate(-0.299 -95.519)" fill="#fff"/>
        <path id="Path_608402" data-name="Path 608402" d="M.081,6.013A6.036,6.036,0,0,1,6.222,0,6.157,6.157,0,0,1,12.3,6.148a6.3,6.3,0,0,1-6.146,6.129A6.152,6.152,0,0,1,.081,6.013M6.034,9.794a3.588,3.588,0,0,0,3.8-3.637A3.617,3.617,0,0,0,6.255,2.408a3.695,3.695,0,1,0-.222,7.386" transform="translate(-0.061 0)" fill="#fff"/>
        <path id="Path_608403" data-name="Path 608403" d="M6.512,76.648a6.094,6.094,0,1,1,.174-12.184,6.093,6.093,0,0,1-.174,12.184M2.886,70.46a3.763,3.763,0,0,0,3.655,3.867,3.785,3.785,0,0,0,3.735-3.68,3.7,3.7,0,1,0-7.389-.188" transform="translate(-0.301 -48.144)" fill="#fff"/>
        <path id="Path_608404" data-name="Path 608404" d="M138.1,128.287a5.8,5.8,0,1,1,11.592.085,5.8,5.8,0,1,1-11.592-.085m5.762,3.437a3.349,3.349,0,0,0,3.44-3.415,3.453,3.453,0,0,0-3.47-3.431,3.5,3.5,0,0,0-3.39,3.4,3.386,3.386,0,0,0,3.421,3.447" transform="translate(-103.136 -91.495)" fill="#fff"/>
        <path id="Path_608405" data-name="Path 608405" d="M69,9.8c-1.559,0-3.118-.022-4.676.009-.906.018-1.706-.2-1.686-1.221.018-.915.757-1.169,1.63-1.162,3.2.026,6.4.017,9.605.006.84,0,1.581.16,1.6,1.164S74.782,9.81,73.93,9.8c-1.643-.013-3.286,0-4.929,0" transform="translate(-46.781 -5.546)" fill="#fff"/>
        <path id="Path_608406" data-name="Path 608406" d="M291.283,95.181a13.39,13.39,0,0,1-2.648-.049,1.91,1.91,0,0,1-1.264-1.072c-.229-.8.442-1.263,1.182-1.286,1.854-.059,3.713-.056,5.568-.011.732.017,1.461.432,1.266,1.221a2,2,0,0,1-1.33,1.147,13.6,13.6,0,0,1-2.774.051" transform="translate(-214.586 -69.254)" fill="#fff"/>
        <path id="Path_608407" data-name="Path 608407" d="M167.366,281.568c-.881,0-1.761,0-2.642,0-.768,0-1.314-.293-1.357-1.141s.484-1.235,1.246-1.249c1.845-.034,3.691-.031,5.535,0,.751.011,1.327.352,1.31,1.2-.017.821-.546,1.179-1.323,1.19-.923.013-1.845,0-2.768,0" transform="translate(-122.007 -208.483)" fill="#fff"/>
        <path id="Path_608408" data-name="Path 608408" d="M291.351,76.093c-.882,0-1.766.045-2.643-.013-.783-.051-1.524-.449-1.3-1.307a1.877,1.877,0,0,1,1.348-1.095c1.753-.133,3.521-.055,5.285-.051.83,0,1.523.411,1.374,1.232a1.96,1.96,0,0,1-1.308,1.179,13.077,13.077,0,0,1-2.758.054" transform="translate(-214.618 -54.969)" fill="#fff"/>
        <path id="Path_608409" data-name="Path 608409" d="M291.354,114.419c-.886,0-1.773.015-2.659,0-.757-.016-1.342-.32-1.379-1.158s.507-1.23,1.279-1.241c1.857-.027,3.719-.081,5.567.046a1.755,1.755,0,0,1,1.22,1.111c.167.769-.468,1.208-1.243,1.237-.927.035-1.857.008-2.786.009" transform="translate(-214.578 -83.632)" fill="#fff"/>
        <path id="Path_608410" data-name="Path 608410" d="M167.36,262.445a14.177,14.177,0,0,1-2.77-.052c-.467-.094-.825-.729-1.231-1.12.392-.4.764-1.115,1.181-1.143a43.42,43.42,0,0,1,5.679-.005,1.728,1.728,0,0,1,1.188,1.114c.168.8-.509,1.175-1.267,1.2-.926.034-1.853.008-2.78.008v0" transform="translate(-122.003 -194.203)" fill="#fff"/>
        <path id="Path_608411" data-name="Path 608411" d="M291.442,150.439c.886,0,1.772.015,2.657,0,.8-.018,1.348.3,1.38,1.122s-.492,1.214-1.29,1.217c-1.856.008-3.717.073-5.564-.05a1.736,1.736,0,0,1-1.207-1.092c-.179-.792.44-1.189,1.24-1.191.928,0,1.856,0,2.784,0" transform="translate(-214.632 -112.35)" fill="#fff"/>
        <path id="Path_608412" data-name="Path 608412" d="M291.315,171.783a14.659,14.659,0,0,1-2.775-.049c-.471-.091-.842-.7-1.259-1.077.394-.4.768-1.121,1.186-1.148a47.61,47.61,0,0,1,5.815,0c.4.024.758.7,1.136,1.078-.4.4-.746,1.052-1.2,1.139a15.765,15.765,0,0,1-2.9.055" transform="translate(-214.554 -126.53)" fill="#fff"/>
        <path id="Path_608413" data-name="Path 608413" d="M291.349,133.595c-.885,0-1.77.005-2.656,0-.791-.005-1.427-.387-1.262-1.183a1.719,1.719,0,0,1,1.186-1.105,43.794,43.794,0,0,1,5.683.006c.428.028.81.734,1.213,1.128-.418.385-.791,1.014-1.265,1.1a16.042,16.042,0,0,1-2.9.052" transform="translate(-214.646 -97.998)" fill="#fff"/>
        <path id="Path_608414" data-name="Path 608414" d="M66.48,29.718c-.839,0-1.679,0-2.518,0-.813,0-1.387-.487-1.258-1.21a1.729,1.729,0,0,1,1.228-1.092,33.906,33.906,0,0,1,5.154.007c.411.032,1,.721,1.069,1.175.048.31-.613.976-1.041,1.063a13.516,13.516,0,0,1-2.634.05v.008" transform="translate(-46.816 -20.404)" fill="#fff"/>
        <path id="Path_608415" data-name="Path 608415" d="M270.393,76.373c-.312-.5-.807-.964-.891-1.5-.12-.761.4-1.256,1.217-1.262.884-.007,1.416.515,1.264,1.336-.1.523-.637.963-.978,1.44l-.613-.018" transform="translate(-201.263 -54.978)" fill="#fff"/>
        <path id="Path_608416" data-name="Path 608416" d="M148.194,261.5c-.468.358-.9.936-1.411,1.024a1.059,1.059,0,0,1-1.318-1.252,1.9,1.9,0,0,1,1.223-1.245c.434-.072.984.551,1.483.867q.012.3.023.605" transform="translate(-108.619 -194.197)" fill="#fff"/>
        <path id="Path_608417" data-name="Path 608417" d="M272.212,170.766c-.486.347-1,1-1.45.957a1.883,1.883,0,0,1-1.273-1.187,1.069,1.069,0,0,1,1.25-1.329c.523.065.983.642,1.471.989q0,.285,0,.57" transform="translate(-201.236 -126.362)" fill="#fff"/>
        <path id="Path_608418" data-name="Path 608418" d="M148.174,280.57c-.492.315-1.028.929-1.465.865a1.866,1.866,0,0,1-1.244-1.2,1.084,1.084,0,0,1,1.294-1.294c.515.076.954.662,1.428,1.02q-.006.3-.013.606" transform="translate(-108.619 -208.315)" fill="#fff"/>
        <path id="Path_608419" data-name="Path 608419" d="M270.559,95.458c-.32-.487-.939-1.015-.88-1.452a1.864,1.864,0,0,1,1.172-1.272,1.053,1.053,0,0,1,1.277,1.282c-.086.52-.618.968-.951,1.448l-.617-.006" transform="translate(-201.404 -69.235)" fill="#fff"/>
        <path id="Path_608420" data-name="Path 608420" d="M270.578,133.694c-.329-.5-.959-1.036-.9-1.49a1.851,1.851,0,0,1,1.187-1.29,1.091,1.091,0,0,1,1.265,1.33c-.1.532-.659.978-1.012,1.462l-.535-.012" transform="translate(-201.401 -97.759)" fill="#fff"/>
      </g>
    </g>
  </g>
</svg>
