<svg xmlns="http://www.w3.org/2000/svg" xmlns:xlink="http://www.w3.org/1999/xlink" width="120" height="120" viewBox="0 0 120 120">
  <defs>
    <clipPath id="clip-path">
      <rect id="Rectangle_377696" data-name="Rectangle 377696" width="83.345" height="83.433" fill="none"/>
    </clipPath>
  </defs>
  <g id="Group_1071556" data-name="Group 1071556" transform="translate(-269 -958)">
    <circle id="Ellipse_5614" data-name="Ellipse 5614" cx="60" cy="60" r="60" transform="translate(269 958)" fill="#304c8e"/>
    <g id="Group_1071646" data-name="Group 1071646" transform="translate(281.655 973.604)">
      <g id="Group_1071645" data-name="Group 1071645" clip-path="url(#clip-path)">
        <path id="Path_608928" data-name="Path 608928" d="M23.1,74.573c-1.843,0-3.527,0-5.211,0-3.208-.009-5.209-2.034-5.217-5.338-.016-6.862-.027-13.725.018-20.587a3.14,3.14,0,0,0-1.039-2.5C8.356,42.936,5.077,39.7,1.878,36.39a6.144,6.144,0,0,1,2.83-10.406,5.943,5.943,0,0,1,5.873,1.6c.622.587,1.173,1.248,2.006,2.143.038-.846.076-1.3.076-1.747q.005-11.14,0-22.28c0-3.765,1.936-5.7,5.68-5.7Q42.914,0,67.481,0c3.58,0,5.575,1.971,5.6,5.527.007,1.04,0,2.081,0,3.322,1.783,0,3.5,0,5.221,0,3.177.009,4.991,1.822,4.991,4.986,0,21.586-.038,43.171.052,64.757a4.972,4.972,0,0,1-4.855,4.84q-25.154-.03-50.307-.016A4.932,4.932,0,0,1,23.1,78.428C23.062,77.215,23.1,76,23.1,74.573M69.732,37.411q0-15.9,0-31.8c0-1.889-.415-2.324-2.281-2.325q-24.576-.008-49.151,0c-1.874,0-2.28.427-2.28,2.32,0,8.689.012,17.379-.02,26.068a2.884,2.884,0,0,0,.92,2.272C25.2,42.179,33.435,50.472,41.744,58.685a14.033,14.033,0,0,1,3.444,5.1c.823,2.187,1.813,4.31,2.653,6.491a1.534,1.534,0,0,0,1.7,1.166c5.91-.05,11.82-.022,17.731-.026,1.965,0,2.461-.5,2.461-2.461q0-15.771,0-31.542m3.349-25.4v1.847c0,18.335-.032,36.669.031,55,.01,3.054-1.889,5.8-5.673,5.761-13.123-.137-26.248-.053-39.372-.053H26.448c0,1.107,0,2.054,0,3,0,2.251.31,2.567,2.558,2.567q24.249,0,48.5,0c2.37,0,2.658-.285,2.658-2.6q0-31.412,0-62.824c0-.3,0-.608,0-.912a1.627,1.627,0,0,0-1.692-1.765c-1.728-.078-3.462-.021-5.387-.021M7.84,37.2l28.38,28.425,3.838-3.708L11.666,33.54,7.84,37.2M38.574,71.415l.036-.195a7.271,7.271,0,0,0-1.126-.541,9.4,9.4,0,0,1-4.054-2.691c-5.407-5.466-10.861-10.886-16.3-16.32-.295-.295-.61-.568-1.114-1.035v1.489q0,8.274,0,16.548c0,2.353.382,2.743,2.692,2.744H38.574ZM9.2,30.883c-.992-1.105-1.989-2.174-3.741-1.7a2.794,2.794,0,0,0-2.144,2.36c-.271,1.575.731,2.565,1.825,3.424L9.2,30.883M44.169,69.931l-2.063-4.875L39.1,67.8l5.072,2.136" transform="translate(0 0)" fill="#fff"/>
        <path id="Path_608929" data-name="Path 608929" d="M112.743,129q-8.071,0-16.143,0c-1.392,0-2.086-.519-2.113-1.55s.688-1.63,2.025-1.631q16.208-.009,32.416,0c1.485,0,2.328.849,2,1.991-.3,1.02-1.078,1.206-2.037,1.2-5.381-.023-10.762-.011-16.143-.011" transform="translate(-69.86 -93.021)" fill="#fff"/>
        <path id="Path_608930" data-name="Path 608930" d="M112.6,37.111q-8.007,0-16.013,0c-1.393,0-2.078-.516-2.1-1.549s.681-1.6,2.04-1.6q16.208-.005,32.417,0c1.348,0,2.059.577,2.035,1.613s-.711,1.54-2.108,1.541q-8.137.005-16.273,0" transform="translate(-69.861 -25.104)" fill="#fff"/>
        <path id="Path_608931" data-name="Path 608931" d="M109.505,95.016q6.573,0,13.147,0a1.627,1.627,0,0,1,1.859,1.57c.09.97-.67,1.632-1.868,1.7-.3.018-.607.006-.911.007H97.521c-.39,0-.781.008-1.171-.009-1.054-.046-1.788-.536-1.78-1.644s.72-1.609,1.789-1.623c.868-.011,1.736,0,2.6,0h10.544" transform="translate(-69.922 -70.25)" fill="#fff"/>
        <path id="Path_608932" data-name="Path 608932" d="M185.666,159.421c-1.735,0-3.47.016-5.2-.005-1.316-.017-2-.622-2-1.691s.7-1.666,2.021-1.672q5.269-.027,10.539,0c1.261.007,2.057.7,2.048,1.7s-.8,1.653-2.073,1.667c-1.778.02-3.556,0-5.334,0" transform="translate(-131.952 -115.37)" fill="#fff"/>
        <path id="Path_608933" data-name="Path 608933" d="M185.726,67.494c-1.777,0-3.554.011-5.331,0-1.068-.009-1.88-.377-1.92-1.615-.034-1.033.623-1.705,1.838-1.716q5.461-.05,10.922,0a1.665,1.665,0,0,1,1.834,1.632c.073.966-.71,1.674-1.881,1.694-1.82.03-3.641.008-5.461.008" transform="translate(-131.958 -47.419)" fill="#fff"/>
        <path id="Path_608934" data-name="Path 608934" d="M101.754,67.5c-1.734,0-3.468.013-5.2,0-1.309-.013-2.058-.629-2.065-1.649-.006-1,.763-1.68,2.048-1.688q5.267-.032,10.534,0c1.331.008,2.021.617,2.027,1.674.006,1.076-.665,1.65-2.009,1.663-1.777.018-3.555,0-5.332,0" transform="translate(-69.861 -47.424)" fill="#fff"/>
        <path id="Path_608935" data-name="Path 608935" d="M185.84,187.13c1.733,0,3.465-.014,5.2,0,1.3.014,2.1.65,2.035,1.661-.077,1.184-.873,1.628-1.951,1.632-3.6.014-7.19.022-10.785-.006-1.058-.008-1.883-.412-1.859-1.67.024-1.243.824-1.613,1.9-1.618,1.819-.008,3.638,0,5.458,0" transform="translate(-131.961 -138.355)" fill="#fff"/>
        <path id="Path_608936" data-name="Path 608936" d="M123.955,159.351c-.738,0-1.479.046-2.212-.01a1.607,1.607,0,0,1-1.7-1.609,1.589,1.589,0,0,1,1.7-1.73c1.515-.069,3.039-.074,4.554,0a1.566,1.566,0,0,1,1.687,1.732c-.035,1.086-.739,1.519-1.692,1.6-.775.065-1.561.013-2.342.014" transform="translate(-88.756 -115.304)" fill="#fff"/>
        <path id="Path_608937" data-name="Path 608937" d="M223.646,98.313A1.585,1.585,0,0,1,222.1,96.6a1.536,1.536,0,0,1,1.6-1.521,1.619,1.619,0,0,1,1.628,1.642,1.652,1.652,0,0,1-1.686,1.589" transform="translate(-164.211 -70.3)" fill="#fff"/>
      </g>
    </g>
  </g>
</svg>
