<svg xmlns="http://www.w3.org/2000/svg" xmlns:xlink="http://www.w3.org/1999/xlink" width="505" height="501" viewBox="0 0 505 501">
  <defs>
    <linearGradient id="linear-gradient" x1="0.769" y1="0.751" x2="0.12" y2="0.05" gradientUnits="objectBoundingBox">
      <stop offset="0" stop-color="#c9d4ee"/>
      <stop offset="1" stop-color="#e4eaf6"/>
    </linearGradient>
    <clipPath id="clip-path">
      <rect id="Rectangle_377669" data-name="Rectangle 377669" width="492" height="447" transform="translate(-6506 -10103)" fill="#fff" stroke="#707070" stroke-width="1"/>
    </clipPath>
    <clipPath id="clip-path-2">
      <rect id="Rectangle_347516" data-name="Rectangle 347516" width="606.037" height="423.277" fill="none"/>
    </clipPath>
    <clipPath id="clip-path-3">
      <path id="Path_608970" data-name="Path 608970" d="M222.32,161.267V43.367C222.32,19.416,203.823,0,181.006,0H.3A.311.311,0,0,0,0,.317H0V117.9c0,23.951,18.5,43.367,41.314,43.367Z" transform="translate(0 0)" fill="none"/>
    </clipPath>
    <clipPath id="clip-path-4">
      <path id="Path_608970-2" data-name="Path 608970" d="M222.32,0V117.9c0,23.951-18.5,43.366-41.314,43.367H.3a.311.311,0,0,1-.3-.317H0V43.367C0,19.416,18.5,0,41.314,0Z" fill="none"/>
    </clipPath>
    <clipPath id="clip-path-5">
      <path id="Path_608970-3" data-name="Path 608970" d="M0,0V114.484c0,23.257,19.852,42.11,44.339,42.111H238.274a.317.317,0,0,0,.326-.308h0V42.111C238.6,18.854,218.749,0,194.261,0Z" fill="none"/>
    </clipPath>
    <clipPath id="clip-path-6">
      <path id="Path_608970-4" data-name="Path 608970" d="M0,160.267V43.1C0,19.3,19.852,0,44.339,0H238.274a.321.321,0,0,1,.326.315h0V117.168c0,23.8-19.851,43.1-44.339,43.1Z" transform="translate(0 0)" fill="none"/>
    </clipPath>
    <clipPath id="clip-path-7">
      <rect id="Rectangle_377700" data-name="Rectangle 377700" width="49.468" height="49.466" fill="#304c8e"/>
    </clipPath>
    <clipPath id="clip-path-8">
      <rect id="Rectangle_377701" data-name="Rectangle 377701" width="45.171" height="41.328" fill="#6ba820"/>
    </clipPath>
    <clipPath id="clip-path-9">
      <rect id="Rectangle_377702" data-name="Rectangle 377702" width="42.689" height="42.692" fill="#6ba820"/>
    </clipPath>
    <clipPath id="clip-path-10">
      <rect id="Rectangle_377706" data-name="Rectangle 377706" width="48.893" height="56.18" fill="#304c8e"/>
    </clipPath>
  </defs>
  <g id="Group_1071719" data-name="Group 1071719" transform="translate(6745 10244)">
    <rect id="Rectangle_377668" data-name="Rectangle 377668" width="505" height="501" transform="translate(-6745 -10244)" opacity="0.72" fill="url(#linear-gradient)"/>
    <g id="Mask_Group_105" data-name="Mask Group 105" transform="translate(-232 -119)" clip-path="url(#clip-path)">
      <g id="Group_1071547" data-name="Group 1071547" transform="translate(-6556 -10085)">
        <g id="Group_1015828" data-name="Group 1015828">
          <g id="Group_1015827" data-name="Group 1015827" clip-path="url(#clip-path-2)">
            <path id="Path_606144" data-name="Path 606144" d="M239.83,206.039H44.629C19.981,206.039,0,181.232,0,150.631V0H195.528c24.648,0,44.629,24.806,44.629,55.407V205.633a.373.373,0,0,1-.327.406" transform="translate(58)" fill="#123d7e"/>
            <path id="Path_606145" data-name="Path 606145" d="M606.88,476.328H424.714c-23,0-41.649-24.807-41.649-55.407V270.289H565.537c23,0,41.648,24.806,41.648,55.407V475.922c0,.224-.137.406-.305.406" transform="translate(-75.185 -53.05)" fill="#6ba820"/>
            <path id="Path_606146" data-name="Path 606146" d="M383.37,207.039H565.536c23,0,41.649-24.807,41.649-55.407V1H424.714c-23,0-41.649,24.806-41.649,55.407V206.633c0,.224.137.406.305.406" transform="translate(-75.185 -0.196)" fill="#4a2a7c"/>
            <path id="Path_606147" data-name="Path 606147" d="M.327,475.328h195.2c24.648,0,44.629-24.807,44.629-55.407V269.289H44.629C19.981,269.289,0,294.1,0,324.7V474.922a.373.373,0,0,0,.327.406" transform="translate(58 -52.854)" fill="#ffd800"/>
          </g>
        </g>
      </g>
      <text id="Debilidades_Puntos_débiles_y_aspectos_desfavorables_de_una_empresa" data-name="Debilidades

Puntos débiles y aspectos desfavorables de una empresa" transform="translate(-6466 -10048)" fill="#f3f9ff" font-size="16" font-family="Roboto-Black, Roboto" font-weight="800"><tspan x="51.172" y="15">Debilidades</tspan><tspan x="93.5" y="35"></tspan><tspan x="33.711" y="55">Puntos débiles y </tspan><tspan x="8.008" y="75">aspectos desfavorables </tspan><tspan x="35.984" y="95">de una empresa</tspan></text>
      <text id="Fortalezas_Puntos_en_los_que_la_empresa_tiene_una_clara_ventaja_en_comparación_con_sus_rivales" data-name="Fortalezas

Puntos en los que la empresa tiene una clara ventaja en comparación con sus rivales" transform="translate(-6466 -9813)" fill="#12263f" font-size="16" font-family="Roboto-Black, Roboto" font-weight="800"><tspan x="55.48" y="15">Fortalezas</tspan><tspan x="93.5" y="35"></tspan><tspan x="20.617" y="55">Puntos en los que la </tspan><tspan x="6.918" y="75">empresa tiene una clara </tspan><tspan x="7.492" y="95">ventaja en comparación </tspan><tspan x="39.445" y="115">con sus rivales</tspan></text>
      <text id="Amenazas_Factores_del_entorno_que_ponen_en_peligro_a_la_empresa_" data-name="Amenazas

Factores del entorno que ponen en peligro a la empresa
" transform="translate(-6214 -10048)" fill="#f3f9ff" font-size="16" font-family="Roboto-Black, Roboto" font-weight="800"><tspan x="38.273" y="15">Amenazas</tspan><tspan x="76" y="35"></tspan><tspan x="1.762" y="55">Factores del entorno </tspan><tspan x="0.176" y="75">que ponen en peligro </tspan><tspan x="29.918" y="95">a la empresa</tspan><tspan x="76" y="115"></tspan></text>
      <text id="Oportunidades_Factores_del_entorno_positivos_y_favorable_para_la_empresa_" data-name="Oportunidades

Factores del entorno positivos y favorable para la empresa
" transform="translate(-6226 -9813)" fill="#12263f" font-size="16" font-family="Roboto-Black, Roboto" font-weight="800"><tspan x="40.086" y="15">Oportunidades</tspan><tspan x="93.5" y="35"></tspan><tspan x="19.262" y="55">Factores del entorno </tspan><tspan x="0.695" y="75">positivos y favorable para </tspan><tspan x="53.656" y="95">la empresa</tspan><tspan x="93.5" y="115"></tspan></text>
    </g>
    <g id="Group_1071672" data-name="Group 1071672" transform="translate(-6480.12 -9989.327)">
      <g id="Group_1071653" data-name="Group 1071653" transform="translate(0 0)" clip-path="url(#clip-path-3)">
        <path id="Path_608969" data-name="Path 608969" d="M364.538,190.36c0-49.995-38.61-90.524-86.239-90.524s-86.239,40.529-86.239,90.524,38.61,90.524,86.239,90.524,86.239-40.529,86.239-90.524" transform="translate(-285.428 -197.759)" fill="#fff"/>
      </g>
    </g>
    <g id="Group_1071678" data-name="Group 1071678" transform="translate(-6480.12 -10158.767)">
      <g id="Group_1071653-2" data-name="Group 1071653" transform="translate(0 0)" clip-path="url(#clip-path-4)">
        <path id="Path_608969-2" data-name="Path 608969" d="M364.538,190.36c0,49.995-38.61,90.524-86.239,90.524s-86.239-40.529-86.239-90.524,38.61-90.524,86.239-90.524,86.239,40.529,86.239,90.524" transform="translate(-285.428 -21.694)" fill="#fff"/>
      </g>
    </g>
    <g id="Group_1071666" data-name="Group 1071666" transform="translate(-6729.1 -10154.971)">
      <g id="Group_1071653-3" data-name="Group 1071653" clip-path="url(#clip-path-5)">
        <path id="Path_608969-3" data-name="Path 608969" d="M192.061,187.737c0,48.547,41.438,87.9,92.554,87.9s92.554-39.355,92.554-87.9-41.438-87.9-92.554-87.9-92.554,39.355-92.554,87.9" transform="translate(-38.364 -23.958)" fill="#fff"/>
      </g>
    </g>
    <g id="Group_1071673" data-name="Group 1071673" transform="translate(-6728.6 -9988.327)">
      <g id="Group_1071653-4" data-name="Group 1071653" transform="translate(0 0)" clip-path="url(#clip-path-6)">
        <path id="Path_608969-4" data-name="Path 608969" d="M0,89.963C0,40.278,41.438,0,92.554,0s92.554,40.278,92.554,89.963-41.438,89.963-92.554,89.963S0,139.647,0,89.963" transform="translate(153.697 -97.316)" fill="#fff"/>
      </g>
    </g>
    <g id="Group_1071674" data-name="Group 1071674" transform="translate(-6549.178 -10054.842)">
      <g id="Group_1071658" data-name="Group 1071658" clip-path="url(#clip-path-7)">
        <path id="Path_608971" data-name="Path 608971" d="M15.715,133.936c2.069-1,3.44-.925,4.62.212s1.284,2.415.33,4.7a1.966,1.966,0,0,0,2.118-.466c.554-.538,1.083-1.1,1.644-1.632a3.385,3.385,0,1,1,4.744,4.827c-1.349,1.375-2.627,2.852-4.508,3.547a8.886,8.886,0,0,1-8.989-1.405c-.2.188-.4.375-.6.571q-4.588,4.585-9.175,9.172a3.316,3.316,0,0,1-3.53.93A3.2,3.2,0,0,1,.08,151.824a3.025,3.025,0,0,1,.723-2.8c1.471-1.548,3-3.044,4.507-4.556A.7.7,0,0,1,6.4,144.4c.392.4.249.795-.1,1.148-1.418,1.421-2.842,2.836-4.253,4.263a1.8,1.8,0,0,0-.469,1.983,1.892,1.892,0,0,0,1.589,1.3,2.087,2.087,0,0,0,1.832-.785q5.67-5.686,11.353-11.358c.946-.946,1.9-1.889,2.836-2.842a1.936,1.936,0,1,0-2.744-2.693q-3.61,3.6-7.211,7.2c-.091.091-.184.18-.272.274-.372.4-.8.652-1.257.184-.419-.433-.164-.838.2-1.2.824-.814,1.639-1.637,2.456-2.459.162-.162.315-.334.5-.527a8.932,8.932,0,0,1-1.926-4.239,7.987,7.987,0,0,1,1.27-6.108,22.458,22.458,0,0,1,3.3-3.543,3.232,3.232,0,0,1,4.354.326,3.307,3.307,0,0,1,.293,4.423,21.55,21.55,0,0,1-1.866,1.949,2.1,2.1,0,0,0-.56,2.24m-3.728,3.926c.842-.867,1.659-1.681,2.43-2.535a.816.816,0,0,0,0-.676,3.455,3.455,0,0,1,.8-3.964c.5-.516,1.029-1.009,1.523-1.532a1.932,1.932,0,1,0-2.722-2.735c-.63.606-1.255,1.22-1.849,1.861a7.273,7.273,0,0,0-.188,9.581m4.68,4.764a7.458,7.458,0,0,0,6.882,1.342c1.988-.571,3.27-2.068,4.633-3.458a1.926,1.926,0,0,0,.029-2.765,1.954,1.954,0,0,0-2.767.057c-.506.475-.983.981-1.475,1.469a3.507,3.507,0,0,1-4.088.86.835.835,0,0,0-.723.1c-.82.738-1.6,1.523-2.491,2.392" transform="translate(0 -105.099)" fill="#304c8e"/>
        <path id="Path_608972" data-name="Path 608972" d="M143.86,15.679a8.781,8.781,0,0,1,1.955,4.4,8.57,8.57,0,0,1-2.161,7.139c-.635.708-1.323,1.371-2.008,2.032a3.381,3.381,0,0,1-4.877-4.682c.548-.613,1.154-1.175,1.738-1.757a2.146,2.146,0,0,0,.506-2.2c-1.688,1.006-3.333,1.156-4.73-.316-1.316-1.388-1.164-2.966-.174-4.556a2.017,2.017,0,0,0-2.178.46c-.55.542-1.081,1.1-1.643,1.633a3.386,3.386,0,1,1-4.735-4.84c1.349-1.375,2.625-2.852,4.51-3.545a8.953,8.953,0,0,1,9.066,1.469c.859-.894,1.716-1.813,2.6-2.7q3.566-3.588,7.155-7.154a3.322,3.322,0,0,1,3.831-.735,3.344,3.344,0,0,1,1.989,3.206,3.314,3.314,0,0,1-.993,2.276c-1.271,1.278-2.55,2.547-3.821,3.825-.365.367-.78.6-1.2.171s-.213-.836.164-1.209q1.838-1.821,3.657-3.66a1.905,1.905,0,0,0,.192-2.865,1.907,1.907,0,0,0-2.92.156q-7.132,7.121-14.254,14.251a1.887,1.887,0,0,0-.172,2.863,1.907,1.907,0,0,0,2.922-.178q3.775-3.76,7.541-7.53c.055-.055.108-.111.162-.166.379-.387.8-.777,1.3-.242.438.47.131.893-.245,1.265q-1.318,1.3-2.624,2.619c-.18.181-.353.369-.555.581m-5.877-3.638a2.56,2.56,0,0,0-.219-.3,2.2,2.2,0,0,0-.3-.236,7.413,7.413,0,0,0-6.337-.891c-1.96.583-3.217,2.061-4.568,3.424a1.927,1.927,0,1,0,2.7,2.748c.528-.489,1.021-1.015,1.533-1.521a3.485,3.485,0,0,1,4.026-.838.8.8,0,0,0,.673-.019c.857-.766,1.673-1.576,2.494-2.365m4.908,4.528c-.917.937-1.635,1.7-2.391,2.428a.749.749,0,0,0-.2.995,3.322,3.322,0,0,1-.694,3.774c-.52.569-1.1,1.086-1.628,1.644a1.93,1.93,0,1,0,2.713,2.74c.631-.6,1.27-1.207,1.845-1.864a7.089,7.089,0,0,0,1.625-6.95,20.1,20.1,0,0,0-1.27-2.767" transform="translate(-105.239 0)" fill="#304c8e"/>
        <path id="Path_608973" data-name="Path 608973" d="M104.624,28.175c-.168.141-.384.449-.665.53-.5.144-.764-.226-.841-.673-.165-.961-.294-1.929-.441-2.894-.155-1.015-.316-2.03-.47-3.045-.074-.49-.062-.974.547-1.092s.814.32.892.814c.323,2.054.633,4.111.977,6.36" transform="translate(-86.394 -17.741)" fill="#304c8e"/>
        <path id="Path_608974" data-name="Path 608974" d="M28.107,104.6c-2.279-.348-4.285-.648-6.289-.964-.489-.077-.938-.267-.823-.886s.594-.63,1.086-.555q2.933.443,5.865.9c.474.074.907.3.751.847-.087.3-.458.523-.59.663" transform="translate(-17.737 -86.381)" fill="#304c8e"/>
        <path id="Path_608975" data-name="Path 608975" d="M256.143,205.121c-2.261-.338-4.32-.636-6.374-.961-.454-.072-.819-.39-.629-.859a1.059,1.059,0,0,1,.817-.565c2.037.257,4.068.577,6.093.916.709.119,1.022.6.723,1.044a1.733,1.733,0,0,1-.63.425" transform="translate(-210.614 -171.419)" fill="#304c8e"/>
        <path id="Path_608976" data-name="Path 608976" d="M205.172,256.57c-.16.154-.4.561-.624.553a1.029,1.029,0,0,1-.8-.569c-.309-1.533-.526-3.085-.771-4.632a9.152,9.152,0,0,1-.226-1.673c.009-.275.33-.754.522-.761.288-.009.806.277.847.506.385,2.121.69,4.256,1.046,6.575" transform="translate(-171.437 -210.952)" fill="#304c8e"/>
        <path id="Path_608977" data-name="Path 608977" d="M52.086,50.321a4.793,4.793,0,0,1,.685.461c1.138,1.119,2.261,2.253,3.391,3.38.351.349.525.723.121,1.135s-.779.266-1.135-.091c-1.145-1.149-2.308-2.28-3.425-3.455a1.177,1.177,0,0,1-.247-.881c.03-.2.37-.347.609-.55" transform="translate(-43.518 -42.548)" fill="#304c8e"/>
        <path id="Path_608978" data-name="Path 608978" d="M242.013,241.233c-.155.2-.268.493-.461.561a.9.9,0,0,1-.768-.082c-1.282-1.228-2.544-2.478-3.758-3.773a.689.689,0,0,1,1-.932c1.276,1.2,2.5,2.451,3.726,3.7a2.1,2.1,0,0,1,.26.528" transform="translate(-200.343 -200.307)" fill="#304c8e"/>
      </g>
    </g>
    <g id="Group_1071675" data-name="Group 1071675" transform="translate(-6473.854 -10052.842)">
      <g id="Group_1071660" data-name="Group 1071660" clip-path="url(#clip-path-8)">
        <path id="Path_608979" data-name="Path 608979" d="M22.527,41.308c-4.775,0-9.551-.062-14.325.018A8.076,8.076,0,0,1,.054,34.182a7.973,7.973,0,0,1,1.084-5.006c4.819-8.358,9.619-16.728,14.486-25.058a7.889,7.889,0,0,1,11.611-2.57A8.7,8.7,0,0,1,29.56,4.142Q36.853,16.6,44.018,29.134a8.04,8.04,0,0,1-5.689,12.107,8.5,8.5,0,0,1-1.547.065q-7.127.006-14.255,0m.023-3.631c4.752,0,9.5-.062,14.255.02a4.5,4.5,0,0,0,4.036-6.815c-4.829-8.244-9.559-16.545-14.351-24.811a4.353,4.353,0,0,0-7.814.033c-1.847,3.162-3.665,6.34-5.5,9.511q-4.4,7.622-8.813,15.242a4.377,4.377,0,0,0-.619,3.3,4.324,4.324,0,0,0,4.617,3.513c4.728.011,9.457,0,14.185,0" transform="translate(0 0)" fill="#6ba820"/>
        <path id="Path_608980" data-name="Path 608980" d="M148.227,93.287c-.179,3.263-.351,6.526-.542,9.789a1.684,1.684,0,0,1-1.7,1.632,1.621,1.621,0,0,1-1.735-1.577c-.2-3.049-.374-6.1-.539-9.153a9.955,9.955,0,0,1,.013-2.162,2.277,2.277,0,0,1,4.516.415c.016.352,0,.7,0,1.057Z" transform="translate(-123.378 -77.249)" fill="#6ba820"/>
        <path id="Path_608981" data-name="Path 608981" d="M148.348,208.074a2.261,2.261,0,0,1-2.252,2.293,2.286,2.286,0,0,1-2.3-2.331,2.325,2.325,0,0,1,2.264-2.321,2.289,2.289,0,0,1,2.284,2.359" transform="translate(-123.501 -176.676)" fill="#6ba820"/>
      </g>
    </g>
    <g id="Group_1071676" data-name="Group 1071676" transform="translate(-6543.398 -9980.291)">
      <g id="Group_1071662" data-name="Group 1071662" clip-path="url(#clip-path-9)">
        <path id="Path_608982" data-name="Path 608982" d="M7.715,18.3V16.777H3.5c-1.386,0-1.847-.375-2-1.724C1.087,11.451.7,7.846.3,4.242.214,3.487.11,2.733.02,1.978A1.571,1.571,0,0,1,1.724.01Q5.346,0,8.967.011a1.524,1.524,0,0,1,1.7,1.693c.011,1.441,0,2.883,0,4.362h4.574c0-1.433-.026-2.87.016-4.306A1.815,1.815,0,0,1,15.631.583,2.17,2.17,0,0,1,16.963.032C19.884-.015,22.807,0,25.73.01A1.539,1.539,0,0,1,27.441,1.77c.007,1.417,0,2.834,0,4.293h4.574V2.609c0-2.362.241-2.6,2.623-2.6,2.109,0,4.219-.006,6.328,0a1.556,1.556,0,0,1,1.7,1.9q-.741,6.652-1.5,13.3a1.547,1.547,0,0,1-1.766,1.564c-1.447.007-2.894,0-4.428,0-.024.5-.046.968-.073,1.524,1.023,0,1.981,0,2.938,0,1.216.006,1.794.562,1.795,1.753q.006,10.442,0,20.884a1.536,1.536,0,0,1-1.719,1.751q-16.582.006-33.165,0A1.519,1.519,0,0,1,3.047,41q-.008-10.518,0-21.036A1.51,1.51,0,0,1,4.7,18.3c.988-.013,1.977,0,3.02,0M21.341,34.57a25.617,25.617,0,0,0,7.562-8,21.891,21.891,0,0,0,3.03-9.766.808.808,0,0,0-.4-.637q-4.886-1.879-9.8-3.689a1.123,1.123,0,0,0-.717-.031q-4.982,1.841-9.943,3.735a.715.715,0,0,0-.341.546,8.911,8.911,0,0,0,.12,1.514c1.077,6.993,4.786,12.3,10.484,16.331M4.421,13.727c1.36,0,2.6.017,3.846-.01a3.667,3.667,0,0,0,1.182-.21c3.677-1.367,7.338-2.778,11.027-4.112a2.782,2.782,0,0,1,1.744,0c3.36,1.2,6.732,2.386,10.021,3.763,1.992.833,3.98.425,6.024.581L39.45,3.119H35.067c0,1.432,0,2.8,0,4.174,0,1.318-.536,1.86-1.84,1.861q-3.431.005-6.861,0c-1.483,0-1.972-.486-1.973-1.958q0-2.043,0-4.081h-6.1c0,1.428,0,2.8,0,4.167,0,1.352-.531,1.871-1.906,1.872q-3.278,0-6.556,0c-1.805,0-2.212-.4-2.212-2.177V3.11H3.232c.4,3.551.789,7.048,1.189,10.617m9.3,25.878c0-2.588,0-5.122-.008-7.656a.824.824,0,0,0-.191-.474,25.647,25.647,0,0,1-5.027-9.707c-.043-.158-.226-.387-.355-.394-.671-.04-1.345-.018-2.008-.018v18.25Zm22.818,0V21.35c-.581,0-1.113.03-1.641-.009-.469-.034-.635.138-.761.6a23.756,23.756,0,0,1-4.215,8.524,4.183,4.183,0,0,0-.979,2.963c.083,2.045.023,4.1.023,6.18ZM25.885,34.895l-3.171,2.558c-1.119.9-1.62.9-2.741,0l-3.145-2.532V39.6h9.057Z" transform="translate(0 -0.001)" fill="#6ba820"/>
        <path id="Path_608983" data-name="Path 608983" d="M114.345,115.46c1.274-1.7,2.4-3.193,3.523-4.691a1.524,1.524,0,0,1,1.587-.671,1.315,1.315,0,0,1,1.163,1.15,2.142,2.142,0,0,1-.317,1.34c-1.434,2-2.92,3.956-4.411,5.911a1.523,1.523,0,0,1-2.485.17q-1.45-1.4-2.852-2.852a1.53,1.53,0,0,1-.108-2.238,1.552,1.552,0,0,1,2.3.1c.277.26.552.525.807.807s.481.586.8.975" transform="translate(-93.243 -93.292)" fill="#6ba820"/>
      </g>
    </g>
    <g id="Group_1071677" data-name="Group 1071677" transform="translate(-6472.716 -9984.993)">
      <g id="Group_1071664" data-name="Group 1071664" clip-path="url(#clip-path-10)">
        <path id="Path_608984" data-name="Path 608984" d="M14.361,200.549c.3.6.548,1.117.818,1.62a1.071,1.071,0,0,1-.48,1.653c-1.972,1.107-3.929,2.243-5.892,3.366a.977.977,0,0,1-1.561-.463Q3.7,199.2.158,191.675a.988.988,0,0,1,.6-1.516q2.953-1.254,5.894-2.536a1.032,1.032,0,0,1,1.537.6c.28.6.6,1.174.969,1.9,1.223-.781,2.4-1.492,3.537-2.268a11.279,11.279,0,0,1,12.142-.832,9.715,9.715,0,0,0,2.795.434,4.094,4.094,0,0,0,3.533-1.152,5.37,5.37,0,0,1,5.7-1.229,1.788,1.788,0,0,0,1.05-.028,5.944,5.944,0,0,1,4.068.162,1.79,1.79,0,0,0,1.237-.011,3.857,3.857,0,0,1,5.66,2.846,1.377,1.377,0,0,1-.451,1.134c-4.05,2.9-8.067,5.854-12.229,8.586a15.407,15.407,0,0,1-12.784,1.783,12.509,12.509,0,0,0-9.054,1M46.994,188.03c-.761-1.491-1.657-1.813-3.012-1.121a8.664,8.664,0,0,0-1.576,1.035c-1.534,1.272-3.086,2.53-4.535,3.9a3.755,3.755,0,0,1-2.911,1.083c-2.558-.075-5.12-.023-7.714-.023v-1.851h7.927a2.785,2.785,0,0,0-2.721-1.774c-1.934-.006-3.868-.036-5.8.012a5.658,5.658,0,0,1-2.844-.675,8.974,8.974,0,0,0-9.223.223c-1.548.925-3.041,1.943-4.615,2.955l3.574,7.126A14.885,14.885,0,0,1,24.456,197.9a12.506,12.506,0,0,0,6.709.024,13.05,13.05,0,0,0,3.667-1.471c4.089-2.725,8.087-5.587,12.162-8.428M2.12,191.562l6.434,13.664,4.735-2.719L6.8,189.552l-4.684,2.01M40.9,186.8c-2.325-.72-3.666.644-5.082,1.869l1.09,1.57L40.9,186.8m-5.731-.053-.086-.308-2.386.8a1.716,1.716,0,0,0,2.471-.5" transform="translate(0 -151.224)" fill="#304c8e"/>
        <path id="Path_608985" data-name="Path 608985" d="M118.4,55.011c-.732,2.267-2.283,3.537-4.317,3.587-2.181.053-3.725-1.128-4.675-3.63-.269,0-.567.012-.864,0a.9.9,0,0,1-.954-.976q-.017-2.628,0-5.256c0-.226.062-.568.213-.656.783-.457.531-1.077.263-1.636a12.363,12.363,0,0,0-1.223-2.1,9.08,9.08,0,1,1,16.074-4.467,10.41,10.41,0,0,1-2,4.588,12.211,12.211,0,0,0-1.148,2.034c-.258.54-.47,1.1.255,1.564.2.126.235.6.24.912.024,1.48.011,2.96.01,4.44,0,1.35-.158,1.514-1.476,1.555-.118,0-.237.022-.406.038m-.911-7.321a21.7,21.7,0,0,1,.92-2.648,21.347,21.347,0,0,1,1.526-2.348,7.186,7.186,0,0,0,1.241-3.818,7.243,7.243,0,0,0-12.775-4.918,7.037,7.037,0,0,0-.685,8.345c1.081,1.7,2.352,3.282,2.539,5.386Zm-8.048,5.4H118.4V49.576h-8.954Zm7.007,1.928H111.43a2.6,2.6,0,0,0,2.388,1.738,2.633,2.633,0,0,0,2.634-1.738" transform="translate(-85.838 -24.179)" fill="#304c8e"/>
        <path id="Path_608986" data-name="Path 608986" d="M92.019,17.664l1.15-1.21,2.674,2.692-1.231,1.129-2.593-2.612" transform="translate(-75.327 -13.469)" fill="#304c8e"/>
        <path id="Path_608987" data-name="Path 608987" d="M205.55,109.7l-1.147,1.192-2.663-2.685,1.223-1.112,2.588,2.605" transform="translate(-165.146 -87.669)" fill="#304c8e"/>
        <path id="Path_608988" data-name="Path 608988" d="M96.447,113l-2.668,2.586-1.035-1.2,2.6-2.543L96.447,113" transform="translate(-75.921 -91.55)" fill="#304c8e"/>
        <path id="Path_608989" data-name="Path 608989" d="M198.358,20.961l-1.048-1.19,2.66-2.568L201,18.31l-2.646,2.652" transform="translate(-161.519 -14.083)" fill="#304c8e"/>
        <rect id="Rectangle_377703" data-name="Rectangle 377703" width="1.705" height="3.519" transform="translate(27.234)" fill="#304c8e"/>
        <rect id="Rectangle_377704" data-name="Rectangle 377704" width="3.549" height="1.674" transform="translate(13.604 12.721)" fill="#304c8e"/>
        <rect id="Rectangle_377705" data-name="Rectangle 377705" width="3.549" height="1.703" transform="translate(39.022 12.699)" fill="#304c8e"/>
        <path id="Path_608990" data-name="Path 608990" d="M160.494,55.462h-1.733a3.787,3.787,0,0,0-3.632-3.634v-1.7a5.25,5.25,0,0,1,5.365,5.332" transform="translate(-126.99 -41.025)" fill="#304c8e"/>
      </g>
    </g>
  </g>
</svg>
