<svg xmlns="http://www.w3.org/2000/svg" xmlns:xlink="http://www.w3.org/1999/xlink" width="190" height="181" viewBox="0 0 190 181">
  <defs>
    <clipPath id="clip-path">
      <rect id="Rectangle_377666" data-name="Rectangle 377666" width="190" height="181" transform="translate(285 2893)" fill="#fff" stroke="#707070" stroke-width="1"/>
    </clipPath>
    <clipPath id="clip-path-2">
      <rect id="Rectangle_377432" data-name="Rectangle 377432" width="140.147" height="140.123" fill="none"/>
    </clipPath>
  </defs>
  <g id="Mask_Group_103" data-name="Mask Group 103" transform="translate(-285 -2893)" clip-path="url(#clip-path)">
    <g id="Group_1017022" data-name="Group 1017022" transform="translate(310 2913)">
      <g id="Group_1017021" data-name="Group 1017021" clip-path="url(#clip-path-2)">
        <path id="Path_608487" data-name="Path 608487" d="M92.89,88.742q-29.534,0-59.068,0C30.562,88.741,30,88.191,30,85q0-35.948,0-71.9c0-3.205.56-3.729,3.81-3.764,1.772-.019,4.092.551,5.163-.344,1.134-.947.322-3.35.353-5.114C39.384.5,39.842,0,43.264,0q49.845,0,99.69,0c3.264,0,3.755.548,3.849,3.744.054,1.832-.859,4.267.413,5.322,1.072.888,3.416.256,5.2.271,3.106.026,3.707.59,3.707,3.632q.007,36.065,0,72.13c0,3.05-.6,3.64-3.7,3.64q-29.767.006-59.534,0m2.488-49.06h.017c0,10.968.04,21.937-.042,32.905-.013,1.714.369,2.2,2.15,2.19q21.24-.123,42.48,0c1.745.01,2.175-.42,2.17-2.168q-.1-32.905,0-65.811c.005-1.746-.423-2.178-2.169-2.169q-21.24.108-42.48-.016c-1.745-.01-2.184.417-2.17,2.167.087,10.968.044,21.937.044,32.906m-4.695.261h.042c0-11.047-.042-22.095.043-33.141.013-1.737-.406-2.186-2.164-2.176q-21.125.118-42.25-.006c-1.967-.013-2.4.5-2.392,2.424q.132,32.674.054,65.349c0,1.724.294,2.361,2.23,2.348q21.124-.142,42.25,0c1.953.013,2.233-.65,2.222-2.358-.069-10.813-.035-21.627-.035-32.441m2.165,44.129c18.6,0,37.2-.037,55.8.05,2.181.01,2.882-.431,2.866-2.766-.11-16.962-.059-33.924-.059-50.886,0-4.824.012-9.648-.014-14.472,0-.646.3-1.435-.5-1.886a2.737,2.737,0,0,0-4.159,2.419q0,29.529,0,59.057c0,3.227-.58,3.812-3.78,3.812q-49.961,0-99.922,0c-3.174,0-3.735-.585-3.736-3.856q-.006-17.041,0-34.08c0-8.4.009-16.807-.017-25.21,0-.721.413-1.854-.487-2.07a7.415,7.415,0,0,0-3.677.014c-.942.277-.471,1.511-.472,2.309-.023,21.631.009,43.262-.064,64.892-.007,2.083.466,2.737,2.662,2.726,18.521-.093,37.042-.053,55.563-.053" transform="translate(-15.977 0)" fill="#231f20"/>
        <path id="Path_608488" data-name="Path 608488" d="M42.047,206.2c4.077-1.013,7.921-1.923,11.738-2.93a17.031,17.031,0,0,1,8.968.008q17.17,4.634,34.354,9.217a6.864,6.864,0,0,1,4.006,2.219c1.274,1.768,2.368,1.193,3.814.344,6.76-3.967,13.531-7.918,20.366-11.755a9.173,9.173,0,0,1,13.093,3.866c2.286,4.494.655,9.692-4,12.41-8.11,4.734-16.256,9.409-24.389,14.106-4.638,2.678-9.3,5.323-13.912,8.037a18.21,18.21,0,0,1-9.543,2.529c-8.95-.042-17.9,0-26.85-.018-5.96-.01-12.049.72-17.244-3.189-.246.4-.377.509-.381.626-.143,4.9-.141,4.9-5.027,4.9-4.981,0-9.962.011-14.943,0-2.691-.008-3.35-.547-3.36-3.228,0-1.367-.575-1.464-1.649-1.455-4.592.039-9.183.031-13.775.011-2.608-.012-3.3-.7-3.3-3.326q-.02-15.408,0-30.815c0-2.484.717-3.2,3.176-3.212,4.514-.026,9.028-.047,13.541.017,1.355.019,2.166-.094,2-1.809-.2-2.064,1-2.909,3.007-2.9,5.525.032,11.051.007,16.577.013,3.191,0,3.721.556,3.735,3.836,0,.7,0,1.392,0,2.5M16.23,209.231c-3.266.006-6.533.061-9.8-.01-1.25-.027-1.757.239-1.746,1.634q.1,12.362,0,24.724c-.011,1.4.5,1.661,1.746,1.634,3.264-.071,6.531-.015,9.8-.01,1.78.4,2.616,0,2.583-2.139q-.186-11.845,0-23.7c.034-2.142-.8-2.534-2.583-2.139m53.69,30.335c5.681,0,11.362-.014,17.043.007A11.808,11.808,0,0,0,93,238.1q19.588-11.273,39.136-22.615a4.663,4.663,0,1,0-4.712-8.026c-7.353,4.193-14.665,8.46-22,12.675a2.2,2.2,0,0,0-1.286,1.963c-.513,6.254-5.653,10-11.85,8.427-9.019-2.284-17.975-4.817-26.968-7.206-1.688-.449-2.744-1.333-2.2-3.137.512-1.692,1.854-1.794,3.41-1.37,5.684,1.551,11.385,3.046,17.083,4.547,3.523.928,7.024,1.975,10.59,2.689a4.33,4.33,0,0,0,5.214-3.194,4.574,4.574,0,0,0-3.156-5.693c-.509-.184-1.03-.343-1.553-.484q-15.5-4.17-31-8.322c-2.394-.637-4.806-1.489-7.328-.9-4.306,1-8.582,2.129-12.88,3.168a1.647,1.647,0,0,0-1.486,1.913c.063,7.314.03,14.628.035,21.942,0,.6-.145,1.253.6,1.609,3.273,1.564,6.351,3.579,10.228,3.512,5.679-.1,11.361-.025,17.042-.025M23.3,223.22c0,5.6.048,11.2-.032,16.8-.021,1.525.437,2.017,1.97,1.973,3.5-.1,7-.081,10.5-.007,1.329.029,1.728-.426,1.723-1.736q-.061-17.036,0-34.072c0-1.316-.4-1.76-1.728-1.732-3.5.073-7,.094-10.5-.007-1.539-.045-1.987.459-1.965,1.977.079,5.6.031,11.2.031,16.8" transform="translate(0 -106.452)" fill="#231f20"/>
        <path id="Path_608489" data-name="Path 608489" d="M169.844,44.936c0-10.968.043-21.937-.044-32.905-.014-1.749.425-2.177,2.17-2.167q21.24.123,42.48.016c1.747-.009,2.175.422,2.169,2.169q-.1,32.905,0,65.811c.005,1.748-.425,2.178-2.17,2.168q-21.24-.116-42.481,0c-1.781.01-2.162-.476-2.15-2.19.082-10.968.042-21.937.042-32.906ZM193.1,75.313c5.138,0,10.276.012,15.414-.005,2.655-.009,3.369-.688,3.379-3.26q.034-8.406,0-16.812c-.01-2.582-.717-3.265-3.369-3.268q-15.3-.011-30.595.016c-2.729.005-3.37.679-3.379,3.49q-.025,8.173-.016,16.346c0,2.866.65,3.485,3.617,3.491q7.474.015,14.947,0m.144-56.064c5.136,0,10.272-.022,15.408.013,1.648.011,3.119-.322,3.175-2.232.06-2.065-1.452-2.433-3.205-2.429q-15.408.039-30.816,0c-1.637,0-3.129.313-3.185,2.226-.06,2.065,1.474,2.44,3.215,2.43,5.136-.029,10.272-.01,15.408-.01m-.011,4.706c-5.136,0-10.272.018-15.408-.01-1.745-.01-3.274.371-3.2,2.438.065,1.909,1.561,2.221,3.2,2.218q15.409-.03,30.817,0c1.764,0,3.258-.391,3.192-2.445-.061-1.911-1.54-2.23-3.185-2.218-5.136.036-10.272.013-15.408.014m.217,9.329V33.3c-5.214,0-10.428.018-15.642-.011-1.636-.009-3.13.312-3.187,2.225-.061,2.065,1.472,2.434,3.214,2.432q15.409-.022,30.817.016c1.642,0,3.119-.336,3.176-2.243.061-2.061-1.45-2.453-3.2-2.442-5.058.032-10.117.012-15.175.012m-.2,9.337v.016c-5.136,0-10.272.019-15.409-.01-1.74-.01-3.277.356-3.218,2.424.055,1.91,1.545,2.234,3.183,2.232q15.409-.022,30.817.016c1.747,0,3.264-.382,3.207-2.443-.054-1.909-1.529-2.255-3.172-2.245-5.136.029-10.272.011-15.409.011" transform="translate(-90.443 -5.254)" fill="#9ac7fd"/>
        <path id="Path_608490" data-name="Path 608490" d="M106.6,45.207c0,10.814-.034,21.628.035,32.441.011,1.708-.269,2.371-2.221,2.358q-21.125-.146-42.25,0c-1.936.013-2.233-.625-2.23-2.348q.06-32.674-.054-65.349c-.007-1.92.425-2.437,2.392-2.424q21.124.141,42.25.006c1.758-.01,2.177.44,2.164,2.176-.085,11.046-.043,22.094-.043,33.141ZM90.447,53.065c3.041,1.958,3.153,1.944,5.824-.727,1.209-1.209,2.441-2.4,3.621-3.633.79-.828,1.826-1.46,2.139-2.691.355-1.4-.852-2.172-1.371-3.257,3.249-.358,3.636-.79,3.644-3.948q.007-3.032,0-6.064c0-3.511-.211-3.765-3.561-4.349,1.94-2.837,1.91-3.1-.626-5.641-1.154-1.154-2.276-2.343-3.465-3.459-.894-.838-1.575-1.927-2.814-2.379-1.471-.536-2.272.858-3.437,1.309-.321-3.177-.781-3.607-3.754-3.619-2.1-.008-4.2-.017-6.3.005-1.073.011-2.186-.205-3.157.506-1.047.766-.825,2.015-1.033,3.153-2.806-2.015-3.257-1.975-5.622.393q-1.978,1.979-3.951,3.962c-2.7,2.694-2.713,2.827-.749,5.813-3.271.479-3.566.816-3.571,4.108,0,1.866-.034,3.733.012,5.6.028,1.145-.245,2.32.406,3.417.732,1.232,2.1.914,3.255,1.232-2,2.684-1.961,3.244.245,5.452,1.373,1.374,2.762,2.733,4.136,4.106,2.648,2.646,2.713,2.657,5.827.723.386,3.238.756,3.559,4.122,3.564q3.033,0,6.065,0c3.321-.005,3.679-.318,4.114-3.574M83.033,65.981c5.2,0,10.406-.019,15.609.01,1.725.01,3.268-.325,3.256-2.386-.011-1.9-1.446-2.3-3.1-2.3q-15.492.029-30.984,0c-1.646,0-3.1.361-3.138,2.268-.039,2.061,1.484,2.43,3.221,2.42,5.047-.029,10.095-.01,15.143-.01m.1,9.383c5.214,0,10.428-.016,15.641.009,1.64.007,3.122-.339,3.155-2.257.034-2.017-1.427-2.479-3.2-2.475q-15.408.038-30.815,0c-1.749,0-3.267.373-3.265,2.408,0,2.094,1.618,2.331,3.314,2.323,5.058-.024,10.116-.009,15.174-.009" transform="translate(-31.895 -5.264)" fill="#9ac7fd"/>
        <path id="Path_608491" data-name="Path 608491" d="M98.061,99.707c-18.521,0-37.043-.04-55.563.053-2.2.011-2.669-.642-2.662-2.726.073-21.63.041-43.261.064-64.892,0-.8-.471-2.032.472-2.309a7.415,7.415,0,0,1,3.677-.014c.9.216.484,1.349.487,2.07.027,8.4.017,16.806.017,25.21q0,17.04,0,34.08c0,3.271.562,3.855,3.736,3.856q49.961,0,99.922,0c3.2,0,3.779-.586,3.78-3.812q.006-29.529,0-59.057a2.737,2.737,0,0,1,4.159-2.419c.8.451.493,1.24.5,1.886.027,4.824.014,9.648.014,14.472,0,16.962-.051,33.925.059,50.886.015,2.335-.686,2.777-2.866,2.766-18.6-.087-37.2-.05-55.8-.05" transform="translate(-21.19 -15.635)" fill="#004fab"/>
        <path id="Path_608492" data-name="Path 608492" d="M117.8,247.383c-5.681,0-11.363-.073-17.042.025-3.877.067-6.955-1.947-10.228-3.512-.745-.357-.6-1.007-.6-1.609,0-7.314.029-14.628-.035-21.942a1.647,1.647,0,0,1,1.486-1.913c4.3-1.039,8.574-2.165,12.88-3.168,2.521-.587,4.934.264,7.328.9q15.509,4.13,31,8.322c.523.141,1.043.3,1.553.484a4.574,4.574,0,0,1,3.156,5.693,4.33,4.33,0,0,1-5.214,3.194c-3.566-.714-7.067-1.761-10.59-2.689-5.7-1.5-11.4-3-17.083-4.547-1.556-.424-2.9-.322-3.41,1.37-.545,1.8.511,2.688,2.2,3.137,8.993,2.389,17.949,4.922,26.968,7.206,6.2,1.569,11.337-2.173,11.85-8.427a2.2,2.2,0,0,1,1.286-1.962c7.34-4.216,14.651-8.482,22-12.675a4.663,4.663,0,1,1,4.712,8.025q-19.54,11.356-39.136,22.615a11.8,11.8,0,0,1-6.041,1.479c-5.681-.021-11.362-.007-17.043-.007" transform="translate(-47.884 -114.268)" fill="#fcbaa9"/>
        <path id="Path_608493" data-name="Path 608493" d="M49.816,228.444c0-5.6.048-11.2-.032-16.8-.021-1.518.427-2.022,1.966-1.977,3.5.1,7,.081,10.5.007,1.323-.028,1.732.416,1.727,1.732q-.062,17.036,0,34.072c0,1.31-.394,1.765-1.723,1.737-3.5-.074-7-.093-10.5.007-1.532.044-1.992-.449-1.97-1.973.08-5.6.032-11.2.032-16.8m9.341,13.026c.015-2.676-1.158-4.1-2.875-3.473-2.319.848-1.668,2.91-1.6,4.607a2.017,2.017,0,0,0,2.351,2.05c1.915-.208,2.206-1.679,2.121-3.184" transform="translate(-26.517 -111.676)" fill="#004fab"/>
        <path id="Path_608494" data-name="Path 608494" d="M21.57,247.88c-3.266-.005-6.533-.061-9.8.01-1.25.027-1.757-.239-1.746-1.634q.1-12.361,0-24.724c-.011-1.4.5-1.661,1.746-1.634,3.264.07,6.532.015,9.8.01q.414,13.986,0,27.973" transform="translate(-5.341 -117.127)" fill="#9ac7fd"/>
        <path id="Path_608495" data-name="Path 608495" d="M34.727,247.737q.422-13.986,0-27.973c1.779-.4,2.615,0,2.582,2.139q-.186,11.845,0,23.7c.034,2.142-.8,2.534-2.583,2.139" transform="translate(-18.497 -116.985)" fill="#004fab"/>
        <path id="Path_608496" data-name="Path 608496" d="M198.5,123.294c-4.982,0-9.964.007-14.947,0-2.968-.006-3.614-.625-3.618-3.491q-.011-8.173.016-16.346c.009-2.811.65-3.485,3.379-3.49q15.3-.027,30.595-.016c2.652,0,3.358.686,3.368,3.267q.033,8.407,0,16.813c-.011,2.572-.724,3.251-3.379,3.26-5.138.017-10.276.005-15.414.005m.353-18.616c-4.2,0-8.4.036-12.6-.023-1.174-.017-1.641.254-1.612,1.535.083,3.654.07,7.312.006,10.966-.021,1.155.4,1.427,1.481,1.422q12.487-.054,24.973,0c1.071,0,1.51-.249,1.489-1.414-.066-3.655-.077-7.313,0-10.966.029-1.271-.419-1.562-1.6-1.544-4.044.063-8.09.024-12.136.024" transform="translate(-95.841 -53.236)" fill="#231f20"/>
        <path id="Path_608497" data-name="Path 608497" d="M198.744,24.647c-5.136,0-10.272-.018-15.408.01-1.741.009-3.275-.365-3.215-2.43.055-1.912,1.548-2.229,3.185-2.226q15.408.031,30.816,0c1.753,0,3.265.365,3.2,2.429-.056,1.909-1.526,2.243-3.175,2.232-5.136-.036-10.272-.013-15.408-.013" transform="translate(-95.94 -10.652)" fill="#231f20"/>
        <path id="Path_608498" data-name="Path 608498" d="M198.733,40c5.136,0,10.272.023,15.408-.014,1.645-.012,3.124.308,3.185,2.219.066,2.054-1.428,2.45-3.192,2.445q-15.409-.041-30.817,0c-1.635,0-3.131-.31-3.2-2.219-.071-2.066,1.459-2.447,3.2-2.438,5.136.029,10.272.01,15.408.01" transform="translate(-95.94 -21.297)" fill="#231f20"/>
        <path id="Path_608499" data-name="Path 608499" d="M198.95,59.961c5.058,0,10.117.021,15.175-.011,1.752-.011,3.264.381,3.2,2.442-.057,1.907-1.533,2.247-3.176,2.244q-15.409-.039-30.817-.017c-1.742,0-3.275-.366-3.214-2.431.057-1.912,1.551-2.234,3.187-2.225,5.214.029,10.428.011,15.642.011Z" transform="translate(-95.94 -31.932)" fill="#231f20"/>
        <path id="Path_608500" data-name="Path 608500" d="M198.747,79.942c5.136,0,10.272.018,15.409-.011,1.643-.009,3.118.336,3.172,2.245.057,2.061-1.46,2.448-3.207,2.443q-15.409-.038-30.817-.016c-1.638,0-3.128-.322-3.183-2.232-.059-2.068,1.478-2.434,3.218-2.424,5.136.029,10.272.01,15.409.01Z" transform="translate(-95.94 -42.575)" fill="#231f20"/>
        <path id="Path_608501" data-name="Path 608501" d="M93.141,58.431c-.435,3.256-.794,3.569-4.114,3.574q-3.033,0-6.064,0c-3.367,0-3.736-.326-4.123-3.564-3.114,1.934-3.18,1.923-5.827-.723-1.374-1.374-2.763-2.732-4.136-4.106-2.206-2.208-2.24-2.767-.246-5.452-1.155-.318-2.522,0-3.254-1.232-.652-1.1-.379-2.272-.407-3.417-.045-1.865-.014-3.731-.012-5.6.006-3.292.3-3.63,3.572-4.108-1.964-2.986-1.946-3.119.749-5.813q1.978-1.978,3.951-3.962c2.365-2.367,2.815-2.407,5.622-.393.207-1.138-.015-2.386,1.032-3.153.971-.711,2.085-.494,3.157-.506,2.1-.022,4.2-.014,6.3,0,2.973.012,3.434.442,3.755,3.619,1.164-.451,1.965-1.844,3.436-1.309,1.24.451,1.92,1.541,2.814,2.379,1.19,1.116,2.312,2.3,3.466,3.459,2.535,2.536,2.566,2.8.626,5.641,3.35.583,3.558.837,3.561,4.348q0,3.032,0,6.064c-.008,3.158-.4,3.59-3.645,3.948.519,1.085,1.725,1.86,1.37,3.257-.313,1.231-1.348,1.862-2.139,2.691-1.18,1.237-2.412,2.424-3.621,3.634-2.67,2.67-2.782,2.685-5.823.727M90.55,49.91c1.7.1,2.52,1.492,3.464,2.544,1.276,1.422,2.112,1.755,3.63.125,1.348-1.449,1.428-2.306-.123-3.437a15.34,15.34,0,0,1-1.492-1.473c-.824-.8-1.485-1.667-.9-2.871a2.593,2.593,0,0,1,2.683-1.474c.7.033,1.412-.081,2.1.021,1.9.285,2.555-.39,2.492-2.376-.054-1.731-.353-2.631-2.294-2.345a16.282,16.282,0,0,1-2.8.008,2.406,2.406,0,0,1-2.2-1.486,2.1,2.1,0,0,1,.615-2.528,16,16,0,0,1,1.819-1.8c1.607-1.17,1.413-2.073.054-3.429-1.342-1.339-2.255-1.605-3.427.02A14.626,14.626,0,0,1,92.7,30.9c-.792.815-1.642,1.521-2.86.966a2.694,2.694,0,0,1-1.532-2.88c.045-1.009-.041-2.024.019-3.031.061-1.039-.412-1.276-1.375-1.338-3.317-.214-3.314-.254-3.317,3.121,0,.544-.016,1.088,0,1.632a2.5,2.5,0,0,1-1.449,2.463,2.186,2.186,0,0,1-2.709-.712,15.8,15.8,0,0,1-1.8-1.823c-1.317-1.869-2.192-.886-3.42.2-1.452,1.29-1.184,2.051.063,3.282,1.178,1.163,3.364,2.066,2.513,4.279-.894,2.324-3.15,1.6-4.907,1.539-1.79-.064-2.392.4-2.377,2.295.014,1.87.4,2.756,2.419,2.46a10.321,10.321,0,0,1,2.794.014,2.251,2.251,0,0,1,1.529,3.9,12.807,12.807,0,0,1-1.969,1.983c-1.459,1.12-1.4,1.985-.039,3.257,1.252,1.169,2.007,1.828,3.461.184C78.831,51.463,79.8,49.3,82,50.113c2.46.91,1.589,3.276,1.6,5.1.006,1.509.261,2.115,2,2.2,2.29.118,3.112-.594,2.752-2.833a9.441,9.441,0,0,1,.005-2.328A2.466,2.466,0,0,1,90.55,49.91" transform="translate(-34.589 -10.63)" fill="#231f20"/>
        <path id="Path_608502" data-name="Path 608502" d="M88.493,124.587c-5.047,0-10.1-.018-15.143.01-1.736.01-3.259-.359-3.22-2.42.036-1.907,1.491-2.271,3.138-2.268q15.492.029,30.984,0c1.658,0,3.093.4,3.105,2.3.013,2.061-1.53,2.4-3.256,2.386-5.2-.029-10.406-.01-15.609-.01" transform="translate(-37.354 -63.869)" fill="#231f20"/>
        <path id="Path_608503" data-name="Path 608503" d="M88.565,144.613c-5.058,0-10.116-.015-15.174.009-1.7.008-3.312-.229-3.314-2.323,0-2.035,1.516-2.413,3.265-2.408q15.408.038,30.815,0c1.776,0,3.237.458,3.2,2.475-.032,1.918-1.514,2.265-3.155,2.257-5.213-.025-10.427-.01-15.641-.01" transform="translate(-37.326 -74.513)" fill="#231f20"/>
        <path id="Path_608504" data-name="Path 608504" d="M64.588,273.6c.085,1.5-.206,2.976-2.121,3.184a2.017,2.017,0,0,1-2.351-2.05c-.072-1.7-.722-3.759,1.6-4.607,1.717-.628,2.89.8,2.875,3.473" transform="translate(-31.948 -143.803)" fill="#231f20"/>
        <path id="Path_608505" data-name="Path 608505" d="M204.215,110.044c4.045,0,8.091.039,12.136-.024,1.185-.018,1.632.272,1.6,1.544-.081,3.654-.071,7.312,0,10.966.021,1.165-.418,1.418-1.489,1.414q-12.487-.053-24.973,0c-1.081,0-1.5-.266-1.481-1.422.064-3.655.077-7.313-.006-10.966-.029-1.281.438-1.552,1.612-1.535,4.2.06,8.4.023,12.6.023" transform="translate(-101.203 -58.602)" fill="#fcbaa9"/>
        <path id="Path_608506" data-name="Path 608506" d="M95.807,55.125a2.467,2.467,0,0,0-2.2,2.347A9.445,9.445,0,0,0,93.6,59.8c.36,2.239-.461,2.951-2.752,2.833-1.734-.089-1.99-.7-2-2.2-.007-1.826.864-4.192-1.6-5.1-2.2-.813-3.164,1.35-4.249,2.578-1.453,1.644-2.21.985-3.462-.184-1.361-1.272-1.42-2.137.039-3.257a12.81,12.81,0,0,0,1.969-1.983,2.251,2.251,0,0,0-1.529-3.9,10.336,10.336,0,0,0-2.793-.014c-2.024.3-2.406-.59-2.42-2.46-.014-1.892.588-2.359,2.377-2.3,1.757.064,4.014.786,4.908-1.539.851-2.212-1.336-3.115-2.514-4.278-1.247-1.231-1.514-1.992-.062-3.282,1.228-1.09,2.1-2.074,3.42-.205a15.768,15.768,0,0,0,1.8,1.824,2.186,2.186,0,0,0,2.709.712,2.5,2.5,0,0,0,1.449-2.463c-.015-.544,0-1.088,0-1.633,0-3.374,0-3.334,3.317-3.12.964.062,1.437.3,1.375,1.338-.059,1.007.026,2.022-.019,3.031a2.7,2.7,0,0,0,1.533,2.88c1.218.555,2.068-.151,2.86-.966a14.678,14.678,0,0,0,1.473-1.491c1.172-1.625,2.084-1.359,3.426-.02,1.359,1.357,1.553,2.26-.054,3.429a16,16,0,0,0-1.819,1.8,2.1,2.1,0,0,0-.615,2.528,2.406,2.406,0,0,0,2.2,1.486,16.329,16.329,0,0,0,2.8-.008c1.942-.286,2.24.614,2.294,2.345.062,1.987-.589,2.662-2.492,2.376-.684-.1-1.4.012-2.1-.021a2.593,2.593,0,0,0-2.683,1.474c-.585,1.2.076,2.074.9,2.871a15.343,15.343,0,0,0,1.493,1.472c1.55,1.131,1.47,1.988.122,3.437-1.517,1.63-2.354,1.3-3.629-.125-.944-1.052-1.762-2.445-3.465-2.544M91.191,53.2a6.993,6.993,0,1,0-6.95-6.973,7.018,7.018,0,0,0,6.95,6.973" transform="translate(-39.846 -15.844)" fill="#e71c24"/>
        <path id="Path_608507" data-name="Path 608507" d="M101.943,63.985a6.993,6.993,0,1,1,7.034-6.894,7.005,7.005,0,0,1-7.034,6.894m.1-9.252a2.21,2.21,0,0,0-2.264,2.2,2.211,2.211,0,0,0,4.42.112c.043-1.363-.828-2.1-2.156-2.315" transform="translate(-50.598 -26.632)" fill="#231f20"/>
        <path id="Path_608508" data-name="Path 608508" d="M107.492,60.127c1.328.218,2.2.952,2.156,2.315a2.211,2.211,0,0,1-4.42-.112,2.21,2.21,0,0,1,2.264-2.2" transform="translate(-56.049 -32.027)" fill="#fcbaa9"/>
      </g>
    </g>
  </g>
</svg>
