<svg xmlns="http://www.w3.org/2000/svg" xmlns:xlink="http://www.w3.org/1999/xlink" width="505" height="862.822" viewBox="0 0 505 862.822">
  <defs>
    <clipPath id="clip-path">
      <rect id="Rectangle_375751" data-name="Rectangle 375751" width="265.586" height="197.92" fill="none"/>
    </clipPath>
    <clipPath id="clip-path-6">
      <rect id="Rectangle_375742" data-name="Rectangle 375742" width="4.945" height="5.769" fill="none"/>
    </clipPath>
    <clipPath id="clip-path-7">
      <rect id="Rectangle_375743" data-name="Rectangle 375743" width="6.241" height="26.711" fill="none"/>
    </clipPath>
    <clipPath id="clip-path-8">
      <rect id="Rectangle_375744" data-name="Rectangle 375744" width="7.616" height="10.496" fill="none"/>
    </clipPath>
    <clipPath id="clip-path-9">
      <rect id="Rectangle_375745" data-name="Rectangle 375745" width="4.011" height="4.701" fill="none"/>
    </clipPath>
    <clipPath id="clip-path-10">
      <rect id="Rectangle_375746" data-name="Rectangle 375746" width="3.649" height="10.004" fill="none"/>
    </clipPath>
    <clipPath id="clip-path-11">
      <rect id="Rectangle_375747" data-name="Rectangle 375747" width="10.114" height="3.12" fill="none"/>
    </clipPath>
    <clipPath id="clip-path-12">
      <rect id="Rectangle_375748" data-name="Rectangle 375748" width="3.279" height="4.026" fill="none"/>
    </clipPath>
    <clipPath id="clip-path-13">
      <rect id="Rectangle_375749" data-name="Rectangle 375749" width="3.939" height="6.419" fill="none"/>
    </clipPath>
  </defs>
  <g id="Group_1071726" data-name="Group 1071726" transform="translate(3101 8458.159)">
    <g id="Group_1071609" data-name="Group 1071609">
      <path id="Path_608783" data-name="Path 608783" d="M0,0H505V862.822H0Z" transform="translate(-3101 -8458.159)" fill="#fdfde3"/>
      <path id="Path_609182" data-name="Path 609182" d="M7.567-3.4a1.268,1.268,0,0,0-.479-1.055,5.954,5.954,0,0,0-1.683-.782,16.147,16.147,0,0,1-1.969-.782Q.949-7.242.949-9.378a3.011,3.011,0,0,1,.62-1.876A4.008,4.008,0,0,1,3.322-12.52a6.823,6.823,0,0,1,2.549-.453,5.969,5.969,0,0,1,2.474.492,3.917,3.917,0,0,1,1.7,1.4A3.661,3.661,0,0,1,10.652-9H7.576A1.547,1.547,0,0,0,7.1-10.213a1.867,1.867,0,0,0-1.3-.431,2.106,2.106,0,0,0-1.305.365,1.119,1.119,0,0,0-.479.927,1.127,1.127,0,0,0,.527.892A6.65,6.65,0,0,0,6.4-7.633a11.36,11.36,0,0,1,2.18.918,3.663,3.663,0,0,1,2.074,3.3A3.125,3.125,0,0,1,9.387-.782,5.629,5.629,0,0,1,5.915.176,6.888,6.888,0,0,1,3.1-.382,4.247,4.247,0,0,1,1.2-1.912,3.985,3.985,0,0,1,.563-4.148H3.656a1.963,1.963,0,0,0,.532,1.516,2.513,2.513,0,0,0,1.727.488,1.985,1.985,0,0,0,1.208-.33A1.088,1.088,0,0,0,7.567-3.4ZM15.223,0H12.252V-9.51h2.971ZM12.076-11.962A1.322,1.322,0,0,1,12.533-13a1.724,1.724,0,0,1,1.187-.4,1.724,1.724,0,0,1,1.187.4,1.322,1.322,0,0,1,.457,1.037,1.322,1.322,0,0,1-.457,1.037,1.724,1.724,0,0,1-1.187.4,1.724,1.724,0,0,1-1.187-.4A1.322,1.322,0,0,1,12.076-11.962Zm9.949,9.29a.684.684,0,0,0-.4-.606,6.016,6.016,0,0,0-1.5-.475A6.853,6.853,0,0,1,18.3-4.4a3.062,3.062,0,0,1-1.1-.971,2.319,2.319,0,0,1-.378-1.31A2.628,2.628,0,0,1,17.9-8.837a4.453,4.453,0,0,1,2.83-.848,4.934,4.934,0,0,1,3.023.853A2.666,2.666,0,0,1,24.9-6.592H21.929q0-1.143-1.2-1.143a1.194,1.194,0,0,0-.782.259.8.8,0,0,0-.316.646.737.737,0,0,0,.387.642,3.654,3.654,0,0,0,1.235.4,10.671,10.671,0,0,1,1.49.378A2.706,2.706,0,0,1,24.882-2.76,2.491,2.491,0,0,1,23.726-.642a5.068,5.068,0,0,1-2.993.817,5.172,5.172,0,0,1-2.18-.439,3.645,3.645,0,0,1-1.494-1.2,2.707,2.707,0,0,1-.536-1.591h2.769a1.145,1.145,0,0,0,.439.962,1.808,1.808,0,0,0,1.081.3,1.422,1.422,0,0,0,.91-.246A.787.787,0,0,0,22.025-2.672Zm7.69-9.2V-9.51H31.28v2.057H29.716V-3.1a1.111,1.111,0,0,0,.193.747,1.037,1.037,0,0,0,.765.211,4.345,4.345,0,0,0,.738-.053V-.079a5.466,5.466,0,0,1-1.67.255,3.1,3.1,0,0,1-2.259-.721,2.954,2.954,0,0,1-.729-2.188v-4.72H25.541V-9.51h1.213v-2.364ZM37.046.176A4.889,4.889,0,0,1,33.5-1.129a4.507,4.507,0,0,1-1.354-3.4v-.246a5.84,5.84,0,0,1,.541-2.575,3.955,3.955,0,0,1,1.578-1.727,4.763,4.763,0,0,1,2.461-.611,4.117,4.117,0,0,1,3.164,1.244,4.887,4.887,0,0,1,1.16,3.467v1.151H35.165a2.135,2.135,0,0,0,.694,1.257,2.066,2.066,0,0,0,1.389.457,2.662,2.662,0,0,0,2.2-.984l1.354,1.6A3.784,3.784,0,0,1,39.23-.277,5.3,5.3,0,0,1,37.046.176ZM36.712-7.4q-1.3,0-1.547,1.723h2.988v-.229a1.467,1.467,0,0,0-.36-1.1A1.434,1.434,0,0,0,36.712-7.4ZM45.044-9.51l.1,1.116a3.27,3.27,0,0,1,2.716-1.292,2.407,2.407,0,0,1,2.435,1.433,3.165,3.165,0,0,1,2.795-1.433q2.892,0,2.971,3.5V0H53.086V-6a1.813,1.813,0,0,0-.246-1.063,1.048,1.048,0,0,0-.9-.334,1.4,1.4,0,0,0-1.31.782l.009.123V0H47.672V-5.985a1.906,1.906,0,0,0-.237-1.081,1.045,1.045,0,0,0-.905-.334,1.42,1.42,0,0,0-1.3.782V0H42.267V-9.51ZM63.105,0a3.344,3.344,0,0,1-.281-.853A2.754,2.754,0,0,1,60.539.176a3.374,3.374,0,0,1-2.285-.813,2.588,2.588,0,0,1-.94-2.043,2.66,2.66,0,0,1,1.143-2.338,5.821,5.821,0,0,1,3.322-.791h.914v-.5q0-1.316-1.134-1.316A.927.927,0,0,0,60.5-6.587H57.542a2.655,2.655,0,0,1,1.173-2.239,4.931,4.931,0,0,1,2.993-.86,4.323,4.323,0,0,1,2.874.888,3.086,3.086,0,0,1,1.081,2.435v4.21a4.311,4.311,0,0,0,.4,2V0ZM61.251-1.934a1.652,1.652,0,0,0,.918-.237,1.487,1.487,0,0,0,.523-.536V-4.228h-.861q-1.547,0-1.547,1.389a.848.848,0,0,0,.272.655A.986.986,0,0,0,61.251-1.934Zm10.16-2.892a5.809,5.809,0,0,1,.976-3.56,3.211,3.211,0,0,1,2.725-1.3,2.731,2.731,0,0,1,2.145,1V-13.5h2.971V0H77.563l-.149-1.02a2.8,2.8,0,0,1-2.32,1.2,3.205,3.205,0,0,1-2.689-1.3A5.993,5.993,0,0,1,71.411-4.825Zm2.962.185q0,2.531,1.477,2.531a1.458,1.458,0,0,0,1.406-.826V-6.557A1.419,1.419,0,0,0,75.867-7.4q-1.371,0-1.485,2.215ZM86.511.176a4.889,4.889,0,0,1-3.542-1.305,4.507,4.507,0,0,1-1.354-3.4v-.246a5.84,5.84,0,0,1,.541-2.575,3.955,3.955,0,0,1,1.578-1.727,4.763,4.763,0,0,1,2.461-.611,4.117,4.117,0,0,1,3.164,1.244,4.887,4.887,0,0,1,1.16,3.467v1.151H84.63a2.135,2.135,0,0,0,.694,1.257,2.066,2.066,0,0,0,1.389.457,2.662,2.662,0,0,0,2.2-.984l1.354,1.6A3.784,3.784,0,0,1,88.695-.277,5.3,5.3,0,0,1,86.511.176ZM86.177-7.4q-1.3,0-1.547,1.723h2.988v-.229a1.467,1.467,0,0,0-.36-1.1A1.434,1.434,0,0,0,86.177-7.4Zm14.036,5.291a1.317,1.317,0,0,0,.967-.338,1.241,1.241,0,0,0,.334-.945h2.777A3.288,3.288,0,0,1,103.17-.826a4.168,4.168,0,0,1-2.887,1,4.22,4.22,0,0,1-3.27-1.3,5.125,5.125,0,0,1-1.2-3.6v-.123A5.792,5.792,0,0,1,96.35-7.4a3.872,3.872,0,0,1,1.534-1.7,4.573,4.573,0,0,1,2.373-.593A4.116,4.116,0,0,1,103.2-8.657a3.647,3.647,0,0,1,1.09,2.786h-2.777A1.626,1.626,0,0,0,101.153-7a1.244,1.244,0,0,0-.967-.4q-1.151,0-1.345,1.468a10.357,10.357,0,0,0-.062,1.283,4.068,4.068,0,0,0,.343,1.986A1.187,1.187,0,0,0,100.213-2.109Zm4.957-2.733a5.613,5.613,0,0,1,.554-2.536,3.96,3.96,0,0,1,1.591-1.709,4.791,4.791,0,0,1,2.435-.6,4.373,4.373,0,0,1,3.366,1.323,5.076,5.076,0,0,1,1.23,3.6v.105a4.925,4.925,0,0,1-1.235,3.529A4.384,4.384,0,0,1,109.767.176a4.434,4.434,0,0,1-3.261-1.217,4.761,4.761,0,0,1-1.327-3.3Zm2.962.185a3.538,3.538,0,0,0,.413,1.934,1.376,1.376,0,0,0,1.222.615q1.582,0,1.617-2.435v-.3q0-2.558-1.635-2.558-1.485,0-1.608,2.206ZM118.371-9.51l.1,1.116a3.225,3.225,0,0,1,2.716-1.292A2.713,2.713,0,0,1,123.4-8.8a4.226,4.226,0,0,1,.76,2.672V0h-2.971V-6a1.6,1.6,0,0,0-.29-1.059,1.342,1.342,0,0,0-1.055-.338,1.413,1.413,0,0,0-1.292.686V0h-2.962V-9.51Zm10.881-2.364V-9.51h1.564v2.057h-1.564V-3.1a1.111,1.111,0,0,0,.193.747,1.037,1.037,0,0,0,.765.211,4.345,4.345,0,0,0,.738-.053V-.079a5.466,5.466,0,0,1-1.67.255,3.1,3.1,0,0,1-2.259-.721,2.954,2.954,0,0,1-.729-2.188v-4.72h-1.213V-9.51h1.213v-2.364Zm8.481,5.045-.976-.07a1.752,1.752,0,0,0-1.793.879V0H132V-9.51h2.777l.1,1.222a2.294,2.294,0,0,1,2.083-1.4,2.888,2.888,0,0,1,.826.105Zm.378,1.986a5.613,5.613,0,0,1,.554-2.536,3.96,3.96,0,0,1,1.591-1.709,4.791,4.791,0,0,1,2.435-.6,4.373,4.373,0,0,1,3.366,1.323,5.076,5.076,0,0,1,1.23,3.6v.105a4.925,4.925,0,0,1-1.235,3.529A4.384,4.384,0,0,1,142.708.176a4.434,4.434,0,0,1-3.261-1.217,4.761,4.761,0,0,1-1.327-3.3Zm2.962.185a3.538,3.538,0,0,0,.413,1.934,1.376,1.376,0,0,0,1.222.615q1.582,0,1.617-2.435v-.3q0-2.558-1.635-2.558-1.485,0-1.608,2.206ZM151.717,0h-2.971V-13.5h2.971Zm5.933-4.825a5.809,5.809,0,0,1,.976-3.56,3.211,3.211,0,0,1,2.725-1.3,2.731,2.731,0,0,1,2.145,1V-13.5h2.971V0H163.8l-.149-1.02a2.8,2.8,0,0,1-2.32,1.2,3.205,3.205,0,0,1-2.689-1.3A5.993,5.993,0,0,1,157.649-4.825Zm2.962.185q0,2.531,1.477,2.531a1.458,1.458,0,0,0,1.406-.826V-6.557a1.419,1.419,0,0,0-1.389-.844q-1.371,0-1.485,2.215ZM172.749.176a4.889,4.889,0,0,1-3.542-1.305,4.507,4.507,0,0,1-1.354-3.4v-.246a5.84,5.84,0,0,1,.541-2.575,3.955,3.955,0,0,1,1.578-1.727,4.763,4.763,0,0,1,2.461-.611A4.117,4.117,0,0,1,175.6-8.442a4.887,4.887,0,0,1,1.16,3.467v1.151h-5.889a2.135,2.135,0,0,0,.694,1.257,2.066,2.066,0,0,0,1.389.457,2.662,2.662,0,0,0,2.2-.984l1.354,1.6a3.784,3.784,0,0,1-1.569,1.217A5.3,5.3,0,0,1,172.749.176ZM172.415-7.4q-1.3,0-1.547,1.723h2.988v-.229a1.467,1.467,0,0,0-.36-1.1A1.434,1.434,0,0,0,172.415-7.4Zm13.808,3.876,1.5-5.985h3.12L187.743,0H184.72l-3.1-9.51h3.129Zm9.993,3.7a4.889,4.889,0,0,1-3.542-1.305,4.507,4.507,0,0,1-1.354-3.4v-.246a5.84,5.84,0,0,1,.541-2.575,3.955,3.955,0,0,1,1.578-1.727,4.763,4.763,0,0,1,2.461-.611,4.117,4.117,0,0,1,3.164,1.244,4.887,4.887,0,0,1,1.16,3.467v1.151h-5.889a2.135,2.135,0,0,0,.694,1.257,2.066,2.066,0,0,0,1.389.457,2.662,2.662,0,0,0,2.2-.984l1.354,1.6A3.784,3.784,0,0,1,198.4-.277,5.3,5.3,0,0,1,196.216.176ZM195.882-7.4q-1.3,0-1.547,1.723h2.988v-.229a1.467,1.467,0,0,0-.36-1.1A1.434,1.434,0,0,0,195.882-7.4Zm11.285.571-.976-.07a1.752,1.752,0,0,0-1.793.879V0h-2.962V-9.51h2.777l.1,1.222a2.294,2.294,0,0,1,2.083-1.4,2.888,2.888,0,0,1,.826.105Zm6.047,4.157a.684.684,0,0,0-.4-.606,6.016,6.016,0,0,0-1.5-.475,6.853,6.853,0,0,1-1.828-.646,3.062,3.062,0,0,1-1.1-.971,2.319,2.319,0,0,1-.378-1.31,2.628,2.628,0,0,1,1.081-2.158,4.453,4.453,0,0,1,2.83-.848,4.934,4.934,0,0,1,3.023.853,2.666,2.666,0,0,1,1.143,2.241h-2.971q0-1.143-1.2-1.143a1.194,1.194,0,0,0-.782.259.8.8,0,0,0-.316.646.737.737,0,0,0,.387.642,3.654,3.654,0,0,0,1.235.4,10.671,10.671,0,0,1,1.49.378A2.706,2.706,0,0,1,216.07-2.76a2.491,2.491,0,0,1-1.156,2.118,5.068,5.068,0,0,1-2.993.817,5.172,5.172,0,0,1-2.18-.439,3.645,3.645,0,0,1-1.494-1.2,2.707,2.707,0,0,1-.536-1.591h2.769a1.145,1.145,0,0,0,.439.962,1.808,1.808,0,0,0,1.081.3,1.422,1.422,0,0,0,.91-.246A.787.787,0,0,0,213.214-2.672ZM220.579,0h-2.971V-9.51h2.971Zm-3.146-11.962A1.322,1.322,0,0,1,217.89-13a1.724,1.724,0,0,1,1.187-.4,1.724,1.724,0,0,1,1.187.4,1.322,1.322,0,0,1,.457,1.037,1.322,1.322,0,0,1-.457,1.037,1.724,1.724,0,0,1-1.187.4,1.724,1.724,0,0,1-1.187-.4A1.322,1.322,0,0,1,217.433-11.962Zm4.6,7.119a5.613,5.613,0,0,1,.554-2.536,3.96,3.96,0,0,1,1.591-1.709,4.791,4.791,0,0,1,2.435-.6,4.373,4.373,0,0,1,3.366,1.323,5.076,5.076,0,0,1,1.23,3.6v.105a4.925,4.925,0,0,1-1.235,3.529A4.384,4.384,0,0,1,226.626.176a4.434,4.434,0,0,1-3.261-1.217,4.761,4.761,0,0,1-1.327-3.3Zm2.962.185a3.538,3.538,0,0,0,.413,1.934,1.376,1.376,0,0,0,1.222.615q1.582,0,1.617-2.435v-.3q0-2.558-1.635-2.558-1.485,0-1.608,2.206ZM235.23-9.51l.1,1.116a3.225,3.225,0,0,1,2.716-1.292,2.713,2.713,0,0,1,2.219.888,4.226,4.226,0,0,1,.76,2.672V0h-2.971V-6a1.6,1.6,0,0,0-.29-1.059,1.342,1.342,0,0,0-1.055-.338,1.413,1.413,0,0,0-1.292.686V0h-2.962V-9.51ZM247.263.176a4.889,4.889,0,0,1-3.542-1.305,4.507,4.507,0,0,1-1.354-3.4v-.246a5.84,5.84,0,0,1,.541-2.575,3.955,3.955,0,0,1,1.578-1.727,4.763,4.763,0,0,1,2.461-.611,4.117,4.117,0,0,1,3.164,1.244,4.887,4.887,0,0,1,1.16,3.467v1.151h-5.889a2.135,2.135,0,0,0,.694,1.257,2.066,2.066,0,0,0,1.389.457,2.662,2.662,0,0,0,2.2-.984l1.354,1.6a3.784,3.784,0,0,1-1.569,1.217A5.3,5.3,0,0,1,247.263.176ZM246.929-7.4q-1.3,0-1.547,1.723h2.988v-.229a1.467,1.467,0,0,0-.36-1.1A1.434,1.434,0,0,0,246.929-7.4ZM257.44-2.672a.684.684,0,0,0-.4-.606,6.016,6.016,0,0,0-1.5-.475,6.853,6.853,0,0,1-1.828-.646,3.062,3.062,0,0,1-1.1-.971,2.319,2.319,0,0,1-.378-1.31,2.628,2.628,0,0,1,1.081-2.158,4.453,4.453,0,0,1,2.83-.848,4.934,4.934,0,0,1,3.023.853,2.666,2.666,0,0,1,1.143,2.241h-2.971q0-1.143-1.2-1.143a1.194,1.194,0,0,0-.782.259.8.8,0,0,0-.316.646.737.737,0,0,0,.387.642,3.654,3.654,0,0,0,1.235.4,10.671,10.671,0,0,1,1.49.378A2.706,2.706,0,0,1,260.3-2.76a2.491,2.491,0,0,1-1.156,2.118,5.068,5.068,0,0,1-2.993.817,5.172,5.172,0,0,1-2.18-.439,3.645,3.645,0,0,1-1.494-1.2,2.707,2.707,0,0,1-.536-1.591h2.769a1.145,1.145,0,0,0,.439.962,1.808,1.808,0,0,0,1.081.3,1.422,1.422,0,0,0,.91-.246A.787.787,0,0,0,257.44-2.672Z" transform="translate(-2979 -8418)" fill="#12263f"/>
      <g id="Group_1071536" data-name="Group 1071536" transform="translate(-3040.293 -8451.039)">
        <g id="Group_1071534" data-name="Group 1071534" transform="translate(59 47)" clip-path="url(#clip-path)">
          <rect id="Rectangle_375720" data-name="Rectangle 375720" width="265.586" height="0.133" transform="translate(0 173.93)" fill="#ebebeb"/>
          <rect id="Rectangle_375721" data-name="Rectangle 375721" width="17.594" height="0.133" transform="translate(221.382 182.48)" fill="#ebebeb"/>
          <rect id="Rectangle_375722" data-name="Rectangle 375722" width="4.617" height="0.133" transform="translate(171.318 183.921)" fill="#ebebeb"/>
          <rect id="Rectangle_375723" data-name="Rectangle 375723" width="10.194" height="0.133" transform="translate(210.656 177.548)" fill="#ebebeb"/>
          <rect id="Rectangle_375724" data-name="Rectangle 375724" width="22.943" height="0.133" transform="translate(27.865 178.44)" fill="#ebebeb"/>
          <rect id="Rectangle_375725" data-name="Rectangle 375725" width="3.364" height="0.133" transform="translate(55.537 178.44)" fill="#ebebeb"/>
          <rect id="Rectangle_375726" data-name="Rectangle 375726" width="49.758" height="0.132" transform="translate(69.834 180.683)" fill="#ebebeb"/>
          <g id="Group_1071503" data-name="Group 1071503">
            <g id="Group_1071502" data-name="Group 1071502" clip-path="url(#clip-path)">
              <path id="Path_608509" data-name="Path 608509" d="M143.808,150.241H41.239a3.035,3.035,0,0,1-3.032-3.032V3.032A3.036,3.036,0,0,1,41.239,0H143.808a3.036,3.036,0,0,1,3.031,3.032V147.209a3.035,3.035,0,0,1-3.031,3.032M41.239.133a2.9,2.9,0,0,0-2.9,2.9V147.209a2.9,2.9,0,0,0,2.9,2.9H143.808a2.9,2.9,0,0,0,2.9-2.9V3.032a2.9,2.9,0,0,0-2.9-2.9Z" transform="translate(-17.912)" fill="#ebebeb"/>
              <path id="Path_608510" data-name="Path 608510" d="M360.105,150.241H257.536a3.035,3.035,0,0,1-3.031-3.032V3.032A3.035,3.035,0,0,1,257.536,0H360.105a3.036,3.036,0,0,1,3.032,3.032V147.209a3.035,3.035,0,0,1-3.032,3.032M257.536.133a2.9,2.9,0,0,0-2.9,2.9V147.209a2.9,2.9,0,0,0,2.9,2.9H360.105a2.9,2.9,0,0,0,2.9-2.9V3.032a2.9,2.9,0,0,0-2.9-2.9Z" transform="translate(-119.319)" fill="#ebebeb"/>
              <rect id="Rectangle_375727" data-name="Rectangle 375727" width="122.33" height="68.317" transform="translate(105.449 9.516)" fill="#e6e6e6"/>
              <rect id="Rectangle_375728" data-name="Rectangle 375728" width="122.33" height="68.317" transform="translate(106.62 9.516)" fill="#f5f5f5"/>
              <rect id="Rectangle_375729" data-name="Rectangle 375729" width="112.798" height="58.783" transform="translate(111.385 14.283)" fill="#fff"/>
              <rect id="Rectangle_375730" data-name="Rectangle 375730" width="1.242" height="58.783" transform="translate(222.942 14.283)" fill="#e6e6e6"/>
              <path id="Path_608511" data-name="Path 608511" d="M261.881,180.022h32.569l6.336,19.475H268.218Z" transform="translate(-122.777 -84.399)" fill="#e6e6e6"/>
              <path id="Path_608512" data-name="Path 608512" d="M273.81,216.687l.132,1.077h32.571l-.132-1.077Z" transform="translate(-128.37 -101.589)" fill="#e6e6e6"/>
              <path id="Path_608513" data-name="Path 608513" d="M263.769,180.022h32.569l6.336,19.475H270.105Z" transform="translate(-123.662 -84.399)" fill="#f0f0f0"/>
              <path id="Path_608514" data-name="Path 608514" d="M271.746,199.015l-5.24-16.871a.32.32,0,0,1,.3-.446h29.943a.548.548,0,0,1,.493.379l5.239,16.871a.32.32,0,0,1-.3.446H272.239a.547.547,0,0,1-.493-.379" transform="translate(-124.936 -85.185)" fill="#fff"/>
              <path id="Path_608515" data-name="Path 608515" d="M291.674,216.687l.132,1.077h35.866l-.132-1.077Z" transform="translate(-136.745 -101.589)" fill="#f0f0f0"/>
              <path id="Path_608516" data-name="Path 608516" d="M125.221,235.449l-6.983-104.23H53.8l6.983,104.23Z" transform="translate(-25.225 -61.519)" fill="#f0f0f0"/>
              <path id="Path_608517" data-name="Path 608517" d="M59.54,235.449H58.126l-6.982-104.23h1.413Z" transform="translate(-23.978 -61.519)" fill="#e0e0e0"/>
              <path id="Path_608518" data-name="Path 608518" d="M118.259,135.784H58.676l6.658,99.381h59.583Z" transform="translate(-27.509 -63.659)" fill="#fafafa"/>
              <path id="Path_608519" data-name="Path 608519" d="M103.3,205.634a18.059,18.059,0,0,0,18.246-19.557,21.225,21.225,0,0,0-20.867-19.556,18.059,18.059,0,0,0-18.246,19.556A21.225,21.225,0,0,0,103.3,205.634" transform="translate(-38.625 -78.07)" fill="#ebebeb"/>
              <path id="Path_608520" data-name="Path 608520" d="M106.6,257.646A21.456,21.456,0,0,1,85.535,237.9a18.261,18.261,0,0,1,18.448-19.772,21.456,21.456,0,0,1,21.068,19.745A18.262,18.262,0,0,1,106.6,257.646m-2.62-39.113a17.858,17.858,0,0,0-18.045,19.341A21.046,21.046,0,0,0,106.6,257.241,17.858,17.858,0,0,0,124.648,237.9a21.045,21.045,0,0,0-20.665-19.368" transform="translate(-40.08 -102.264)" fill="#e0e0e0"/>
              <path id="Path_608521" data-name="Path 608521" d="M253.513,320.247a2.6,2.6,0,1,0-2.6,2.6,2.6,2.6,0,0,0,2.6-2.6" transform="translate(-116.413 -148.92)" fill="#e0e0e0"/>
              <path id="Path_608522" data-name="Path 608522" d="M235.066,320.247a2.6,2.6,0,1,0-2.6,2.6,2.6,2.6,0,0,0,2.6-2.6" transform="translate(-107.764 -148.92)" fill="#e0e0e0"/>
              <path id="Path_608523" data-name="Path 608523" d="M423.066,320.247a2.6,2.6,0,1,0-2.6,2.6,2.6,2.6,0,0,0,2.6-2.6" transform="translate(-195.904 -148.92)" fill="#e0e0e0"/>
              <path id="Path_608524" data-name="Path 608524" d="M404.619,320.247a2.6,2.6,0,1,0-2.6,2.6,2.6,2.6,0,0,0,2.6-2.6" transform="translate(-187.255 -148.92)" fill="#e0e0e0"/>
              <rect id="Rectangle_375731" data-name="Rectangle 375731" width="13.3" height="55.511" transform="translate(119.292 116.175)" fill="#ebebeb"/>
              <rect id="Rectangle_375732" data-name="Rectangle 375732" width="95.103" height="55.511" transform="translate(132.592 116.175)" fill="#f5f5f5"/>
              <rect id="Rectangle_375733" data-name="Rectangle 375733" width="90.384" height="50.955" transform="translate(134.952 118.453)" fill="#ebebeb"/>
              <rect id="Rectangle_375734" data-name="Rectangle 375734" width="88.453" height="28.585" transform="translate(135.918 139.884)" fill="#f5f5f5"/>
              <rect id="Rectangle_375735" data-name="Rectangle 375735" width="88.453" height="19.634" transform="translate(135.918 119.526)" fill="#f5f5f5"/>
              <path id="Path_608525" data-name="Path 608525" d="M342.5,263.405H278.043a.483.483,0,1,1,0-.965H342.5a.483.483,0,1,1,0,.965" transform="translate(-130.128 -123.039)" fill="#ebebeb"/>
              <path id="Path_608526" data-name="Path 608526" d="M342.5,225.079H278.043a.483.483,0,1,1,0-.965H342.5a.483.483,0,1,1,0,.965" transform="translate(-130.128 -105.071)" fill="#ebebeb"/>
            </g>
          </g>
          <g id="Group_1071505" data-name="Group 1071505">
            <g id="Group_1071504" data-name="Group 1071504" clip-path="url(#clip-path)">
              <path id="Path_608527" data-name="Path 608527" d="M262.088,355.977c0,3.322-46.11,6.014-102.989,6.014S56.111,359.3,56.111,355.977s46.11-6.014,102.989-6.014,102.989,2.693,102.989,6.014" transform="translate(-26.306 -164.072)" fill="#d4dde3"/>
            </g>
          </g>
          <rect id="Rectangle_375738" data-name="Rectangle 375738" width="0.473" height="16.484" transform="translate(42.369 38.997) rotate(-3.194)" fill="#407bff"/>
          <rect id="Rectangle_375739" data-name="Rectangle 375739" width="0.473" height="6.723" transform="translate(43.751 63.777) rotate(-3.193)" fill="#407bff"/>
          <g id="Group_1071507" data-name="Group 1071507">
            <g id="Group_1071506" data-name="Group 1071506" clip-path="url(#clip-path)">
              <path id="Path_608528" data-name="Path 608528" d="M230.618,120.08H87.42a1.608,1.608,0,0,1-1.605-1.519l-4.4-78.946a1.608,1.608,0,0,1,1.606-1.7h143.2a1.608,1.608,0,0,1,1.606,1.519l4.4,78.946a1.608,1.608,0,0,1-1.606,1.7" transform="translate(-38.166 -17.777)" fill="#fff"/>
              <path id="Path_608529" data-name="Path 608529" d="M230.409,120.108H87.212a1.846,1.846,0,0,1-1.842-1.742l-4.4-78.946a1.845,1.845,0,0,1,1.842-1.947h143.2a1.846,1.846,0,0,1,1.842,1.742l4.4,78.946a1.846,1.846,0,0,1-1.842,1.947M82.808,37.946a1.372,1.372,0,0,0-1.37,1.449l4.4,78.946a1.372,1.372,0,0,0,1.369,1.294h143.2a1.372,1.372,0,0,0,1.37-1.449l-4.4-78.945a1.371,1.371,0,0,0-1.369-1.3Z" transform="translate(-37.958 -17.568)" fill="#407bff"/>
              <path id="Path_608530" data-name="Path 608530" d="M91.41,46.613a1.793,1.793,0,0,1-1.767-1.673,1.594,1.594,0,0,1,1.605-1.7,1.793,1.793,0,0,1,1.766,1.674,1.593,1.593,0,0,1-1.6,1.7m-.161-2.9a1.119,1.119,0,0,0-1.133,1.2A1.314,1.314,0,0,0,91.41,46.14a1.119,1.119,0,0,0,1.132-1.2,1.313,1.313,0,0,0-1.294-1.226" transform="translate(-42.026 -20.273)" fill="#407bff"/>
              <path id="Path_608531" data-name="Path 608531" d="M104.483,46.613a1.793,1.793,0,0,1-1.766-1.673,1.593,1.593,0,0,1,1.6-1.7,1.793,1.793,0,0,1,1.767,1.674,1.593,1.593,0,0,1-1.605,1.7m-.161-2.9a1.12,1.12,0,0,0-1.133,1.2,1.314,1.314,0,0,0,1.294,1.225,1.119,1.119,0,0,0,1.133-1.2,1.314,1.314,0,0,0-1.294-1.226" transform="translate(-48.155 -20.273)" fill="#407bff"/>
              <path id="Path_608532" data-name="Path 608532" d="M117.555,46.613a1.793,1.793,0,0,1-1.767-1.673,1.593,1.593,0,0,1,1.6-1.7,1.793,1.793,0,0,1,1.767,1.674,1.593,1.593,0,0,1-1.6,1.7m-.162-2.9a1.12,1.12,0,0,0-1.132,1.2,1.314,1.314,0,0,0,1.294,1.225,1.119,1.119,0,0,0,1.133-1.2,1.315,1.315,0,0,0-1.3-1.226" transform="translate(-54.284 -20.273)" fill="#407bff"/>
              <rect id="Rectangle_375740" data-name="Rectangle 375740" width="146.418" height="0.472" transform="translate(45.441 60.986)" fill="#407bff"/>
              <path id="Path_608533" data-name="Path 608533" d="M192.434,105.019,180.3,93.524H127.035L116.19,105.009l-.344-.325,10.985-11.634h53.654l.068.065,12.2,11.559Z" transform="translate(-54.312 -43.625)" fill="#407bff"/>
              <path id="Path_608534" data-name="Path 608534" d="M225.91,126.9H168.491l-.068-.065-12.2-11.56.325-.343L168.68,126.43h57.027l10.845-11.486.343.325Z" transform="translate(-73.239 -53.885)" fill="#407bff"/>
              <path id="Path_608535" data-name="Path 608535" d="M304.416,148.666H249.6l-.068-.065-12.2-11.56.325-.343,12.137,11.495h54.625Z" transform="translate(-111.267 -64.088)" fill="#407bff"/>
              <path id="Path_608536" data-name="Path 608536" d="M100.225,112.983a2.412,2.412,0,0,1-2.434,2.578,2.76,2.76,0,0,1-2.722-2.578A2.413,2.413,0,0,1,97.5,110.4a2.76,2.76,0,0,1,2.722,2.578" transform="translate(-44.569 -51.761)" fill="#fff"/>
              <path id="Path_608537" data-name="Path 608537" d="M97.582,115.588a3,3,0,0,1-2.958-2.8,2.65,2.65,0,0,1,2.67-2.828,3,3,0,0,1,2.958,2.8,2.649,2.649,0,0,1-2.67,2.827m-.288-5.156a2.175,2.175,0,0,0-2.2,2.329,2.523,2.523,0,0,0,2.486,2.354,2.176,2.176,0,0,0,2.2-2.328,2.524,2.524,0,0,0-2.486-2.355" transform="translate(-44.36 -51.552)" fill="#407bff"/>
              <path id="Path_608538" data-name="Path 608538" d="M116.469,112.983a2.412,2.412,0,0,1-2.434,2.578,2.76,2.76,0,0,1-2.722-2.578,2.413,2.413,0,0,1,2.434-2.578,2.76,2.76,0,0,1,2.722,2.578" transform="translate(-52.184 -51.761)" fill="#fff"/>
              <path id="Path_608539" data-name="Path 608539" d="M113.826,115.588a3,3,0,0,1-2.958-2.8,2.65,2.65,0,0,1,2.67-2.828,3,3,0,0,1,2.958,2.8,2.649,2.649,0,0,1-2.67,2.827m-.288-5.156a2.176,2.176,0,0,0-2.2,2.329,2.524,2.524,0,0,0,2.486,2.354,2.175,2.175,0,0,0,2.2-2.328,2.523,2.523,0,0,0-2.486-2.355" transform="translate(-51.976 -51.552)" fill="#407bff"/>
              <path id="Path_608540" data-name="Path 608540" d="M221.69,134.745a2.412,2.412,0,0,1-2.434,2.578,2.76,2.76,0,0,1-2.722-2.578,2.413,2.413,0,0,1,2.435-2.578,2.76,2.76,0,0,1,2.722,2.578" transform="translate(-101.515 -61.963)" fill="#fff"/>
              <path id="Path_608541" data-name="Path 608541" d="M219.047,137.351a3,3,0,0,1-2.958-2.8,2.65,2.65,0,0,1,2.67-2.828,3,3,0,0,1,2.958,2.8,2.649,2.649,0,0,1-2.67,2.827m-.288-5.156a2.176,2.176,0,0,0-2.2,2.329,2.524,2.524,0,0,0,2.486,2.354,2.175,2.175,0,0,0,2.2-2.328,2.523,2.523,0,0,0-2.486-2.355" transform="translate(-101.306 -61.755)" fill="#407bff"/>
              <path id="Path_608542" data-name="Path 608542" d="M237.933,134.745a2.412,2.412,0,0,1-2.434,2.578,2.76,2.76,0,0,1-2.722-2.578,2.413,2.413,0,0,1,2.434-2.578,2.76,2.76,0,0,1,2.722,2.578" transform="translate(-109.13 -61.963)" fill="#fff"/>
              <path id="Path_608543" data-name="Path 608543" d="M235.291,137.351a3,3,0,0,1-2.958-2.8,2.65,2.65,0,0,1,2.67-2.828,3,3,0,0,1,2.958,2.8,2.65,2.65,0,0,1-2.67,2.827M235,132.2a2.176,2.176,0,0,0-2.2,2.329,2.524,2.524,0,0,0,2.486,2.354,2.176,2.176,0,0,0,2.2-2.328A2.523,2.523,0,0,0,235,132.2" transform="translate(-108.922 -61.755)" fill="#407bff"/>
              <path id="Path_608544" data-name="Path 608544" d="M258.268,94.816,233.926,71.761H176.9L166.054,83.247l-.343-.325L176.7,71.288h57.419l.068.065,24.41,23.119Z" transform="translate(-77.69 -33.422)" fill="#407bff"/>
              <path id="Path_608545" data-name="Path 608545" d="M150.09,91.22a2.413,2.413,0,0,1-2.435,2.578,2.76,2.76,0,0,1-2.722-2.578,2.413,2.413,0,0,1,2.435-2.578,2.76,2.76,0,0,1,2.722,2.578" transform="translate(-67.946 -41.558)" fill="#407bff"/>
              <path id="Path_608546" data-name="Path 608546" d="M147.447,93.826a3,3,0,0,1-2.958-2.8,2.65,2.65,0,0,1,2.67-2.828,3,3,0,0,1,2.958,2.8,2.649,2.649,0,0,1-2.67,2.827m-.288-5.156a2.176,2.176,0,0,0-2.2,2.329,2.523,2.523,0,0,0,2.486,2.354,2.176,2.176,0,0,0,2.2-2.328,2.523,2.523,0,0,0-2.486-2.355" transform="translate(-67.738 -41.349)" fill="#407bff"/>
              <path id="Path_608547" data-name="Path 608547" d="M166.333,91.22A2.412,2.412,0,0,1,163.9,93.8a2.76,2.76,0,0,1-2.722-2.578,2.413,2.413,0,0,1,2.434-2.578,2.76,2.76,0,0,1,2.722,2.578" transform="translate(-75.562 -41.558)" fill="#407bff"/>
              <path id="Path_608548" data-name="Path 608548" d="M163.691,93.826a3,3,0,0,1-2.958-2.8A2.649,2.649,0,0,1,163.4,88.2a3,3,0,0,1,2.958,2.8,2.649,2.649,0,0,1-2.67,2.827M163.4,88.67A2.175,2.175,0,0,0,161.2,91a2.524,2.524,0,0,0,2.486,2.354,2.176,2.176,0,0,0,2.2-2.328A2.523,2.523,0,0,0,163.4,88.67" transform="translate(-75.354 -41.349)" fill="#407bff"/>
              <path id="Path_608549" data-name="Path 608549" d="M182.577,91.22a2.412,2.412,0,0,1-2.434,2.578,2.76,2.76,0,0,1-2.722-2.578,2.413,2.413,0,0,1,2.434-2.578,2.76,2.76,0,0,1,2.722,2.578" transform="translate(-83.178 -41.558)" fill="#407bff"/>
              <path id="Path_608550" data-name="Path 608550" d="M179.934,93.826a3,3,0,0,1-2.958-2.8,2.65,2.65,0,0,1,2.67-2.828A3,3,0,0,1,182.6,91a2.649,2.649,0,0,1-2.67,2.827m-.288-5.156a2.176,2.176,0,0,0-2.2,2.329,2.524,2.524,0,0,0,2.486,2.354,2.175,2.175,0,0,0,2.2-2.328,2.523,2.523,0,0,0-2.486-2.355" transform="translate(-82.969 -41.349)" fill="#407bff"/>
              <path id="Path_608551" data-name="Path 608551" d="M198.82,91.22a2.412,2.412,0,0,1-2.434,2.578,2.76,2.76,0,0,1-2.722-2.578,2.413,2.413,0,0,1,2.434-2.578,2.76,2.76,0,0,1,2.722,2.578" transform="translate(-90.793 -41.558)" fill="#407bff"/>
              <path id="Path_608552" data-name="Path 608552" d="M196.178,93.826a3,3,0,0,1-2.958-2.8,2.65,2.65,0,0,1,2.67-2.828,3,3,0,0,1,2.958,2.8,2.649,2.649,0,0,1-2.67,2.827m-.288-5.156a2.176,2.176,0,0,0-2.2,2.329,2.524,2.524,0,0,0,2.486,2.354,2.176,2.176,0,0,0,2.2-2.328,2.523,2.523,0,0,0-2.486-2.355" transform="translate(-90.585 -41.349)" fill="#407bff"/>
              <path id="Path_608553" data-name="Path 608553" d="M244.393,112.983a2.412,2.412,0,0,1-2.434,2.578,2.76,2.76,0,0,1-2.722-2.578,2.413,2.413,0,0,1,2.434-2.578,2.76,2.76,0,0,1,2.722,2.578" transform="translate(-112.159 -51.761)" fill="#407bff"/>
              <path id="Path_608554" data-name="Path 608554" d="M241.751,115.588a3,3,0,0,1-2.958-2.8,2.65,2.65,0,0,1,2.67-2.828,3,3,0,0,1,2.958,2.8,2.649,2.649,0,0,1-2.671,2.827m-.287-5.156a2.176,2.176,0,0,0-2.2,2.329,2.523,2.523,0,0,0,2.486,2.354,2.176,2.176,0,0,0,2.2-2.328,2.523,2.523,0,0,0-2.486-2.355" transform="translate(-111.951 -51.552)" fill="#407bff"/>
              <path id="Path_608555" data-name="Path 608555" d="M156.823,112.983a2.412,2.412,0,0,1-2.434,2.578,2.76,2.76,0,0,1-2.722-2.578A2.413,2.413,0,0,1,154.1,110.4a2.76,2.76,0,0,1,2.722,2.578" transform="translate(-71.103 -51.761)" fill="#407bff"/>
              <path id="Path_608556" data-name="Path 608556" d="M154.18,115.588a3,3,0,0,1-2.958-2.8,2.65,2.65,0,0,1,2.67-2.828,3,3,0,0,1,2.958,2.8,2.65,2.65,0,0,1-2.67,2.827m-.288-5.156a2.176,2.176,0,0,0-2.2,2.329,2.523,2.523,0,0,0,2.486,2.354,2.176,2.176,0,0,0,2.2-2.328,2.523,2.523,0,0,0-2.486-2.355" transform="translate(-70.895 -51.552)" fill="#407bff"/>
              <path id="Path_608557" data-name="Path 608557" d="M260.637,112.983a2.412,2.412,0,0,1-2.434,2.578,2.76,2.76,0,0,1-2.722-2.578,2.413,2.413,0,0,1,2.434-2.578,2.76,2.76,0,0,1,2.722,2.578" transform="translate(-119.774 -51.761)" fill="#fff"/>
              <path id="Path_608558" data-name="Path 608558" d="M257.994,115.588a3,3,0,0,1-2.958-2.8,2.649,2.649,0,0,1,2.67-2.828,3,3,0,0,1,2.958,2.8,2.649,2.649,0,0,1-2.67,2.827m-.288-5.156a2.175,2.175,0,0,0-2.2,2.329,2.524,2.524,0,0,0,2.486,2.354,2.176,2.176,0,0,0,2.2-2.328,2.524,2.524,0,0,0-2.486-2.355" transform="translate(-119.566 -51.552)" fill="#407bff"/>
              <path id="Path_608559" data-name="Path 608559" d="M324.322,112.983a2.412,2.412,0,0,1-2.434,2.578,2.76,2.76,0,0,1-2.722-2.578A2.413,2.413,0,0,1,321.6,110.4a2.76,2.76,0,0,1,2.722,2.578" transform="translate(-149.632 -51.761)" fill="#fff"/>
              <path id="Path_608560" data-name="Path 608560" d="M321.679,115.588a3,3,0,0,1-2.958-2.8,2.65,2.65,0,0,1,2.67-2.828,3,3,0,0,1,2.958,2.8,2.649,2.649,0,0,1-2.671,2.827m-.287-5.156a2.176,2.176,0,0,0-2.2,2.329,2.524,2.524,0,0,0,2.486,2.354,2.175,2.175,0,0,0,2.2-2.328,2.523,2.523,0,0,0-2.486-2.355" transform="translate(-149.423 -51.552)" fill="#407bff"/>
              <path id="Path_608561" data-name="Path 608561" d="M308.078,112.983a2.412,2.412,0,0,1-2.434,2.578,2.759,2.759,0,0,1-2.722-2.578,2.412,2.412,0,0,1,2.434-2.578,2.76,2.76,0,0,1,2.722,2.578" transform="translate(-142.016 -51.761)" fill="#fff"/>
              <path id="Path_608562" data-name="Path 608562" d="M305.435,115.588a3,3,0,0,1-2.958-2.8,2.649,2.649,0,0,1,2.67-2.828,3,3,0,0,1,2.958,2.8,2.65,2.65,0,0,1-2.67,2.827m-.288-5.156a2.176,2.176,0,0,0-2.2,2.329,2.524,2.524,0,0,0,2.486,2.354,2.175,2.175,0,0,0,2.2-2.328,2.523,2.523,0,0,0-2.486-2.355" transform="translate(-141.807 -51.552)" fill="#407bff"/>
              <path id="Path_608563" data-name="Path 608563" d="M340.565,112.983a2.412,2.412,0,0,1-2.434,2.578,2.76,2.76,0,0,1-2.722-2.578,2.413,2.413,0,0,1,2.434-2.578,2.76,2.76,0,0,1,2.722,2.578" transform="translate(-157.247 -51.761)" fill="#407bff"/>
              <path id="Path_608564" data-name="Path 608564" d="M337.923,115.588a3,3,0,0,1-2.958-2.8,2.649,2.649,0,0,1,2.67-2.828,3,3,0,0,1,2.958,2.8,2.65,2.65,0,0,1-2.67,2.827m-.288-5.156a2.176,2.176,0,0,0-2.2,2.329,2.523,2.523,0,0,0,2.486,2.354,2.176,2.176,0,0,0,2.2-2.328,2.523,2.523,0,0,0-2.486-2.355" transform="translate(-157.039 -51.552)" fill="#407bff"/>
            </g>
          </g>
          <g id="Group_1071533" data-name="Group 1071533">
            <g id="Group_1071532" data-name="Group 1071532" clip-path="url(#clip-path)">
              <path id="Path_608565" data-name="Path 608565" d="M392.361,61.453c1.708-1.159,3.333-5.41-1.479-6.471-4.619-1.018-4.589.295-8.041-.546a2.786,2.786,0,0,0,1.787,1.431,56.418,56.418,0,0,1-5.771.531,6.371,6.371,0,0,0,1.778.841c-2.325.8-1.85,3.646-3.791,4.213,2.529,1.01,3.4-.385,3.4-.385a5.082,5.082,0,0,0-1.665,4.413c.442-1.425,3.909-.175,3.909-.175s4.334,3.37,7.87,3.1,6.361-5.879,2.005-6.949" transform="translate(-176.675 -25.521)" fill="#263238"/>
              <path id="Path_608566" data-name="Path 608566" d="M342.551,341.856l-3.746-1.215,2.329-8.832,3.745,1.215Z" transform="translate(-158.841 -155.561)" fill="#7f3e3b"/>
              <path id="Path_608567" data-name="Path 608567" d="M332.337,347.456l4.208,1.366a.282.282,0,0,1,.195.346l-.876,3.4a.7.7,0,0,1-.872.453,37.594,37.594,0,0,0-3.675-1.485,41.4,41.4,0,0,1-5.328-1.725c-1.466-.682-.767-2.159-.069-2a8.114,8.114,0,0,0,5.7-.332,1.11,1.11,0,0,1,.72-.021" transform="translate(-152.428 -162.873)" fill="#263238"/>
              <g id="Group_1071510" data-name="Group 1071510" transform="translate(181.093 176.25)" opacity="0.2">
                <g id="Group_1071509" data-name="Group 1071509">
                  <g id="Group_1071508" data-name="Group 1071508" clip-path="url(#clip-path-6)">
                    <path id="Path_608568" data-name="Path 608568" d="M345.876,333.029l-3.747-1.216-1.2,4.553,3.747,1.216Z" transform="translate(-340.931 -331.813)"/>
                  </g>
                </g>
              </g>
              <path id="Path_608569" data-name="Path 608569" d="M354.938,165.77s-6.72,31.1-8.3,42.281c-1.726,12.245-8.209,49.012-8.209,49.012l6.952,1.921s9.634-35.659,12.448-47.563c3.054-12.92,11.178-45.652,11.178-45.652Z" transform="translate(-158.667 -77.717)" fill="#263238"/>
              <g id="Group_1071513" data-name="Group 1071513" transform="translate(201.294 96.69)" opacity="0.3">
                <g id="Group_1071512" data-name="Group 1071512">
                  <g id="Group_1071511" data-name="Group 1071511" clip-path="url(#clip-path-7)">
                    <path id="Path_608570" data-name="Path 608570" d="M382.249,183.591c-2.651,6.023-3.968,19.143-2.937,25.151,1.88-7.729,4.143-16.918,5.891-23.988-.59-2.05-1.567-4.313-2.953-1.163" transform="translate(-378.961 -182.031)"/>
                  </g>
                </g>
              </g>
              <path id="Path_608571" data-name="Path 608571" d="M345.28,337.028l-7.447-2.051.144-3.033,8.384,2.9Z" transform="translate(-158.385 -155.624)" fill="#407bff"/>
              <path id="Path_608572" data-name="Path 608572" d="M335.195,346.931a4.91,4.91,0,0,0,1.042.19.092.092,0,0,0,.081-.147c-.093-.122-.918-1.191-1.434-1.16a.345.345,0,0,0-.284.181.5.5,0,0,0-.044.509,1.063,1.063,0,0,0,.639.426m.842-.014c-.713-.084-1.2-.265-1.318-.5a.33.33,0,0,1,.039-.332.162.162,0,0,1,.136-.091c.278-.016.8.5,1.143.919" transform="translate(-156.825 -162.127)" fill="#407bff"/>
              <path id="Path_608573" data-name="Path 608573" d="M337.282,346.6a.092.092,0,0,0,.113-.052c.018-.044.452-1.094.192-1.581a.46.46,0,0,0-.33-.242.352.352,0,0,0-.4.161,2.033,2.033,0,0,0,.387,1.687.093.093,0,0,0,.04.027m-.019-1.684a.271.271,0,0,1,.163.138,2.041,2.041,0,0,1-.14,1.27,1.853,1.853,0,0,1-.271-1.345c.027-.047.075-.1.208-.073a.333.333,0,0,1,.041.011" transform="translate(-157.892 -161.613)" fill="#407bff"/>
              <path id="Path_608574" data-name="Path 608574" d="M356.6,101.451A3.453,3.453,0,0,0,352,103.1l-.033.07c-.125.265-.308.634-.473.956l-.517,1c-.356.668-.713,1.337-1.091,1.993-.748,1.316-1.546,2.6-2.383,3.819a32.587,32.587,0,0,1-2.681,3.413,16.525,16.525,0,0,1-2.762,2.448,7.108,7.108,0,0,1-1.535.208,10.287,10.287,0,0,1-2.413-.224,15.77,15.77,0,0,1-2.558-.753c-.429-.164-.862-.339-1.285-.536-.213-.1-.427-.194-.634-.3l-.586-.285-.245-.12a1.712,1.712,0,0,0-2.032,2.672c.241.274.41.467.62.687s.411.411.622.611c.428.39.871.765,1.339,1.115a16.346,16.346,0,0,0,3.073,1.822,13.784,13.784,0,0,0,3.634,1.074,12.177,12.177,0,0,0,4.035-.07,2.285,2.285,0,0,0,.627-.22l.184-.1a20.357,20.357,0,0,0,4.608-3.406,32.349,32.349,0,0,0,3.534-4.035,44.827,44.827,0,0,0,2.872-4.342c.43-.746.852-1.5,1.24-2.265.2-.385.39-.769.576-1.163s.356-.765.56-1.24a3.459,3.459,0,0,0-1.7-4.483" transform="translate(-154.876 -47.407)" fill="#407bff"/>
              <g id="Group_1071516" data-name="Group 1071516" transform="translate(193.869 61.765)" opacity="0.3">
                <g id="Group_1071515" data-name="Group 1071515">
                  <g id="Group_1071514" data-name="Group 1071514" clip-path="url(#clip-path-8)">
                    <path id="Path_608575" data-name="Path 608575" d="M365.854,120.253c1.668-4.43,5.211-4.5,6.746-3.33-.112.207-.228.414-.345.621a45.11,45.11,0,0,1-2.736,4.2,34.714,34.714,0,0,1-3.331,3.92c-.382.377-.775.749-1.185,1.11a17.021,17.021,0,0,1,.85-6.523" transform="translate(-364.983 -116.28)"/>
                  </g>
                </g>
              </g>
              <path id="Path_608576" data-name="Path 608576" d="M324.281,125.756a15.259,15.259,0,0,0-3.417.456l-2.511.064-.3,3.057,2.867,1.061,3.2-1.113a2.216,2.216,0,0,0,1.348-1.488v0a1.511,1.511,0,0,0-1.192-2.033" transform="translate(-149.113 -58.957)" fill="#7f3e3b"/>
              <path id="Path_608577" data-name="Path 608577" d="M331.3,125.633a4.357,4.357,0,0,0-2.125-.651.376.376,0,0,0-.344.217,8.8,8.8,0,0,0-.434,3.951.382.382,0,0,0,.415.347l2.052-.182a.383.383,0,0,0,.348-.348l.265-2.975a.379.379,0,0,0-.178-.359" transform="translate(-153.937 -58.595)" fill="#263238"/>
              <path id="Path_608578" data-name="Path 608578" d="M397.937,345.919H394l-.136-9.119H397.8Z" transform="translate(-184.654 -157.901)" fill="#7f3e3b"/>
              <path id="Path_608579" data-name="Path 608579" d="M387.793,353.11h4.424a.282.282,0,0,1,.292.269l.214,3.5a.7.7,0,0,1-.689.7c-1.54-.027-2.276-.117-4.222-.117-1.2,0-3.739.124-5.392.124-1.616,0-1.606-1.634-.905-1.783a12,12,0,0,0,5.6-2.452,1.109,1.109,0,0,1,.678-.242" transform="translate(-178.654 -165.548)" fill="#263238"/>
              <g id="Group_1071519" data-name="Group 1071519" transform="translate(209.209 178.901)" opacity="0.2">
                <g id="Group_1071518" data-name="Group 1071518">
                  <g id="Group_1071517" data-name="Group 1071517" clip-path="url(#clip-path-9)">
                    <path id="Path_608580" data-name="Path 608580" d="M397.8,336.8h-3.94l.072,4.7h3.94Z" transform="translate(-393.862 -336.805)"/>
                  </g>
                </g>
              </g>
              <path id="Path_608581" data-name="Path 608581" d="M383.967,165.77s-.065,34.213.574,45.488c.7,12.346,2.882,48.927,2.882,48.927h7.213s1.1-35.584,1.539-47.808c.472-13.267,1.171-46.607,1.171-46.607Z" transform="translate(-180.013 -77.717)" fill="#263238"/>
              <path id="Path_608582" data-name="Path 608582" d="M397.2,340.96H389.4l-.594-2.9,8.6.428Z" transform="translate(-182.285 -158.493)" fill="#407bff"/>
              <path id="Path_608583" data-name="Path 608583" d="M390.332,353.523a4.918,4.918,0,0,0,1.05-.141.091.091,0,0,0,.069-.072.092.092,0,0,0-.037-.092c-.126-.088-1.241-.849-1.722-.661a.344.344,0,0,0-.213.26.5.5,0,0,0,.115.5,1.062,1.062,0,0,0,.739.208m.8-.274c-.7.14-1.223.118-1.407-.064a.329.329,0,0,1-.065-.328.164.164,0,0,1,.1-.129c.259-.1.914.23,1.371.521" transform="translate(-182.589 -165.274)" fill="#407bff"/>
              <path id="Path_608584" data-name="Path 608584" d="M392.205,352.57a.091.091,0,0,0,.042-.01.092.092,0,0,0,.049-.074c0-.048.092-1.181-.3-1.564a.459.459,0,0,0-.389-.128.351.351,0,0,0-.333.278c-.091.43.5,1.251.889,1.485a.091.091,0,0,0,.047.013m-.538-1.6a.272.272,0,0,1,.2.081,2.043,2.043,0,0,1,.259,1.251c-.343-.289-.733-.914-.674-1.2.011-.054.041-.117.175-.133a.309.309,0,0,1,.043,0" transform="translate(-183.433 -164.46)" fill="#407bff"/>
              <path id="Path_608585" data-name="Path 608585" d="M391.689,102.892a2.5,2.5,0,0,0-2.1-2.918l-.046-.007c-1.269-.186-2.863-.377-4.425-.451a78.679,78.679,0,0,0-8.95,0c-1.376.128-2.72.356-3.793.564l-.041.008a3.771,3.771,0,0,0-2.865,2.625c-1.284,4.331-2.816,13.169-.812,31.936h21.061c.149-1.88-.27-8,.037-15.792a124.221,124.221,0,0,1,1.938-15.964" transform="translate(-172.381 -46.595)" fill="#407bff"/>
              <line id="Line_423" data-name="Line 423" x1="1.059" y2="11.41" transform="translate(204.132 60.429)" fill="#407bff"/>
              <path id="Path_608586" data-name="Path 608586" d="M383.909,125.224a.362.362,0,0,1-.366-.4l1.059-11.41a.452.452,0,0,1,.441-.4.361.361,0,0,1,.366.4l-1.059,11.41a.452.452,0,0,1-.441.4" transform="translate(-179.814 -52.98)" fill="#fff"/>
              <path id="Path_608587" data-name="Path 608587" d="M386.435,112.71a1.342,1.342,0,0,1-1.308,1.2,1.072,1.072,0,0,1-1.086-1.2,1.341,1.341,0,0,1,1.308-1.2,1.073,1.073,0,0,1,1.086,1.2" transform="translate(-180.047 -52.28)" fill="#407bff"/>
              <path id="Path_608588" data-name="Path 608588" d="M384.731,113.953a1.436,1.436,0,0,1-1.452-1.6,1.8,1.8,0,0,1,1.749-1.6,1.436,1.436,0,0,1,1.452,1.6,1.8,1.8,0,0,1-1.749,1.6m.222-2.393a.89.89,0,0,0-.866.793.711.711,0,0,0,.719.793.89.89,0,0,0,.866-.793.711.711,0,0,0-.719-.793" transform="translate(-179.688 -51.924)" fill="#fff"/>
              <path id="Path_608589" data-name="Path 608589" d="M384.441,134.191a1.342,1.342,0,0,1-1.308,1.2,1.072,1.072,0,0,1-1.086-1.2,1.341,1.341,0,0,1,1.308-1.2,1.073,1.073,0,0,1,1.086,1.2" transform="translate(-179.112 -62.351)" fill="#407bff"/>
              <path id="Path_608590" data-name="Path 608590" d="M382.738,135.434a1.435,1.435,0,0,1-1.452-1.6,1.8,1.8,0,0,1,1.749-1.6,1.437,1.437,0,0,1,1.452,1.6,1.8,1.8,0,0,1-1.75,1.6m.223-2.393a.889.889,0,0,0-.866.793.711.711,0,0,0,.719.793.889.889,0,0,0,.866-.793.711.711,0,0,0-.719-.793" transform="translate(-178.754 -61.994)" fill="#fff"/>
              <path id="Path_608591" data-name="Path 608591" d="M384.972,123.519l2.968-1.673a2.23,2.23,0,0,0,1.131-1.71l.164-1.763" transform="translate(-180.485 -55.496)" fill="#407bff"/>
              <path id="Path_608592" data-name="Path 608592" d="M384.577,123.566a.362.362,0,0,1-.329-.2.43.43,0,0,1,.192-.553l2.968-1.673a1.787,1.787,0,0,0,.9-1.364l.164-1.763a.452.452,0,0,1,.441-.4.362.362,0,0,1,.366.4l-.164,1.763a2.694,2.694,0,0,1-1.361,2.057l-2.968,1.673a.433.433,0,0,1-.211.057" transform="translate(-180.127 -55.14)" fill="#fff"/>
              <path id="Path_608593" data-name="Path 608593" d="M393.133,117.317a1.342,1.342,0,0,1-1.308,1.2,1.072,1.072,0,0,1-1.086-1.2,1.341,1.341,0,0,1,1.308-1.2,1.073,1.073,0,0,1,1.086,1.2" transform="translate(-183.187 -54.44)" fill="#407bff"/>
              <path id="Path_608594" data-name="Path 608594" d="M391.429,118.56a1.436,1.436,0,0,1-1.452-1.6,1.8,1.8,0,0,1,1.749-1.6,1.436,1.436,0,0,1,1.452,1.6,1.8,1.8,0,0,1-1.749,1.6m.222-2.393a.89.89,0,0,0-.866.793.711.711,0,0,0,.719.793.89.89,0,0,0,.866-.793.711.711,0,0,0-.719-.793" transform="translate(-182.829 -54.083)" fill="#fff"/>
              <path id="Path_608595" data-name="Path 608595" d="M381.87,120.951l-2.968,1.673a2.23,2.23,0,0,0-1.131,1.71l-.164,1.763" transform="translate(-177.032 -56.705)" fill="#407bff"/>
              <path id="Path_608596" data-name="Path 608596" d="M377.212,126.146a.362.362,0,0,1-.366-.4l.164-1.764a2.7,2.7,0,0,1,1.361-2.057l2.968-1.673a.383.383,0,0,1,.54.141.429.429,0,0,1-.192.553l-2.968,1.673a1.786,1.786,0,0,0-.9,1.363l-.164,1.764a.452.452,0,0,1-.441.4" transform="translate(-176.675 -56.349)" fill="#fff"/>
              <path id="Path_608597" data-name="Path 608597" d="M375.349,129.584a1.342,1.342,0,0,1,1.308-1.2,1.072,1.072,0,0,1,1.086,1.2,1.341,1.341,0,0,1-1.308,1.2,1.072,1.072,0,0,1-1.086-1.2" transform="translate(-175.972 -60.191)" fill="#407bff"/>
              <path id="Path_608598" data-name="Path 608598" d="M376.04,130.827a1.436,1.436,0,0,1-1.452-1.6,1.8,1.8,0,0,1,1.749-1.6,1.436,1.436,0,0,1,1.452,1.6,1.8,1.8,0,0,1-1.749,1.6m.222-2.393a.89.89,0,0,0-.866.793.711.711,0,0,0,.719.793.89.89,0,0,0,.866-.793.711.711,0,0,0-.719-.793" transform="translate(-175.614 -59.835)" fill="#fff"/>
              <g id="Group_1071522" data-name="Group 1071522" transform="translate(215.456 56.997)" opacity="0.3">
                <g id="Group_1071521" data-name="Group 1071521">
                  <g id="Group_1071520" data-name="Group 1071520" clip-path="url(#clip-path-10)">
                    <path id="Path_608599" data-name="Path 608599" d="M409.271,107.764c-.437,2.519-.976,5.941-1.347,9.544a24.489,24.489,0,0,1-2.271-7c-.35-3.226,2.4-3.453,3.618-2.548" transform="translate(-405.623 -107.304)"/>
                  </g>
                </g>
              </g>
              <path id="Path_608600" data-name="Path 608600" d="M409.2,164.426a15.278,15.278,0,0,1-2.585,2.28l-.994,1.087a1.136,1.136,0,0,1-1.527.137l-1.234-.942a1.136,1.136,0,0,1-.292-1.475l.928-1.593,2.941-1.688a2.215,2.215,0,0,1,2.007-.041l0,0a1.511,1.511,0,0,1,.753,2.233" transform="translate(-188.664 -75.937)" fill="#7f3e3b"/>
              <path id="Path_608601" data-name="Path 608601" d="M417.331,122.553l-.062-.277a43.93,43.93,0,0,0-1.527-5.508c-.3-.9-.653-1.774-1-2.653-.37-.865-.739-1.731-1.148-2.575a56.114,56.114,0,0,0-2.647-4.949c-.489-.8-.98-1.594-1.51-2.37-.266-.388-.529-.778-.81-1.163s-.55-.748-.9-1.192a3.452,3.452,0,0,0-5.515,4.151l.068.093c.189.261.446.623.669.955l.695,1.028c.456.7.909,1.4,1.348,2.114.881,1.425,1.694,2.89,2.47,4.368s1.471,2.989,2.106,4.514c.56,1.327,1.018,2.674,1.441,4.029-.139.6-.284,1.2-.464,1.786-.263.9-.569,1.787-.914,2.664a28.07,28.07,0,0,1-1.179,2.565c-.218.417-.445.832-.69,1.228-.117.2-.242.4-.367.588l-.182.281a1.8,1.8,0,0,0-.146.233l-.218,1.054a1.549,1.549,0,0,0,2.386,1.592l.434-.293.374-.269c.24-.184.473-.37.7-.562a17.547,17.547,0,0,0,1.272-1.214,22.444,22.444,0,0,0,2.182-2.718c.312-.486.633-.974.913-1.479.3-.5.565-1.012.813-1.536.267-.517.473-1.053.711-1.583s.4-1.081.6-1.624a2.24,2.24,0,0,0,.088-1.276" transform="translate(-188.264 -47.136)" fill="#407bff"/>
              <path id="Path_608602" data-name="Path 608602" d="M410.348,160.127a4.361,4.361,0,0,0-1.831,1.259.377.377,0,0,0-.043.4,8.785,8.785,0,0,0,2.825,2.8.381.381,0,0,0,.53-.11l1.134-1.721a.383.383,0,0,0-.056-.489l-2.166-2.057a.379.379,0,0,0-.391-.083" transform="translate(-191.485 -75.061)" fill="#263238"/>
              <g id="Group_1071525" data-name="Group 1071525" transform="translate(203.567 52.79)" opacity="0.6">
                <g id="Group_1071524" data-name="Group 1071524">
                  <g id="Group_1071523" data-name="Group 1071523" clip-path="url(#clip-path-11)">
                    <path id="Path_608603" data-name="Path 608603" d="M392.4,99.514a78.456,78.456,0,0,0-8.945,0l-.149.016a2.113,2.113,0,0,0,.228,1.631c.5.8,1.546,1.243,3.118,1.328q.3.016.59.016c4.276,0,5.891-2.581,5.96-2.693l.149-.239c-.319-.021-.632-.042-.951-.058" transform="translate(-383.24 -99.384)" fill="#fff"/>
                  </g>
                </g>
              </g>
              <path id="Path_608604" data-name="Path 608604" d="M384.349,90.736c2.6-.616,3.06-2.226,2.884-3.994a10.573,10.573,0,0,0-.207-1.317l3.261-2.709,2.4-1.987c-.664,2.884-1.413,8.138.536,10.06,0,0-1.614,2.66-6.068,2.419-3.763-.2-2.8-2.473-2.8-2.473" transform="translate(-180.142 -37.848)" fill="#7f3e3b"/>
              <g id="Group_1071528" data-name="Group 1071528" transform="translate(206.884 44.868)" opacity="0.2">
                <g id="Group_1071527" data-name="Group 1071527">
                  <g id="Group_1071526" data-name="Group 1071526" clip-path="url(#clip-path-12)">
                    <path id="Path_608605" data-name="Path 608605" d="M389.486,87.178a10.573,10.573,0,0,1,.207,1.317c1.216-.244,2.842-1.54,3.012-2.783a5.664,5.664,0,0,0,.042-1.243Z" transform="translate(-389.486 -84.47)"/>
                  </g>
                </g>
              </g>
              <path id="Path_608606" data-name="Path 608606" d="M393.421,67.677c-1.131,3.752-1.6,6-3.994,7.562a5.094,5.094,0,0,1-7.927-4.3c-.016-3.577,1.837-9.112,5.938-9.876a5.155,5.155,0,0,1,5.983,6.618" transform="translate(-178.857 -28.579)" fill="#7f3e3b"/>
              <path id="Path_608607" data-name="Path 608607" d="M396.068,63.648c-3.032.128-7.956.327-10.1-1.753,3.06-2.678,5.029-2.988,7.353-2.568s2.745,4.321,2.745,4.321" transform="translate(-180.953 -27.742)" fill="#263238"/>
              <g id="Group_1071531" data-name="Group 1071531" transform="translate(211.344 35.448)" opacity="0.5">
                <g id="Group_1071530" data-name="Group 1071530">
                  <g id="Group_1071529" data-name="Group 1071529" clip-path="url(#clip-path-13)">
                    <path id="Path_608608" data-name="Path 608608" d="M398.443,66.834a4.53,4.53,0,0,0,2.191,6.32,8.7,8.7,0,0,0,.947-6.419Z" transform="translate(-397.882 -66.735)" fill="#263238"/>
                  </g>
                </g>
              </g>
              <path id="Path_608609" data-name="Path 608609" d="M401.925,78.728a4.2,4.2,0,0,1-2.414,1.471c-1.205.219-1.489-.9-.888-1.984.542-.978,1.822-2.272,2.9-2,1.065.27,1.171,1.562.4,2.511" transform="translate(-186.742 -35.715)" fill="#7f3e3b"/>
              <path id="Path_608610" data-name="Path 608610" d="M391.876,72.86c-.073.309-.3.527-.5.487s-.309-.325-.236-.634.3-.527.5-.487.309.325.236.634" transform="translate(-183.366 -33.86)" fill="#263238"/>
              <path id="Path_608611" data-name="Path 608611" d="M385.248,71.536c-.073.309-.3.527-.5.487s-.31-.325-.236-.634.3-.527.5-.487.309.325.236.634" transform="translate(-180.258 -33.239)" fill="#263238"/>
              <path id="Path_608612" data-name="Path 608612" d="M386.093,72.811a11.876,11.876,0,0,1-2.112,2.348,1.806,1.806,0,0,0,1.422.575Z" transform="translate(-180.021 -34.136)" fill="#630f0f"/>
              <path id="Path_608613" data-name="Path 608613" d="M388.3,79.638a2.734,2.734,0,0,0,2.041-.658.093.093,0,0,0-.13-.133,2.615,2.615,0,0,1-2.241.557.093.093,0,1,0-.037.183,3.126,3.126,0,0,0,.367.052" transform="translate(-181.836 -36.953)" fill="#263238"/>
              <path id="Path_608614" data-name="Path 608614" d="M394.1,69.689a.186.186,0,0,0,.184-.263,1.791,1.791,0,0,0-1.317-1.051.183.183,0,0,0-.208.161.186.186,0,0,0,.161.209,1.422,1.422,0,0,1,1.025.837.187.187,0,0,0,.155.108" transform="translate(-184.133 -32.054)" fill="#263238"/>
              <path id="Path_608615" data-name="Path 608615" d="M383.767,67.683a.188.188,0,0,0,.172-.03,1.562,1.562,0,0,1,1.34-.318.187.187,0,0,0,.114-.355h0a1.923,1.923,0,0,0-1.682.379.187.187,0,0,0,.057.325" transform="translate(-179.86 -31.375)" fill="#263238"/>
            </g>
          </g>
        </g>
      </g>
      <path id="Path_609183" data-name="Path 609183" d="M28.166,0H16.778V-36.252L5.593-32.984v-8.625l21.529-7.446h1.044Zm83.218-20.046q0,9.939-4.464,15.33T94.336.674q-8.187,0-12.668-5.424t-4.481-15.3v-8.962q0-9.939,4.464-15.33t12.617-5.391q8.153,0,12.634,5.424t4.481,15.33ZM100.03-30.457q0-5.29-1.381-7.9a4.617,4.617,0,0,0-4.38-2.611,4.508,4.508,0,0,0-4.262,2.426q-1.331,2.426-1.432,7.345v12.533q0,5.492,1.381,8.035a4.635,4.635,0,0,0,4.38,2.544,4.573,4.573,0,0,0,4.279-2.476q1.381-2.476,1.415-7.766Zm85.677,10.411q0,9.939-4.464,15.33T168.659.674q-8.187,0-12.668-5.424t-4.481-15.3v-8.962q0-9.939,4.464-15.33t12.617-5.391q8.153,0,12.634,5.424t4.481,15.33ZM174.353-30.457q0-5.29-1.381-7.9a4.617,4.617,0,0,0-4.38-2.611,4.508,4.508,0,0,0-4.262,2.426Q163-36.117,162.9-31.2v12.533q0,5.492,1.381,8.035a4.635,4.635,0,0,0,4.38,2.544,4.573,4.573,0,0,0,4.279-2.476q1.381-2.476,1.415-7.766Z" transform="translate(-2933 -8130)" fill="#12263f"/>
      <g id="Group_1071608" data-name="Group 1071608" transform="translate(-13)">
        <rect id="Rectangle_377665" data-name="Rectangle 377665" width="421" height="158" rx="36" transform="translate(-3046 -8088)" fill="#f6f6f6"/>
        <rect id="Rectangle_377663" data-name="Rectangle 377663" width="421" height="159" rx="36" transform="translate(-3046 -7912)" fill="#e1f5d6"/>
        <rect id="Rectangle_377664" data-name="Rectangle 377664" width="421" height="122" rx="36" transform="translate(-3046 -7742)" fill="#dee9f0"/>
        <text id="Primer_nmero_que_indica_la_versin_mayor._Se_modifica_cuando_hay_una_serie_de_cambios_significativos_que_convierten_al_elemento_incompatible_con_versiones_anteriores._Si_es_cero_se_entiende_que_an_no_est_listo_no_cumple_con_los_requisitos._" data-name="Primer nmero que indica la versin mayor.
Se modifica cuando hay una serie de cambios significativos, que convierten al elemento incompatible con versiones anteriores. Si es cero, se entiende que an no est listo, no cumple con los requisitos.
" transform="translate(-3021 -8073)" fill="#12263f" font-size="16" font-family="Roboto-Bold, Roboto" font-weight="700"><tspan x="0" y="15">Primer nmero que indica la versin mayor.</tspan><tspan font-family="Roboto-Regular, Roboto" font-weight="400"><tspan x="0" y="35">Se modifica cuando hay una serie de cambios </tspan><tspan x="0" y="55">significativos, que convierten al elemento </tspan><tspan x="0" y="75">incompatible con versiones anteriores. Si es cero, </tspan><tspan x="0" y="95">se entiende que an no est listo, no cumple con </tspan><tspan x="0" y="115">los requisitos.</tspan></tspan></text>
        <text id="Segundo_nmero_se_refiere_a_la_versin_menor_indica_cambios_importantes_en_el_documento_pero_no_tanto_para_considerarlo_distinto._Cuando_se_hace_un_cambio_en_la_versin_mayor_el_contador_vuelve_a_cero_y_se_deja_indicado_Documento_2.0_._" data-name="Segundo nmero,  se refiere a la versin menor, indica cambios importantes en el documento, pero no tanto para considerarlo distinto. Cuando se hace un cambio en la versin mayor el contador vuelve a cero, y se deja indicado Documento 2.0.
" transform="translate(-3019 -7886)" fill="#12263f" font-size="16" font-family="Roboto-Bold, Roboto" font-weight="700"><tspan x="0" y="15" xml:space="preserve">Segundo nmero,  </tspan><tspan y="15" font-family="Roboto-Regular, Roboto" font-weight="400">se refiere a la versin menor, </tspan><tspan x="0" y="35" font-family="Roboto-Regular, Roboto" font-weight="400">indica cambios importantes en el documento, pero </tspan><tspan x="0" y="55" font-family="Roboto-Regular, Roboto" font-weight="400">no tanto para considerarlo distinto. Cuando se hace </tspan><tspan x="0" y="75" font-family="Roboto-Regular, Roboto" font-weight="400">un cambio en la versin mayor el contador vuelve a </tspan><tspan x="0" y="95" font-family="Roboto-Regular, Roboto" font-weight="400">cero, y se deja indicado Documento 2.0.</tspan></text>
        <text id="El_tercer_nmero_se_refiere_a_una_versin_menor_son_correcciones_o_cambios_menores_que_no_alteran_en_especial_al_elemento._" data-name="El tercer nmero se refiere a una versin menor, son correcciones o cambios menores que no alteran en especial al elemento.
" transform="translate(-3024 -7718)" fill="#12263f" font-size="16" font-family="Roboto-Bold, Roboto" font-weight="700"><tspan x="0" y="15">El tercer nmero</tspan><tspan y="15" xml:space="preserve" font-family="Roboto-Regular, Roboto" font-weight="400"> se refiere a una versin menor, </tspan><tspan x="0" y="35" font-family="Roboto-Regular, Roboto" font-weight="400">son correcciones o cambios menores que no </tspan><tspan x="0" y="55" font-family="Roboto-Regular, Roboto" font-weight="400">alteran en especial al elemento.</tspan><tspan font-family="Roboto-Regular, Roboto" font-weight="400"><tspan x="0" y="75"></tspan></tspan></text>
      </g>
      <path id="Path_608892" data-name="Path 608892" d="M-2928.128-7812.951h-79.951v63.12" transform="translate(0 -338)" fill="none" stroke="#727997" stroke-width="2" stroke-dasharray="5"/>
      <path id="Path_608893" data-name="Path 608893" d="M-2825.821-8124.24v15.63h-244.6v233.662h24.625" transform="translate(-11.724)" fill="none" stroke="#727997" stroke-width="2" stroke-dasharray="3"/>
      <path id="Path_608894" data-name="Path 608894" d="M-2763.306-8128.151v19.537h144.573v396.209h-20.318" fill="none" stroke="#727997" stroke-width="2" stroke-dasharray="3"/>
    </g>
  </g>
</svg>
