<svg xmlns="http://www.w3.org/2000/svg" xmlns:xlink="http://www.w3.org/1999/xlink" width="141" height="141" viewBox="0 0 141 141">
  <defs>
    <clipPath id="clip-path">
      <rect id="Rectangle_375713" data-name="Rectangle 375713" width="91.852" height="90.388" fill="none"/>
    </clipPath>
  </defs>
  <g id="Group_1071490" data-name="Group 1071490" transform="translate(-269 -958)">
    <circle id="Ellipse_5614" data-name="Ellipse 5614" cx="70.5" cy="70.5" r="70.5" transform="translate(269 958)" fill="#304c8e"/>
    <g id="Group_1071496" data-name="Group 1071496" transform="translate(296.019 986.204)">
      <g id="Group_1071495" data-name="Group 1071495" clip-path="url(#clip-path)">
        <path id="Path_608465" data-name="Path 608465" d="M46.7,54.558q-11.852,0-23.7,0c-1.246,0-2.491-.049-3.737-.061a5.082,5.082,0,0,1-3.653-1.729,6.1,6.1,0,0,1-1.647-4.5q.014-15.614.007-31.228,0-5.332,0-10.664A6.4,6.4,0,0,1,14.6,3.246,5.682,5.682,0,0,1,19.847.019C25.553,0,31.259.006,36.965.006q18.648,0,37.3-.006A5.2,5.2,0,0,1,79.3,3.738a5.05,5.05,0,0,1,.154,1.216q.036,4.97.042,9.941,0,16.506,0,33.013a6.794,6.794,0,0,1-.792,3.765A5.341,5.341,0,0,1,74.1,54.5c-4.375.051-8.75.054-13.125.062q-7.136.014-14.273,0M16.83,16.224v.293q0,16.318.005,32.636a1.754,1.754,0,0,0,.139.654,2.963,2.963,0,0,0,3.037,1.92q25.98-.023,51.959-.015c.764,0,1.531.011,2.292-.05a2.8,2.8,0,0,0,2.389-2.633q0-16.17,0-32.34c0-.149-.014-.3-.022-.465Zm59.8-2.91c.006-.087.016-.155.016-.222,0-2.762.007-5.523-.01-8.285a1.738,1.738,0,0,0-.235-.8,2.289,2.289,0,0,0-2.134-1.215q-27.185,0-54.371,0a3.7,3.7,0,0,0-.754.088,3.037,3.037,0,0,0-2.333,2.943c.064,2.349.017,4.7.017,7.052v.434Z" transform="translate(-9.201 0)" fill="#fff"/>
        <path id="Path_608466" data-name="Path 608466" d="M30.763,181.487a15.919,15.919,0,0,1,2.369-5,11.5,11.5,0,0,1,7.187-4.453,19.771,19.771,0,0,1,3.922-.349c2.733.021,5.466,0,8.2.014a11.2,11.2,0,0,1,1.726.163q3.493.572,6.98,1.183c1.892.334,3.776.714,5.667,1.049,1.976.35,3.958.669,5.937,1,.247.042.491.1.764.161,0-.644,0-1.261,0-1.877a1.47,1.47,0,0,1,1.656-1.677c2.9-.018,5.806-.012,8.709-.013,1.954,0,3.909,0,5.863,0a3.928,3.928,0,0,1,.883.089,1.48,1.48,0,0,1,1.209,1.653q0,12.663,0,25.325c0,.581.017,1.161.015,1.742a1.293,1.293,0,0,1-1.227,1.405,5.167,5.167,0,0,1-.678.033q-7.074,0-14.147,0a9.362,9.362,0,0,1-1.185-.069,1.1,1.1,0,0,1-1.07-1.112c-.044-.89-.047-1.783-.036-2.675,0-.337-.107-.458-.441-.516a17.626,17.626,0,0,0-7.33.174c-2.577.636-5.148,1.3-7.722,1.945q-4.744,1.2-9.487,2.392c-1.518.386-3.025.816-4.547,1.187a8.9,8.9,0,0,1-4.7-.1A16.535,16.535,0,0,1,36.336,202Q27.15,197.191,18,192.311c-4.759-2.525-9.508-5.068-14.271-7.586a6.67,6.67,0,0,1-3.69-5.273,5.237,5.237,0,0,1,1.182-3.843,6.4,6.4,0,0,1,7.348-2.1q10.982,3.969,21.97,7.923c.064.023.132.034.226.057m2.695,1.084c.21,0,.363,0,.517,0,1.656-.032,3.312-.069,4.968-.1q5.967-.109,11.934-.209a1.4,1.4,0,0,1,1.58,1.48c.007.866-.525,1.367-1.513,1.389-2.887.064-5.775.115-8.662.178-3.3.073-6.6.141-9.893.24a1.735,1.735,0,0,1-1.615-.89.757.757,0,0,0-.331-.292c-.807-.3-1.624-.572-2.434-.862Q22.5,181.532,17,179.551c-3.232-1.158-6.468-2.306-9.7-3.468a3.2,3.2,0,0,0-2.355,0A3.083,3.083,0,0,0,3.537,181a5.338,5.338,0,0,0,1.607,1.286q8.731,4.674,17.494,9.29,4.965,2.631,9.932,5.261c1.812.959,3.6,1.967,5.45,2.848a9.62,9.62,0,0,0,2.858.867,9.79,9.79,0,0,0,3.853-.345c2.682-.737,5.391-1.376,8.088-2.06,2.464-.625,4.924-1.262,7.389-1.885,1.561-.394,3.128-.767,4.691-1.156a18,18,0,0,1,8.479-.305.575.575,0,0,0,.158-.009V178.253c-.395-.093-.775-.2-1.162-.27-1.96-.355-3.921-.7-5.881-1.048-3.059-.547-6.124-1.066-9.176-1.651a37.738,37.738,0,0,0-8.815-.757c-1.994.088-3.992.084-5.988.113A8.9,8.9,0,0,0,35,178.563a8.209,8.209,0,0,0-1.541,4.008m55.477-7.9H76.343v24.371H88.934Z" transform="translate(0 -113.145)" fill="#fff"/>
        <path id="Path_608467" data-name="Path 608467" d="M110.976,108.17q-6.985,0-13.97-.007A7.1,7.1,0,0,1,95.495,108a1.189,1.189,0,0,1-.875-1.173,1.216,1.216,0,0,1,.682-1.3,5.02,5.02,0,0,1,1.564-.29q13.886-.024,27.771,0a6.561,6.561,0,0,1,1.551.159,1.324,1.324,0,0,1,.978,1.456,1.252,1.252,0,0,1-1.123,1.243,5.082,5.082,0,0,1-.928.072q-7.07.007-14.14,0Z" transform="translate(-62.354 -69.35)" fill="#fff"/>
        <path id="Path_608468" data-name="Path 608468" d="M123.489,66.468q-6.009,0-12.018-.005a3,3,0,0,1-.874-.128,1.314,1.314,0,0,1-.878-1.316,1.242,1.242,0,0,1,.965-1.278,4.276,4.276,0,0,1,1-.13q11.742-.012,23.483-.007a4.449,4.449,0,0,1,.676.058,1.37,1.37,0,0,1,1.274,1.516,1.33,1.33,0,0,1-1.489,1.29q-4.459.005-8.918,0h-3.227" transform="translate(-72.308 -41.915)" fill="#fff"/>
        <path id="Path_608469" data-name="Path 608469" d="M123.443,80.968q6.075,0,12.15,0a1.383,1.383,0,0,1,1.445,1.832,1.246,1.246,0,0,1-1.06.969,3.31,3.31,0,0,1-.635.042q-11.938,0-23.876,0a2.87,2.87,0,0,1-.838-.092,1.385,1.385,0,0,1-.887-1.522,1.324,1.324,0,0,1,1.3-1.226c.977-.016,1.954,0,2.931,0h9.474" transform="translate(-72.313 -53.358)" fill="#fff"/>
        <path id="Path_608470" data-name="Path 608470" d="M81.7,122.5q-4.716,0-9.43,0c-.283,0-.566-.013-.847-.039a1.213,1.213,0,0,1-1.229-1.249,1.316,1.316,0,0,1,1.159-1.467,5.7,5.7,0,0,1,.846-.058q9.43-.009,18.86-.009c1.082,0,1.522.283,1.763,1.106a1.3,1.3,0,0,1-1.142,1.673c-.748.038-1.5.026-2.249.027q-3.865,0-7.731,0v.017" transform="translate(-46.256 -78.872)" fill="#fff"/>
        <path id="Path_608471" data-name="Path 608471" d="M39.006,133.873c2.577,0,5.154-.007,7.732.009a2.5,2.5,0,0,1,.984.194,1.328,1.328,0,0,1,.783,1.538,1.293,1.293,0,0,1-1.191,1.14,4.514,4.514,0,0,1-.718.054q-7.456,0-14.912,0a9,9,0,0,1-1.186-.073,1.245,1.245,0,0,1-1.159-1.108c-.066-.858.217-1.395.934-1.595a4.98,4.98,0,0,1,1.3-.148c2.478-.013,4.956-.006,7.434-.006Z" transform="translate(-19.329 -88.225)" fill="#fff"/>
        <path id="Path_608472" data-name="Path 608472" d="M38.538,108.176H31.528c-.241,0-.482,0-.722-.016-1.172-.078-1.615-.607-1.484-1.775a1.029,1.029,0,0,1,.769-.922,4.762,4.762,0,0,1,1.288-.213q7.094-.02,14.189,0a6.5,6.5,0,0,1,1.472.149,1.288,1.288,0,0,1,1.025,1.456,1.369,1.369,0,0,1-1.2,1.237,8.592,8.592,0,0,1-1.184.081c-2.379.007-4.758,0-7.137,0" transform="translate(-19.31 -69.355)" fill="#fff"/>
        <path id="Path_608473" data-name="Path 608473" d="M102.929,136.812c-1.982,0-3.964,0-5.946,0-.339,0-.679-.023-1.016-.056a1.409,1.409,0,0,1-.092-2.809,6.481,6.481,0,0,1,.972-.063q6.2-.007,12.4,0a4.563,4.563,0,0,1,.551.017,1.444,1.444,0,0,1,1.282,1.995,1.164,1.164,0,0,1-1.064.848,6.908,6.908,0,0,1-1.015.072c-2.024.006-4.049,0-6.073,0Z" transform="translate(-62.357 -88.23)" fill="#fff"/>
        <path id="Path_608474" data-name="Path 608474" d="M32.757,64.685c1.283,1.309,2.54,2.552,3.749,3.84a1.377,1.377,0,0,1-.639,2.3,1.215,1.215,0,0,1-1.25-.318c-.372-.347-.725-.714-1.085-1.074-1.2-1.2-2.376-2.427-3.61-3.591a1.538,1.538,0,0,1,.045-2.321c1.582-1.433,3.077-2.962,4.61-4.449a1.289,1.289,0,0,1,1.981-.114,1.226,1.226,0,0,1,.214,1.8,5.987,5.987,0,0,1-.742.812c-1.025.974-2.061,1.938-3.09,2.908a2.436,2.436,0,0,0-.182.206" transform="translate(-19.385 -38.584)" fill="#fff"/>
        <path id="Path_608475" data-name="Path 608475" d="M81.889,64.839c-.119-.125-.213-.228-.311-.327-1.066-1.075-2.136-2.148-3.2-3.228a3.1,3.1,0,0,1-.418-.532,1.342,1.342,0,0,1,1.91-1.806,4.825,4.825,0,0,1,.61.525q2.082,2.063,4.156,4.133a1.456,1.456,0,0,1,.017,2.44q-2.194,2.219-4.412,4.416a1.4,1.4,0,0,1-2.417-.45.916.916,0,0,1,.044-.968,7.856,7.856,0,0,1,.748-.916c1.07-1.091,2.155-2.168,3.272-3.288" transform="translate(-51.213 -38.663)" fill="#fff"/>
        <path id="Path_608476" data-name="Path 608476" d="M61.73,55.828c-.179.7-.4,1.578-.627,2.452q-1.133,4.365-2.271,8.729c-.124.477-.244.955-.37,1.431a1.448,1.448,0,0,1-2.27.942,1.179,1.179,0,0,1-.482-1.345c.358-1.408.756-2.806,1.124-4.212.339-1.3.658-2.6.991-3.893q.606-2.357,1.223-4.711a1.361,1.361,0,0,1,1.5-.912,1.429,1.429,0,0,1,1.183,1.519" transform="translate(-36.682 -35.78)" fill="#fff"/>
        <path id="Path_608477" data-name="Path 608477" d="M153.042,122.506q-2.822,0-5.644,0a6.41,6.41,0,0,1-.677-.036,1.375,1.375,0,0,1-.041-2.732,5.056,5.056,0,0,1,.717-.059q5.645-.007,11.29,0a3.977,3.977,0,0,1,.759.065,1.31,1.31,0,0,1,1.075,1.534,1.183,1.183,0,0,1-1.2,1.183c-.577.043-1.158.025-1.737.026q-2.271,0-4.541,0v.021" transform="translate(-95.873 -78.868)" fill="#fff"/>
        <path id="Path_608478" data-name="Path 608478" d="M161.181,136.75c-1.528,0-3.056,0-4.584,0a1.409,1.409,0,0,1-1.157-2.178,1.44,1.44,0,0,1,1.054-.626,5.922,5.922,0,0,1,1.014-.069c2.435-.007,4.87-.013,7.3,0a4.41,4.41,0,0,1,1.211.159,1.211,1.211,0,0,1,.917,1.354,1.18,1.18,0,0,1-.933,1.295,3.078,3.078,0,0,1-.876.12c-1.317.012-2.633.005-3.95.005v-.058" transform="translate(-102.291 -88.223)" fill="#fff"/>
        <path id="Path_608479" data-name="Path 608479" d="M34.739,122.466c-1.386,0-2.773.026-4.158-.007-1.337-.032-1.421-1.133-1.17-2.014a.991.991,0,0,1,.809-.677,4.063,4.063,0,0,1,.8-.092q3.587-.01,7.175,0a4.425,4.425,0,0,1,.633.049A1.218,1.218,0,0,1,40,121.069c-.01.838-.416,1.353-1.23,1.38-1.342.044-2.687.012-4.031.012v.006" transform="translate(-19.309 -78.866)" fill="#fff"/>
        <path id="Path_608480" data-name="Path 608480" d="M61.607,16.244A4.266,4.266,0,0,1,65.6,12.236a4.214,4.214,0,0,1,4.048,3.979,4.018,4.018,0,1,1-8.036.03m4.047,1.146a1.286,1.286,0,0,0,1.182-1.106,1.378,1.378,0,0,0-1.2-1.217,1.358,1.358,0,0,0-1.184,1.075,1.179,1.179,0,0,0,1.2,1.248" transform="translate(-40.601 -8.064)" fill="#fff"/>
        <path id="Path_608481" data-name="Path 608481" d="M36.285,20.3A4.2,4.2,0,0,1,32.2,16.42a4,4,0,0,1,7.992-.219,4.136,4.136,0,0,1-3.9,4.1M36.1,17.445a1.454,1.454,0,0,0,1.317-1.155,1.433,1.433,0,0,0-1.186-1.162,1.458,1.458,0,0,0-1.294,1.2,1.549,1.549,0,0,0,1.163,1.12" transform="translate(-21.216 -8.116)" fill="#fff"/>
      </g>
    </g>
  </g>
</svg>
