<svg xmlns="http://www.w3.org/2000/svg" xmlns:xlink="http://www.w3.org/1999/xlink" width="190" height="190" viewBox="0 0 190 190">
  <defs>
    <clipPath id="clip-path">
      <rect id="Rectangle_377667" data-name="Rectangle 377667" width="190" height="190" transform="translate(285 500)" fill="#fff" stroke="#707070" stroke-width="1"/>
    </clipPath>
    <clipPath id="clip-path-2">
      <rect id="Rectangle_377397" data-name="Rectangle 377397" width="153.397" height="153.463" fill="none"/>
    </clipPath>
  </defs>
  <g id="Mask_Group_104" data-name="Mask Group 104" transform="translate(-285 -500)" clip-path="url(#clip-path)">
    <g id="Group_1017015" data-name="Group 1017015" transform="translate(303 518)">
      <g id="Group_1017014" data-name="Group 1017014" clip-path="url(#clip-path-2)">
        <path id="Path_608421" data-name="Path 608421" d="M246.637,49.882c.022,14.111.081,28.221.04,42.332-.011,3.711-2.607,6-6.6,6.025-7.654.042-15.308.01-22.962.021-.873,0-1.746.084-2.619.129-2.542-.021-5.095.09-7.624-.1-2.041-.155-2.48.59-2.463,2.527.082,9.455.008,18.912-.012,28.368a1.178,1.178,0,0,1-.371-.226c.035-9.71.046-19.42.13-29.131.013-1.553-.821-1.6-1.962-1.593-5.016.025-10.035-.08-15.047.044-3.034.075-5.451-.828-7.183-3.366-.947-3.308-.139-6.709-.526-10.046q.054-15.212.11-30.424c.006-1.516.047-3.032.071-4.548l67.017-.009M227.97,74.423a49.077,49.077,0,0,1-5.04,2.482c-2.419.858-3.118,2.412-2.38,5.014,3.838-1.962,7.69-3.824,11.426-5.9a1.728,1.728,0,0,0,.109-3.118c-3.426-2-7.025-3.711-10.556-5.535-.774-.4-1.145-.213-1.22.7-.125,1.529.047,2.723,1.775,3.4,1.887.738,3.644,1.808,5.886,2.95M205.681,81.9c.818-2.655-.015-4.156-2.386-5.027a51.745,51.745,0,0,1-4.975-2.473c2.462-1.255,4.394-2.346,6.413-3.237,1.788-.79,1.479-2.414,1.061-3.456-.562-1.4-1.618.017-2.277.329-3.022,1.429-5.976,3.005-8.923,4.589-1.436.772-1.65,2.671-.319,3.392,3.759,2.036,7.6,3.931,11.406,5.884m4.508.482c1.308.3,1.994-.338,2.455-1.568,1.849-4.924,3.773-9.819,5.645-14.733.807-2.118.51-2.378-1.722-2.266-1.348.067-1.494,1.019-1.821,1.862-1.931,4.978-3.8,9.98-5.753,14.95-.505,1.285-.519,2.02,1.2,1.756" transform="translate(-93.361 -25.953)" fill="#5a6aaf"/>
        <path id="Path_608422" data-name="Path 608422" d="M39.291,75.012c-1.583-3.56-4.152-6.331-6.8-9.144-6.218-6.6-8.387-14.483-5.6-23.207,2.892-9.037,9.217-14.527,18.661-16.174A23.294,23.294,0,0,1,70.261,38.994,23.534,23.534,0,0,1,65.995,66.01c-1.948,1.979-4.21,3.7-5.248,6.423-.792.637-.868,1.662-1.343,2.471l-8.309,0c0-4.47.019-8.94-.022-13.409a2.415,2.415,0,0,1,1.305-2.5,6.148,6.148,0,0,0,2.927-7.382,6.219,6.219,0,0,0-11.955.145,6.144,6.144,0,0,0,3.082,7.312,2.348,2.348,0,0,1,1.374,2.422c-.068,4.469-.035,8.939-.04,13.409l-8.475.113M31.737,49.291c.057.691.189,1.584,1.328,1.73,1.189.153,1.742-.46,1.9-1.614a23.756,23.756,0,0,1,.714-3.983A13.858,13.858,0,0,1,48.17,35.545c1.227-.1,2.615-.159,2.644-1.764.028-1.552-1.26-1.542-2.435-1.541-8.658.006-16.809,8.239-16.641,17.052" transform="translate(-13.368 -13.603)" fill="#ffae3a"/>
        <path id="Path_608423" data-name="Path 608423" d="M215.548,208.107a1.158,1.158,0,0,0,.371.225c.943,1.32,2.276,2.662,3.8,2.029,1.9-.788,4.664-.758,4.952-3.934.135-1.494.22-3.184,1.447-4.4,2.235.01,4.477.117,6.7-.006a1.925,1.925,0,0,1,2.331,1.747c.142.7.337,1.4.491,2.1.855,3.893,4.32,5.366,7.774,3.3,3.372-2.017,3.372-2.017,6.146.753,3.63,3.624,3.63,3.624,1.066,8.194-1.073,1.912.662,5.909,2.777,6.4,4.867,1.125,4.867,1.125,4.867,6.03,0,4.442,0,4.442-4.27,5.5a4.95,4.95,0,0,0-2.983,7.315c2.239,3.7,2.239,3.7-.792,6.729-3.47,3.466-3.47,3.466-7.671,1.01-2.175-1.272-6.189.372-6.8,2.784-1.188,4.695-1.188,4.7-6.093,4.692-1.436,0-2.872-.047-4.308-.073-.233-1.161-.426-2.331-.7-3.482-1.034-4.309-4.48-5.714-8.324-3.413a10.182,10.182,0,0,0-1.2.757c-1.178.954-2.148.96-3.2-.295a29.349,29.349,0,0,0-3.7-3.692,1.949,1.949,0,0,1-.413-3c2.259-2.307,2.9-4.765,1.116-7.74-1.358-2.266-3.577-1.862-5.576-2.246l-.233-.044c-2.413-.665-1.27-2.636-1.3-3.994-.132-5.473-.055-5.475,5.171-6.891,1.829-.5,3.531-4.542,2.66-6.223-.827-1.594-2.828-3.072-2.362-4.7.445-1.55,2.375-2.675,3.653-3.986a3.48,3.48,0,0,0,.507-.5,2.623,2.623,0,0,1,4.1-.935m-.091,22.23a14.578,14.578,0,0,0,14.469,14.73,14.825,14.825,0,0,0,14.847-14.693,14.568,14.568,0,0,0-14.814-14.62,14.335,14.335,0,0,0-14.5,14.583" transform="translate(-104.88 -105.106)" fill="#ffae3a"/>
        <path id="Path_608424" data-name="Path 608424" d="M127.78,217.055l.233.044c2,.385,4.219-.019,5.576,2.246,1.783,2.975,1.143,5.433-1.115,7.738a7.4,7.4,0,0,0-3.077-.232q-36.314-.032-72.629-.038.024-29.968.047-59.937a6.134,6.134,0,0,0,4.221,1.339c1.915-.034,3.831.018,5.747.033.013,15.5.068,31-.008,46.5-.01,2.029.563,2.486,2.522,2.453,7.269-.124,14.541-.038,21.812-.052q18.335-.035,36.67-.094" transform="translate(-29.536 -86.824)" fill="#2c393c"/>
        <path id="Path_608425" data-name="Path 608425" d="M50.293,291.812q36.314.014,72.629.038a7.4,7.4,0,0,1,3.077.232,1.951,1.951,0,0,0,.412,3.006,29.356,29.356,0,0,1,3.7,3.692c1.055,1.255,2.025,1.248,3.2.295a10.153,10.153,0,0,1,1.2-.757c3.844-2.3,7.29-.9,8.324,3.413.276,1.15.47,2.321.7,3.482q-46.005.012-92.012.012c-4.338,0-6.954-2.7-7-7.049-.02-1.835-.577-4.032.23-5.409.859-1.464,3.237-.273,4.91-.632a2.67,2.67,0,0,0,.625-.323" transform="translate(-23.061 -151.823)" fill="#4f686d"/>
        <path id="Path_608426" data-name="Path 608426" d="M246.75,36.844l-67.017.009c-.027-1.914-.1-3.828-.073-5.741.051-3.945,2.306-6.25,6.242-6.268,8.78-.04,17.56-.014,26.34-.014q13.528,0,27.058.005c4.988.009,7.508,2.526,7.515,7.463,0,1.515-.042,3.03-.065,4.546m-13.344-5.9c-.19-1.027-.682-1.734-1.846-1.733a1.619,1.619,0,0,0-1.77,1.77,1.578,1.578,0,0,0,1.682,1.613,1.738,1.738,0,0,0,1.934-1.65m-7.744-.185c-.3-.908-.813-1.631-1.974-1.542a1.615,1.615,0,0,0-1.633,1.883,1.582,1.582,0,0,0,1.778,1.5c1.159-.038,1.67-.689,1.829-1.84M239.43,32.6a1.5,1.5,0,0,0,1.614-1.658,1.556,1.556,0,0,0-1.8-1.725,1.5,1.5,0,0,0-1.605,1.665c-.017,1.2.641,1.719,1.793,1.718" transform="translate(-93.473 -12.914)" fill="#244290"/>
        <path id="Path_608427" data-name="Path 608427" d="M60.9,147.9c-1.915-.014-3.832-.066-5.746-.032a6.135,6.135,0,0,1-4.221-1.339c-.85-2.07-.413-4.246-.528-6.378-.036-.672.218-1.455-.814-1.717a4.973,4.973,0,0,1-4.13-5.335c.009-2.847,1.8-4.218,4.115-5.212l8.475-.114,3.33,0,8.308,0c3.923,1.916,4.587,3.17,4.045,7.641-.873.8-1.388,2.2-2.558,2.418-2.591.476-2.663,2.171-2.475,4.173a16.391,16.391,0,0,1,0,2.149c-.085,2.248-1.136,3.248-3.369,3.411-1.478.107-3.005-.411-4.434.33" transform="translate(-23.652 -66.481)" fill="#244290"/>
        <path id="Path_608428" data-name="Path 608428" d="M100.01,132.749c.542-4.47-.122-5.725-4.045-7.641.475-.809.552-1.834,1.343-2.471l38.7.08c.386,3.337-.422,6.737.525,10.046l-36.524-.013" transform="translate(-49.93 -63.807)" fill="#2c393c"/>
        <path id="Path_608429" data-name="Path 608429" d="M241.673,175.352c-1.228,1.216-1.312,2.906-1.447,4.4-.287,3.175-3.053,3.146-4.952,3.934-1.525.633-2.858-.709-3.8-2.029.019-9.455.093-18.912.011-28.367-.017-1.937.422-2.682,2.463-2.527,2.529.192,5.082.082,7.624.1q.051,12.244.1,24.487" transform="translate(-120.433 -78.431)" fill="#2c393c"/>
        <path id="Path_608430" data-name="Path 608430" d="M14.411,180.346C14,177.15,12.2,175.381,9,174.738c3.224-.766,5.06-2.593,5.321-5.946.72,3.191,2.16,5.46,5.812,5.882-3.408.552-5.216,2.425-5.726,5.672" transform="translate(-4.685 -87.821)" fill="#ffae3a"/>
        <path id="Path_608431" data-name="Path 608431" d="M74.857,3.1a9.7,9.7,0,0,1-.2,1.688,1.56,1.56,0,0,1-1.953,1.292c-1.429-.36-1.361-1.611-1.333-2.711.033-1.285-.386-2.88,1.46-3.323a1.489,1.489,0,0,1,1.784,1.218A11.324,11.324,0,0,1,74.857,3.1" transform="translate(-37.125 0)" fill="#ffae3a"/>
        <path id="Path_608432" data-name="Path 608432" d="M2.976,67.912C1.6,67.833-.064,67.99,0,66.057c.059-1.75,1.656-1.617,2.9-1.619,1.318,0,3.043-.2,3.061,1.7S4.249,67.8,2.976,67.912" transform="translate(0 -33.523)" fill="#ffae3a"/>
        <path id="Path_608433" data-name="Path 608433" d="M16.326,26.1a1.719,1.719,0,0,1,1.628-1.726c.941-.085,3.553,2.453,3.6,3.475a1.687,1.687,0,0,1-1.487,1.854c-.97.189-3.705-2.513-3.74-3.6" transform="translate(-8.494 -12.682)" fill="#ffae3a"/>
        <path id="Path_608434" data-name="Path 608434" d="M140.55,67.444c-1.243-.114-3.063.394-2.98-1.651.074-1.84,1.775-1.642,3.115-1.666,1.318-.024,2.844.033,2.888,1.679.055,2.047-1.745,1.53-3.023,1.637" transform="translate(-71.575 -33.364)" fill="#ffae3a"/>
        <path id="Path_608435" data-name="Path 608435" d="M126.4,24.152a1.771,1.771,0,0,1,1.522,1.743c.011.991-2.533,3.5-3.526,3.512a1.49,1.49,0,0,1-1.674-1.321c-.189-1.114,2.442-3.98,3.678-3.934" transform="translate(-63.849 -12.566)" fill="#ffae3a"/>
        <path id="Path_608436" data-name="Path 608436" d="M152.662,184.386c.771,2.551-.267,3.688-2.854,4.176-2.914.549-3.933,3.37-2.534,5.928.5.916,1.883,1.81,1.076,2.912a13.5,13.5,0,0,1-4.269,4.107c-.849.455-1.706-.628-2.508-1.1-2.649-1.547-5.26-.48-6.182,2.419-.314.989.045,2.651-1.291,2.836a19.69,19.69,0,0,1-5.939-.1c-.819-.14-.775-1.619-.995-2.52-.759-3.114-3.5-4.279-6.249-2.683-.838.486-1.7,1.784-2.684,1.012a25.993,25.993,0,0,1-4.3-4.448c-.215-.274.709-1.476,1.151-2.222,1.667-2.813.619-5.473-2.454-6.4-.925-.279-2.494.164-2.645-1.1a23.287,23.287,0,0,1,.142-6.169c.1-.68,1.5-.651,2.338-.832,3.18-.686,4.539-3.541,2.672-6.154-1.4-1.962-1.087-3.164.628-4.7,2.754-2.464,2.679-2.622,5.926-.754a2.845,2.845,0,0,0,2.668.083c1.658-.565,2.759-1.354,2.863-3.281.107-1.984,1.181-2.951,3.272-2.555a4.987,4.987,0,0,0,1.671,0c1.9-.3,2.785.363,3.212,2.377.8,3.766,3.414,4.836,6.573,2.691,1.712-1.162,2.778-.972,3.876.582a2.932,2.932,0,0,0,.688.662c2.137,1.528,2.378,3.123.684,5.3-1.444,1.857-.1,5.267,2.2,5.569,2.782.366,4.072,1.47,3.267,4.356m-12.949.048a8.516,8.516,0,0,0-8.338-8.669,8.638,8.638,0,0,0-8.611,8.473,8.5,8.5,0,0,0,8.3,8.468,8.3,8.3,0,0,0,8.646-8.273" transform="translate(-57.151 -84.681)" fill="#4f686d"/>
      </g>
    </g>
  </g>
</svg>
