<svg xmlns="http://www.w3.org/2000/svg" xmlns:xlink="http://www.w3.org/1999/xlink" width="141" height="141" viewBox="0 0 141 141">
  <defs>
    <clipPath id="clip-path">
      <rect id="Rectangle_375712" data-name="Rectangle 375712" width="100.242" height="78.179" fill="none"/>
    </clipPath>
  </defs>
  <g id="Group_1071492" data-name="Group 1071492" transform="translate(-269 -958)">
    <circle id="Ellipse_5614" data-name="Ellipse 5614" cx="70.5" cy="70.5" r="70.5" transform="translate(269 958)" fill="#304c8e"/>
    <g id="Group_1071494" data-name="Group 1071494" transform="translate(294 967)">
      <g id="Group_1071493" data-name="Group 1071493" transform="translate(-3.652 22.152)" clip-path="url(#clip-path)">
        <path id="Path_608462" data-name="Path 608462" d="M68.549,47.474A1.97,1.97,0,0,0,66.595,49.4a2.054,2.054,0,0,0,1.912,1.95,1.973,1.973,0,0,0,1.916-2.016,1.835,1.835,0,0,0-1.875-1.862" transform="translate(-42.61 -30.376)" fill="#fff"/>
        <path id="Path_608463" data-name="Path 608463" d="M75.447,10.076c0-1.961,0-3.843,0-5.725a6.96,6.96,0,0,1,.04-1.118A3.752,3.752,0,0,1,81.54.812c1.336,1.009,2.61,2.1,3.914,3.151q6.582,5.311,13.163,10.622a3.929,3.929,0,0,1,1.465,1.984,3.191,3.191,0,0,1-.88,3.413c-1.186,1.093-2.452,2.1-3.708,3.116q-6.662,5.391-13.342,10.758a9.165,9.165,0,0,1-1.019.733,3.476,3.476,0,0,1-3.783.012,3.628,3.628,0,0,1-1.9-3.245c-.016-1.719,0-3.438,0-5.158v-.436a26.914,26.914,0,0,0-11.924,4.951,54.963,54.963,0,0,0-4.594,3.658c-1.6,1.42-3.07,2.975-4.6,4.469-.158.155-.237.266-.028.471a82.927,82.927,0,0,0,7.358,6.769,31.387,31.387,0,0,0,9.806,5.392c1.28.4,2.6.662,3.956,1,.013-.211.024-.323.024-.435,0-1.734-.007-3.469,0-5.2a3.628,3.628,0,0,1,1.916-3.279,3.483,3.483,0,0,1,3.784.021,7.47,7.47,0,0,1,.841.595q8.19,6.605,16.374,13.217a4.278,4.278,0,0,1,1.8,2.484A3.355,3.355,0,0,1,99.224,63,22.285,22.285,0,0,1,97.252,64.7q-7.745,6.263-15.5,12.516a3.8,3.8,0,0,1-6.266-2.259,4.523,4.523,0,0,1-.039-.625c0-2.048,0-4.095,0-6.2a13.727,13.727,0,0,0-1.548-.207,23.909,23.909,0,0,1-5.021-.893,41.191,41.191,0,0,1-14.914-7.2,88.426,88.426,0,0,1-10.727-9.587c-.051-.052-.113-.093-.222-.18-.553.479-1.107.952-1.655,1.434A51.757,51.757,0,0,1,24.642,61.662,39.566,39.566,0,0,1,17.336,63.6c-1.68.26-3.358.539-5.046.739a24.27,24.27,0,0,1-2.735.087c-1.572.008-3.149-.1-4.713.009A4.815,4.815,0,0,1,.108,60.167C.014,58.108.036,56.044,0,53.983a4.772,4.772,0,0,1,.8-2.8,4.63,4.63,0,0,1,4-2.245c1.9-.015,3.8-.057,5.7-.171a32.317,32.317,0,0,0,17.328-6.412c1.28-.932,2.488-1.962,3.742-2.932.316-.245.292-.405,0-.656a38.762,38.762,0,0,0-12.788-7.7,31.723,31.723,0,0,0-6.894-1.528,46.264,46.264,0,0,0-7.032-.3A4.945,4.945,0,0,1,.2,25.652a5.932,5.932,0,0,1-.185-1.37C-.008,22.458,0,20.634.005,18.81A5.025,5.025,0,0,1,3.493,13.9a3.507,3.507,0,0,1,1.147-.16c2.485.006,4.973-.051,7.451.084,1.707.093,3.4.464,5.1.711.236.035.473.065.706.117a1.94,1.94,0,0,1-.859,3.781,54.9,54.9,0,0,0-11.784-.835c-.165,0-.33,0-.494.008a.741.741,0,0,0-.8.826q-.016,3.028,0,6.055c0,.6.286.871.883.881,1.705.029,3.415-.011,5.116.085A36.669,36.669,0,0,1,28.105,31.4a49.226,49.226,0,0,1,6.51,4.986.565.565,0,0,0,.107.064c.208-.19.421-.369.616-.565,1.573-1.579,3.138-3.165,4.718-4.738.248-.247.264-.363-.026-.616a74.124,74.124,0,0,0-7.349-5.74,1.873,1.873,0,0,1,.846-3.492,2.569,2.569,0,0,1,1.408.44,58.919,58.919,0,0,1,6.846,5.288c.4.357.815.7,1.361,1.16a2.369,2.369,0,0,1,.271-.456A84.258,84.258,0,0,1,54.825,17.71a43.366,43.366,0,0,1,10.529-5.519,40.6,40.6,0,0,1,7.558-1.861c.825-.123,1.662-.169,2.534-.254m20.822,7.5L79.393,3.974v.5c0,2.362.011,4.724-.01,7.086a2.125,2.125,0,0,1-2.083,2.23c-1.8.167-3.6.351-5.38.64a33.882,33.882,0,0,0-10.959,3.912,48.264,48.264,0,0,0-10.286,7.685C46.788,29.8,43,33.67,39.183,37.5A70.2,70.2,0,0,1,28.946,46.21a37.136,37.136,0,0,1-19.01,6.507c-1.7.1-3.41.057-5.116.083-.568.009-.852.253-.855.8q-.019,3.05,0,6.1a.749.749,0,0,0,.815.856c.836.032,1.675.005,2.512.012a48.742,48.742,0,0,0,11.257-1.123,41.993,41.993,0,0,0,11.006-4.224A58.884,58.884,0,0,0,42.448,45.29c3.529-3.493,7.017-7.026,10.51-10.554A64.262,64.262,0,0,1,60.758,28a31.8,31.8,0,0,1,12.525-5.744A32.994,32.994,0,0,1,77.23,21.7a1.956,1.956,0,0,1,2.16,2.053c.015,2.183.005,4.365,0,6.548,0,.259-.025.517-.045.906L96.269,17.579m-50.46,29.9c1.266,1.232,2.515,2.478,3.8,3.69a59.2,59.2,0,0,0,10.446,8.153,34.728,34.728,0,0,0,13.091,4.626c1.391.189,2.789.328,4.189.43a1.964,1.964,0,0,1,1.808,1.175,2.959,2.959,0,0,1,.246,1.166c.013,2.376-.008,4.753-.017,7.13a2.505,2.505,0,0,0,.049.323L96.268,60.6,79.415,47.014c-.012.2-.022.3-.022.4,0,2.332,0,4.664,0,7a1.98,1.98,0,0,1-2.171,2.037,40.906,40.906,0,0,1-4.959-.742A30.736,30.736,0,0,1,62.4,51.323a64.241,64.241,0,0,1-10.085-8.534c-.3-.3-.622-.592-.94-.894L45.809,47.48" transform="translate(0 0)" fill="#fff"/>
        <path id="Path_608464" data-name="Path 608464" d="M68.549,47.474a1.835,1.835,0,0,1,1.875,1.862,1.973,1.973,0,0,1-1.916,2.016,2.054,2.054,0,0,1-1.912-1.95,1.97,1.97,0,0,1,1.954-1.929" transform="translate(-42.61 -30.376)" fill="#fff"/>
      </g>
    </g>
  </g>
</svg>
