<svg xmlns="http://www.w3.org/2000/svg" xmlns:xlink="http://www.w3.org/1999/xlink" width="141" height="141" viewBox="0 0 141 141">
  <defs>
    <clipPath id="clip-path">
      <rect id="Rectangle_375714" data-name="Rectangle 375714" width="97.446" height="97.44" fill="none"/>
    </clipPath>
  </defs>
  <g id="Group_1071491" data-name="Group 1071491" transform="translate(-269 -958)">
    <circle id="Ellipse_5614" data-name="Ellipse 5614" cx="70.5" cy="70.5" r="70.5" transform="translate(269 958)" fill="#304c8e"/>
    <g id="Group_1071498" data-name="Group 1071498" transform="translate(290.794 977.03)">
      <g id="Group_1071497" data-name="Group 1071497" clip-path="url(#clip-path)">
        <path id="Path_608482" data-name="Path 608482" d="M79.541,49.515c0-.611-.044-1.194.013-1.768a4.721,4.721,0,0,1,.344-1.554,2.243,2.243,0,0,1,2.288-1.286c.374.016.463-.115.456-.472-.024-1.367-.016-2.735-.02-4.1,0-.084-.009-.168-.018-.314h-.572q-11.961,0-23.921,0a4.164,4.164,0,0,1-2.323-.432,2.7,2.7,0,0,1-1.327-2.045,15.766,15.766,0,0,1-.058-1.83q-.008-4.8,0-9.6a6.622,6.622,0,0,1,.1-1.388,2.81,2.81,0,0,1,2.534-2.184c.764-.072,1.534-.076,2.34-.112.011-.24.029-.469.03-.7.006-1.295,0-2.59.02-3.884.005-.3-.094-.373-.369-.375a19.6,19.6,0,0,1-2.35-.072,2.649,2.649,0,0,1-2.262-2.322,4.669,4.669,0,0,1-.051-.652q0-5.63,0-11.261a3.126,3.126,0,0,1,.784-2.2A3.1,3.1,0,0,1,57.495.01c.494-.02.989-.006,1.484-.006q9.494,0,18.988,0a4.388,4.388,0,0,1,.992.108,1.275,1.275,0,0,1,.989,1.275,1.337,1.337,0,0,1-1.077,1.345,3.951,3.951,0,0,1-.736.061q-10.171,0-20.342-.008c-.444,0-.554.106-.55.553.025,3.608.019,7.216.023,10.825v.467h53.547V2.8h-.555q-12.79,0-25.58,0c-.275,0-.55-.042-.826-.048a1.241,1.241,0,0,1-1.164-1.291A1.3,1.3,0,0,1,83.794.1,4.858,4.858,0,0,1,84.7.008Q97.558,0,110.413,0A2.954,2.954,0,0,1,113.6,2.17a4.463,4.463,0,0,1,.116,1.08c.012,3.725,0,7.45.023,11.174a2.9,2.9,0,0,1-3.068,3.047c-.638-.033-1.279,0-1.952,0v4.977c.179.008.359.023.54.023a6.529,6.529,0,0,1,2.749.322,2.737,2.737,0,0,1,1.664,2.234,4.71,4.71,0,0,1,.048.7q.006,5.587,0,11.174a2.848,2.848,0,0,1-1.588,2.789,3.773,3.773,0,0,1-1.127.3,7.927,7.927,0,0,1-1.133.039H85.909c-.127,0-.254.013-.42.022V44.9c.167.009.348.033.529.028a2.429,2.429,0,0,1,2.5,2.384c.029.595.04,1.193.012,1.787-.018.367.079.459.456.465a2.757,2.757,0,0,1,1.284.257,1.272,1.272,0,0,1,.506,1.574,1.623,1.623,0,0,1-1.47.99c-.243.014-.487,0-.753,0,0,.494,0,.94,0,1.386a8.92,8.92,0,0,1-.039,1.087,2.289,2.289,0,0,1-2.186,2.07c-1.438.062-2.882.088-4.318.022a2.436,2.436,0,0,1-2.459-2.656c-.008-.609,0-1.218,0-1.909-.226,0-.465.009-.7,0a1.491,1.491,0,0,1-1.519-1.861,1.273,1.273,0,0,1,1.164-.951c.33-.027.662-.036,1.055-.056M57.287,25.353c-.009.115-.021.185-.021.255,0,3.695,0,7.39-.009,11.084,0,.373.125.457.478.457q26.121-.015,52.242-.013h.833c.012-.132.026-.215.026-.3,0-3.709,0-7.418.014-11.127,0-.386-.179-.373-.453-.373q-26.361,0-52.722,0c-.115,0-.229.011-.389.018m4.955-7.873c0,1.327,0,2.618,0,3.908,0,1.071,0,1.069,1.083,1.069q21.012,0,42.024.005c.439,0,.532-.141.527-.543-.017-1.4,0-2.792,0-4.188a1.277,1.277,0,0,0-.05-.251ZM82.416,54.1h3.262V47.814H82.416Z" transform="translate(-35.346 0)" fill="#fff"/>
        <path id="Path_608483" data-name="Path 608483" d="M16.94,161.154c0-.451-.008-.84,0-1.23a1.48,1.48,0,0,1,1.421-1.565,1.549,1.549,0,0,1,1.47,1.581c0,.174,0,.349,0,.524,0,.674,0,.674.7.682,1.775.021,3.55.078,5.325.053a6.794,6.794,0,0,1,6.333,5.086c.293,1.238.42,2.516.626,3.775.2,1.2.405,2.4.6,3.607q.4,2.474.787,4.949.335,2.129.663,4.259c.335,2.181.663,4.363,1.006,6.542a1.848,1.848,0,0,0,.237.646,5.548,5.548,0,0,1,.821,2.985,29.631,29.631,0,0,1-.058,3.312,4.308,4.308,0,0,1-4.566,3.968c-4.118.028-8.235.009-12.353,0a3.615,3.615,0,0,1-.735-.087,1.276,1.276,0,0,1-1.072-1.379,1.222,1.222,0,0,1,1.115-1.279,3.523,3.523,0,0,1,.608-.044q6.242,0,12.484.01a1.51,1.51,0,0,0,1.707-1.678c-.006-1.12,0-2.241-.019-3.361a1.313,1.313,0,0,0-1.36-1.434c-.58-.035-1.163-.018-1.745-.018H5.842c-.581,0-1.166-.034-1.742.019a1.381,1.381,0,0,0-1.309,1.474c-.009,1.12-.006,2.24,0,3.361a1.514,1.514,0,0,0,1.6,1.623c3.041.008,6.082,0,9.123,0a4.211,4.211,0,0,1,.736.058,1.273,1.273,0,0,1,1.107,1.258,1.348,1.348,0,0,1-1.009,1.362,3.345,3.345,0,0,1-.818.11c-2.939.008-5.879-.007-8.818.008a4.39,4.39,0,0,1-4.585-3.393A4.98,4.98,0,0,1,0,195.826c.008-1.293.017-2.587.083-3.878a3.8,3.8,0,0,1,.766-1.967.976.976,0,0,0,.185-.38c.245-1.592.478-3.185.716-4.778.226-1.508.449-3.017.682-4.524.284-1.837.581-3.672.866-5.508.271-1.75.52-3.5.8-5.25a33.244,33.244,0,0,1,.623-3.294,6.636,6.636,0,0,1,4.8-4.848,9.961,9.961,0,0,1,2.6-.235c1.584-.034,3.168-.01,4.82-.01M4.064,188.182H32.885c-.187-1.183-.36-2.328-.549-3.471-.21-1.275-.452-2.545-.649-3.822-.349-2.267-.662-4.539-1.013-6.806-.316-2.037-.7-4.064-.988-6.1a4.591,4.591,0,0,0-1.651-3.239,4.359,4.359,0,0,0-2.8-.774q-5.934-.012-11.867,0a23.708,23.708,0,0,0-2.743.066,3.77,3.77,0,0,0-3.258,3c-.36,1.58-.489,3.211-.742,4.816-.427,2.71-.883,5.416-1.308,8.126-.227,1.446-.4,2.9-.619,4.349-.193,1.275-.416,2.546-.633,3.866" transform="translate(0 -102.904)" fill="#fff"/>
        <path id="Path_608484" data-name="Path 608484" d="M205.459,188.246c-.2-1.346-.4-2.636-.589-3.925-.323-2.139-.658-4.275-.965-6.416a1.4,1.4,0,0,1,.707-1.63,1.246,1.246,0,0,1,1.707.442,3.4,3.4,0,0,1,.4,1.1c.264,1.561.494,3.127.727,4.693s.455,3.133.684,4.7c.119.817.238,1.635.375,2.45a1.192,1.192,0,0,0,.213.423,4.963,4.963,0,0,1,.819,2.8c0,.9-.045,1.807.009,2.706a4.453,4.453,0,0,1-4.631,4.783l-.306,0H177.41a4.487,4.487,0,0,1-4-1.889,5.117,5.117,0,0,1-.847-2.8,13.069,13.069,0,0,1,.3-4.416,1.07,1.07,0,0,1,.111-.328c.843-1.1.788-2.44,1-3.7.519-3.033.97-6.079,1.452-9.119.414-2.611.836-5.22,1.248-7.831.172-1.089.325-2.182.485-3.273a6.884,6.884,0,0,1,6.173-5.767c1.992-.015,3.984-.047,5.977-.073.1,0,.2-.011.39-.022a10.232,10.232,0,0,1,.009-1.084,2.637,2.637,0,0,1,.23-.91,1.347,1.347,0,0,1,1.414-.732,1.457,1.457,0,0,1,1.17,1.25,5.34,5.34,0,0,1,.042,1.044c-.027.357.063.468.444.468,1.906,0,3.811.056,5.717.055a6.538,6.538,0,0,1,5.878,4.47,47.111,47.111,0,0,1,.991,5.166c.049.271.069.548.1.823a1.37,1.37,0,1,1-2.7.383c-.253-1.533-.494-3.067-.741-4.6a4.008,4.008,0,0,0-3.994-3.505c-4.7-.019-9.4.013-14.1.011a3.873,3.873,0,0,0-3.888,2.346,9.438,9.438,0,0,0-.5,2.2c-.326,1.889-.64,3.78-.932,5.675-.49,3.186-.948,6.376-1.441,9.562-.209,1.348-.46,2.69-.72,4.029-.071.364.017.459.377.457,1.964-.014,3.928-.009,5.893-.009l21.651,0h.861m-14.415,9.333v.012h13.923a1.566,1.566,0,0,0,1.77-1.768q0-1.44,0-2.88c0-1.338-.536-1.879-1.881-1.887-.683,0-1.366.041-2.05.041q-12.679,0-25.358,0a6.97,6.97,0,0,0-.741.024,1.292,1.292,0,0,0-1.234,1.327q-.026,1.723-.014,3.448a1.513,1.513,0,0,0,1.707,1.683h13.879" transform="translate(-112.103 -102.938)" fill="#fff"/>
        <path id="Path_608485" data-name="Path 608485" d="M155.976,23.787q-4.125,0-8.249,0c-1.186,0-1.854-.8-1.549-1.855a1.4,1.4,0,0,1,1.393-.979c1.178-.007,2.357,0,3.535,0H164.2a1.58,1.58,0,0,1,1.619,1.465,1.592,1.592,0,0,1-1.638,1.364q-4.1,0-8.2,0v.007" transform="translate(-94.94 -13.613)" fill="#fff"/>
        <path id="Path_608486" data-name="Path 608486" d="M58.983,256.953c1.236,0,2.473-.032,3.707.011a1.251,1.251,0,0,1,1.344,1.258,1.314,1.314,0,0,1-1.11,1.436,5.94,5.94,0,0,1-1,.078q-3.077.011-6.153,0a4.814,4.814,0,0,1-.779-.072,1.319,1.319,0,0,1-1.16-1.274,1.262,1.262,0,0,1,1.014-1.371,3.845,3.845,0,0,1,.905-.1c1.076-.012,2.153,0,3.229,0v.038" transform="translate(-34.98 -166.945)" fill="#fff"/>
        <path id="Path_608487" data-name="Path 608487" d="M193.365,141.434c.684,0,1.367,0,2.05,0,.968.008,1.514.478,1.549,1.321a1.551,1.551,0,0,1-1.487,1.521c-1.453.036-2.91.053-4.361-.02a2.141,2.141,0,0,1-1.2-.6,1.012,1.012,0,0,1-.234-1.243c.256-.48.564-.94,1.195-.95.828-.013,1.657,0,2.485,0v-.024" transform="translate(-123.182 -91.905)" fill="#fff"/>
        <path id="Path_608488" data-name="Path 608488" d="M71.192,144.323c-.683,0-1.366.014-2.049,0a1.57,1.57,0,0,1-1.6-1.463,1.277,1.277,0,0,1,1.239-1.357c1.626-.029,3.253-.013,4.879.012a1.534,1.534,0,0,1,1.221,1.142,1.363,1.363,0,0,1-.737,1.4,3.209,3.209,0,0,1-1.041.255c-.637.04-1.278.011-1.917.011" transform="translate(-43.894 -91.938)" fill="#fff"/>
        <path id="Path_608489" data-name="Path 608489" d="M97.293,144.307c-.669,0-1.338.015-2.007,0a1.51,1.51,0,0,1-1.565-1.64,1.169,1.169,0,0,1,1.028-1.161,8.011,8.011,0,0,1,1-.044c1.352.007,2.7.01,4.056.04a1.376,1.376,0,0,1,1.162,1.026,1.319,1.319,0,0,1-.56,1.445,3.035,3.035,0,0,1-1.109.325c-.665.051-1.337.014-2.006.014" transform="translate(-60.901 -91.921)" fill="#fff"/>
        <path id="Path_608490" data-name="Path 608490" d="M167.392,141.477c.755,0,1.511-.023,2.266.007a1.269,1.269,0,0,1,1.294,1.013,1.366,1.366,0,0,1-.83,1.633,2.113,2.113,0,0,1-.8.177c-1.322.018-2.644.022-3.966,0a1.567,1.567,0,0,1-1.474-.757,1.352,1.352,0,0,1,1.069-2.056c.81-.051,1.626-.01,2.439-.01v-.007" transform="translate(-106.37 -91.928)" fill="#fff"/>
        <path id="Path_608491" data-name="Path 608491" d="M51.263,144.421c0,.112.008.284,0,.456a1.583,1.583,0,0,1-1.492,1.485,1.516,1.516,0,0,1-1.359-1.5c-.009-.725-.009-1.453.046-2.175a1.226,1.226,0,0,1,1.264-1.235c.782-.035,1.568-.03,2.35,0a1.455,1.455,0,0,1,1.269,1.185,1.337,1.337,0,0,1-.693,1.347,10.56,10.56,0,0,1-1.383.435" transform="translate(-31.455 -91.903)" fill="#fff"/>
        <path id="Path_608492" data-name="Path 608492" d="M217.757,144.415a9.668,9.668,0,0,1-1.332-.4,1.353,1.353,0,0,1-.74-1.366,1.5,1.5,0,0,1,1.283-1.18c.8-.036,1.6-.037,2.4-.009a1.164,1.164,0,0,1,1.18,1.071,17.77,17.77,0,0,1,.025,2.651,1.482,1.482,0,0,1-1.424,1.178,1.589,1.589,0,0,1-1.386-1.461c-.013-.184,0-.37,0-.484" transform="translate(-140.144 -91.91)" fill="#fff"/>
        <path id="Path_608493" data-name="Path 608493" d="M196.657,225.683c-.506-.026-1.017-.022-1.518-.083a1.389,1.389,0,0,1-1.28-1.448,1.279,1.279,0,0,1,1.244-1.366,23.811,23.811,0,0,1,3.169.04,1.343,1.343,0,0,1,1.176,1.4,1.4,1.4,0,0,1-1.226,1.365,6.218,6.218,0,0,1-.78.063c-.261.01-.522,0-.784,0v.024" transform="translate(-125.972 -144.746)" fill="#fff"/>
        <path id="Path_608494" data-name="Path 608494" d="M105.329,20.573c0,.363.019.727,0,1.089a1.339,1.339,0,0,1-1.263,1.307,1.26,1.26,0,0,1-1.488-1.087,13.069,13.069,0,0,1,.019-2.727,1.258,1.258,0,0,1,1.476-.991A1.328,1.328,0,0,1,105.31,19.4c.025.39,0,.784,0,1.176h.014" transform="translate(-66.613 -11.799)" fill="#fff"/>
        <path id="Path_608495" data-name="Path 608495" d="M71.029,20.589c.022-.405.011-.815.073-1.214a1.345,1.345,0,0,1,1.364-1.164,1.306,1.306,0,0,1,1.349,1.122,12.826,12.826,0,0,1,.044,2.429A1.324,1.324,0,0,1,72.433,23a1.384,1.384,0,0,1-1.357-1.327,10.619,10.619,0,0,1-.006-1.087h-.041" transform="translate(-46.156 -11.833)" fill="#fff"/>
        <path id="Path_608496" data-name="Path 608496" d="M89.562,20.641c0,.305,0,.61,0,.915a1.354,1.354,0,0,1-1.392,1.409,1.433,1.433,0,0,1-1.434-1.39c-.009-.653-.007-1.308,0-1.961a1.409,1.409,0,0,1,2.815-.063c.017.362,0,.726,0,1.089h.009" transform="translate(-56.357 -11.841)" fill="#fff"/>
        <path id="Path_608497" data-name="Path 608497" d="M30.221,257.3c.05,1.14-.271,1.677-1.125,1.879a1.359,1.359,0,0,1-1.528-.793,3.183,3.183,0,0,1-.082-1.971,1.356,1.356,0,0,1,2.687.233c.026.216.034.434.048.652" transform="translate(-17.784 -165.907)" fill="#fff"/>
        <path id="Path_608498" data-name="Path 608498" d="M17.089,257.3c-.029.261-.049.522-.088.781a1.34,1.34,0,0,1-1.22,1.124,1.367,1.367,0,0,1-1.364-.82,3.055,3.055,0,0,1,.052-2.337,1.527,1.527,0,0,1,1.3-.724,1.523,1.523,0,0,1,1.217,1.11c.052.285.067.577.1.868" transform="translate(-9.234 -165.911)" fill="#fff"/>
        <path id="Path_608499" data-name="Path 608499" d="M155.974,85.238h7.765c.2,0,.408,0,.611.013a1.492,1.492,0,0,1,1.475,1.337,1.507,1.507,0,0,1-1.316,1.45,5.633,5.633,0,0,1-.912.069q-7.547.005-15.094,0a8.816,8.816,0,0,1-1.044-.062,1.445,1.445,0,0,1-1.32-1.431,1.364,1.364,0,0,1,1.372-1.353c.507-.034,1.017-.024,1.526-.025q3.468,0,6.937,0Z" transform="translate(-94.963 -55.387)" fill="#fff"/>
        <path id="Path_608500" data-name="Path 608500" d="M105.337,84.872c0,.364.018.728,0,1.09a1.4,1.4,0,0,1-1.281,1.316,1.274,1.274,0,0,1-1.464-1.071,14.461,14.461,0,0,1,.009-2.728c.068-.746.736-1.015,1.42-1a1.356,1.356,0,0,1,1.287,1.258c.03.376.041.755.06,1.132h-.027" transform="translate(-66.624 -53.597)" fill="#fff"/>
        <path id="Path_608501" data-name="Path 608501" d="M73.96,84.9c0,.29,0,.581,0,.871a1.4,1.4,0,0,1-1.311,1.462,1.368,1.368,0,0,1-1.5-1.262,15.259,15.259,0,0,1,0-2.3,1.382,1.382,0,0,1,2.723-.111,11.511,11.511,0,0,1,.1,1.341l-.015,0" transform="translate(-46.205 -53.585)" fill="#fff"/>
        <path id="Path_608502" data-name="Path 608502" d="M89.54,84.855c0,.349.015.7,0,1.047a1.371,1.371,0,0,1-1.389,1.334A1.485,1.485,0,0,1,86.722,85.9c-.026-.7-.03-1.4,0-2.094a1.477,1.477,0,0,1,1.466-1.332,1.358,1.358,0,0,1,1.345,1.376c.008.334,0,.669,0,1h0" transform="translate(-56.339 -53.593)" fill="#fff"/>
        <path id="Path_608503" data-name="Path 608503" d="M23.818,225.658c-.536-.027-1.076-.021-1.606-.09a1.458,1.458,0,0,1-1.289-1.46,1.365,1.365,0,0,1,1.3-1.334,24.5,24.5,0,0,1,2.957-.035,1.453,1.453,0,0,1,1.394,1.459,1.538,1.538,0,0,1-1.491,1.43c-.42.025-.843,0-1.264,0v.027" transform="translate(-13.596 -144.719)" fill="#fff"/>
        <path id="Path_608504" data-name="Path 608504" d="M231.735,256.93c1.193,0,2.386-.012,3.579.006a1.478,1.478,0,0,1,1.289.6,1.332,1.332,0,0,1-.8,2.106,3.908,3.908,0,0,1-.823.085q-3.274.012-6.548,0a1.648,1.648,0,0,1-1.607-.757,1.271,1.271,0,0,1,.66-1.882,4.084,4.084,0,0,1,1.2-.176c1.018-.024,2.037-.008,3.055-.008v.022" transform="translate(-147.268 -166.939)" fill="#fff"/>
        <path id="Path_608505" data-name="Path 608505" d="M203.128,257.249a1.687,1.687,0,0,1-.441,1.523,1.29,1.29,0,0,1-1.345.384,1.325,1.325,0,0,1-1.005-1.136,7.051,7.051,0,0,1,0-1.43,1.491,1.491,0,0,1,1.351-1.261,1.637,1.637,0,0,1,1.437,1.309,5.2,5.2,0,0,1,0,.611" transform="translate(-130.158 -165.916)" fill="#fff"/>
        <path id="Path_608506" data-name="Path 608506" d="M189.938,257.42a1.492,1.492,0,0,1-.756,1.606,1.336,1.336,0,0,1-2.016-.963,5.918,5.918,0,0,1-.021-1.386,1.4,1.4,0,1,1,2.793.157c0,.159,0,.319,0,.586" transform="translate(-121.589 -165.905)" fill="#fff"/>
      </g>
    </g>
  </g>
</svg>
