<svg xmlns="http://www.w3.org/2000/svg" xmlns:xlink="http://www.w3.org/1999/xlink" width="120" height="120" viewBox="0 0 120 120">
  <defs>
    <clipPath id="clip-path">
      <rect id="Rectangle_377697" data-name="Rectangle 377697" width="91.104" height="81.181" fill="none"/>
    </clipPath>
  </defs>
  <g id="Group_1071549" data-name="Group 1071549" transform="translate(-269 -958)">
    <circle id="Ellipse_5614" data-name="Ellipse 5614" cx="60" cy="60" r="60" transform="translate(269 958)" fill="#304c8e"/>
    <g id="Group_1071648" data-name="Group 1071648" transform="translate(283.563 972.795)">
      <g id="Group_1071647" data-name="Group 1071647" clip-path="url(#clip-path)">
        <path id="Path_608938" data-name="Path 608938" d="M91.537,71.364c3.5-4.438,8.765-2.708,10.452,1.02,1.8-.048,3.568-.485,5.067-.027s2.741,1.811,4.085,2.766a17.866,17.866,0,0,1,4.563-.245,5.674,5.674,0,0,1,4.52,5.769c.048,2.738-.239,5.486-.113,8.217a63.051,63.051,0,0,0,.929,6.368c.745,4.959,1.423,9.931-.732,14.726a17.667,17.667,0,0,1-2.324,3.884,4.72,4.72,0,0,0-1.16,3.317c.076,3.479.033,6.961.023,10.441,0,1.8-.279,2.086-2.022,2.086q-14.78.008-29.56,0c-1.691,0-2.028-.352-2.033-2.1-.009-3.971-.069-7.943.023-11.911a6.535,6.535,0,0,0-2.294-5.324c-1.389-1.239-2.806-2.448-4.186-3.7A13.119,13.119,0,0,1,72.259,95.1c.206-2.143.3-4.3.412-6.45A9.616,9.616,0,0,1,79.85,80.1c1.585-.432,1.9-1.132,1.863-2.6-.09-3.446,1.448-5.944,4.3-6.471,1.667-.308,3.482.185,5.529.34m6.115,24.393c.159,1.867.355,3.95.507,6.036.078,1.076-.221,2.093-1.46,2.147-1.293.056-1.52-.95-1.512-2.041.006-.881-.057-1.764-.125-2.643-.345-4.483-2.629-6.709-7.146-6.918-1.615-.075-3.237-.012-4.851-.09-.916-.044-1.611-.477-1.587-1.544.025-1.087.72-1.4,1.672-1.394,1.422,0,2.843,0,4.265,0,1.961,0,3.923.045,5.882-.016a3.463,3.463,0,1,0-.049-6.905c-3.235-.028-6.472-.054-9.706.007-4.161.079-7.542,2.684-7.872,6.1-.259,2.68-.4,5.374-.5,8.065a9.069,9.069,0,0,0,2.751,7.038c1.429,1.407,3.077,2.6,4.446,4.058a21.609,21.609,0,0,1,3.209,4.3c.5.906.886,1.26,1.908,1.254,7.942-.045,15.892-.24,23.822.061,3.336.126,4.934-1.305,6.065-3.989.171-.405.37-.8.514-1.214,1.778-5.134.517-10.184-.273-15.373a6.183,6.183,0,0,1-7.774-.945c-2.486,2.268-5.2,2.52-7.769.967l-4.413,3.043m16.177,20.477H86.288v10.418H113.83Zm-5.51-33.461h0c0-1.617.042-3.236-.011-4.851a2.941,2.941,0,0,0-5.882-.052c-.078,3.282-.072,6.568-.006,9.85a2.944,2.944,0,0,0,3,2.982,2.985,2.985,0,0,0,2.893-3.077c.042-1.616.009-3.234.009-4.852m2.986,1.369c0,1.177-.056,2.356.013,3.529A2.97,2.97,0,0,0,114.27,90.7a3.009,3.009,0,0,0,2.985-3.029c.084-2.35.086-4.708,0-7.058a2.962,2.962,0,0,0-2.979-3,2.931,2.931,0,0,0-2.956,3c-.073,1.172-.014,2.352-.016,3.528M99.4,83c0-3.168.083-5.978-.036-8.78a2.967,2.967,0,0,0-2.894-2.452A3.041,3.041,0,0,0,93.577,74.4c-.1,1.641-.023,3.293-.023,4.98A7.17,7.17,0,0,1,99.4,83m-8.838-3.645c-.057-2.007.559-4.05-1.559-5.264a2.693,2.693,0,0,0-3.162.221c-1.749,1.355-1.1,3.232-1.132,5.043Zm4.917,12.92c.9.686,1.84.31,2.7-.279a2.726,2.726,0,0,0,1.219-2.928l-3.914,3.207" transform="translate(-50.951 -48.511)" fill="#fff"/>
        <path id="Path_608939" data-name="Path 608939" d="M278.326,154.332c-1.175,0-2.351.009-3.526,0-.976-.008-1.825-.326-1.869-1.426s.78-1.519,1.758-1.53q3.672-.043,7.346,0c.9.012,1.69.361,1.714,1.418.026,1.137-.766,1.5-1.75,1.526-1.224.029-2.449.007-3.673.008" transform="translate(-192.646 -106.833)" fill="#fff"/>
        <path id="Path_608940" data-name="Path 608940" d="M266.949,78.085a4.3,4.3,0,0,1-.958,1.07c-2.166,1.315-4.339,2.631-6.6,3.768a2.152,2.152,0,0,1-1.982-.442c-.652-.725-.25-1.583.585-2.071,2.229-1.305,4.456-2.615,6.726-3.847a1.52,1.52,0,0,1,2.229,1.522" transform="translate(-181.463 -53.905)" fill="#fff"/>
        <path id="Path_608941" data-name="Path 608941" d="M20.655,217.217c-.28-.247-.928-.549-1.037-.987a1.863,1.863,0,0,1,.405-1.638c2.349-1.477,4.756-2.871,7.221-4.145a1.9,1.9,0,0,1,1.7.589,1.691,1.691,0,0,1-.172,1.655c-2.468,1.551-5.024,2.965-7.555,4.416a2.915,2.915,0,0,1-.565.11" transform="translate(-13.819 -148.503)" fill="#fff"/>
        <path id="Path_608942" data-name="Path 608942" d="M81.295,28.772a4.156,4.156,0,0,1-1.1-.965c-1.272-2.078-2.459-4.208-3.678-6.318a1.463,1.463,0,0,1,.464-2.255c.938-.561,1.58-.066,2.046.725,1.286,2.184,2.585,4.362,3.8,6.584.619,1.129.024,2.168-1.535,2.229" transform="translate(-53.775 -13.407)" fill="#fff"/>
        <path id="Path_608943" data-name="Path 608943" d="M264.1,219.812a13.688,13.688,0,0,1-1.406-.583c-1.988-1.129-3.961-2.286-5.946-3.42-.9-.516-1.522-1.213-.936-2.245s1.52-.858,2.413-.341c2.1,1.219,4.246,2.383,6.278,3.713a2.384,2.384,0,0,1,.726,1.81c-.006.365-.736.718-1.128,1.066" transform="translate(-180.399 -150.211)" fill="#fff"/>
        <path id="Path_608944" data-name="Path 608944" d="M151.466,5.337c0-1.224-.015-2.448,0-3.672C151.484.731,151.816.024,152.9,0a1.368,1.368,0,0,1,1.479,1.483c.062,2.593.109,5.193-.04,7.779a2.158,2.158,0,0,1-1.413,1.5c-.931.155-1.446-.64-1.455-1.611-.011-1.273,0-2.546,0-3.819" transform="translate(-106.907 0)" fill="#fff"/>
        <path id="Path_608945" data-name="Path 608945" d="M219.722,22.4a10.455,10.455,0,0,1-.5,1.305c-1.16,2.041-2.345,4.069-3.516,6.1-.526.915-1.227,1.495-2.266.852-.947-.585-.829-1.434-.322-2.3,1.235-2.111,2.392-4.273,3.726-6.319a2.431,2.431,0,0,1,1.822-.748c.36,0,.72.732,1.055,1.106" transform="translate(-150.156 -15.03)" fill="#fff"/>
        <path id="Path_608946" data-name="Path 608946" d="M22.3,73.059a13,13,0,0,1,1.285.537c2.033,1.157,4.046,2.349,6.088,3.492.943.527,1.484,1.23.887,2.245s-1.476.864-2.4.315c-2.051-1.223-4.169-2.338-6.171-3.634a2.366,2.366,0,0,1-.852-1.766c0-.4.759-.8,1.161-1.189" transform="translate(-14.919 -51.568)" fill="#fff"/>
        <path id="Path_608947" data-name="Path 608947" d="M5.358,151.014c-1.274,0-2.548,0-3.822,0-.919,0-1.675-.482-1.515-1.365.106-.586.88-1.463,1.4-1.493a68.814,68.814,0,0,1,7.928,0c.516.03.979.973,1.466,1.5-.544.454-1.04,1.2-1.642,1.3a23.713,23.713,0,0,1-3.812.061" transform="translate(0 -104.495)" fill="#fff"/>
        <path id="Path_608948" data-name="Path 608948" d="M128.511,240.806a2.122,2.122,0,0,1,2.063,2.185A2.156,2.156,0,0,1,128.467,245a2.1,2.1,0,1,1,.044-4.193" transform="translate(-89.179 -169.972)" fill="#fff"/>
      </g>
    </g>
  </g>
</svg>
