<svg xmlns="http://www.w3.org/2000/svg" xmlns:xlink="http://www.w3.org/1999/xlink" width="505" height="216" viewBox="0 0 505 216">
  <defs>
    <clipPath id="clip-path">
      <rect id="Rectangle_377660" data-name="Rectangle 377660" width="358" height="195" transform="translate(180 876)" fill="#fff" stroke="#707070" stroke-width="1"/>
    </clipPath>
    <clipPath id="clip-path-2">
      <rect id="Rectangle_377400" data-name="Rectangle 377400" width="309.66" height="189.23" fill="none"/>
    </clipPath>
  </defs>
  <g id="Group_1071607" data-name="Group 1071607" transform="translate(-285 -896)">
    <path id="Rectangle_347473" data-name="Rectangle 347473" d="M18,0H505a0,0,0,0,1,0,0V176a0,0,0,0,1,0,0H0a0,0,0,0,1,0,0V18A18,18,0,0,1,18,0Z" transform="translate(285 936)" fill="#dee9f0"/>
    <g id="Mask_Group_102" data-name="Mask Group 102" transform="translate(168 20)" clip-path="url(#clip-path)">
      <g id="Group_1017017" data-name="Group 1017017" transform="translate(197.843 881.77)">
        <g id="Group_1017016" data-name="Group 1017016" clip-path="url(#clip-path-2)">
          <path id="Path_608437" data-name="Path 608437" d="M313.335,148.295c0,48.178-68.477,49.708-143.8,49.708s-161.4,3.167-161.4-45.011S.86,9.944,169.087,17.5c164.73,7.4,144.247,82.62,144.247,130.8" transform="translate(-4.487 -9.469)" fill="#fff9eb"/>
          <path id="Path_608438" data-name="Path 608438" d="M524.911,22.285c.008-.183.013-.368.013-.554,0-5.466-3.7-9.9-8.255-9.9a6.969,6.969,0,0,0-1.3.123C515.276,5.335,510.773,0,505.227,0c-3.676,0-6.894,2.344-8.674,5.852a8.646,8.646,0,0,0-3.614-.8c-5.48,0-9.942,5.209-10.135,11.722a5.456,5.456,0,0,0-1.425-.191c-2.976,0-5.481,2.416-6.227,5.7Z" transform="translate(-263.561 0.001)" fill="#d4cbbf"/>
          <path id="Path_608439" data-name="Path 608439" d="M56.613,253.721c.01-.209.016-.419.016-.631,0-6.219-4.206-11.261-9.393-11.261a7.932,7.932,0,0,0-1.482.141c-.1-7.535-5.227-13.606-11.536-13.606-4.182,0-7.844,2.667-9.869,6.658a9.845,9.845,0,0,0-4.112-.907c-6.234,0-11.311,5.927-11.531,13.337a6.2,6.2,0,0,0-1.622-.218c-3.386,0-6.236,2.749-7.084,6.487Z" transform="translate(0 -126.671)" fill="#d4cbbf"/>
          <path id="Path_608440" data-name="Path 608440" d="M629.288,217.415c.006-.133.01-.267.01-.4,0-3.962-2.679-7.173-5.983-7.173a5.059,5.059,0,0,0-.944.09c-.066-4.8-3.33-8.667-7.349-8.667a7.2,7.2,0,0,0-6.286,4.241,6.269,6.269,0,0,0-2.619-.578c-3.971,0-7.206,3.776-7.345,8.5a3.947,3.947,0,0,0-1.033-.139,4.908,4.908,0,0,0-4.513,4.133Z" transform="translate(-329.054 -111.638)" fill="#d4cbbf"/>
          <path id="Path_608441" data-name="Path 608441" d="M58.1,179.595q-.487,0-.973,0a.249.249,0,0,1-.248-.252.237.237,0,0,1,.252-.248q.926.008,1.854,0h0a.25.25,0,0,1,0,.5q-.444,0-.889,0m2.745-.034a.25.25,0,0,1-.006-.5q.925-.023,1.852-.061a.26.26,0,0,1,.261.24.25.25,0,0,1-.24.261q-.93.039-1.861.061Zm-5.574,0H55.26q-.931-.025-1.862-.065a.25.25,0,0,1-.239-.261.265.265,0,0,1,.261-.239q.926.041,1.853.065a.25.25,0,0,1-.007.5m9.284-.151a.25.25,0,0,1-.014-.5q.924-.053,1.849-.121a.25.25,0,0,1,.037.5q-.928.068-1.857.121h-.015m-13-.015h-.016q-.93-.057-1.859-.133a.25.25,0,0,1-.229-.269.246.246,0,0,1,.27-.229q.924.075,1.849.132a.25.25,0,0,1-.016.5m16.7-.255a.25.25,0,0,1-.021-.5q.922-.082,1.844-.177a.25.25,0,1,1,.052.5q-.926.1-1.852.178h-.023m-20.407-.045h-.025q-.927-.092-1.853-.2a.25.25,0,0,1,.059-.5q.92.11,1.843.2a.25.25,0,0,1-.024.5m24.1-.337a.25.25,0,0,1-.029-.5q.919-.109,1.839-.23a.25.25,0,1,1,.065.5q-.922.123-1.845.232h-.03m-27.792-.1a.229.229,0,0,1-.035,0q-.922-.128-1.844-.275a.251.251,0,0,1-.208-.286.247.247,0,0,1,.287-.207q.916.145,1.834.273a.25.25,0,0,1-.034.5m31.473-.383a.25.25,0,0,1-.036-.5q.916-.134,1.832-.281a.25.25,0,1,1,.079.494q-.918.147-1.838.282l-.037,0m-35.145-.2a.256.256,0,0,1-.045,0q-.916-.164-1.831-.348a.25.25,0,1,1,.1-.49q.91.182,1.822.346a.25.25,0,0,1-.044.5m38.812-.386a.25.25,0,0,1-.043-.5q.912-.158,1.824-.328a.25.25,0,0,1,.092.491q-.915.172-1.831.33a.284.284,0,0,1-.043,0m-42.457-.345a.25.25,0,0,1-.054-.006q-.909-.2-1.816-.422a.25.25,0,0,1,.118-.486q.9.219,1.806.42a.25.25,0,0,1-.054.494M82.946,177a.25.25,0,0,1-.049-.5q.908-.182,1.816-.374a.25.25,0,1,1,.1.489q-.91.193-1.821.375a.234.234,0,0,1-.049,0m-49.72-.542a.267.267,0,0,1-.065-.008c-.609-.163-1.213-.334-1.8-.511a.25.25,0,0,1,.145-.479q.891.269,1.781.506a.25.25,0,0,1-.065.492m53.353-.227a.25.25,0,0,1-.055-.494q.9-.2,1.807-.415a.25.25,0,0,1,.114.487q-.905.213-1.812.416a.232.232,0,0,1-.055.006m-56.912-.849a.25.25,0,0,1-.08-.013c-.6-.2-1.19-.416-1.759-.633a.25.25,0,1,1,.178-.467c.563.215,1.148.425,1.741.626a.25.25,0,0,1-.08.487m60.527,0a.25.25,0,0,1-.06-.493q.9-.223,1.8-.456a.25.25,0,0,1,.125.484q-.9.233-1.8.456a.257.257,0,0,1-.061.007m3.6-.93a.25.25,0,0,1-.065-.492q.894-.24,1.788-.492a.25.25,0,1,1,.135.482q-.9.251-1.793.493a.238.238,0,0,1-.065.008m-67.6-.394a.256.256,0,0,1-.1-.02c-.579-.249-1.152-.51-1.7-.776a.25.25,0,0,1,.218-.451c.543.264,1.109.521,1.681.767a.25.25,0,0,1-.1.48m71.172-.608a.25.25,0,0,1-.069-.49q.89-.259,1.779-.527a.25.25,0,0,1,.144.479q-.89.269-1.783.528a.24.24,0,0,1-.07.01m-74.516-1.015a.243.243,0,0,1-.12-.031c-.559-.306-1.1-.624-1.617-.945a.25.25,0,1,1,.265-.424c.506.316,1.042.629,1.592.931a.25.25,0,0,1-.121.469m78.074-.056a.25.25,0,0,1-.074-.488q.886-.277,1.77-.559a.25.25,0,0,1,.153.476q-.886.284-1.774.56a.255.255,0,0,1-.074.011m3.538-1.134a.25.25,0,0,1-.078-.487q.881-.291,1.76-.59a.25.25,0,0,1,.161.474q-.882.3-1.765.59a.238.238,0,0,1-.078.012m-84.762-.78a.251.251,0,0,1-.145-.046c-.516-.369-1.016-.753-1.487-1.143a.25.25,0,1,1,.318-.385c.462.382.953.759,1.459,1.121a.25.25,0,0,1-.146.453m88.282-.414a.25.25,0,0,1-.082-.486q.876-.305,1.751-.618a.25.25,0,1,1,.168.472q-.876.313-1.755.618a.241.241,0,0,1-.082.014m3.5-1.249a.25.25,0,0,1-.086-.485q.872-.319,1.743-.643a.25.25,0,0,1,.175.469q-.871.325-1.746.644a.25.25,0,0,1-.086.015m-94.641-.706a.25.25,0,0,1-.174-.07c-.455-.44-.891-.9-1.293-1.363a.25.25,0,1,1,.378-.328c.393.453.818.9,1.263,1.331a.25.25,0,0,1-.174.43m98.124-.594a.25.25,0,0,1-.089-.484q.868-.331,1.734-.668a.25.25,0,1,1,.181.466q-.867.337-1.737.669a.258.258,0,0,1-.089.016m166.2-.837h-.215a.25.25,0,0,1,0-.5h.212c.532,0,1.077-.027,1.62-.081a.25.25,0,0,1,.049.5c-.559.056-1.12.084-1.669.084m-2.064-.134a.206.206,0,0,1-.033,0,17.36,17.36,0,0,1-1.852-.349.25.25,0,0,1,.118-.486,16.79,16.79,0,0,0,1.8.339.25.25,0,0,1-.033.5m5.544-.231a.25.25,0,0,1-.051-.495c.59-.124,1.187-.28,1.774-.464a.25.25,0,1,1,.15.477c-.6.19-1.215.35-1.821.476a.26.26,0,0,1-.052.005m-166.213-.144a.25.25,0,0,1-.092-.483q.864-.342,1.726-.69a.25.25,0,1,1,.187.464q-.862.349-1.729.692a.256.256,0,0,1-.092.017m157.062-.5a.241.241,0,0,1-.082-.014c-.568-.2-1.156-.43-1.746-.69a.25.25,0,0,1,.2-.458c.578.254,1.153.481,1.709.676a.25.25,0,0,1-.082.486M14.41,165.29a.249.249,0,0,1-.2-.1,18.813,18.813,0,0,1-1.019-1.584.25.25,0,0,1,.434-.249c.3.524.635,1.042.991,1.541a.25.25,0,0,1-.2.4m273.777-.1a.25.25,0,0,1-.1-.48c.559-.236,1.119-.5,1.662-.784a.25.25,0,1,1,.232.443c-.556.292-1.128.562-1.7.8a.248.248,0,0,1-.1.02m-166.305-.425a.25.25,0,0,1-.095-.481q.86-.354,1.718-.711a.25.25,0,0,1,.193.462q-.86.358-1.721.712a.245.245,0,0,1-.095.019m150.209-.592a.249.249,0,0,1-.115-.028c-.527-.273-1.063-.568-1.638-.9a.25.25,0,1,1,.251-.433c.569.329,1.1.621,1.618.89a.25.25,0,0,1-.116.472m19.386-.706a.25.25,0,0,1-.134-.461c.511-.323,1.02-.675,1.515-1.045a.25.25,0,0,1,.3.4c-.505.378-1.025.737-1.547,1.067a.25.25,0,0,1-.134.039m-166.16-.134a.25.25,0,0,1-.1-.48q.857-.363,1.711-.73a.25.25,0,1,1,.2.46q-.856.367-1.714.731a.248.248,0,0,1-.1.02m143.554-1.014a.251.251,0,0,1-.131-.037q-.79-.49-1.574-1a.25.25,0,1,1,.271-.421c.521.335,1.043.668,1.567.992a.25.25,0,0,1-.132.463m-256.306-.244a.25.25,0,0,1-.229-.149q-.178-.4-.337-.816-.182-.472-.334-.945a.25.25,0,1,1,.476-.153q.148.461.324.919.155.4.328.793a.25.25,0,0,1-.128.33.247.247,0,0,1-.1.021m116.172-.212a.25.25,0,0,1-.1-.479q.854-.372,1.7-.747a.25.25,0,1,1,.2.457q-.852.377-1.706.749a.255.255,0,0,1-.1.02m165.715-.622a.25.25,0,0,1-.164-.439c.46-.4.911-.827,1.339-1.261a.25.25,0,1,1,.357.351c-.437.443-.9.876-1.367,1.287a.246.246,0,0,1-.164.062m-162.307-.882a.25.25,0,0,1-.1-.478q.85-.381,1.7-.763a.25.25,0,1,1,.206.456q-.848.384-1.7.764a.25.25,0,0,1-.1.022m133.594-.045a.246.246,0,0,1-.135-.04c-.52-.336-1.041-.671-1.564-1a.25.25,0,0,1,.266-.424q.787.495,1.57,1a.25.25,0,0,1-.136.46m-130.2-1.487a.25.25,0,0,1-.1-.478q.663-.3,1.323-.607l.366-.169a.25.25,0,0,1,.209.455l-.366.168q-.661.305-1.324.607a.247.247,0,0,1-.1.023m161.523-.23a.25.25,0,0,1-.19-.413c.391-.456.778-.94,1.153-1.437a.25.25,0,1,1,.4.3c-.38.5-.774,1-1.172,1.462a.249.249,0,0,1-.19.087m-285.631-.056a.25.25,0,0,1-.245-.2,18.438,18.438,0,0,1-.286-1.862.25.25,0,0,1,.224-.274.253.253,0,0,1,.274.224,17.69,17.69,0,0,0,.278,1.81.25.25,0,0,1-.195.3.247.247,0,0,1-.051.005m251.155-.2a.255.255,0,0,1-.127-.035c-.568-.337-1.094-.635-1.609-.912a.251.251,0,1,1,.237-.441c.521.28,1.052.582,1.626.922a.25.25,0,0,1-.128.465m-123.671-1.072a.25.25,0,0,1-.106-.477q.842-.391,1.684-.786a.25.25,0,1,1,.212.453q-.842.395-1.686.787a.253.253,0,0,1-.105.023m120.394-.681a.24.24,0,0,1-.106-.024c-.554-.258-1.123-.5-1.694-.727a.25.25,0,1,1,.183-.465c.581.228,1.16.477,1.723.739a.25.25,0,0,1-.106.476m-26.008-.214a.25.25,0,0,1-.1-.478q.359-.162.721-.313a.251.251,0,0,1,.193.462q-.357.148-.709.307a.254.254,0,0,1-.1.022m-91.019-.682a.25.25,0,0,1-.107-.476q.84-.4,1.68-.8a.25.25,0,0,1,.215.452l-1.681.8a.247.247,0,0,1-.106.024M299.3,155.63a.25.25,0,0,1-.207-.389c.335-.5.666-1.026.984-1.561a.25.25,0,0,1,.43.256c-.322.542-.658,1.075-1,1.584a.249.249,0,0,1-.208.111m-63.546-.228a.25.25,0,0,1-.081-.487c.583-.2,1.185-.39,1.788-.558a.25.25,0,1,1,.135.482c-.594.166-1.185.351-1.76.55a.263.263,0,0,1-.082.013m20.1-.175a.245.245,0,0,1-.077-.012c-.584-.189-1.18-.362-1.77-.515a.25.25,0,1,1,.125-.484c.6.155,1.205.331,1.8.524a.25.25,0,0,1-.077.488m-244.8-.38a.25.25,0,0,1-.25-.25v-.049c0-.6.028-1.217.083-1.829a.25.25,0,1,1,.5.045c-.054.6-.081,1.2-.081,1.784v.049a.25.25,0,0,1-.25.25m228.278-.444a.25.25,0,0,1-.053-.494c.607-.131,1.226-.245,1.842-.341a.25.25,0,1,1,.077.494c-.606.094-1.216.207-1.813.335a.238.238,0,0,1-.053.006m12.923-.109a.224.224,0,0,1-.049,0c-.6-.118-1.214-.221-1.819-.3a.25.25,0,1,1,.068-.5c.615.084,1.236.188,1.848.309a.25.25,0,0,1-.048.5m-106.615-.2a.25.25,0,0,1-.108-.476q.838-.4,1.675-.8a.25.25,0,1,1,.217.45q-.838.4-1.676.806a.252.252,0,0,1-.108.025m97.364-.26a.25.25,0,0,1-.023-.5c.621-.058,1.25-.1,1.869-.123a.25.25,0,0,1,.018.5c-.609.023-1.229.064-1.84.122H243m5.57-.046h-.02c-.612-.048-1.232-.079-1.842-.091a.25.25,0,0,1,.01-.5c.62.012,1.249.044,1.871.093a.25.25,0,0,1-.019.5m-99.585-1.31a.25.25,0,0,1-.11-.475q.836-.406,1.67-.815a.25.25,0,0,1,.22.45q-.836.409-1.672.815a.245.245,0,0,1-.109.025m152.214-.042a.25.25,0,0,1-.221-.368c.283-.531.564-1.085.835-1.649a.25.25,0,0,1,.451.217c-.274.57-.558,1.131-.844,1.667a.25.25,0,0,1-.221.132M11.381,151.148a.362.362,0,0,1-.044,0,.25.25,0,0,1-.2-.29c.107-.607.241-1.225.4-1.836a.25.25,0,0,1,.485.125c-.154.6-.285,1.2-.391,1.8a.25.25,0,0,1-.246.207m140.947-.3a.25.25,0,0,1-.111-.475q.833-.411,1.665-.824a.25.25,0,0,1,.223.448q-.833.414-1.667.825a.252.252,0,0,1-.11.026m3.329-1.654a.25.25,0,0,1-.112-.474l1.661-.835a.25.25,0,0,1,.225.447l-1.662.835a.244.244,0,0,1-.112.027m147.16-.1a.244.244,0,0,1-.1-.021.25.25,0,0,1-.129-.329q.369-.847.713-1.708a.25.25,0,0,1,.464.185q-.347.868-.719,1.723a.25.25,0,0,1-.229.15M12.3,147.549a.247.247,0,0,1-.079-.012.251.251,0,0,1-.158-.317c.194-.581.414-1.173.653-1.759a.25.25,0,1,1,.463.189c-.236.577-.451,1.158-.642,1.729a.25.25,0,0,1-.237.171m146.673-.033a.25.25,0,0,1-.114-.473q.828-.421,1.656-.844a.25.25,0,0,1,.228.445q-.828.423-1.657.845a.252.252,0,0,1-.113.027m3.31-1.693a.25.25,0,0,1-.114-.472q.826-.425,1.65-.853a.25.25,0,1,1,.231.444l-1.652.854a.25.25,0,0,1-.114.027m141.911-.187a.249.249,0,0,1-.235-.336q.321-.87.619-1.746a.25.25,0,1,1,.473.162q-.3.881-.623,1.757a.25.25,0,0,1-.235.163m-138.611-1.524a.25.25,0,0,1-.116-.472q.824-.431,1.645-.863a.25.25,0,0,1,.233.443q-.823.432-1.647.863a.252.252,0,0,1-.116.028M13.7,144.1a.25.25,0,0,1-.225-.358c.266-.554.554-1.115.856-1.666a.25.25,0,0,1,.439.241c-.3.543-.582,1.1-.844,1.642a.25.25,0,0,1-.226.142m155.173-1.723a.25.25,0,0,1-.118-.471q.821-.435,1.641-.872a.25.25,0,0,1,.236.442q-.821.438-1.642.872a.243.243,0,0,1-.116.029M305.4,142.12a.267.267,0,0,1-.077-.012.251.251,0,0,1-.162-.315l.2-.645q.178-.562.35-1.126a.25.25,0,0,1,.478.146q-.172.566-.35,1.13l-.206.647a.25.25,0,0,1-.238.174M15.49,140.843a.25.25,0,0,1-.213-.382c.323-.525.667-1.053,1.02-1.569a.25.25,0,1,1,.413.283c-.349.509-.688,1.03-1.007,1.549a.251.251,0,0,1-.213.119m156.668-.212a.25.25,0,0,1-.118-.47l1.636-.882a.25.25,0,1,1,.238.44q-.818.442-1.637.883a.248.248,0,0,1-.118.029m3.271-1.768a.25.25,0,0,1-.12-.47l1.631-.891a.25.25,0,1,1,.24.439q-.815.447-1.632.891a.247.247,0,0,1-.119.031m131.058-.3a.25.25,0,0,1-.24-.32q.258-.89.5-1.786a.25.25,0,0,1,.483.131q-.244.9-.5,1.794a.25.25,0,0,1-.24.181m-288.9-.79a.247.247,0,0,1-.15-.05.25.25,0,0,1-.049-.35c.372-.494.762-.988,1.159-1.468a.25.25,0,1,1,.386.318c-.392.475-.777.963-1.144,1.45a.25.25,0,0,1-.2.1m161.1-.7a.25.25,0,0,1-.121-.469l1.626-.9a.25.25,0,1,1,.243.437l-1.627.9a.25.25,0,0,1-.121.031m3.249-1.807a.25.25,0,0,1-.123-.468l1.62-.91a.25.25,0,1,1,.245.436l-1.621.911a.245.245,0,0,1-.122.032m125.526-.292a.233.233,0,0,1-.062-.008.25.25,0,0,1-.18-.3q.229-.9.444-1.8a.25.25,0,1,1,.487.116q-.216.906-.447,1.809a.249.249,0,0,1-.242.188m-287.51-.069a.25.25,0,0,1-.186-.418q.543-.6,1.1-1.18l.177-.182a.25.25,0,0,1,.358.35l-.176.181q-.552.569-1.09,1.166a.25.25,0,0,1-.186.083m15.159-.931h0a17.614,17.614,0,0,1-1.881-.122.25.25,0,1,1,.059-.5,17.183,17.183,0,0,0,1.827.118.25.25,0,0,1,0,.5m1.856-.085a.25.25,0,0,1-.025-.5,15.235,15.235,0,0,0,1.752-.284l.052-.012a.25.25,0,0,1,.11.488l-.052.012a15.565,15.565,0,0,1-1.811.293h-.026m-5.541-.349a.228.228,0,0,1-.055-.006c-.609-.136-1.219-.3-1.815-.5a.25.25,0,0,1,.157-.475c.581.192,1.175.356,1.767.489a.25.25,0,0,1-.054.494m153.749-.1a.25.25,0,0,1-.124-.468l1.615-.92a.25.25,0,0,1,.248.435l-1.616.919a.249.249,0,0,1-.123.033M40.593,133.1a.25.25,0,0,1-.077-.488c.577-.188,1.155-.405,1.718-.646a.25.25,0,0,1,.2.46c-.577.246-1.169.469-1.76.662a.257.257,0,0,1-.077.012m-12.691-.72a.251.251,0,0,1-.1-.021c-.571-.253-1.137-.539-1.682-.849a.25.25,0,0,1,.248-.435c.53.3,1.081.579,1.638.827a.25.25,0,0,1-.1.479m-5.366-.145a.25.25,0,0,1-.177-.427c.436-.438.872-.878,1.3-1.323a.25.25,0,1,1,.362.346c-.429.448-.867.89-1.306,1.331a.25.25,0,0,1-.177.074m21.472-.592a.25.25,0,0,1-.118-.471c.535-.285,1.068-.6,1.585-.93a.25.25,0,0,1,.27.421c-.528.34-1.073.659-1.62.951a.249.249,0,0,1-.118.029m144.4-.041a.25.25,0,0,1-.125-.467q.806-.462,1.61-.928a.25.25,0,1,1,.251.433l-1.611.929a.254.254,0,0,1-.125.033m119.919-.24a.25.25,0,0,1-.245-.3q.2-.906.386-1.815a.25.25,0,0,1,.49.1q-.186.912-.387,1.822a.251.251,0,0,1-.244.2m-283.65-.821a.251.251,0,0,1-.145-.046,17.34,17.34,0,0,1-1.473-1.18.25.25,0,1,1,.334-.373,16.647,16.647,0,0,0,1.43,1.145.25.25,0,0,1-.146.453m166.948-.8a.25.25,0,0,1-.126-.466q.8-.468,1.6-.937a.25.25,0,1,1,.253.432q-.8.47-1.6.938a.249.249,0,0,1-.126.034m-144.491-.1a.25.25,0,0,1-.151-.45c.483-.365.963-.757,1.427-1.163a.25.25,0,1,1,.33.376c-.473.414-.962.813-1.455,1.185a.247.247,0,0,1-.151.051m-22.042-.1a.25.25,0,0,1-.189-.413c.431-.5.806-.969,1.146-1.436a.25.25,0,0,1,.4.295c-.349.478-.732.958-1.173,1.468a.249.249,0,0,1-.19.086m-3.176-1.476a.25.25,0,0,1-.188-.085,14.73,14.73,0,0,1-1.158-1.494.25.25,0,1,1,.414-.28,14.37,14.37,0,0,0,1.119,1.444.25.25,0,0,1-.187.415m172.916-.2a.25.25,0,0,1-.127-.465q.8-.472,1.6-.947a.25.25,0,0,1,.256.431l-1.6.947a.247.247,0,0,1-.126.035m114.235-.14a.268.268,0,0,1-.046,0,.251.251,0,0,1-.2-.292q.17-.912.323-1.826a.25.25,0,1,1,.493.082q-.153.918-.324,1.835a.25.25,0,0,1-.246.2m-259.137-.526a.25.25,0,0,1-.177-.427c.427-.427.851-.879,1.261-1.344a.25.25,0,1,1,.375.33c-.417.473-.848.933-1.282,1.368a.25.25,0,0,1-.177.073m-22.669-.668a.25.25,0,0,1-.218-.373q.087-.154.171-.31a10.974,10.974,0,0,0,.6-1.336.25.25,0,1,1,.469.173,11.327,11.327,0,0,1-.626,1.4q-.086.162-.176.321a.25.25,0,0,1-.218.127m170.766-.566a.25.25,0,0,1-.129-.465l1.593-.956a.25.25,0,1,1,.258.428l-1.595.957a.248.248,0,0,1-.128.035m-178.182-.974a.25.25,0,0,1-.225-.14,12.726,12.726,0,0,1-.7-1.756.25.25,0,1,1,.477-.151,12.2,12.2,0,0,0,.676,1.687.251.251,0,0,1-.115.335.246.246,0,0,1-.11.025m32.544-.578a.25.25,0,0,1-.2-.4c.374-.478.742-.978,1.1-1.485a.25.25,0,0,1,.411.286c-.358.514-.733,1.022-1.112,1.507a.251.251,0,0,1-.2.1m257.291-.354-.037,0a.251.251,0,0,1-.211-.285q.138-.918.257-1.836a.25.25,0,0,1,.5.065q-.12.924-.258,1.845a.25.25,0,0,1-.247.213m-108.469-.011a.25.25,0,0,1-.13-.464q.793-.481,1.586-.965a.25.25,0,1,1,.261.427q-.794.485-1.588.966a.249.249,0,0,1-.129.036M28.54,123.05a.265.265,0,0,1-.046,0,.25.25,0,0,1-.2-.292,9.473,9.473,0,0,0,.162-1.718v-.084a.25.25,0,1,1,.5,0v.087a9.955,9.955,0,0,1-.17,1.809.25.25,0,0,1-.245.2m175.843-.948a.25.25,0,0,1-.132-.463q.792-.487,1.58-.977a.25.25,0,0,1,.265.425q-.79.491-1.582.978a.252.252,0,0,1-.131.037m-185.65-.648a.251.251,0,0,1-.248-.213,12.238,12.238,0,0,1-.135-1.67v-.22a.245.245,0,0,1,.252-.248.25.25,0,0,1,.248.252v.209a11.731,11.731,0,0,0,.13,1.6.251.251,0,0,1-.21.285l-.037,0m35.78-.1a.25.25,0,0,1-.212-.382c.32-.514.634-1.05.933-1.593a.25.25,0,0,1,.438.242c-.3.55-.623,1.094-.947,1.615a.249.249,0,0,1-.212.118m255.646-.991h-.028a.251.251,0,0,1-.221-.277q.1-.922.187-1.844a.25.25,0,0,1,.5.045q-.084.928-.187,1.854a.25.25,0,0,1-.249.223m-102.62-.224a.25.25,0,0,1-.134-.462q.787-.494,1.571-.991a.25.25,0,1,1,.268.423q-.785.5-1.573.993a.251.251,0,0,1-.133.038m-179.06-.78a.25.25,0,0,1-.243-.19,6.385,6.385,0,0,0-.659-1.657.25.25,0,1,1,.434-.249,6.885,6.885,0,0,1,.711,1.786.251.251,0,0,1-.183.3.255.255,0,0,1-.06.007m182.2-1.212a.25.25,0,0,1-.136-.46q.781-.5,1.561-1.007a.25.25,0,0,1,.272.419q-.78.506-1.563,1.009a.246.246,0,0,1-.134.04M56.312,118.1a.254.254,0,0,1-.11-.025.25.25,0,0,1-.114-.335c.269-.55.529-1.114.773-1.677a.25.25,0,0,1,.459.2c-.247.571-.51,1.143-.783,1.7a.251.251,0,0,1-.225.14m-37.471-.337a.255.255,0,0,1-.073-.01.251.251,0,0,1-.167-.312,4.549,4.549,0,0,1,.186-.505,3.788,3.788,0,0,1,.813-1.182.25.25,0,0,1,.351.357,3.28,3.28,0,0,0-.706,1.026,4.06,4.06,0,0,0-.166.45.25.25,0,0,1-.239.177m291.656-1.1h-.018a.25.25,0,0,1-.232-.268q.066-.925.112-1.85a.256.256,0,0,1,.263-.237.25.25,0,0,1,.237.263q-.047.93-.113,1.861a.251.251,0,0,1-.249.232M26.621,116.21a.249.249,0,0,1-.159-.057,5,5,0,0,0-1.537-.86.25.25,0,1,1,.167-.472,5.5,5.5,0,0,1,1.69.947.25.25,0,0,1-.16.443m187.174-.087a.25.25,0,0,1-.138-.459q.776-.51,1.549-1.026a.25.25,0,0,1,.277.417q-.774.516-1.551,1.027a.246.246,0,0,1-.137.041m-192.439-.887a.25.25,0,0,1-.079-.488,5.57,5.57,0,0,1,1.764-.278l.152,0a.25.25,0,0,1,.244.256.247.247,0,0,1-.257.244l-.139,0a5.069,5.069,0,0,0-1.606.253.259.259,0,0,1-.079.012m36.43-.546a.245.245,0,0,1-.088-.016.251.251,0,0,1-.146-.322c.213-.565.421-1.151.619-1.743a.25.25,0,1,1,.474.159c-.2.6-.409,1.189-.624,1.761a.25.25,0,0,1-.234.162m159.1-.631a.25.25,0,0,1-.141-.457q.769-.521,1.535-1.047a.25.25,0,0,1,.284.412q-.768.527-1.538,1.049a.249.249,0,0,1-.14.043m93.794-1.11h-.008a.25.25,0,0,1-.242-.257q.028-.927.035-1.853a.249.249,0,0,1,.25-.248h0a.25.25,0,0,1,.249.252q-.007.932-.036,1.864a.25.25,0,0,1-.25.243m-90.731-1a.25.25,0,0,1-.143-.456q.761-.532,1.519-1.069a.25.25,0,0,1,.289.408q-.759.539-1.522,1.072a.246.246,0,0,1-.143.045m-160.987-.786a.262.262,0,0,1-.071-.01.251.251,0,0,1-.169-.311q.263-.888.5-1.783a.25.25,0,1,1,.484.127q-.237.9-.5,1.8a.249.249,0,0,1-.24.179M222.984,109.8a.25.25,0,0,1-.147-.453q.752-.544,1.5-1.095a.25.25,0,0,1,.3.4q-.749.552-1.5,1.1a.247.247,0,0,1-.147.048m87.728-.566a.25.25,0,0,1-.25-.246q-.013-.928-.048-1.853a.25.25,0,0,1,.241-.259.258.258,0,0,1,.259.241q.035.93.048,1.864a.249.249,0,0,1-.247.253Zm-84.734-1.639a.25.25,0,0,1-.15-.45q.743-.558,1.48-1.122a.25.25,0,1,1,.3.4q-.739.566-1.484,1.124a.246.246,0,0,1-.15.05m-166.068-.021a.251.251,0,0,1-.244-.307q.21-.9.4-1.809a.25.25,0,1,1,.49.1q-.19.914-.4,1.822a.25.25,0,0,1-.244.193m250.664-2.055a.25.25,0,0,1-.249-.235q-.055-.925-.134-1.848a.25.25,0,0,1,.228-.27.259.259,0,0,1,.27.228q.079.929.134,1.86a.25.25,0,0,1-.235.265h-.015m-81.643-.185a.25.25,0,0,1-.154-.448q.731-.572,1.458-1.151a.25.25,0,1,1,.312.391q-.728.581-1.462,1.154a.248.248,0,0,1-.154.053m-168.262-1.4a.27.27,0,0,1-.046,0,.25.25,0,0,1-.2-.292q.17-.911.325-1.826a.25.25,0,1,1,.493.084q-.156.919-.326,1.835a.25.25,0,0,1-.246.2m171.168-.921a.25.25,0,0,1-.158-.444q.719-.587,1.432-1.182a.25.25,0,1,1,.321.384q-.715.6-1.436,1.185a.249.249,0,0,1-.159.057m78.424-1.2a.251.251,0,0,1-.248-.224q-.1-.92-.224-1.839a.25.25,0,0,1,.215-.281.253.253,0,0,1,.281.215q.124.924.225,1.851a.25.25,0,0,1-.222.276l-.027,0m-75.57-1.185a.25.25,0,0,1-.163-.44q.705-.6,1.4-1.215a.25.25,0,1,1,.33.377q-.7.613-1.408,1.218a.248.248,0,0,1-.163.061m-173.4-.36a.29.29,0,0,1-.039,0,.25.25,0,0,1-.209-.286q.143-.916.276-1.836a.25.25,0,1,1,.5.072q-.134.922-.277,1.841a.251.251,0,0,1-.247.212m176.2-2.091a.25.25,0,0,1-.167-.436q.69-.62,1.372-1.249a.25.25,0,0,1,.339.368q-.685.631-1.377,1.254a.251.251,0,0,1-.167.064m72.278-.048a.25.25,0,0,1-.247-.21q-.147-.914-.318-1.825a.25.25,0,1,1,.491-.093q.172.918.32,1.838a.25.25,0,0,1-.208.287.238.238,0,0,1-.04,0M61.83,96.588l-.034,0a.251.251,0,0,1-.214-.282q.128-.92.253-1.841a.25.25,0,1,1,.5.068q-.126.921-.252,1.842a.25.25,0,0,1-.248.216m178.391-.932a.25.25,0,0,1-.172-.432q.673-.638,1.339-1.285a.25.25,0,1,1,.349.358q-.667.65-1.343,1.29a.25.25,0,0,1-.172.069m68.858-1.181a.25.25,0,0,1-.244-.2q-.194-.905-.415-1.805a.25.25,0,0,1,.486-.118q.221.907.417,1.819a.25.25,0,0,1-.191.3.277.277,0,0,1-.053.006m-66.195-1.413a.25.25,0,0,1-.177-.427q.655-.656,1.3-1.322a.25.25,0,0,1,.359.349q-.649.668-1.306,1.327a.25.25,0,0,1-.177.073M62.333,92.9l-.034,0a.25.25,0,0,1-.214-.281q.126-.922.254-1.843a.25.25,0,1,1,.5.069q-.128.919-.253,1.84a.251.251,0,0,1-.248.216M308.2,90.863a.25.25,0,0,1-.241-.184q-.163-.6-.339-1.2-.086-.291-.175-.583a.25.25,0,1,1,.478-.146c.06.2.118.391.176.588q.177.6.342,1.205a.25.25,0,0,1-.176.307.234.234,0,0,1-.065.009m-62.726-.469a.251.251,0,0,1-.183-.422q.636-.675,1.261-1.36a.25.25,0,0,1,.37.337q-.628.688-1.266,1.365a.249.249,0,0,1-.182.079M62.851,89.222l-.037,0a.25.25,0,0,1-.211-.284q.136-.921.281-1.84a.248.248,0,0,1,.286-.208.251.251,0,0,1,.208.286q-.146.916-.281,1.835a.25.25,0,0,1-.247.214M247.977,87.65a.25.25,0,0,1-.187-.416q.614-.695,1.218-1.4a.25.25,0,0,1,.38.326q-.607.707-1.223,1.4a.25.25,0,0,1-.187.085m59.13-.34a.251.251,0,0,1-.236-.168c-.207-.6-.426-1.177-.648-1.729a.25.25,0,1,1,.464-.187c.226.559.448,1.148.657,1.752a.25.25,0,0,1-.236.333m-19.22-1.295a.25.25,0,0,1-.017-.5,8.407,8.407,0,0,0,1.772-.319.25.25,0,0,1,.14.48,8.91,8.91,0,0,1-1.877.338h-.018m-1.852-.087a.255.255,0,0,1-.041,0,8.178,8.178,0,0,1-1.248-.31l-.086-.028-.048-.078a6.207,6.207,0,0,1-.305-.558.25.25,0,1,1,.45-.218c.072.149.15.295.234.436a7.735,7.735,0,0,0,1.084.262.25.25,0,0,1-.041.5m-222.6-.378a.231.231,0,0,1-.042,0,.25.25,0,0,1-.2-.289q.157-.918.326-1.833a.25.25,0,1,1,.492.09q-.168.912-.325,1.827a.25.25,0,0,1-.246.208m228-.554a.25.25,0,0,1-.114-.473,10.835,10.835,0,0,0,1.538-.963.25.25,0,1,1,.3.4,11.277,11.277,0,0,1-1.609,1.007.249.249,0,0,1-.114.028m-41.042-.17a.251.251,0,0,1-.192-.41q.592-.714,1.177-1.436a.25.25,0,1,1,.389.315q-.588.723-1.18,1.44a.251.251,0,0,1-.193.09m55.314-.959a.251.251,0,0,1-.226-.143c-.268-.566-.554-1.115-.848-1.633a.25.25,0,0,1,.435-.247c.3.529.591,1.089.865,1.665a.251.251,0,0,1-.226.358m-21.714-.547a.25.25,0,0,1-.247-.215,6.967,6.967,0,0,1-.071-.995,7.534,7.534,0,0,1,.058-.925.25.25,0,0,1,.5.062,6.96,6.96,0,0,0-.055.862,6.476,6.476,0,0,0,.066.924.25.25,0,0,1-.211.284l-.037,0m10.413-.534a.25.25,0,0,1-.179-.425,12.319,12.319,0,0,0,1.172-1.393.25.25,0,0,1,.406.293,12.818,12.818,0,0,1-1.22,1.45.249.249,0,0,1-.179.076m-41.669-.846a.25.25,0,0,1-.2-.407l1.16-1.452a.25.25,0,1,1,.391.313l-1.16,1.452a.248.248,0,0,1-.2.094M64.107,81.894a.26.26,0,0,1-.049,0,.25.25,0,0,1-.2-.293q.179-.914.369-1.825a.247.247,0,0,1,.3-.194.25.25,0,0,1,.194.3q-.189.909-.367,1.82a.251.251,0,0,1-.245.2m239.762-1.253a.25.25,0,0,1-.206-.109c-.353-.514-.725-1.005-1.108-1.461a.25.25,0,1,1,.383-.322c.393.468.776.972,1.138,1.5a.25.25,0,0,1-.206.392m-7.294-.86a.251.251,0,0,1-.223-.365,11.453,11.453,0,0,0,.7-1.676.25.25,0,1,1,.476.155,11.935,11.935,0,0,1-.732,1.75.25.25,0,0,1-.223.136m-12.147-.114a.246.246,0,0,1-.087-.016.25.25,0,0,1-.147-.322,9.09,9.09,0,0,1,.849-1.709.25.25,0,0,1,.423.269,8.585,8.585,0,0,0-.8,1.614.25.25,0,0,1-.235.163m-29.367-.631a.25.25,0,0,1-.2-.407q.583-.725,1.172-1.446a.25.25,0,1,1,.387.317q-.588.719-1.169,1.443a.247.247,0,0,1-.195.094m-93.021-.6h-.025a.25.25,0,0,1-.224-.274q.092-.921.158-1.845a.242.242,0,0,1,.268-.232.25.25,0,0,1,.232.267q-.067.931-.16,1.86a.25.25,0,0,1-.248.225m-97.175-.185a.25.25,0,0,1-.244-.3q.2-.91.409-1.816a.25.25,0,1,1,.487.113q-.208.9-.407,1.811a.25.25,0,0,1-.244.2m236.611-.448a.249.249,0,0,1-.172-.069,13.941,13.941,0,0,0-1.4-1.168.25.25,0,1,1,.294-.4,14.349,14.349,0,0,1,1.453,1.21.25.25,0,0,1-.173.432M286.4,76.55a.25.25,0,0,1-.179-.425,8.6,8.6,0,0,1,1.478-1.212.25.25,0,0,1,.271.42,8.116,8.116,0,0,0-1.391,1.142.25.25,0,0,1-.179.075m11.311-.289-.036,0a.25.25,0,0,1-.212-.283q.056-.394.081-.787c-.28-.129-.563-.248-.847-.355a.25.25,0,1,1,.177-.468q.346.13.688.282v-.039q0-.22-.01-.44a.25.25,0,0,1,.238-.261h.012a.251.251,0,0,1,.25.239c.007.154.01.309.01.463q0,.135,0,.27c.179.088.358.18.534.276a.25.25,0,0,1-.239.44c-.107-.059-.216-.115-.325-.171q-.025.311-.07.623a.25.25,0,0,1-.247.215m-40.3-.1a.25.25,0,0,1-.192-.411q.6-.714,1.211-1.417a.25.25,0,0,1,.378.328q-.609.7-1.2,1.41a.251.251,0,0,1-.192.089M162.3,74.731h-.011a.25.25,0,0,1-.24-.261q.041-.924.056-1.851a.269.269,0,0,1,.254-.246.25.25,0,0,1,.246.254q-.015.932-.056,1.865a.25.25,0,0,1-.25.239m-96.606-.1a.241.241,0,0,1-.059-.007.25.25,0,0,1-.184-.3q.218-.9.446-1.807a.25.25,0,1,1,.485.122q-.226.9-.445,1.8a.25.25,0,0,1-.243.191m223.809-.066a.25.25,0,0,1-.081-.487,9.611,9.611,0,0,1,1.855-.436.253.253,0,0,1,.281.216.25.25,0,0,1-.215.281,9.07,9.07,0,0,0-1.758.413.249.249,0,0,1-.082.014m5.5-.247a.249.249,0,0,1-.054-.006,11.139,11.139,0,0,0-1.8-.244.251.251,0,0,1-.238-.263.247.247,0,0,1,.263-.237,11.639,11.639,0,0,1,1.881.255.25.25,0,0,1-.053.495m-35.151-.961a.25.25,0,0,1-.185-.419q.63-.689,1.277-1.36a.25.25,0,0,1,.36.347q-.643.667-1.267,1.351a.25.25,0,0,1-.185.081m37.683-.788a.25.25,0,0,1-.243-.194,11.731,11.731,0,0,0-.547-1.733.25.25,0,0,1,.464-.187,12.343,12.343,0,0,1,.57,1.807.251.251,0,0,1-.187.3.279.279,0,0,1-.057.006M66.607,71.026a.257.257,0,0,1-.064-.008.251.251,0,0,1-.179-.306q.236-.9.48-1.8a.25.25,0,0,1,.483.131q-.244.9-.479,1.794a.249.249,0,0,1-.241.187m95.758-.012a.25.25,0,0,1-.25-.248q-.011-.926-.046-1.852a.25.25,0,1,1,.5-.019q.035.932.046,1.865a.251.251,0,0,1-.248.253Zm100.077-.329a.25.25,0,0,1-.175-.43q.548-.53,1.111-1.046l.254-.229a.25.25,0,1,1,.335.372l-.252.228q-.558.509-1.1,1.035a.25.25,0,0,1-.175.07m33.722-1.551a.251.251,0,0,1-.216-.124,13.412,13.412,0,0,0-1.03-1.5.25.25,0,0,1,.393-.31,13.9,13.9,0,0,1,1.068,1.561.25.25,0,0,1-.089.342.247.247,0,0,1-.126.035m-30.953-.928a.25.25,0,0,1-.158-.444c.484-.4.98-.782,1.476-1.15a.25.25,0,0,1,.3.4c-.489.362-.979.744-1.457,1.134a.247.247,0,0,1-.158.057M67.582,67.438a.256.256,0,0,1-.068-.009.25.25,0,0,1-.173-.309q.252-.9.511-1.789a.25.25,0,1,1,.48.139q-.258.892-.51,1.786a.251.251,0,0,1-.241.182m94.641-.138a.25.25,0,0,1-.249-.234q-.061-.924-.146-1.846a.25.25,0,0,1,.226-.273.254.254,0,0,1,.273.226q.086.929.147,1.86a.25.25,0,0,1-.233.266h-.017m131.651-1.08a.249.249,0,0,1-.175-.072,15.692,15.692,0,0,0-1.379-1.2.25.25,0,1,1,.306-.4,16.292,16.292,0,0,1,1.424,1.241.251.251,0,0,1-.175.429M268.2,66a.25.25,0,0,1-.139-.459c.523-.347,1.058-.681,1.589-.992a.25.25,0,1,1,.253.431c-.523.307-1.05.636-1.565.978A.247.247,0,0,1,268.2,66m3.208-1.877a.25.25,0,0,1-.114-.473c.565-.287,1.136-.554,1.7-.8a.25.25,0,1,1,.2.46c-.552.236-1.114.5-1.669.782a.253.253,0,0,1-.114.027m19.532-.177a.253.253,0,0,1-.13-.037,17.141,17.141,0,0,0-1.613-.87.25.25,0,1,1,.214-.452,17.657,17.657,0,0,1,1.66.895.25.25,0,0,1-.131.464M68.618,63.868a.251.251,0,0,1-.24-.322q.267-.892.54-1.781a.25.25,0,0,1,.478.147q-.273.887-.539,1.777a.25.25,0,0,1-.24.179m93.261-.27a.25.25,0,0,1-.248-.22q-.11-.92-.245-1.836a.25.25,0,1,1,.5-.073q.136.922.247,1.849a.249.249,0,0,1-.218.278l-.03,0m112.946-.939a.25.25,0,0,1-.082-.487c.6-.208,1.2-.392,1.8-.548a.25.25,0,1,1,.127.484c-.581.153-1.173.334-1.759.537a.251.251,0,0,1-.082.014m12.759-.3a.257.257,0,0,1-.083-.014,17.236,17.236,0,0,0-1.759-.511.25.25,0,1,1,.114-.487,17.669,17.669,0,0,1,1.81.525.25.25,0,0,1-.082.487m-9.167-.64a.25.25,0,0,1-.043-.5c.621-.11,1.248-.192,1.864-.245a.255.255,0,0,1,.27.228.25.25,0,0,1-.228.271c-.6.052-1.213.133-1.819.239a.254.254,0,0,1-.044,0m5.553-.2-.03,0c-.489-.058-.983-.094-1.468-.107-.12,0-.239-.005-.358-.006a.25.25,0,0,1,0-.5h0c.122,0,.245,0,.368.006.5.013,1.009.05,1.513.11a.25.25,0,0,1-.029.5m-214.26-1.2a.245.245,0,0,1-.075-.012.25.25,0,0,1-.163-.314q.279-.887.565-1.772a.25.25,0,0,1,.476.154q-.285.884-.565,1.769a.249.249,0,0,1-.238.175m91.628-.393a.25.25,0,0,1-.246-.207q-.16-.912-.343-1.82a.25.25,0,0,1,.49-.1q.185.914.345,1.833a.25.25,0,0,1-.2.289.244.244,0,0,1-.043,0M70.853,56.776a.258.258,0,0,1-.079-.012.25.25,0,0,1-.159-.317q.293-.882.6-1.764a.25.25,0,1,1,.473.163q-.3.878-.595,1.759a.249.249,0,0,1-.237.171m89.749-.5a.25.25,0,0,1-.244-.194q-.208-.9-.44-1.8a.25.25,0,0,1,.485-.125q.234.9.443,1.812a.251.251,0,0,1-.188.3.243.243,0,0,1-.056.006M72.066,53.26a.255.255,0,0,1-.085-.015.25.25,0,0,1-.151-.32q.315-.876.643-1.748a.25.25,0,0,1,.468.176q-.327.869-.64,1.742a.251.251,0,0,1-.236.166m87.607-.583a.25.25,0,0,1-.24-.181q-.256-.89-.534-1.774a.25.25,0,0,1,.477-.151q.281.89.538,1.787a.25.25,0,0,1-.24.319m-86.3-2.9a.258.258,0,0,1-.092-.017.251.251,0,0,1-.141-.325q.343-.866.7-1.726a.25.25,0,0,1,.461.194q-.358.854-.7,1.717a.25.25,0,0,1-.232.158m85.176-.648a.251.251,0,0,1-.236-.169q-.3-.876-.628-1.743a.25.25,0,1,1,.468-.176q.329.874.633,1.755a.251.251,0,0,1-.155.318.259.259,0,0,1-.081.014M74.816,46.354a.241.241,0,0,1-.1-.022.25.25,0,0,1-.127-.33q.379-.853.779-1.694a.25.25,0,0,1,.452.215q-.4.836-.774,1.683a.25.25,0,0,1-.228.148m82.43-.7a.251.251,0,0,1-.232-.156q-.349-.858-.72-1.706a.25.25,0,1,1,.458-.2q.375.854.726,1.718a.251.251,0,0,1-.232.345M76.412,43a.245.245,0,0,1-.113-.027.25.25,0,0,1-.11-.337q.424-.832.871-1.65a.25.25,0,1,1,.439.24q-.444.811-.864,1.637a.25.25,0,0,1-.223.137m79.341-.749a.251.251,0,0,1-.227-.143q-.394-.838-.812-1.665a.25.25,0,1,1,.447-.225q.421.832.818,1.677a.25.25,0,0,1-.226.357M78.2,39.737a.246.246,0,0,1-.126-.035.25.25,0,0,1-.089-.342c.318-.538.646-1.074.976-1.592a.25.25,0,0,1,.422.269c-.327.513-.652,1.043-.967,1.577a.251.251,0,0,1-.216.123m75.882-.807a.25.25,0,0,1-.22-.131q-.44-.815-.9-1.618a.25.25,0,1,1,.433-.249q.466.808.908,1.629a.251.251,0,0,1-.22.369m-23.213-1.1-.031,0c-.1-.012-.2-.026-.3-.044a5.572,5.572,0,0,1-1.557-.513.25.25,0,1,1,.225-.447,5.072,5.072,0,0,0,1.417.467c.09.016.181.029.271.04a.25.25,0,0,1-.03.5m1.844-.094a.25.25,0,0,1-.057-.494,5.182,5.182,0,0,0,1.621-.692.25.25,0,0,1,.27.421,5.672,5.672,0,0,1-1.778.758.23.23,0,0,1-.057.007M80.2,36.6a.25.25,0,0,1-.205-.393c.357-.515.725-1.025,1.095-1.515a.25.25,0,1,1,.4.3c-.365.484-.73.988-1.083,1.5a.249.249,0,0,1-.206.108m47.406-.4a.249.249,0,0,1-.178-.075,7.065,7.065,0,0,1-1.144-1.544.25.25,0,0,1,.438-.242,6.564,6.564,0,0,0,1.063,1.435.25.25,0,0,1-.178.426m8.207-.407a.25.25,0,0,1-.187-.416,8.174,8.174,0,0,0,1.029-1.476.25.25,0,1,1,.439.241A8.668,8.668,0,0,1,136,35.713a.249.249,0,0,1-.187.085m16.415-.09a.249.249,0,0,1-.213-.119q-.484-.789-.99-1.565a.25.25,0,1,1,.419-.273q.51.782,1,1.577a.25.25,0,0,1-.083.344.245.245,0,0,1-.13.037M82.436,33.639a.251.251,0,0,1-.193-.41c.4-.483.809-.959,1.222-1.416a.25.25,0,1,1,.371.336c-.408.451-.814.921-1.207,1.4a.249.249,0,0,1-.193.091M125.8,33a.251.251,0,0,1-.241-.183,8.87,8.87,0,0,1-.314-1.884.25.25,0,0,1,.5-.029,8.355,8.355,0,0,0,.3,1.777.25.25,0,0,1-.173.309A.255.255,0,0,1,125.8,33m24.393-.4a.25.25,0,0,1-.205-.107c-.364-.522-.729-1.026-1.086-1.5a.25.25,0,0,1,.4-.3c.36.476.73.985,1.1,1.513a.25.25,0,0,1-.062.348.247.247,0,0,1-.143.045m-12.59-.023a.247.247,0,0,1-.077-.012.25.25,0,0,1-.161-.315,10.083,10.083,0,0,0,.4-1.767.25.25,0,0,1,.5.066,10.65,10.65,0,0,1-.42,1.855.251.251,0,0,1-.238.174M84.93,30.883a.25.25,0,0,1-.178-.427q.373-.375.757-.741.3-.281.6-.554a.25.25,0,0,1,.337.37q-.3.27-.588.546-.379.361-.747.731a.25.25,0,0,1-.177.074m63.014-1.247a.25.25,0,0,1-.192-.089c-.405-.483-.818-.946-1.226-1.376a.25.25,0,1,1,.363-.344c.415.438.835.908,1.247,1.4a.25.25,0,0,1-.191.411m-22.351-.321a.22.22,0,0,1-.041,0,.25.25,0,0,1-.205-.288,7.663,7.663,0,0,1,.545-1.837.25.25,0,0,1,.458.2,7.178,7.178,0,0,0-.509,1.718.251.251,0,0,1-.247.209m12.5-.41a.25.25,0,0,1-.25-.236,8.6,8.6,0,0,0-.282-1.781.25.25,0,0,1,.483-.131,9.121,9.121,0,0,1,.3,1.885.25.25,0,0,1-.236.264h-.014m-50.41-.523a.25.25,0,0,1-.159-.443c.476-.392.972-.78,1.474-1.152a.25.25,0,1,1,.3.4c-.495.368-.984.75-1.453,1.137a.25.25,0,0,1-.159.057m57.7-1.435a.249.249,0,0,1-.168-.065c-.462-.42-.937-.817-1.409-1.177a.25.25,0,0,1,.3-.4c.485.37.97.775,1.443,1.205a.25.25,0,0,1-.168.435M90.66,26.165a.25.25,0,0,1-.14-.458c.515-.346,1.045-.684,1.577-1.006a.25.25,0,0,1,.259.428c-.525.318-1.049.652-1.557.993a.251.251,0,0,1-.139.043m36.436-.2a.247.247,0,0,1-.159-.057.25.25,0,0,1-.034-.352,8.8,8.8,0,0,1,1.369-1.331.25.25,0,1,1,.308.395,8.253,8.253,0,0,0-1.29,1.254.25.25,0,0,1-.194.091m10.007-.61a.25.25,0,0,1-.219-.129c-.091-.163-.189-.324-.295-.48a11.419,11.419,0,0,0-.751-.992.25.25,0,1,1,.381-.324A11.765,11.765,0,0,1,137,24.464q.17.252.318.517a.25.25,0,0,1-.218.372m5.319-.651a.25.25,0,0,1-.131-.037,16.365,16.365,0,0,0-1.608-.872.25.25,0,1,1,.213-.453,16.88,16.88,0,0,1,1.657.9.25.25,0,0,1-.131.463m-48.585-.464a.25.25,0,0,1-.12-.47c.539-.295,1.1-.584,1.66-.861a.25.25,0,1,1,.221.449c-.556.273-1.108.559-1.641.851a.251.251,0,0,1-.12.031M130,23.683a.25.25,0,0,1-.112-.474,10.623,10.623,0,0,1,1.772-.689.25.25,0,0,1,.14.48,10.15,10.15,0,0,0-1.689.656.257.257,0,0,1-.111.026m9.063-.544a.256.256,0,0,1-.075-.011,12.935,12.935,0,0,0-1.774-.418.25.25,0,1,1,.08-.494,13.466,13.466,0,0,1,1.843.434.25.25,0,0,1-.074.489m-5.513-.5a.25.25,0,0,1-.031-.5c.189-.023.38-.043.572-.058-.316-.246-.648-.481-.994-.7a.25.25,0,1,1,.269-.422,13.51,13.51,0,0,1,1.471,1.086c.191,0,.383,0,.574,0a.251.251,0,0,1,.245.256.244.244,0,0,1-.255.244,12.633,12.633,0,0,0-1.82.092l-.031,0M97.173,22.6a.25.25,0,0,1-.1-.479c.566-.249,1.146-.491,1.726-.718a.25.25,0,0,1,.183.466c-.573.225-1.148.464-1.707.71a.254.254,0,0,1-.1.021m3.46-1.36a.25.25,0,0,1-.082-.487c.584-.2,1.181-.4,1.776-.581a.25.25,0,1,1,.147.478c-.588.18-1.18.374-1.758.575a.254.254,0,0,1-.082.014m30.972-.72a.251.251,0,0,1-.108-.025,17.876,17.876,0,0,0-1.691-.7.25.25,0,1,1,.168-.471,18.2,18.2,0,0,1,1.738.722.25.25,0,0,1-.108.476m-27.417-.37a.25.25,0,0,1-.064-.492c.6-.159,1.206-.31,1.813-.45a.25.25,0,1,1,.112.488c-.6.138-1.206.288-1.8.446a.253.253,0,0,1-.065.008m3.624-.832a.25.25,0,0,1-.047-.5c.607-.118,1.226-.227,1.839-.324a.25.25,0,0,1,.079.494c-.608.1-1.222.2-1.823.322a.254.254,0,0,1-.048,0m20.3-.058a.245.245,0,0,1-.064-.009c-.574-.151-1.177-.287-1.8-.4a.25.25,0,0,1,.093-.492c.63.118,1.246.257,1.831.412a.25.25,0,0,1-.064.492m-16.633-.527a.25.25,0,0,1-.031-.5q.926-.117,1.856-.2a.25.25,0,1,1,.047.5q-.921.087-1.84.2l-.032,0m12.984-.167-.032,0c-.6-.075-1.214-.136-1.838-.182a.25.25,0,0,1-.231-.268.244.244,0,0,1,.268-.231c.633.046,1.26.108,1.864.184a.25.25,0,0,1-.031.5m-9.283-.182a.25.25,0,0,1-.016-.5q.932-.059,1.865-.089a.254.254,0,0,1,.258.242.25.25,0,0,1-.242.258q-.924.03-1.849.088h-.016m5.574-.1h-.008l-.206-.005q-.751-.019-1.507-.018H118.9a.25.25,0,0,1,0-.5h.139q.761,0,1.52.019l.208.005a.25.25,0,0,1-.007.5" transform="translate(-5.992 -9.852)" fill="#a39686"/>
          <path id="Path_608442" data-name="Path 608442" d="M632.483,264.943a2.355,2.355,0,0,1-1.67-.692l-13.129-13.129a2.362,2.362,0,0,1,3.34-3.341l13.129,13.129a2.362,2.362,0,0,1-1.67,4.033" transform="translate(-342.237 -137.057)" fill="#ffca7a"/>
          <path id="Path_608443" data-name="Path 608443" d="M619.354,264.943a2.362,2.362,0,0,1-1.67-4.033l13.129-13.129a2.362,2.362,0,0,1,3.341,3.341L621.025,264.25a2.355,2.355,0,0,1-1.67.692" transform="translate(-342.237 -137.057)" fill="#ffca7a"/>
          <path id="Path_608444" data-name="Path 608444" d="M262.636,94.6a2.016,2.016,0,0,1-1.431-.593l-11.25-11.25a2.024,2.024,0,0,1,2.863-2.862l11.25,11.249a2.024,2.024,0,0,1-1.431,3.456" transform="translate(-138.318 -43.989)" fill="#ffca7a"/>
          <path id="Path_608445" data-name="Path 608445" d="M251.386,94.6a2.024,2.024,0,0,1-1.431-3.456L261.2,79.9a2.024,2.024,0,0,1,2.863,2.862l-11.25,11.25a2.017,2.017,0,0,1-1.431.593" transform="translate(-138.318 -43.989)" fill="#ffca7a"/>
          <path id="Path_608446" data-name="Path 608446" d="M610.083,214.356l6.156-13.6,9.679,11.966Zm6.458-11.25-4.43,9.79,11.4-1.178Z" transform="translate(-338.405 -111.356)" fill="#f84558"/>
          <path id="Path_608447" data-name="Path 608447" d="M79.211,81.11l8.435-13.5L94.6,80.822Zm8.343-11-6.071,9.717,11.075-.208Z" transform="translate(-43.937 -37.502)" fill="#f84558"/>
          <path id="Path_608448" data-name="Path 608448" d="M340.063,89.483l-3.013-.536a21.078,21.078,0,0,0-1.34-3.257l1.746-2.5a6.16,6.16,0,0,0-8.577-8.578l-2.51,1.753a21.087,21.087,0,0,0-3.245-1.33l-.539-3.029a6.16,6.16,0,0,0-12.129,0l-.569,3.2a21.046,21.046,0,0,0-3.011,1.3l-2.713-1.894a6.16,6.16,0,0,0-8.577,8.578l2.022,2.9a21.132,21.132,0,0,0-1.107,2.772l-3.522.626a6.16,6.16,0,0,0,0,12.129l3.679.654a21.152,21.152,0,0,0,1.078,2.561l-2.15,3.079a6.16,6.16,0,0,0,8.577,8.577l3.07-2.143a21.134,21.134,0,0,0,2.572,1.088l.651,3.662a6.16,6.16,0,0,0,12.129,0l.62-3.489a21.148,21.148,0,0,0,2.806-1.119l2.867,2a6.16,6.16,0,0,0,8.577-8.577l-1.874-2.684a21.134,21.134,0,0,0,1.312-3.046l3.169-.564a6.16,6.16,0,0,0,0-12.129m-23.3,21.613a15.764,15.764,0,1,1,15.764-15.764A15.782,15.782,0,0,1,316.761,111.1" transform="translate(-159.693 -37.122)" fill="#304c8e"/>
          <path id="Path_608449" data-name="Path 608449" d="M422,31.225l-1.763-.314a12.37,12.37,0,0,0-.784-1.905l1.021-1.463a3.6,3.6,0,0,0-5.017-5.018l-1.469,1.025a12.317,12.317,0,0,0-1.9-.778L411.778,21a3.6,3.6,0,0,0-7.1,0l-.333,1.873a12.371,12.371,0,0,0-1.762.76L401,22.526a3.6,3.6,0,0,0-5.018,5.018l1.183,1.694a12.314,12.314,0,0,0-.647,1.621l-2.06.366a3.6,3.6,0,0,0,0,7.1l2.152.383a12.4,12.4,0,0,0,.631,1.5L395.983,42A3.6,3.6,0,0,0,401,47.021l1.8-1.254a12.253,12.253,0,0,0,1.5.636l.381,2.143a3.6,3.6,0,0,0,7.1,0l.363-2.041a12.359,12.359,0,0,0,1.641-.655l1.677,1.171A3.6,3.6,0,0,0,420.478,42l-1.1-1.57a12.435,12.435,0,0,0,.767-1.782l1.854-.33a3.6,3.6,0,0,0,0-7.1M408.37,43.869a9.222,9.222,0,1,1,9.222-9.222,9.233,9.233,0,0,1-9.222,9.222" transform="translate(-217.152 -10)" fill="#304c8e"/>
          <path id="Path_608450" data-name="Path 608450" d="M632.207,317.5l-1.762-.313a12.391,12.391,0,0,0-.784-1.906l1.021-1.463a3.6,3.6,0,0,0-5.018-5.018L624.2,309.83a12.314,12.314,0,0,0-1.9-.778l-.315-1.772a3.6,3.6,0,0,0-7.1,0l-.333,1.873a12.381,12.381,0,0,0-1.762.76L611.2,308.8a3.6,3.6,0,0,0-5.018,5.018l1.183,1.694a12.341,12.341,0,0,0-.647,1.621l-2.06.366a3.6,3.6,0,0,0,0,7.1l2.152.383a12.392,12.392,0,0,0,.63,1.5l-1.258,1.8A3.6,3.6,0,0,0,611.2,333.3l1.8-1.254a12.289,12.289,0,0,0,1.5.636l.381,2.143a3.6,3.6,0,0,0,7.1,0l.363-2.041a12.355,12.355,0,0,0,1.641-.655l1.677,1.171a3.6,3.6,0,0,0,5.018-5.018l-1.1-1.57a12.435,12.435,0,0,0,.767-1.782l1.854-.33a3.6,3.6,0,0,0,0-7.1m-13.632,12.644a9.222,9.222,0,1,1,9.222-9.222,9.233,9.233,0,0,1-9.222,9.222" transform="translate(-333.749 -168.795)" fill="#304c8e"/>
          <path id="Path_608451" data-name="Path 608451" d="M105.2,268.139H60.206V234.467a15.428,15.428,0,0,1,15.411-15.411H89.79A15.428,15.428,0,0,1,105.2,234.467Zm-39.249-5.746h33.5V234.467A9.675,9.675,0,0,0,89.79,224.8H75.617a9.675,9.675,0,0,0-9.665,9.664Z" transform="translate(-33.395 -121.508)" fill="#5d9dc1"/>
          <path id="Path_608452" data-name="Path 608452" d="M96.184,349.968h-51.3a7.453,7.453,0,0,1-7.453-7.452v-42.98a7.453,7.453,0,0,1,7.453-7.452h51.3a7.452,7.452,0,0,1,7.452,7.452v42.98a7.452,7.452,0,0,1-7.452,7.452" transform="translate(-20.761 -162.015)" fill="#f84558"/>
          <path id="Path_608453" data-name="Path 608453" d="M110.083,344.345a6.857,6.857,0,1,1-6.857-6.857,6.857,6.857,0,0,1,6.857,6.857" transform="translate(-53.454 -187.2)" fill="#473632"/>
          <path id="Path_608454" data-name="Path 608454" d="M107.833,370.859h0a3.159,3.159,0,0,1-3.159-3.159v-4.654a3.159,3.159,0,0,1,6.317,0V367.7a3.158,3.158,0,0,1-3.158,3.159" transform="translate(-58.061 -199.625)" fill="#473632"/>
          <path id="Path_608455" data-name="Path 608455" d="M342.243,250.261H171.353V136.778a5.565,5.565,0,0,1,5.565-5.565H336.679a5.564,5.564,0,0,1,5.564,5.565Z" transform="translate(-95.047 -72.782)" fill="#473632"/>
          <rect id="Rectangle_377398" data-name="Rectangle 377398" width="153.891" height="103.383" transform="translate(84.805 66.199)" fill="#fff"/>
          <path id="Path_608456" data-name="Path 608456" d="M326.38,409.6H138.447a11.055,11.055,0,0,1-11.055-11.055H337.435A11.055,11.055,0,0,1,326.38,409.6" transform="translate(-70.663 -221.069)" fill="#afafaf"/>
          <rect id="Rectangle_377399" data-name="Rectangle 377399" width="36.855" height="4.517" transform="translate(143.323 177.479)" fill="#fff"/>
          <path id="Path_608457" data-name="Path 608457" d="M298.832,281.04c-8.574,0-12.48-6.864-12.48-13.241,0-6.93,7.4-13.241,15.516-13.241,8.166,0,14.81,5.556,14.81,12.386,0,7.26-10.053,14.1-17.845,14.1m3.036-24.453c-6.933,0-13.487,5.449-13.487,11.213,0,5.581,3.232,11.213,10.452,11.213,7.243,0,15.818-6.541,15.818-12.068,0-5.711-5.734-10.358-12.782-10.358" transform="translate(-158.836 -141.2)" fill="#473632"/>
          <path id="Path_608458" data-name="Path 608458" d="M283.736,287.025h-2.186a2.01,2.01,0,0,1-1.981-1.67L279.2,283.2a2.009,2.009,0,0,1,1.981-2.349h2.556Z" transform="translate(-154.852 -155.784)" fill="#473632"/>
          <path id="Path_608459" data-name="Path 608459" d="M389.851,281.04c-7.792,0-17.845-6.836-17.845-14.1,0-6.83,6.644-12.386,14.81-12.386,8.12,0,15.516,6.311,15.516,13.241,0,6.377-3.905,13.241-12.48,13.241m-3.035-24.453c-7.048,0-12.782,4.646-12.782,10.358,0,5.526,8.574,12.068,15.817,12.068,7.22,0,10.452-5.631,10.452-11.213,0-5.764-6.555-11.213-13.487-11.213" transform="translate(-206.346 -141.2)" fill="#473632"/>
          <path id="Path_608460" data-name="Path 608460" d="M437.035,287.025h2.187a2.01,2.01,0,0,0,1.981-1.67l.369-2.155a2.009,2.009,0,0,0-1.981-2.349h-2.556Z" transform="translate(-242.418 -155.784)" fill="#473632"/>
          <path id="Path_608461" data-name="Path 608461" d="M352.091,280.923l-.684-1.91c.251-.089,6.2-2.178,10.641.048l-.909,1.814c-3.675-1.841-8.995.029-9.048.048" transform="translate(-194.921 -154.224)" fill="#473632"/>
          <path id="Path_608462" data-name="Path 608462" d="M211.1,240.369s73.228-26.6,135.491,0c0,0-59.522-55.971-135.491,0" transform="translate(-117.094 -119.531)" fill="#473632"/>
          <path id="Path_608463" data-name="Path 608463" d="M301.968,189.088s11.854-36.886,20.418-29.39c8.451,7.4,13.926.175,13.926.175s9.025-11.589,20.217,29.468Z" transform="translate(-167.498 -87.842)" fill="#473632"/>
          <path id="Path_608464" data-name="Path 608464" d="M308.709,344.623a10.666,10.666,0,0,1-3.529-1.658l1.559-3.458a10.582,10.582,0,0,0,3.033,1.5,11.384,11.384,0,0,0,3.515.567,5.615,5.615,0,0,0,2.891-.581,1.757,1.757,0,0,0,.935-1.545,1.477,1.477,0,0,0-.553-1.176,4.194,4.194,0,0,0-1.417-.751q-.865-.283-2.338-.624a32.115,32.115,0,0,1-3.713-1.077,6.029,6.029,0,0,1-2.48-1.729,4.67,4.67,0,0,1-1.034-3.175,5.522,5.522,0,0,1,.936-3.132,6.3,6.3,0,0,1,2.82-2.225,11.515,11.515,0,0,1,4.606-.822,15.254,15.254,0,0,1,3.713.453,10.978,10.978,0,0,1,3.175,1.3l-1.417,3.486a11.071,11.071,0,0,0-5.5-1.559,5.157,5.157,0,0,0-2.849.624,1.9,1.9,0,0,0-.921,1.644,1.607,1.607,0,0,0,1.063,1.516,16.646,16.646,0,0,0,3.246.978,32.523,32.523,0,0,1,3.713,1.077,6.152,6.152,0,0,1,2.48,1.7,4.56,4.56,0,0,1,1.035,3.146,5.418,5.418,0,0,1-.95,3.1,6.384,6.384,0,0,1-2.849,2.225,11.616,11.616,0,0,1-4.62.822,16.24,16.24,0,0,1-4.549-.638" transform="translate(-169.279 -180.129)" fill="#60cb28"/>
          <path id="Path_608465" data-name="Path 608465" d="M349.318,344.623a10.667,10.667,0,0,1-3.529-1.658l1.56-3.458a10.556,10.556,0,0,0,3.033,1.5,11.383,11.383,0,0,0,3.514.567,5.614,5.614,0,0,0,2.891-.581,1.757,1.757,0,0,0,.936-1.545,1.477,1.477,0,0,0-.553-1.176,4.2,4.2,0,0,0-1.417-.751q-.865-.283-2.339-.624a32.1,32.1,0,0,1-3.713-1.077,6.03,6.03,0,0,1-2.48-1.729,4.67,4.67,0,0,1-1.034-3.175,5.526,5.526,0,0,1,.936-3.132,6.3,6.3,0,0,1,2.82-2.225,11.513,11.513,0,0,1,4.606-.822,15.257,15.257,0,0,1,3.713.453,10.977,10.977,0,0,1,3.175,1.3l-1.418,3.486a11.066,11.066,0,0,0-5.5-1.559,5.154,5.154,0,0,0-2.849.624,1.9,1.9,0,0,0-.922,1.644,1.608,1.608,0,0,0,1.064,1.516,16.624,16.624,0,0,0,3.245.978,32.548,32.548,0,0,1,3.713,1.077,6.154,6.154,0,0,1,2.48,1.7,4.56,4.56,0,0,1,1.035,3.146,5.424,5.424,0,0,1-.95,3.1,6.385,6.385,0,0,1-2.848,2.225,11.623,11.623,0,0,1-4.621.822,16.237,16.237,0,0,1-4.549-.638" transform="translate(-191.805 -180.129)" fill="#60cb28"/>
          <path id="Path_608466" data-name="Path 608466" d="M389.9,325.5h4.592v16.1h9.949v3.742H389.9Z" transform="translate(-216.271 -180.552)" fill="#60cb28"/>
          <path id="Path_608467" data-name="Path 608467" d="M503.355,59.193c-15.027,9.021-23.165-5.213-23.165-5.213L445.478,72.459s7.264,14.7-8.61,22.129c0,0,23.541,55.555,63.3,40.114l1.128-.6c35.007-24.359,2.063-74.908,2.063-74.908" transform="translate(-242.325 -29.942)" fill="#304c8e"/>
          <path id="Path_608468" data-name="Path 608468" d="M492.993,138.5c-10.112,0-19.911-4.861-28.845-14.424a88.219,88.219,0,0,1-14.663-22.045l-.22-.506.482-.27c12.677-7.111,7.559-20.269,7.335-20.826l-.205-.509.485-.258,28.562-15.206.3.48c.292.462,7.306,11.256,21.407,5.505l.471-.192.274.429a88.219,88.219,0,0,1,10.1,24.474c4.131,17.89-.367,32.031-13.009,40.895l-.131.07a34.26,34.26,0,0,1-12.345,2.382m-42.163-36.46a87.3,87.3,0,0,0,14.23,21.224c12.315,13.17,25.695,17.12,39.77,11.741,12.321-8.673,16.515-21.978,12.465-39.548a87.3,87.3,0,0,0-9.683-23.691c-13.038,5.034-20.484-3.563-22.091-5.711L458.4,80.49c.866,2.643,4.019,14.674-7.568,21.546" transform="translate(-249.201 -35.751)" fill="#fff"/>
          <path id="Path_608469" data-name="Path 608469" d="M513.922,148.685a7.119,7.119,0,0,1-2.662-.516l-18.728-7.544a4.312,4.312,0,1,1,3.222-8l17.1,6.888,6.552-28.52a4.312,4.312,0,1,1,8.405,1.931l-6.983,30.39a7.124,7.124,0,0,1-6.905,5.37" transform="translate(-271.702 -59.71)" fill="#fff"/>
          <path id="Path_608470" data-name="Path 608470" d="M583.06,296.311a3.01,3.01,0,0,1-3.01-3.01V251.68a3.01,3.01,0,0,1,6.02,0V293.3a3.01,3.01,0,0,1-3.01,3.01" transform="translate(-321.746 -137.935)" fill="#f84558"/>
          <path id="Path_608471" data-name="Path 608471" d="M585.71,366.746a4.475,4.475,0,1,1-4.475-4.475,4.475,4.475,0,0,1,4.475,4.475" transform="translate(-319.921 -200.947)" fill="#f84558"/>
          <path id="Path_608472" data-name="Path 608472" d="M95.007,151.435H58.721a6.152,6.152,0,0,1-6.152-6.152V124.6a6.152,6.152,0,0,1,6.152-6.151H95.007a6.152,6.152,0,0,1,6.152,6.151v20.685a6.152,6.152,0,0,1-6.152,6.152" transform="translate(-29.159 -65.701)" fill="#ffca7a"/>
          <path id="Path_608473" data-name="Path 608473" d="M52.569,165.651v20.116a1.317,1.317,0,0,0,2.386.769l8.131-11.3Z" transform="translate(-29.159 -91.884)" fill="#ffca7a"/>
          <path id="Path_608474" data-name="Path 608474" d="M102.455,148.277H77.133a1.253,1.253,0,0,1,0-2.506h25.322a1.253,1.253,0,0,1,0,2.506" transform="translate(-42.09 -80.857)" fill="#fff"/>
          <path id="Path_608475" data-name="Path 608475" d="M102.455,162.078H77.133a1.253,1.253,0,1,1,0-2.506h25.322a1.253,1.253,0,1,1,0,2.506" transform="translate(-42.09 -88.513)" fill="#fff"/>
          <path id="Path_608476" data-name="Path 608476" d="M128.112,54.978H164.4a6.151,6.151,0,0,0,6.151-6.152V28.142A6.151,6.151,0,0,0,164.4,21.99H128.112a6.152,6.152,0,0,0-6.152,6.152V48.827a6.152,6.152,0,0,0,6.152,6.152" transform="translate(-67.65 -12.198)" fill="#ffca7a"/>
          <path id="Path_608477" data-name="Path 608477" d="M217.972,69.194V89.31a1.317,1.317,0,0,1-2.386.77l-8.131-11.3Z" transform="translate(-115.073 -38.381)" fill="#ffca7a"/>
          <path id="Path_608478" data-name="Path 608478" d="M171.846,51.821H146.524a1.253,1.253,0,0,1,0-2.506h25.322a1.253,1.253,0,0,1,0,2.506" transform="translate(-80.58 -27.354)" fill="#fff"/>
          <path id="Path_608479" data-name="Path 608479" d="M171.846,65.622H146.524a1.253,1.253,0,1,1,0-2.506h25.322a1.253,1.253,0,1,1,0,2.506" transform="translate(-80.58 -35.01)" fill="#fff"/>
          <path id="Path_608480" data-name="Path 608480" d="M313.187,423.2H21.892a.7.7,0,0,1,0-1.394H313.187a.7.7,0,0,1,0,1.394" transform="translate(-11.757 -233.971)" fill="#473632"/>
          <path id="Path_608481" data-name="Path 608481" d="M228.039,339.1a2.716,2.716,0,0,1-1.926-.8l-15.137-15.137a2.724,2.724,0,1,1,3.852-3.852l15.137,15.137a2.724,2.724,0,0,1-1.926,4.649" transform="translate(-116.583 -176.676)" fill="#ffca7a"/>
          <path id="Path_608482" data-name="Path 608482" d="M212.9,339.1a2.724,2.724,0,0,1-1.926-4.649l15.137-15.137a2.724,2.724,0,0,1,3.852,3.852L214.829,338.3a2.716,2.716,0,0,1-1.926.8" transform="translate(-116.584 -176.676)" fill="#ffca7a"/>
          <path id="Path_608483" data-name="Path 608483" d="M356.172,36.6a5.665,5.665,0,1,1,5.665-5.665,5.672,5.672,0,0,1-5.665,5.665m0-9.987a4.322,4.322,0,1,0,4.321,4.322,4.326,4.326,0,0,0-4.321-4.322" transform="translate(-194.422 -14.018)" fill="#00ac64"/>
          <path id="Path_608484" data-name="Path 608484" d="M610.392,397.641a3.692,3.692,0,1,1,3.692-3.692,3.7,3.7,0,0,1-3.692,3.692m0-6.507a2.816,2.816,0,1,0,2.816,2.816,2.819,2.819,0,0,0-2.816-2.816" transform="translate(-336.529 -216.471)" fill="#00ac64"/>
          <path id="Path_608485" data-name="Path 608485" d="M73.3,65.2a4.326,4.326,0,1,1,4.327-4.326A4.331,4.331,0,0,1,73.3,65.2m0-7.627a3.3,3.3,0,1,0,3.3,3.3,3.3,3.3,0,0,0-3.3-3.3" transform="translate(-38.261 -31.365)" fill="#00ac64"/>
          <path id="Path_608486" data-name="Path 608486" d="M66.312,384.029,48.266,373.574l19.248-9.741ZM51.8,373.674,64.791,381.2l.865-14.535Z" transform="translate(-26.773 -201.813)" fill="#fff"/>
        </g>
      </g>
    </g>
  </g>
</svg>
