<svg id="Group_1016986" data-name="Group 1016986" xmlns="http://www.w3.org/2000/svg" xmlns:xlink="http://www.w3.org/1999/xlink" width="69.2" height="78.606" viewBox="0 0 69.2 78.606">
  <defs>
    <clipPath id="clip-path">
      <rect id="Rectangle_375661" data-name="Rectangle 375661" width="69.2" height="78.606" fill="none"/>
    </clipPath>
  </defs>
  <g id="Group_1016985" data-name="Group 1016985" clip-path="url(#clip-path)">
    <path id="Path_608345" data-name="Path 608345" d="M31.466,77.141A1.717,1.717,0,0,1,29.527,78.6c-6.1-.016-12.2.027-18.3-.021A8.572,8.572,0,0,1,2.855,69.8c-.017-10.524-.078-21.049.036-31.571a28.318,28.318,0,0,0-1.5-9.96c-.381-1.071-.67-2.176-.979-3.272-1.484-5.252,1.117-9.725,6.517-11.28Q29.97,7.078,53,.419c5.133-1.483,9.669,1.041,11.2,6.271.775,2.655,1.527,5.316,2.292,7.974.443,1.537.11,2.184-1.439,2.635Q57.732,19.432,50.4,21.538C38.966,24.846,27.53,28.155,16.1,31.667h50.61c2.091,0,2.491.4,2.491,2.506q0,17.69,0,35.38c0,5.437-3.62,9.038-9.072,9.041-5.814,0-11.629-.009-17.444.009-1.078,0-1.834-.328-2.038-1.476.134-1.407,1.093-1.644,2.267-1.642,5.689.01,11.38-.078,17.067.034a5.707,5.707,0,0,0,6.147-6.042c-.052-6.426-.03-12.852,0-19.278,0-.863-.245-1.087-1.1-1.086q-28.978.035-57.957,0c-.887,0-1.064.266-1.06,1.1.034,6.549.016,13.1.025,19.647a5.46,5.46,0,0,0,.182,1.694c.814,2.558,2.7,3.923,5.664,3.934q8.657.032,17.313,0c1.188,0,2.113.28,2.266,1.657M46.132,5.609c.059.138.071.231.123.282,3.477,3.351,6.97,6.686,10.421,10.064a1.027,1.027,0,0,0,1.194.194c1.527-.425,3.04-.9,4.575-1.29.725-.183.742-.589.576-1.152-.677-2.3-1.3-4.618-2.044-6.9A5.383,5.383,0,0,0,54.57,3.183c-2.836.7-5.621,1.607-8.438,2.426M19.025,27.389c-3.669-3.526-7.211-6.923-10.739-10.335a.8.8,0,0,0-.937-.208,5.53,5.53,0,0,0-4,7.132c.6,2.195,1.326,4.356,1.9,6.558.181.7.481.744,1.025.585l12.753-3.732m33.582,18.7c4.419,0,8.585-.013,12.751.012.71,0,.793-.343.791-.911-.013-3.153-.021-6.306.006-9.459.006-.665-.149-.945-.88-.926-1.8.049-3.6.018-5.4.014-.416,0-.768,0-1.029.458-2.018,3.537-4.065,7.058-6.234,10.811M19.413,34.82c-4.377,0-8.572.01-12.768-.011-.621,0-.617.333-.616.775.007,3.231.02,6.463-.009,9.695-.006.662.226.832.852.819,1.717-.035,3.437-.051,5.153.006a1.4,1.4,0,0,0,1.426-.868c1.565-2.765,3.175-5.5,4.763-8.256.38-.659.739-1.33,1.2-2.16M30.59,24.047c-3.052-2.933-6.07-5.58-8.769-8.52-1.657-1.8-3.179-2.364-5.446-1.361a43.069,43.069,0,0,1-5.058,1.547C15,19.248,18.5,22.612,22,25.987a.932.932,0,0,0,.992.272c2.446-.714,4.892-1.424,7.6-2.211m23.116-6.7C49.989,13.773,46.482,10.4,42.98,7.026a.768.768,0,0,0-.855-.262c-2.508.746-5.025,1.457-7.592,2.195a2.794,2.794,0,0,0,.273.429q5.138,4.928,10.28,9.851c.239.229.458.481.839.37l7.782-2.261m-30.826-5c3.693,3.558,7.248,6.982,10.8,10.41.184.177.362.329.64.247l7.627-2.267c-.06-.193-.06-.293-.11-.341Q36.623,15.387,31.4,10.384a.867.867,0,0,0-.97-.266c-2.443.747-4.9,1.451-7.553,2.229M16.514,46.086c2.734,0,5.186-.027,7.637.017a1.323,1.323,0,0,0,1.317-.83c1.809-3.185,3.656-6.35,5.478-9.528.151-.264.45-.5.3-.927-2.518,0-5.05.023-7.582-.016-.623-.01-.853.335-1.1.77q-1.7,2.966-3.413,5.925c-.845,1.469-1.686,2.94-2.631,4.589m12.022,0c2.8,0,5.371-.011,7.938.01.508,0,.7-.288.913-.656,1.889-3.282,3.776-6.566,5.7-9.83.374-.636.314-.811-.444-.8-2.289.03-4.58.021-6.87,0a1.066,1.066,0,0,0-1.077.6c-1.994,3.5-4.018,6.978-6.156,10.679M55.556,34.819c-2.732,0-5.224.024-7.715-.016a1.237,1.237,0,0,0-1.222.785c-.935,1.67-1.9,3.32-2.859,4.979-1.026,1.782-2.051,3.564-3.175,5.517,2.817,0,5.417,0,8.017,0a.815.815,0,0,0,.75-.516c2.026-3.52,4.058-7.036,6.2-10.753" transform="translate(0 0.001)" fill="#080a0c"/>
    <path id="Path_608346" data-name="Path 608346" d="M49.912,227.765c-.153-1.376-1.078-1.659-2.266-1.657q-8.657.02-17.313,0c-2.961-.011-4.851-1.376-5.664-3.934a5.459,5.459,0,0,1-.182-1.694c-.009-6.549.009-13.1-.025-19.647,0-.832.173-1.1,1.06-1.1q28.978.041,57.957,0c.852,0,1.1.224,1.1,1.086-.035,6.426-.057,12.852,0,19.278a5.707,5.707,0,0,1-6.147,6.041c-5.687-.112-11.378-.024-17.067-.034-1.174,0-2.133.235-2.267,1.642l-3.031,0c-.135-.942-.592-1.606-1.62-1.576-.963.028-1.4.662-1.493,1.571l-3.033.015m.2-24.3c-.985.025-1.539.7-1.54,1.872q-.011,7.371,0,14.742c0,1.935,1.076,2.548,2.778,1.571q6.263-3.594,12.509-7.216c1.732-1,1.757-2.222.049-3.215-4.232-2.462-8.482-4.893-12.717-7.349a3.042,3.042,0,0,0-1.076-.405" transform="translate(-18.446 -150.623)" fill="#c5ced7"/>
    <path id="Path_608347" data-name="Path 608347" d="M140.307,308.851c.093-.909.529-1.543,1.493-1.571,1.029-.03,1.485.633,1.62,1.576-.187.845-.646,1.444-1.565,1.441a1.523,1.523,0,0,1-1.548-1.446" transform="translate(-105.808 -231.723)" fill="#080a0c"/>
    <path id="Path_608348" data-name="Path 608348" d="M187.616,14.889c2.817-.819,5.6-1.726,8.437-2.426a5.383,5.383,0,0,1,6.409,3.628c.745,2.278,1.367,4.6,2.044,6.9.165.562.149.969-.576,1.152-1.536.388-3.049.865-4.575,1.29a1.026,1.026,0,0,1-1.194-.194c-3.451-3.378-6.944-6.713-10.421-10.064-.053-.051-.065-.144-.123-.282" transform="translate(-141.484 -9.279)" fill="#3796d4"/>
    <path id="Path_608349" data-name="Path 608349" d="M28.547,78.868,15.794,82.6c-.543.159-.844.116-1.025-.585-.569-2.2-1.3-4.363-1.9-6.558a5.53,5.53,0,0,1,4-7.132.8.8,0,0,1,.937.207c3.528,3.412,7.07,6.809,10.74,10.335" transform="translate(-9.522 -51.478)" fill="#3796d4"/>
    <path id="Path_608350" data-name="Path 608350" d="M213.949,152.823c2.169-3.753,4.216-7.274,6.234-10.811.261-.457.614-.459,1.029-.458,1.8,0,3.6.035,5.4-.014.732-.02.886.261.88.926-.027,3.153-.019,6.306-.006,9.459,0,.568-.081.915-.791.911-4.166-.025-8.333-.012-12.751-.012" transform="translate(-161.342 -106.736)" fill="#3795d3"/>
    <path id="Path_608351" data-name="Path 608351" d="M37.875,141.583c-.46.83-.819,1.5-1.2,2.16-1.588,2.752-3.2,5.491-4.763,8.256a1.4,1.4,0,0,1-1.426.868c-1.716-.058-3.436-.042-5.153-.006-.625.013-.858-.157-.852-.819.03-3.231.016-6.463.009-9.695,0-.442-.005-.778.616-.775,4.2.02,8.391.011,12.768.011" transform="translate(-18.462 -106.761)" fill="#3796d4"/>
    <path id="Path_608352" data-name="Path 608352" d="M65.3,65.982c-2.706.787-5.153,1.5-7.6,2.212a.932.932,0,0,1-.992-.272c-3.5-3.374-7-6.739-10.682-10.274A43.067,43.067,0,0,0,51.087,56.1c2.267-1,3.789-.443,5.446,1.361,2.7,2.94,5.716,5.587,8.769,8.52" transform="translate(-34.711 -41.934)" fill="#3796d4"/>
    <path id="Path_608353" data-name="Path 608353" d="M159.616,37.969l-7.782,2.261c-.381.111-.6-.141-.839-.37q-5.139-4.926-10.28-9.85a2.762,2.762,0,0,1-.273-.43c2.567-.738,5.085-1.449,7.592-2.195a.768.768,0,0,1,.855.262c3.5,3.376,7.009,6.746,10.727,10.322" transform="translate(-105.909 -20.62)" fill="#3796d4"/>
    <path id="Path_608354" data-name="Path 608354" d="M93.054,43.218c2.653-.778,5.11-1.482,7.553-2.229a.867.867,0,0,1,.97.266q5.215,5.007,10.433,10.012c.05.048.05.148.11.341l-7.627,2.267c-.278.083-.456-.07-.64-.247-3.552-3.427-7.107-6.852-10.8-10.41" transform="translate(-70.173 -30.871)" fill="#3796d4"/>
    <path id="Path_608355" data-name="Path 608355" d="M67.163,152.825c.945-1.649,1.786-3.12,2.631-4.589q1.705-2.964,3.413-5.925c.25-.436.48-.78,1.1-.77,2.532.039,5.064.016,7.582.016.153.431-.146.663-.3.927-1.823,3.178-3.669,6.342-5.478,9.528a1.324,1.324,0,0,1-1.317.83c-2.451-.044-4.9-.017-7.637-.017" transform="translate(-50.649 -106.737)" fill="#3795d3"/>
    <path id="Path_608356" data-name="Path 608356" d="M116.057,152.841c2.138-3.7,4.162-7.181,6.156-10.679a1.066,1.066,0,0,1,1.077-.6c2.29.019,4.58.027,6.87,0,.759-.01.819.165.444.8-1.92,3.264-3.807,6.548-5.7,9.83-.212.368-.4.66-.913.656-2.567-.021-5.134-.01-7.938-.01" transform="translate(-87.52 -106.754)" fill="#3795d3"/>
    <path id="Path_608357" data-name="Path 608357" d="M180.027,141.558c-2.146,3.717-4.178,7.233-6.2,10.753a.815.815,0,0,1-.75.516c-2.6-.007-5.2,0-8.017,0,1.124-1.953,2.149-3.735,3.175-5.517.955-1.659,1.924-3.309,2.859-4.979a1.237,1.237,0,0,1,1.222-.785c2.491.04,4.983.016,7.715.016" transform="translate(-124.471 -106.739)" fill="#3795d3"/>
    <path id="Path_608358" data-name="Path 608358" d="M124.043,214.884a3.038,3.038,0,0,1,1.076.405c4.235,2.456,8.485,4.887,12.717,7.349,1.708.993,1.683,2.211-.049,3.215q-6.246,3.622-12.509,7.216c-1.7.977-2.775.363-2.778-1.571q-.008-7.371,0-14.742c0-1.17.556-1.846,1.541-1.872m10.371,9.337c-2.869-1.646-5.611-3.226-8.361-4.791-.71-.4-.516.245-.518.522-.016,2.816,0,5.632-.019,8.448-.006.755.219.843.84.479,2.624-1.534,5.261-3.045,8.057-4.658" transform="translate(-92.376 -162.047)" fill="#080a0c"/>
    <path id="Path_608359" data-name="Path 608359" d="M143.664,237.768c-2.8,1.613-5.433,3.124-8.057,4.658-.621.363-.846.276-.84-.479.023-2.816,0-5.632.019-8.448,0-.276-.192-.925.518-.522,2.75,1.565,5.491,3.145,8.361,4.791" transform="translate(-101.627 -175.594)" fill="#dd4252"/>
  </g>
</svg>
