<svg xmlns="http://www.w3.org/2000/svg" width="1030" height="497.102" viewBox="0 0 1030 497.102">
  <g id="Group_1071724" data-name="Group 1071724" transform="translate(-285 -9408.566)">
    <g id="Group_1071628" data-name="Group 1071628">
      <g id="Group_1071564" data-name="Group 1071564">
        <path id="Path_608309" data-name="Path 608309" d="M0,0H1030V497.1H0Z" transform="translate(285 9408.566)" fill="#e1f5d6"/>
        <g id="Group_1017001" data-name="Group 1017001" transform="translate(-19.5 -910.5)">
          <path id="Path_608424" data-name="Path 608424" d="M91.025,173.944H42.572a6.969,6.969,0,0,0-6.035,3.484L12.31,219.39a6.97,6.97,0,0,0,0,6.969L36.536,268.32a6.969,6.969,0,0,0,6.035,3.484H91.025a6.969,6.969,0,0,0,6.035-3.484l24.226-41.962a6.97,6.97,0,0,0,0-6.969L97.06,177.428a6.969,6.969,0,0,0-6.035-3.484" transform="translate(322.108 10335.078)" fill="#60cb28"/>
          <path id="Path_608425" data-name="Path 608425" d="M93.75,164.525H36.229a6.969,6.969,0,0,0-6.035,3.484L1.434,217.824a6.97,6.97,0,0,0,0,6.969l28.76,49.814a6.969,6.969,0,0,0,6.035,3.484H93.75a6.969,6.969,0,0,0,6.035-3.484l28.76-49.814a6.97,6.97,0,0,0,0-6.969l-28.76-49.814A6.969,6.969,0,0,0,93.75,164.525Z" transform="translate(323.917 10336.644)" fill="none" stroke="#969daa" stroke-miterlimit="10" stroke-width="1"/>
          <path id="Path_608426" data-name="Path 608426" d="M88.1,184.041H49.37a6.97,6.97,0,0,0-6.035,3.484L23.969,221.068a6.97,6.97,0,0,0,0,6.969L43.335,261.58a6.969,6.969,0,0,0,6.035,3.485H88.1a6.968,6.968,0,0,0,6.035-3.485L113.5,228.038a6.97,6.97,0,0,0,0-6.969L94.138,187.525a6.969,6.969,0,0,0-6.035-3.484" transform="translate(320.17 10333.399)" fill="#ebeef7"/>
          <path id="Path_608427" data-name="Path 608427" d="M1123.96,173.944h-48.453a6.969,6.969,0,0,0-6.035,3.484l-24.226,41.962a6.969,6.969,0,0,0,0,6.969l24.226,41.962a6.97,6.97,0,0,0,6.035,3.484h48.453A6.97,6.97,0,0,0,1130,268.32l24.226-41.962a6.97,6.97,0,0,0,0-6.969L1130,177.428a6.97,6.97,0,0,0-6.035-3.484" transform="translate(150.359 10335.078)" fill="#60cb28"/>
          <path id="Path_608428" data-name="Path 608428" d="M1126.686,164.525h-57.521a6.968,6.968,0,0,0-6.035,3.484l-28.76,49.814a6.969,6.969,0,0,0,0,6.969l28.76,49.814a6.968,6.968,0,0,0,6.035,3.484h57.521a6.969,6.969,0,0,0,6.035-3.484l28.76-49.814a6.97,6.97,0,0,0,0-6.969l-28.76-49.814A6.969,6.969,0,0,0,1126.686,164.525Z" transform="translate(152.168 10336.644)" fill="none" stroke="#969daa" stroke-miterlimit="10" stroke-width="1"/>
          <path id="Path_608429" data-name="Path 608429" d="M1121.038,184.041h-38.732a6.969,6.969,0,0,0-6.035,3.484L1056.9,221.068a6.97,6.97,0,0,0,0,6.969l19.366,33.543a6.968,6.968,0,0,0,6.035,3.485h38.732a6.968,6.968,0,0,0,6.035-3.485l19.366-33.543a6.97,6.97,0,0,0,0-6.969l-19.366-33.543a6.969,6.969,0,0,0-6.035-3.484" transform="translate(148.421 10333.399)" fill="#ebeef7"/>
          <path id="Path_608430" data-name="Path 608430" d="M298.374,165.785H242.065a6.968,6.968,0,0,0-6.035,3.484l-28.154,48.764a6.97,6.97,0,0,0,0,6.969l28.154,48.764a6.969,6.969,0,0,0,6.035,3.485h56.308a6.97,6.97,0,0,0,6.035-3.485L332.562,225a6.966,6.966,0,0,0,0-6.969l-28.153-48.764a6.969,6.969,0,0,0-6.035-3.484" transform="translate(289.591 10336.435)" fill="#304c8e"/>
          <path id="Path_608431" data-name="Path 608431" d="M301.478,155.056H234.842a6.969,6.969,0,0,0-6.035,3.485l-33.318,57.708a6.968,6.968,0,0,0,0,6.968l33.318,57.709a6.968,6.968,0,0,0,6.035,3.484h66.636a6.969,6.969,0,0,0,6.035-3.484l33.318-57.709a6.968,6.968,0,0,0,0-6.968l-33.318-57.708A6.97,6.97,0,0,0,301.478,155.056Z" transform="translate(291.651 10338.219)" fill="none" stroke="#969daa" stroke-miterlimit="10" stroke-width="1"/>
          <path id="Path_608432" data-name="Path 608432" d="M295.046,177.286H249.81a6.969,6.969,0,0,0-6.035,3.484l-22.618,39.175a6.97,6.97,0,0,0,0,6.969l22.618,39.175a6.969,6.969,0,0,0,6.035,3.484h45.236a6.969,6.969,0,0,0,6.035-3.484L323.7,226.914a6.97,6.97,0,0,0,0-6.969L301.081,180.77a6.969,6.969,0,0,0-6.035-3.484" transform="translate(287.383 10334.522)" fill="#ebeef7"/>
          <path id="Path_608433" data-name="Path 608433" d="M624.876,100.19H505.42a6.969,6.969,0,0,0-6.035,3.485L439.657,207.126a6.968,6.968,0,0,0,0,6.968l59.728,103.452a6.968,6.968,0,0,0,6.035,3.484H624.876a6.969,6.969,0,0,0,6.035-3.484l59.727-103.452a6.968,6.968,0,0,0,0-6.968L630.911,103.675a6.97,6.97,0,0,0-6.035-3.485" transform="translate(251.052 10347.341)" fill="#60cb28"/>
          <path id="Path_608434" data-name="Path 608434" d="M631.027,78.935H491.108a6.969,6.969,0,0,0-6.035,3.484L415.114,203.592a6.966,6.966,0,0,0,0,6.969l69.959,121.173a6.969,6.969,0,0,0,6.035,3.484H631.027a6.969,6.969,0,0,0,6.035-3.484l69.959-121.173a6.97,6.97,0,0,0,0-6.969L637.062,82.419A6.969,6.969,0,0,0,631.027,78.935Z" transform="translate(255.133 10350.875)" fill="none" stroke="#969daa" stroke-miterlimit="10" stroke-width="1"/>
          <path id="Path_608435" data-name="Path 608435" d="M638.539,122.977H528.129a7.892,7.892,0,0,0-6.833,3.945l-55.2,95.617a7.887,7.887,0,0,0,0,7.89l55.2,95.617a7.892,7.892,0,0,0,6.833,3.945h110.41a7.891,7.891,0,0,0,6.833-3.945l55.2-95.617a7.892,7.892,0,0,0,0-7.89l-55.2-95.617a7.89,7.89,0,0,0-6.833-3.945" transform="translate(232.866 10331.469)" fill="#ebeef7"/>
          <rect id="Rectangle_375693" data-name="Rectangle 375693" width="18.394" height="5.177" transform="translate(455.534 10554.662)" fill="#ffe126"/>
          <path id="Path_608436" data-name="Path 608436" d="M182.983,225.52l7.754,4.46L183,234.466l-7.739,4.486-.015-8.946-.015-8.946Z" transform="translate(294.864 10327.244)" fill="#ffe126"/>
          <rect id="Rectangle_375694" data-name="Rectangle 375694" width="18.394" height="5.177" transform="translate(634.968 10554.662)" fill="#ffe126"/>
          <path id="Path_608437" data-name="Path 608437" d="M398.2,225.52l7.755,4.46-7.74,4.486-7.739,4.486-.015-8.946-.015-8.946Z" transform="translate(259.079 10327.244)" fill="#ffe126"/>
          <rect id="Rectangle_375695" data-name="Rectangle 375695" width="18.394" height="5.177" transform="translate(1153.617 10554.662)" fill="#ffe126"/>
          <path id="Path_608438" data-name="Path 608438" d="M1020.288,225.52l7.754,4.46-7.74,4.486-7.739,4.486-.015-8.946-.015-8.946Z" transform="translate(155.644 10327.244)" fill="#ffe126"/>
          <rect id="Rectangle_375696" data-name="Rectangle 375696" width="18.394" height="5.177" transform="translate(969.086 10554.662)" fill="#ffe126"/>
          <path id="Path_608439" data-name="Path 608439" d="M798.955,225.52l7.754,4.46-7.74,4.486-7.739,4.486-.015-8.946-.015-8.946Z" transform="translate(192.445 10327.244)" fill="#ffe126"/>
          <path id="Path_608440" data-name="Path 608440" d="M1107.471,310.667l12.47.156-6.37,10.722-6.37,10.722-6.1-10.878-6.1-10.878Z" transform="translate(141.932 10312.37)" fill="#ffe126"/>
          <path id="Path_608450" data-name="Path 608450" d="M1107.471,310.667l12.47.156-6.37,10.722-6.37,10.722-6.1-10.878-6.1-10.878Z" transform="translate(-437.41 11432.163) rotate(-60)" fill="#ffe126"/>
          <path id="Path_608441" data-name="Path 608441" d="M917.527,165.785H861.219a6.968,6.968,0,0,0-6.035,3.484L827.03,218.033a6.97,6.97,0,0,0,0,6.969l28.154,48.764a6.969,6.969,0,0,0,6.035,3.485h56.308a6.97,6.97,0,0,0,6.035-3.485L951.715,225a6.965,6.965,0,0,0,0-6.969l-28.153-48.764a6.969,6.969,0,0,0-6.035-3.484" transform="translate(186.643 10336.435)" fill="#304c8e"/>
          <path id="Path_608442" data-name="Path 608442" d="M920.631,155.056H853.995a6.969,6.969,0,0,0-6.034,3.485l-33.318,57.708a6.968,6.968,0,0,0,0,6.968l33.318,57.709a6.968,6.968,0,0,0,6.034,3.484h66.637a6.969,6.969,0,0,0,6.035-3.484l33.317-57.709a6.964,6.964,0,0,0,0-6.968l-33.317-57.708A6.97,6.97,0,0,0,920.631,155.056Z" transform="translate(188.703 10338.219)" fill="none" stroke="#969daa" stroke-miterlimit="10" stroke-width="1"/>
          <path id="Path_608443" data-name="Path 608443" d="M914.2,177.286H868.963a6.969,6.969,0,0,0-6.035,3.484L840.31,219.945a6.97,6.97,0,0,0,0,6.969l22.618,39.175a6.969,6.969,0,0,0,6.035,3.484H914.2a6.969,6.969,0,0,0,6.035-3.484l22.617-39.175a6.97,6.97,0,0,0,0-6.969L920.234,180.77a6.969,6.969,0,0,0-6.035-3.484" transform="translate(184.435 10334.522)" fill="#ebeef7"/>
          <path id="Path_608444" data-name="Path 608444" d="M496.678,176.681l82.592,48.534-.851,90.255" transform="translate(241.416 10334.623)" fill="none" stroke="#60cb28" stroke-miterlimit="10" stroke-width="3"/>
          <line id="Line_414" data-name="Line 414" y1="48.534" x2="74.077" transform="translate(820.687 10511.304)" fill="none" stroke="#60cb28" stroke-miterlimit="10" stroke-width="3"/>
          <path id="Path_608445" data-name="Path 608445" d="M513.807,490.128l-.555-.141L75.168,379.257V316.744h7.167v53.813l431.6,109.092,420.485-84.915-.692-57.157,3.662,4.27,3.5-4.4.769,66.275-3.126.632Z" transform="translate(311.501 10312.048)" fill="#ffe126"/>
          <path id="Path_608446" data-name="Path 608446" d="M548.5,39.168l-266.38,68.968V68.969L548.5,0Z" transform="translate(277.091 10364)" fill="#fff"/>
          <path id="Path_608447" data-name="Path 608447" d="M601.628,39.168l266.38,68.968V68.969L601.628,0Z" transform="translate(223.966 10364)" fill="#fff"/>
          <path id="Path_608448" data-name="Path 608448" d="M598.028,403.948l266.38-68.968v39.167l-266.38,68.969Z" transform="translate(224.564 10308.302)" fill="#fff"/>
          <path id="Path_608449" data-name="Path 608449" d="M544.9,403.948l-266.38-68.968v39.167L544.9,443.116Z" transform="translate(277.689 10308.302)" fill="#fff"/>
          <rect id="Rectangle_375697" data-name="Rectangle 375697" width="991" height="411.134" transform="translate(324 10364)" fill="none"/>
        </g>
        <path id="Path_609166" data-name="Path 609166" d="M-12.691-4.008V0h-2.344V-11.375H-10.6a5.134,5.134,0,0,1,2.254.469,3.454,3.454,0,0,1,1.5,1.332,3.714,3.714,0,0,1,.523,1.965A3.266,3.266,0,0,1-7.469-4.973a4.767,4.767,0,0,1-3.168.965Zm0-1.9H-10.6A2.059,2.059,0,0,0-9.18-6.344a1.591,1.591,0,0,0,.488-1.25,1.876,1.876,0,0,0-.492-1.352,1.839,1.839,0,0,0-1.359-.531h-2.148ZM-2.48,0H-4.746V-12H-2.48ZM4.277,0a2.507,2.507,0,0,1-.227-.758A2.732,2.732,0,0,1,1.918.156,3,3,0,0,1-.141-.562,2.312,2.312,0,0,1-.957-2.375a2.389,2.389,0,0,1,1-2.062,4.915,4.915,0,0,1,2.879-.727H3.957v-.484a1.393,1.393,0,0,0-.3-.937,1.183,1.183,0,0,0-.949-.352,1.345,1.345,0,0,0-.895.273.929.929,0,0,0-.324.75H-.77A2.268,2.268,0,0,1-.316-7.273a3,3,0,0,1,1.281-.98,4.669,4.669,0,0,1,1.859-.355,3.689,3.689,0,0,1,2.48.785,2.747,2.747,0,0,1,.918,2.207v3.664a4.041,4.041,0,0,0,.336,1.82V0ZM2.41-1.57a1.945,1.945,0,0,0,.922-.223,1.462,1.462,0,0,0,.625-.6V-3.844H3.113q-1.7,0-1.8,1.172L1.3-2.539a.9.9,0,0,0,.3.7A1.153,1.153,0,0,0,2.41-1.57Zm7.625-6.883.07.977a2.951,2.951,0,0,1,2.43-1.133,2.453,2.453,0,0,1,2,.789,3.682,3.682,0,0,1,.672,2.359V0H12.949V-5.406a1.465,1.465,0,0,0-.312-1.043A1.4,1.4,0,0,0,11.6-6.773a1.553,1.553,0,0,0-1.43.813V0H7.91V-8.453Z" transform="translate(806 9488.5)" fill="#12263f"/>
        <path id="Path_609167" data-name="Path 609167" d="M-20.945-11.375l2.922,8.25,2.906-8.25h3.078V0h-2.352V-3.109l.234-5.367L-17.227,0h-1.609L-21.9-8.469l.234,5.359V0h-2.344V-11.375ZM-6.25.156A4.15,4.15,0,0,1-9.277-.984a4.054,4.054,0,0,1-1.168-3.039v-.219A5.106,5.106,0,0,1-9.953-6.52,3.612,3.612,0,0,1-8.559-8.066,3.914,3.914,0,0,1-6.5-8.609,3.508,3.508,0,0,1-3.77-7.516a4.444,4.444,0,0,1,1,3.1v.922H-8.156A2.1,2.1,0,0,0-7.5-2.164a2,2,0,0,0,1.395.5,2.437,2.437,0,0,0,2.039-.945l1.109,1.242A3.389,3.389,0,0,1-4.328-.246,4.511,4.511,0,0,1-6.25.156Zm-.258-6.945a1.411,1.411,0,0,0-1.09.455,2.357,2.357,0,0,0-.535,1.3h3.141v-.181A1.681,1.681,0,0,0-5.4-6.377,1.456,1.456,0,0,0-6.508-6.789ZM.9-8.453V.461A3.024,3.024,0,0,1,.156,2.637a2.821,2.821,0,0,1-2.141.777A4.591,4.591,0,0,1-3.1,3.281V1.492a4.238,4.238,0,0,0,.711.07q1.023,0,1.023-1.086v-8.93Zm-2.445-2.187a1.112,1.112,0,0,1,.34-.836A1.277,1.277,0,0,1-.281-11.8a1.277,1.277,0,0,1,.926.328,1.112,1.112,0,0,1,.34.836A1.108,1.108,0,0,1,.637-9.8a1.283,1.283,0,0,1-.918.328A1.283,1.283,0,0,1-1.2-9.8,1.108,1.108,0,0,1-1.547-10.641ZM2.313-4.3A5.013,5.013,0,0,1,2.8-6.547,3.546,3.546,0,0,1,4.191-8.07,4.069,4.069,0,0,1,6.3-8.609,3.849,3.849,0,0,1,9.1-7.562,4.2,4.2,0,0,1,10.3-4.719l.016.578A4.418,4.418,0,0,1,9.234-1.02,3.775,3.775,0,0,1,6.32.156,3.793,3.793,0,0,1,3.4-1.016,4.5,4.5,0,0,1,2.313-4.2Zm2.258.16A3.16,3.16,0,0,0,5.023-2.3a1.5,1.5,0,0,0,1.3.638A1.5,1.5,0,0,0,7.6-2.294a3.457,3.457,0,0,0,.461-2.015A3.128,3.128,0,0,0,7.6-6.14a1.5,1.5,0,0,0-1.3-.649,1.474,1.474,0,0,0-1.281.646A3.516,3.516,0,0,0,4.57-4.144ZM16.461-6.336a6.134,6.134,0,0,0-.812-.062,1.654,1.654,0,0,0-1.68.867V0H11.711V-8.453h2.133l.063,1.008a2.092,2.092,0,0,1,1.883-1.164,2.366,2.366,0,0,1,.7.1ZM22.211,0a2.507,2.507,0,0,1-.227-.758,2.732,2.732,0,0,1-2.133.914,3,3,0,0,1-2.059-.719,2.312,2.312,0,0,1-.816-1.812,2.389,2.389,0,0,1,1-2.062,4.915,4.915,0,0,1,2.879-.727h1.039v-.484a1.393,1.393,0,0,0-.3-.937,1.183,1.183,0,0,0-.949-.352,1.345,1.345,0,0,0-.895.273.929.929,0,0,0-.324.75H17.164a2.268,2.268,0,0,1,.453-1.359,3,3,0,0,1,1.281-.98,4.669,4.669,0,0,1,1.859-.355,3.689,3.689,0,0,1,2.48.785,2.747,2.747,0,0,1,.918,2.207v3.664a4.041,4.041,0,0,0,.336,1.82V0ZM20.344-1.57a1.945,1.945,0,0,0,.922-.223,1.462,1.462,0,0,0,.625-.6V-3.844h-.844q-1.7,0-1.8,1.172l-.008.133a.9.9,0,0,0,.3.7A1.153,1.153,0,0,0,20.344-1.57Z" transform="translate(805 9809.5)" fill="#12263f"/>
        <path id="Path_609168" data-name="Path 609168" d="M-36.227-3.789A4.025,4.025,0,0,1-37.582-.9,4.76,4.76,0,0,1-40.8.156a4.28,4.28,0,0,1-3.441-1.473A6.038,6.038,0,0,1-45.5-5.359v-.7a6.819,6.819,0,0,1,.578-2.891,4.332,4.332,0,0,1,1.652-1.918,4.629,4.629,0,0,1,2.5-.668A4.637,4.637,0,0,1-37.6-10.477a4.326,4.326,0,0,1,1.391,2.961h-2.344a2.376,2.376,0,0,0-.613-1.6,2.271,2.271,0,0,0-1.605-.5,1.991,1.991,0,0,0-1.754.84,4.707,4.707,0,0,0-.6,2.605V-5.3a5.038,5.038,0,0,0,.559,2.7,1.954,1.954,0,0,0,1.762.852,2.314,2.314,0,0,0,1.621-.5,2.241,2.241,0,0,0,.613-1.535Zm1.039-.516A5.013,5.013,0,0,1-34.7-6.547,3.546,3.546,0,0,1-33.309-8.07,4.069,4.069,0,0,1-31.2-8.609,3.849,3.849,0,0,1-28.4-7.562,4.2,4.2,0,0,1-27.2-4.719l.016.578A4.418,4.418,0,0,1-28.266-1.02,3.775,3.775,0,0,1-31.18.156,3.793,3.793,0,0,1-34.1-1.016,4.5,4.5,0,0,1-35.187-4.2Zm2.258.16A3.16,3.16,0,0,0-32.477-2.3a1.5,1.5,0,0,0,1.3.638,1.5,1.5,0,0,0,1.281-.63,3.457,3.457,0,0,0,.461-2.015A3.128,3.128,0,0,0-29.9-6.14a1.5,1.5,0,0,0-1.3-.649,1.474,1.474,0,0,0-1.281.646A3.516,3.516,0,0,0-32.93-4.144Zm9.258-4.309.07.945a2.971,2.971,0,0,1,2.43-1.1A2.255,2.255,0,0,1-18.93-7.32a2.9,2.9,0,0,1,2.539-1.289,2.521,2.521,0,0,1,2.047.8,3.681,3.681,0,0,1,.672,2.41V0h-2.266V-5.391a1.61,1.61,0,0,0-.281-1.051,1.246,1.246,0,0,0-.992-.332,1.409,1.409,0,0,0-1.406.969l.008,5.8h-2.258V-5.383a1.59,1.59,0,0,0-.289-1.062,1.259,1.259,0,0,0-.984-.328,1.463,1.463,0,0,0-1.391.8V0h-2.258V-8.453Zm19.344,4.3A5.07,5.07,0,0,1-5.215-1.02,2.843,2.843,0,0,1-7.609.156,2.633,2.633,0,0,1-9.68-.734V3.25h-2.258v-11.7h2.094l.078.828a2.654,2.654,0,0,1,2.141-.984A2.862,2.862,0,0,1-5.2-7.453a5.207,5.207,0,0,1,.867,3.188Zm-2.258-.164A3.327,3.327,0,0,0-7-6.133a1.361,1.361,0,0,0-1.215-.641,1.478,1.478,0,0,0-1.461.813V-2.5A1.5,1.5,0,0,0-8.2-1.664Q-6.586-1.664-6.586-4.312ZM1.82-6.336A6.134,6.134,0,0,0,1.008-6.4a1.654,1.654,0,0,0-1.68.867V0H-2.93V-8.453H-.8l.063,1.008A2.092,2.092,0,0,1,1.148-8.609a2.366,2.366,0,0,1,.7.1ZM2.273-4.3a5.013,5.013,0,0,1,.484-2.242A3.546,3.546,0,0,1,4.152-8.07a4.069,4.069,0,0,1,2.113-.539A3.849,3.849,0,0,1,9.059-7.562a4.2,4.2,0,0,1,1.207,2.844l.016.578A4.418,4.418,0,0,1,9.2-1.02,3.775,3.775,0,0,1,6.281.156,3.793,3.793,0,0,1,3.363-1.016,4.5,4.5,0,0,1,2.273-4.2Zm2.258.16A3.16,3.16,0,0,0,4.984-2.3a1.5,1.5,0,0,0,1.3.638,1.5,1.5,0,0,0,1.281-.63,3.457,3.457,0,0,0,.461-2.015A3.128,3.128,0,0,0,7.563-6.14a1.5,1.5,0,0,0-1.3-.649,1.474,1.474,0,0,0-1.281.646A3.516,3.516,0,0,0,4.531-4.144Zm9.258-4.309.07.945a2.971,2.971,0,0,1,2.43-1.1A2.255,2.255,0,0,1,18.531-7.32,2.9,2.9,0,0,1,21.07-8.609a2.521,2.521,0,0,1,2.047.8,3.681,3.681,0,0,1,.672,2.41V0H21.523V-5.391a1.61,1.61,0,0,0-.281-1.051,1.246,1.246,0,0,0-.992-.332,1.409,1.409,0,0,0-1.406.969L18.852,0H16.594V-5.383A1.59,1.59,0,0,0,16.3-6.445a1.259,1.259,0,0,0-.984-.328,1.463,1.463,0,0,0-1.391.8V0H11.672V-8.453ZM27.906,0H25.641V-8.453h2.266Zm-2.4-10.641a1.112,1.112,0,0,1,.34-.836,1.277,1.277,0,0,1,.926-.328,1.28,1.28,0,0,1,.922.328,1.105,1.105,0,0,1,.344.836,1.108,1.108,0,0,1-.348.844,1.283,1.283,0,0,1-.918.328,1.283,1.283,0,0,1-.918-.328A1.108,1.108,0,0,1,25.508-10.641Zm8.836,8.3a.727.727,0,0,0-.41-.652,4.659,4.659,0,0,0-1.316-.426Q29.6-4.047,29.6-5.977a2.323,2.323,0,0,1,.934-1.879,3.766,3.766,0,0,1,2.441-.754,4.053,4.053,0,0,1,2.574.758,2.388,2.388,0,0,1,.965,1.969H34.258a1.092,1.092,0,0,0-.312-.8A1.322,1.322,0,0,0,32.969-7a1.351,1.351,0,0,0-.883.258.814.814,0,0,0-.312.656.7.7,0,0,0,.355.605,3.657,3.657,0,0,0,1.2.4A9.8,9.8,0,0,1,34.75-4.7,2.336,2.336,0,0,1,36.539-2.43a2.2,2.2,0,0,1-.992,1.871,4.28,4.28,0,0,1-2.562.715A4.47,4.47,0,0,1,31.1-.223,3.166,3.166,0,0,1,29.8-1.262a2.414,2.414,0,0,1-.469-1.426h2.141a1.179,1.179,0,0,0,.445.922,1.766,1.766,0,0,0,1.109.32,1.635,1.635,0,0,0,.98-.246A.766.766,0,0,0,34.344-2.336Zm3.3-1.969a5.013,5.013,0,0,1,.484-2.242A3.546,3.546,0,0,1,39.52-8.07a4.069,4.069,0,0,1,2.113-.539,3.849,3.849,0,0,1,2.793,1.047,4.2,4.2,0,0,1,1.207,2.844l.016.578A4.418,4.418,0,0,1,44.563-1.02,3.775,3.775,0,0,1,41.648.156,3.793,3.793,0,0,1,38.73-1.016,4.5,4.5,0,0,1,37.641-4.2Zm2.258.16A3.16,3.16,0,0,0,40.352-2.3a1.5,1.5,0,0,0,1.3.638,1.5,1.5,0,0,0,1.281-.63,3.457,3.457,0,0,0,.461-2.015A3.128,3.128,0,0,0,42.93-6.14a1.5,1.5,0,0,0-1.3-.649,1.474,1.474,0,0,0-1.281.646A3.516,3.516,0,0,0,39.9-4.144Z" transform="translate(541 9652.5)" fill="#12263f"/>
        <path id="Path_609169" data-name="Path 609169" d="M-35.473-4.008V0h-2.344V-11.375h4.438a5.134,5.134,0,0,1,2.254.469,3.454,3.454,0,0,1,1.5,1.332,3.714,3.714,0,0,1,.523,1.965A3.266,3.266,0,0,1-30.25-4.973a4.767,4.767,0,0,1-3.168.965Zm0-1.9h2.094a2.059,2.059,0,0,0,1.418-.437,1.591,1.591,0,0,0,.488-1.25,1.876,1.876,0,0,0-.492-1.352,1.839,1.839,0,0,0-1.359-.531h-2.148Zm12.578-.43a6.134,6.134,0,0,0-.812-.062,1.654,1.654,0,0,0-1.68.867V0h-2.258V-8.453h2.133l.063,1.008a2.092,2.092,0,0,1,1.883-1.164,2.366,2.366,0,0,1,.7.1Zm.453,2.031a5.013,5.013,0,0,1,.484-2.242A3.546,3.546,0,0,1-20.562-8.07a4.069,4.069,0,0,1,2.113-.539,3.849,3.849,0,0,1,2.793,1.047,4.2,4.2,0,0,1,1.207,2.844l.016.578A4.418,4.418,0,0,1-15.52-1.02,3.775,3.775,0,0,1-18.434.156a3.793,3.793,0,0,1-2.918-1.172A4.5,4.5,0,0,1-22.441-4.2Zm2.258.16A3.16,3.16,0,0,0-19.73-2.3a1.5,1.5,0,0,0,1.3.638,1.5,1.5,0,0,0,1.281-.63,3.457,3.457,0,0,0,.461-2.015,3.128,3.128,0,0,0-.461-1.831,1.5,1.5,0,0,0-1.3-.649,1.474,1.474,0,0,0-1.281.646A3.516,3.516,0,0,0-20.184-4.144Zm6.789-.145a5.094,5.094,0,0,1,.887-3.148,2.877,2.877,0,0,1,2.426-1.172,2.589,2.589,0,0,1,2.039.922V-12h2.266V0H-7.816l-.109-.9A2.657,2.657,0,0,1-10.1.156,2.869,2.869,0,0,1-12.492-1.02,5.258,5.258,0,0,1-13.395-4.289Zm2.258.168A3.337,3.337,0,0,0-10.723-2.3a1.349,1.349,0,0,0,1.2.634,1.511,1.511,0,0,0,1.477-.884V-5.889A1.489,1.489,0,0,0-9.5-6.773Q-11.137-6.773-11.137-4.121ZM1.035-.859A2.831,2.831,0,0,1-1.277.156,2.67,2.67,0,0,1-3.352-.625a3.335,3.335,0,0,1-.73-2.289V-8.453h2.258v5.467q0,1.322,1.2,1.322a1.63,1.63,0,0,0,1.578-.8V-8.453H3.223V0H1.1Zm7.406-.8a1.481,1.481,0,0,0,1.016-.344,1.2,1.2,0,0,0,.406-.914H11.98a2.9,2.9,0,0,1-.469,1.574A3.093,3.093,0,0,1,10.25-.238,3.949,3.949,0,0,1,8.48.156,3.67,3.67,0,0,1,5.621-1,4.56,4.56,0,0,1,4.574-4.18v-.148A4.508,4.508,0,0,1,5.613-7.445,3.627,3.627,0,0,1,8.465-8.609a3.555,3.555,0,0,1,2.543.9,3.2,3.2,0,0,1,.973,2.4H9.863a1.551,1.551,0,0,0-.406-1.072,1.354,1.354,0,0,0-1.031-.412,1.36,1.36,0,0,0-1.191.575,3.333,3.333,0,0,0-.4,1.866v.235a3.375,3.375,0,0,0,.4,1.878A1.377,1.377,0,0,0,8.441-1.664Zm7.531-8.867v2.078h1.445V-6.8H15.973v4.219a1.007,1.007,0,0,0,.18.672.9.9,0,0,0,.688.2,3.6,3.6,0,0,0,.664-.055V-.047a4.648,4.648,0,0,1-1.367.2,2.156,2.156,0,0,1-2.422-2.4V-6.8H12.48V-8.453h1.234v-2.078ZM18.09-4.3a5.013,5.013,0,0,1,.484-2.242A3.546,3.546,0,0,1,19.969-8.07a4.069,4.069,0,0,1,2.113-.539,3.849,3.849,0,0,1,2.793,1.047,4.2,4.2,0,0,1,1.207,2.844l.016.578A4.418,4.418,0,0,1,25.012-1.02,3.775,3.775,0,0,1,22.1.156,3.793,3.793,0,0,1,19.18-1.016,4.5,4.5,0,0,1,18.09-4.2Zm2.258.16A3.16,3.16,0,0,0,20.8-2.3a1.5,1.5,0,0,0,1.3.638,1.5,1.5,0,0,0,1.281-.63,3.457,3.457,0,0,0,.461-2.015,3.128,3.128,0,0,0-.461-1.831,1.5,1.5,0,0,0-1.3-.649,1.474,1.474,0,0,0-1.281.646A3.516,3.516,0,0,0,20.348-4.144ZM32.066-2.336a.727.727,0,0,0-.41-.652,4.659,4.659,0,0,0-1.316-.426q-3.016-.633-3.016-2.562a2.323,2.323,0,0,1,.934-1.879A3.766,3.766,0,0,1,30.7-8.609a4.053,4.053,0,0,1,2.574.758,2.388,2.388,0,0,1,.965,1.969H31.98a1.092,1.092,0,0,0-.312-.8A1.322,1.322,0,0,0,30.691-7a1.351,1.351,0,0,0-.883.258.814.814,0,0,0-.312.656.7.7,0,0,0,.355.605,3.657,3.657,0,0,0,1.2.4,9.8,9.8,0,0,1,1.422.379A2.336,2.336,0,0,1,34.262-2.43,2.2,2.2,0,0,1,33.27-.559a4.28,4.28,0,0,1-2.562.715A4.47,4.47,0,0,1,28.82-.223a3.166,3.166,0,0,1-1.293-1.039,2.414,2.414,0,0,1-.469-1.426H29.2a1.179,1.179,0,0,0,.445.922,1.766,1.766,0,0,0,1.109.32,1.635,1.635,0,0,0,.98-.246A.766.766,0,0,0,32.066-2.336ZM-38.52,15.7a5.013,5.013,0,0,1,.484-2.242,3.546,3.546,0,0,1,1.395-1.523,4.069,4.069,0,0,1,2.113-.539,3.849,3.849,0,0,1,2.793,1.047,4.2,4.2,0,0,1,1.207,2.844l.016.578A4.418,4.418,0,0,1-31.6,18.98a3.775,3.775,0,0,1-2.914,1.176,3.793,3.793,0,0,1-2.918-1.172A4.5,4.5,0,0,1-38.52,15.8Zm2.258.16a3.16,3.16,0,0,0,.453,1.843,1.5,1.5,0,0,0,1.3.638,1.5,1.5,0,0,0,1.281-.63,3.457,3.457,0,0,0,.461-2.015,3.128,3.128,0,0,0-.461-1.831,1.5,1.5,0,0,0-1.3-.649,1.474,1.474,0,0,0-1.281.646A3.516,3.516,0,0,0-36.262,15.856Zm15.7,1.808a.727.727,0,0,0-.41-.652,4.659,4.659,0,0,0-1.316-.426q-3.016-.633-3.016-2.562a2.323,2.323,0,0,1,.934-1.879,3.766,3.766,0,0,1,2.441-.754,4.053,4.053,0,0,1,2.574.758,2.388,2.388,0,0,1,.965,1.969h-2.258a1.092,1.092,0,0,0-.312-.8A1.322,1.322,0,0,0-21.934,13a1.351,1.351,0,0,0-.883.258.814.814,0,0,0-.312.656.7.7,0,0,0,.355.605,3.657,3.657,0,0,0,1.2.4,9.8,9.8,0,0,1,1.422.379,2.336,2.336,0,0,1,1.789,2.273,2.2,2.2,0,0,1-.992,1.871,4.28,4.28,0,0,1-2.562.715,4.47,4.47,0,0,1-1.887-.379A3.166,3.166,0,0,1-25.1,18.738a2.414,2.414,0,0,1-.469-1.426h2.141a1.179,1.179,0,0,0,.445.922,1.766,1.766,0,0,0,1.109.32,1.635,1.635,0,0,0,.98-.246A.766.766,0,0,0-20.559,17.664Zm7.539,2.492a4.15,4.15,0,0,1-3.027-1.141,4.054,4.054,0,0,1-1.168-3.039v-.219a5.106,5.106,0,0,1,.492-2.277,3.612,3.612,0,0,1,1.395-1.547,3.914,3.914,0,0,1,2.059-.543,3.508,3.508,0,0,1,2.73,1.094,4.444,4.444,0,0,1,1,3.1v.922h-5.383a2.1,2.1,0,0,0,.66,1.328,2,2,0,0,0,1.395.5,2.437,2.437,0,0,0,2.039-.945l1.109,1.242A3.389,3.389,0,0,1-11.1,19.754,4.511,4.511,0,0,1-13.02,20.156Zm-.258-6.945a1.411,1.411,0,0,0-1.09.455,2.357,2.357,0,0,0-.535,1.3h3.141v-.181a1.681,1.681,0,0,0-.406-1.165A1.456,1.456,0,0,0-13.277,13.211Zm9.766.453a6.134,6.134,0,0,0-.812-.062A1.654,1.654,0,0,0-6,14.469V20H-8.262V11.547h2.133l.063,1.008a2.092,2.092,0,0,1,1.883-1.164,2.366,2.366,0,0,1,.7.1ZM.879,17.242l1.57-5.7H4.809L1.957,20H-.2l-2.852-8.453H-.691ZM8.184,20H5.918V11.547H8.184ZM5.785,9.359a1.112,1.112,0,0,1,.34-.836A1.277,1.277,0,0,1,7.051,8.2a1.28,1.28,0,0,1,.922.328,1.193,1.193,0,0,1,0,1.68,1.283,1.283,0,0,1-.918.328,1.283,1.283,0,0,1-.918-.328A1.108,1.108,0,0,1,5.785,9.359Zm7.773,8.977a1.481,1.481,0,0,0,1.016-.344,1.2,1.2,0,0,0,.406-.914H17.1a2.9,2.9,0,0,1-.469,1.574,3.093,3.093,0,0,1-1.262,1.109,3.949,3.949,0,0,1-1.77.395A3.67,3.67,0,0,1,10.738,19,4.56,4.56,0,0,1,9.691,15.82v-.148a4.508,4.508,0,0,1,1.039-3.117,3.627,3.627,0,0,1,2.852-1.164,3.555,3.555,0,0,1,2.543.9,3.2,3.2,0,0,1,.973,2.4H14.98a1.551,1.551,0,0,0-.406-1.072,1.354,1.354,0,0,0-1.031-.412,1.36,1.36,0,0,0-1.191.575,3.333,3.333,0,0,0-.4,1.866v.235a3.375,3.375,0,0,0,.4,1.878A1.377,1.377,0,0,0,13.559,18.336ZM20.77,20H18.5V11.547H20.77Zm-2.4-10.641a1.112,1.112,0,0,1,.34-.836,1.465,1.465,0,0,1,1.848,0,1.193,1.193,0,0,1,0,1.68,1.448,1.448,0,0,1-1.836,0A1.108,1.108,0,0,1,18.371,9.359ZM22.277,15.7a5.013,5.013,0,0,1,.484-2.242,3.546,3.546,0,0,1,1.395-1.523,4.069,4.069,0,0,1,2.113-.539,3.849,3.849,0,0,1,2.793,1.047,4.2,4.2,0,0,1,1.207,2.844l.016.578A4.418,4.418,0,0,1,29.2,18.98a3.775,3.775,0,0,1-2.914,1.176,3.793,3.793,0,0,1-2.918-1.172,4.5,4.5,0,0,1-1.09-3.187Zm2.258.16a3.16,3.16,0,0,0,.453,1.843,1.628,1.628,0,0,0,2.578.008,3.457,3.457,0,0,0,.461-2.015,3.128,3.128,0,0,0-.461-1.831,1.5,1.5,0,0,0-1.3-.649,1.474,1.474,0,0,0-1.281.646A3.516,3.516,0,0,0,24.535,15.856Zm11.719,1.808a.727.727,0,0,0-.41-.652,4.659,4.659,0,0,0-1.316-.426q-3.016-.633-3.016-2.562a2.323,2.323,0,0,1,.934-1.879,3.766,3.766,0,0,1,2.441-.754,4.053,4.053,0,0,1,2.574.758,2.388,2.388,0,0,1,.965,1.969H36.168a1.092,1.092,0,0,0-.312-.8A1.322,1.322,0,0,0,34.879,13a1.351,1.351,0,0,0-.883.258.814.814,0,0,0-.312.656.7.7,0,0,0,.355.605,3.657,3.657,0,0,0,1.2.4,9.8,9.8,0,0,1,1.422.379,2.336,2.336,0,0,1,1.789,2.273,2.2,2.2,0,0,1-.992,1.871,4.28,4.28,0,0,1-2.562.715,4.47,4.47,0,0,1-1.887-.379,3.166,3.166,0,0,1-1.293-1.039,2.414,2.414,0,0,1-.469-1.426h2.141a1.179,1.179,0,0,0,.445.922,1.766,1.766,0,0,0,1.109.32,1.635,1.635,0,0,0,.98-.246A.766.766,0,0,0,36.254,17.664Z" transform="translate(1056 9642.5)" fill="#12263f"/>
        <path id="Path_609170" data-name="Path 609170" d="M-13.684-2.82l2.578-8.555H-8.5L-12.457,0H-14.9l-3.945-11.375h2.6ZM-3.035,0a2.507,2.507,0,0,1-.227-.758A2.732,2.732,0,0,1-5.395.156,3,3,0,0,1-7.453-.562,2.312,2.312,0,0,1-8.27-2.375a2.389,2.389,0,0,1,1-2.062,4.915,4.915,0,0,1,2.879-.727h1.039v-.484a1.393,1.393,0,0,0-.3-.937,1.183,1.183,0,0,0-.949-.352,1.345,1.345,0,0,0-.895.273.929.929,0,0,0-.324.75H-8.082a2.268,2.268,0,0,1,.453-1.359,3,3,0,0,1,1.281-.98,4.669,4.669,0,0,1,1.859-.355,3.689,3.689,0,0,1,2.48.785A2.747,2.747,0,0,1-1.09-5.617v3.664A4.041,4.041,0,0,0-.754-.133V0ZM-4.9-1.57a1.945,1.945,0,0,0,.922-.223,1.462,1.462,0,0,0,.625-.6V-3.844H-4.2q-1.7,0-1.8,1.172l-.008.133a.9.9,0,0,0,.3.7A1.153,1.153,0,0,0-4.9-1.57ZM3.027,0H.762V-12H3.027ZM4.535-4.3A5.013,5.013,0,0,1,5.02-6.547,3.546,3.546,0,0,1,6.414-8.07a4.069,4.069,0,0,1,2.113-.539A3.849,3.849,0,0,1,11.32-7.562a4.2,4.2,0,0,1,1.207,2.844l.016.578A4.418,4.418,0,0,1,11.457-1.02,3.775,3.775,0,0,1,8.543.156,3.793,3.793,0,0,1,5.625-1.016,4.5,4.5,0,0,1,4.535-4.2Zm2.258.16A3.16,3.16,0,0,0,7.246-2.3a1.5,1.5,0,0,0,1.3.638,1.5,1.5,0,0,0,1.281-.63,3.457,3.457,0,0,0,.461-2.015A3.128,3.128,0,0,0,9.824-6.14a1.5,1.5,0,0,0-1.3-.649,1.474,1.474,0,0,0-1.281.646A3.516,3.516,0,0,0,6.793-4.144ZM18.684-6.336a6.134,6.134,0,0,0-.812-.062,1.654,1.654,0,0,0-1.68.867V0H13.934V-8.453h2.133l.063,1.008a2.092,2.092,0,0,1,1.883-1.164,2.366,2.366,0,0,1,.7.1Z" transform="translate(1231 9652.5)" fill="#12263f"/>
        <path id="Path_609171" data-name="Path 609171" d="M-33,0V-11.375h3.5a5.315,5.315,0,0,1,2.684.676,4.712,4.712,0,0,1,1.848,1.922A5.928,5.928,0,0,1-24.3-5.945v.523a5.945,5.945,0,0,1-.652,2.82A4.672,4.672,0,0,1-26.8-.687,5.355,5.355,0,0,1-29.477,0Zm2.344-9.477v7.594h1.133a2.545,2.545,0,0,0,2.1-.9,4.06,4.06,0,0,0,.742-2.57v-.6A4.124,4.124,0,0,0-27.4-8.582a2.537,2.537,0,0,0-2.1-.895Zm11.8,9.633A4.15,4.15,0,0,1-21.887-.984a4.054,4.054,0,0,1-1.168-3.039v-.219a5.106,5.106,0,0,1,.492-2.277,3.612,3.612,0,0,1,1.395-1.547,3.914,3.914,0,0,1,2.059-.543,3.508,3.508,0,0,1,2.73,1.094,4.444,4.444,0,0,1,1,3.1v.922h-5.383a2.1,2.1,0,0,0,.66,1.328,2,2,0,0,0,1.395.5,2.437,2.437,0,0,0,2.039-.945l1.109,1.242A3.389,3.389,0,0,1-16.937-.246,4.511,4.511,0,0,1-18.859.156Zm-.258-6.945a1.411,1.411,0,0,0-1.09.455,2.357,2.357,0,0,0-.535,1.3H-17.6v-.181a1.681,1.681,0,0,0-.406-1.165A1.456,1.456,0,0,0-19.117-6.789Zm7.133-1.664.07.945a2.971,2.971,0,0,1,2.43-1.1A2.255,2.255,0,0,1-7.242-7.32,2.9,2.9,0,0,1-4.7-8.609a2.521,2.521,0,0,1,2.047.8A3.681,3.681,0,0,1-1.984-5.4V0H-4.25V-5.391a1.61,1.61,0,0,0-.281-1.051,1.246,1.246,0,0,0-.992-.332A1.409,1.409,0,0,0-6.93-5.8L-6.922,0H-9.18V-5.383a1.59,1.59,0,0,0-.289-1.062,1.259,1.259,0,0,0-.984-.328,1.463,1.463,0,0,0-1.391.8V0H-14.1V-8.453ZM4.648,0a2.507,2.507,0,0,1-.227-.758A2.732,2.732,0,0,1,2.289.156,3,3,0,0,1,.23-.562,2.312,2.312,0,0,1-.586-2.375a2.389,2.389,0,0,1,1-2.062,4.915,4.915,0,0,1,2.879-.727H4.328v-.484a1.393,1.393,0,0,0-.3-.937,1.183,1.183,0,0,0-.949-.352,1.345,1.345,0,0,0-.895.273.929.929,0,0,0-.324.75H-.4A2.268,2.268,0,0,1,.055-7.273a3,3,0,0,1,1.281-.98A4.669,4.669,0,0,1,3.2-8.609a3.689,3.689,0,0,1,2.48.785,2.747,2.747,0,0,1,.918,2.207v3.664A4.041,4.041,0,0,0,6.93-.133V0ZM2.781-1.57A1.945,1.945,0,0,0,3.7-1.793a1.462,1.462,0,0,0,.625-.6V-3.844H3.484q-1.7,0-1.8,1.172l-.008.133a.9.9,0,0,0,.3.7A1.153,1.153,0,0,0,2.781-1.57Zm7.625-6.883.07.977a2.951,2.951,0,0,1,2.43-1.133,2.453,2.453,0,0,1,2,.789,3.682,3.682,0,0,1,.672,2.359V0H13.32V-5.406a1.465,1.465,0,0,0-.312-1.043,1.4,1.4,0,0,0-1.039-.324,1.553,1.553,0,0,0-1.43.813V0H8.281V-8.453Zm6.531,4.164a5.094,5.094,0,0,1,.887-3.148A2.877,2.877,0,0,1,20.25-8.609a2.589,2.589,0,0,1,2.039.922V-12h2.266V0H22.516l-.109-.9A2.657,2.657,0,0,1,20.234.156,2.869,2.869,0,0,1,17.84-1.02,5.258,5.258,0,0,1,16.938-4.289Zm2.258.168A3.337,3.337,0,0,0,19.609-2.3a1.349,1.349,0,0,0,1.2.634,1.511,1.511,0,0,0,1.477-.884V-5.889a1.489,1.489,0,0,0-1.461-.884Q19.2-6.773,19.2-4.121ZM31.2,0a2.507,2.507,0,0,1-.227-.758,2.732,2.732,0,0,1-2.133.914,3,3,0,0,1-2.059-.719,2.312,2.312,0,0,1-.816-1.812,2.389,2.389,0,0,1,1-2.062,4.915,4.915,0,0,1,2.879-.727h1.039v-.484a1.393,1.393,0,0,0-.3-.937,1.183,1.183,0,0,0-.949-.352,1.345,1.345,0,0,0-.895.273.929.929,0,0,0-.324.75H26.156a2.268,2.268,0,0,1,.453-1.359,3,3,0,0,1,1.281-.98,4.669,4.669,0,0,1,1.859-.355,3.689,3.689,0,0,1,2.48.785,2.747,2.747,0,0,1,.918,2.207v3.664a4.041,4.041,0,0,0,.336,1.82V0ZM29.336-1.57a1.945,1.945,0,0,0,.922-.223,1.462,1.462,0,0,0,.625-.6V-3.844h-.844q-1.7,0-1.8,1.172l-.008.133a.9.9,0,0,0,.3.7A1.153,1.153,0,0,0,29.336-1.57Z" transform="translate(369 9652.5)" fill="#12263f"/>
        <path id="Path_609172" data-name="Path 609172" d="M-29.754,0V-11.375h3.5a5.315,5.315,0,0,1,2.684.676,4.712,4.712,0,0,1,1.848,1.922,5.928,5.928,0,0,1,.664,2.832v.523a5.945,5.945,0,0,1-.652,2.82,4.672,4.672,0,0,1-1.84,1.914A5.355,5.355,0,0,1-26.23,0Zm2.344-9.477v7.594h1.133a2.545,2.545,0,0,0,2.1-.9,4.06,4.06,0,0,0,.742-2.57v-.6a4.124,4.124,0,0,0-.719-2.629,2.537,2.537,0,0,0-2.1-.895ZM-17.121,0h-2.266V-8.453h2.266Zm-2.4-10.641a1.112,1.112,0,0,1,.34-.836,1.277,1.277,0,0,1,.926-.328,1.28,1.28,0,0,1,.922.328,1.105,1.105,0,0,1,.344.836,1.108,1.108,0,0,1-.348.844,1.283,1.283,0,0,1-.918.328,1.283,1.283,0,0,1-.918-.328A1.108,1.108,0,0,1-19.52-10.641Zm8.836,8.3a.727.727,0,0,0-.41-.652,4.659,4.659,0,0,0-1.316-.426q-3.016-.633-3.016-2.562a2.323,2.323,0,0,1,.934-1.879,3.766,3.766,0,0,1,2.441-.754,4.053,4.053,0,0,1,2.574.758,2.388,2.388,0,0,1,.965,1.969H-10.77a1.092,1.092,0,0,0-.312-.8A1.322,1.322,0,0,0-12.059-7a1.351,1.351,0,0,0-.883.258.814.814,0,0,0-.312.656.7.7,0,0,0,.355.605,3.657,3.657,0,0,0,1.2.4,9.8,9.8,0,0,1,1.422.379A2.336,2.336,0,0,1-8.488-2.43,2.2,2.2,0,0,1-9.48-.559a4.28,4.28,0,0,1-2.562.715A4.47,4.47,0,0,1-13.93-.223a3.166,3.166,0,0,1-1.293-1.039,2.414,2.414,0,0,1-.469-1.426h2.141a1.179,1.179,0,0,0,.445.922A1.766,1.766,0,0,0-12-1.445a1.635,1.635,0,0,0,.98-.246A.766.766,0,0,0-10.684-2.336ZM-3.145.156A4.15,4.15,0,0,1-6.172-.984,4.054,4.054,0,0,1-7.34-4.023v-.219A5.106,5.106,0,0,1-6.848-6.52,3.612,3.612,0,0,1-5.453-8.066a3.914,3.914,0,0,1,2.059-.543A3.508,3.508,0,0,1-.664-7.516a4.444,4.444,0,0,1,1,3.1v.922H-5.051a2.1,2.1,0,0,0,.66,1.328A2,2,0,0,0-3-1.664,2.437,2.437,0,0,0-.957-2.609L.152-1.367A3.389,3.389,0,0,1-1.223-.246,4.511,4.511,0,0,1-3.145.156ZM-3.4-6.789a1.411,1.411,0,0,0-1.09.455,2.357,2.357,0,0,0-.535,1.3h3.141v-.181a1.681,1.681,0,0,0-.406-1.165A1.456,1.456,0,0,0-3.4-6.789ZM3.691-8.453l.07.977a2.951,2.951,0,0,1,2.43-1.133,2.453,2.453,0,0,1,2,.789,3.682,3.682,0,0,1,.672,2.359V0H6.605V-5.406a1.465,1.465,0,0,0-.312-1.043,1.4,1.4,0,0,0-1.039-.324,1.553,1.553,0,0,0-1.43.813V0H1.566V-8.453ZM8.176-11.9a2.187,2.187,0,0,1-.516,1.48,1.6,1.6,0,0,1-1.258.6,1.908,1.908,0,0,1-.527-.066,3.539,3.539,0,0,1-.637-.285,3.435,3.435,0,0,0-.586-.27,1.432,1.432,0,0,0-.391-.051.627.627,0,0,0-.465.2.759.759,0,0,0-.191.555L2.293-9.82A2.22,2.22,0,0,1,2.8-11.3a1.578,1.578,0,0,1,1.254-.609,1.614,1.614,0,0,1,.441.059,4.861,4.861,0,0,1,.676.285,4.392,4.392,0,0,0,.648.273,1.48,1.48,0,0,0,.375.047.659.659,0,0,0,.473-.191.728.728,0,0,0,.2-.551ZM10.223-4.3a5.013,5.013,0,0,1,.484-2.242A3.546,3.546,0,0,1,12.1-8.07a4.069,4.069,0,0,1,2.113-.539,3.849,3.849,0,0,1,2.793,1.047,4.2,4.2,0,0,1,1.207,2.844l.016.578A4.418,4.418,0,0,1,17.145-1.02,3.775,3.775,0,0,1,14.23.156a3.793,3.793,0,0,1-2.918-1.172A4.5,4.5,0,0,1,10.223-4.2Zm2.258.16A3.16,3.16,0,0,0,12.934-2.3a1.5,1.5,0,0,0,1.3.638,1.5,1.5,0,0,0,1.281-.63,3.457,3.457,0,0,0,.461-2.015,3.128,3.128,0,0,0-.461-1.831,1.5,1.5,0,0,0-1.3-.649,1.474,1.474,0,0,0-1.281.646A3.516,3.516,0,0,0,12.48-4.144ZM26.762-3.2l1.563-5.258h2.422l-3.4,9.766-.187.445a2.577,2.577,0,0,1-2.5,1.656,3.552,3.552,0,0,1-1-.148V1.555L24,1.563a1.857,1.857,0,0,0,.957-.2,1.283,1.283,0,0,0,.5-.648l.266-.7L22.762-8.453h2.43Zm-57,12.664v2.078H-28.8V13.2h-1.445v4.219a1.007,1.007,0,0,0,.18.672.9.9,0,0,0,.688.2,3.6,3.6,0,0,0,.664-.055v1.711a4.648,4.648,0,0,1-1.367.2,2.156,2.156,0,0,1-2.422-2.4V13.2h-1.234V11.547H-32.5V9.469Zm7.453,4.2A6.134,6.134,0,0,0-23.6,13.6a1.654,1.654,0,0,0-1.68.867V20h-2.258V11.547h2.133l.063,1.008a2.092,2.092,0,0,1,1.883-1.164,2.366,2.366,0,0,1,.7.1ZM-17.039,20a2.507,2.507,0,0,1-.227-.758,2.732,2.732,0,0,1-2.133.914,3,3,0,0,1-2.059-.719,2.312,2.312,0,0,1-.816-1.812,2.389,2.389,0,0,1,1-2.062,4.915,4.915,0,0,1,2.879-.727h1.039v-.484a1.393,1.393,0,0,0-.3-.937,1.183,1.183,0,0,0-.949-.352,1.345,1.345,0,0,0-.895.273.929.929,0,0,0-.324.75h-2.258a2.268,2.268,0,0,1,.453-1.359,3,3,0,0,1,1.281-.98,4.669,4.669,0,0,1,1.859-.355,3.689,3.689,0,0,1,2.48.785,2.747,2.747,0,0,1,.918,2.207v3.664a4.041,4.041,0,0,0,.336,1.82V20Zm-1.867-1.57a1.945,1.945,0,0,0,.922-.223,1.462,1.462,0,0,0,.625-.6V16.156H-18.2q-1.7,0-1.8,1.172l-.008.133a.9.9,0,0,0,.3.7A1.153,1.153,0,0,0-18.906,18.43Zm7.625-6.883.07.977a2.951,2.951,0,0,1,2.43-1.133,2.453,2.453,0,0,1,2,.789,3.682,3.682,0,0,1,.672,2.359V20H-8.367V14.594a1.465,1.465,0,0,0-.312-1.043,1.4,1.4,0,0,0-1.039-.324,1.553,1.553,0,0,0-1.43.813V20h-2.258V11.547ZM.18,17.664a.727.727,0,0,0-.41-.652,4.659,4.659,0,0,0-1.316-.426q-3.016-.633-3.016-2.562a2.323,2.323,0,0,1,.934-1.879,3.766,3.766,0,0,1,2.441-.754,4.053,4.053,0,0,1,2.574.758,2.388,2.388,0,0,1,.965,1.969H.094a1.092,1.092,0,0,0-.312-.8A1.322,1.322,0,0,0-1.2,13a1.351,1.351,0,0,0-.883.258.814.814,0,0,0-.312.656.7.7,0,0,0,.355.605,3.657,3.657,0,0,0,1.2.4A9.8,9.8,0,0,1,.586,15.3,2.336,2.336,0,0,1,2.375,17.57a2.2,2.2,0,0,1-.992,1.871,4.28,4.28,0,0,1-2.562.715,4.47,4.47,0,0,1-1.887-.379,3.166,3.166,0,0,1-1.293-1.039,2.414,2.414,0,0,1-.469-1.426h2.141a1.179,1.179,0,0,0,.445.922,1.766,1.766,0,0,0,1.109.32,1.635,1.635,0,0,0,.98-.246A.766.766,0,0,0,.18,17.664ZM6.211,20H3.945V11.547H6.211ZM3.813,9.359a1.112,1.112,0,0,1,.34-.836A1.277,1.277,0,0,1,5.078,8.2,1.28,1.28,0,0,1,6,8.523,1.193,1.193,0,0,1,6,10.2a1.283,1.283,0,0,1-.918.328A1.283,1.283,0,0,1,4.16,10.2,1.108,1.108,0,0,1,3.813,9.359Zm7.773,8.977a1.481,1.481,0,0,0,1.016-.344,1.2,1.2,0,0,0,.406-.914h2.117a2.9,2.9,0,0,1-.469,1.574,3.093,3.093,0,0,1-1.262,1.109,3.949,3.949,0,0,1-1.77.395A3.67,3.67,0,0,1,8.766,19,4.56,4.56,0,0,1,7.719,15.82v-.148a4.508,4.508,0,0,1,1.039-3.117,3.627,3.627,0,0,1,2.852-1.164,3.555,3.555,0,0,1,2.543.9,3.2,3.2,0,0,1,.973,2.4H13.008a1.551,1.551,0,0,0-.406-1.072,1.354,1.354,0,0,0-1.031-.412,1.36,1.36,0,0,0-1.191.575,3.333,3.333,0,0,0-.4,1.866v.235a3.375,3.375,0,0,0,.4,1.878A1.377,1.377,0,0,0,11.586,18.336ZM18.8,20H16.531V11.547H18.8ZM16.4,9.359a1.112,1.112,0,0,1,.34-.836,1.465,1.465,0,0,1,1.848,0,1.193,1.193,0,0,1,0,1.68,1.448,1.448,0,0,1-1.836,0A1.108,1.108,0,0,1,16.4,9.359ZM20.3,15.7a5.013,5.013,0,0,1,.484-2.242,3.546,3.546,0,0,1,1.395-1.523,4.069,4.069,0,0,1,2.113-.539,3.849,3.849,0,0,1,2.793,1.047A4.2,4.2,0,0,1,28.3,15.281l.016.578a4.418,4.418,0,0,1-1.086,3.121,3.775,3.775,0,0,1-2.914,1.176,3.793,3.793,0,0,1-2.918-1.172A4.5,4.5,0,0,1,20.3,15.8Zm2.258.16a3.16,3.16,0,0,0,.453,1.843,1.628,1.628,0,0,0,2.578.008,3.457,3.457,0,0,0,.461-2.015,3.128,3.128,0,0,0-.461-1.831,1.5,1.5,0,0,0-1.3-.649,1.474,1.474,0,0,0-1.281.646A3.516,3.516,0,0,0,22.563,15.856ZM24.742,8H27.2l-2.164,2.422H23.2Zm7.039,3.547.07.977a2.951,2.951,0,0,1,2.43-1.133,2.453,2.453,0,0,1,2,.789,3.682,3.682,0,0,1,.672,2.359V20H34.7V14.594a1.465,1.465,0,0,0-.312-1.043,1.4,1.4,0,0,0-1.039-.324,1.553,1.553,0,0,0-1.43.813V20H29.656V11.547Z" transform="translate(800 9571.5)" fill="#12263f"/>
        <path id="Path_609173" data-name="Path 609173" d="M-23.4-5.43a6.867,6.867,0,0,1-.594,2.945,4.472,4.472,0,0,1-1.7,1.953,4.7,4.7,0,0,1-2.535.688,4.732,4.732,0,0,1-2.523-.68,4.515,4.515,0,0,1-1.719-1.941,6.67,6.67,0,0,1-.617-2.9V-5.93a6.831,6.831,0,0,1,.605-2.957,4.508,4.508,0,0,1,1.711-1.961,4.706,4.706,0,0,1,2.527-.684,4.706,4.706,0,0,1,2.527.684A4.508,4.508,0,0,1-24-8.887,6.811,6.811,0,0,1-23.4-5.937Zm-2.375-.516a4.787,4.787,0,0,0-.641-2.719,2.088,2.088,0,0,0-1.828-.93,2.088,2.088,0,0,0-1.82.918,4.732,4.732,0,0,0-.648,2.691v.555a4.847,4.847,0,0,0,.641,2.7,2.082,2.082,0,0,0,1.844.961,2.064,2.064,0,0,0,1.813-.926,4.819,4.819,0,0,0,.641-2.7Zm11.547,1.8A5.119,5.119,0,0,1-15.094-.98,2.872,2.872,0,0,1-17.516.156,2.639,2.639,0,0,1-19.711-.9l-.1.9h-2.031V-12h2.258v4.3a2.571,2.571,0,0,1,2.055-.914,2.9,2.9,0,0,1,2.426,1.137,5.126,5.126,0,0,1,.879,3.2Zm-2.258-.164a3.363,3.363,0,0,0-.406-1.871,1.374,1.374,0,0,0-1.211-.59,1.489,1.489,0,0,0-1.484.883v3.336a1.509,1.509,0,0,0,1.5.891,1.394,1.394,0,0,0,1.438-1.078A5.562,5.562,0,0,0-16.484-4.312Zm6.352-6.219v2.078h1.445V-6.8h-1.445v4.219a1.007,1.007,0,0,0,.18.672.9.9,0,0,0,.688.2A3.6,3.6,0,0,0-8.6-1.758V-.047a4.648,4.648,0,0,1-1.367.2,2.156,2.156,0,0,1-2.422-2.4V-6.8h-1.234V-8.453h1.234v-2.078ZM-3.539.156A4.15,4.15,0,0,1-6.566-.984,4.054,4.054,0,0,1-7.734-4.023v-.219A5.106,5.106,0,0,1-7.242-6.52,3.612,3.612,0,0,1-5.848-8.066a3.914,3.914,0,0,1,2.059-.543,3.508,3.508,0,0,1,2.73,1.094,4.444,4.444,0,0,1,1,3.1v.922H-5.445a2.1,2.1,0,0,0,.66,1.328,2,2,0,0,0,1.395.5,2.437,2.437,0,0,0,2.039-.945L-.242-1.367A3.389,3.389,0,0,1-1.617-.246,4.511,4.511,0,0,1-3.539.156ZM-3.8-6.789a1.411,1.411,0,0,0-1.09.455,2.357,2.357,0,0,0-.535,1.3h3.141v-.181a1.681,1.681,0,0,0-.406-1.165A1.456,1.456,0,0,0-3.8-6.789ZM3.3-8.453l.07.977A2.951,2.951,0,0,1,5.8-8.609a2.453,2.453,0,0,1,2,.789,3.682,3.682,0,0,1,.672,2.359V0H6.211V-5.406A1.465,1.465,0,0,0,5.9-6.449a1.4,1.4,0,0,0-1.039-.324,1.553,1.553,0,0,0-1.43.813V0H1.172V-8.453ZM14.07.156A4.15,4.15,0,0,1,11.043-.984,4.054,4.054,0,0,1,9.875-4.023v-.219a5.106,5.106,0,0,1,.492-2.277,3.612,3.612,0,0,1,1.395-1.547,3.914,3.914,0,0,1,2.059-.543,3.508,3.508,0,0,1,2.73,1.094,4.444,4.444,0,0,1,1,3.1v.922H12.164a2.1,2.1,0,0,0,.66,1.328,2,2,0,0,0,1.395.5,2.437,2.437,0,0,0,2.039-.945l1.109,1.242A3.389,3.389,0,0,1,15.992-.246,4.511,4.511,0,0,1,14.07.156Zm-.258-6.945a1.411,1.411,0,0,0-1.09.455,2.357,2.357,0,0,0-.535,1.3h3.141v-.181a1.681,1.681,0,0,0-.406-1.165A1.456,1.456,0,0,0,13.813-6.789Zm9.766.453a6.134,6.134,0,0,0-.812-.062,1.654,1.654,0,0,0-1.68.867V0H18.828V-8.453h2.133l.063,1.008a2.092,2.092,0,0,1,1.883-1.164,2.366,2.366,0,0,1,.7.1ZM29.359.977H27.68l4.188-12.352h1.68Zm-55.41,17.359a1.481,1.481,0,0,0,1.016-.344,1.2,1.2,0,0,0,.406-.914h2.117a2.9,2.9,0,0,1-.469,1.574,3.093,3.093,0,0,1-1.262,1.109,3.949,3.949,0,0,1-1.77.395A3.67,3.67,0,0,1-28.871,19a4.56,4.56,0,0,1-1.047-3.184v-.148a4.508,4.508,0,0,1,1.039-3.117,3.627,3.627,0,0,1,2.852-1.164,3.555,3.555,0,0,1,2.543.9,3.2,3.2,0,0,1,.973,2.4h-2.117a1.551,1.551,0,0,0-.406-1.072,1.354,1.354,0,0,0-1.031-.412,1.36,1.36,0,0,0-1.191.575,3.333,3.333,0,0,0-.4,1.866v.235a3.375,3.375,0,0,0,.4,1.878A1.377,1.377,0,0,0-26.051,18.336Zm4.477-2.641a5.013,5.013,0,0,1,.484-2.242A3.546,3.546,0,0,1-19.7,11.93a4.069,4.069,0,0,1,2.113-.539,3.849,3.849,0,0,1,2.793,1.047,4.2,4.2,0,0,1,1.207,2.844l.016.578a4.418,4.418,0,0,1-1.086,3.121,3.775,3.775,0,0,1-2.914,1.176,3.793,3.793,0,0,1-2.918-1.172,4.5,4.5,0,0,1-1.09-3.187Zm2.258.16a3.16,3.16,0,0,0,.453,1.843,1.5,1.5,0,0,0,1.3.638,1.5,1.5,0,0,0,1.281-.63,3.457,3.457,0,0,0,.461-2.015,3.128,3.128,0,0,0-.461-1.831,1.5,1.5,0,0,0-1.3-.649,1.474,1.474,0,0,0-1.281.646A3.516,3.516,0,0,0-19.316,15.856Zm9.219-4.309.07.977A2.951,2.951,0,0,1-7.6,11.391a2.453,2.453,0,0,1,2,.789,3.682,3.682,0,0,1,.672,2.359V20H-7.184V14.594A1.465,1.465,0,0,0-7.5,13.551a1.4,1.4,0,0,0-1.039-.324,1.553,1.553,0,0,0-1.43.813V20h-2.258V11.547ZM1.363,17.664a.727.727,0,0,0-.41-.652,4.659,4.659,0,0,0-1.316-.426q-3.016-.633-3.016-2.562a2.323,2.323,0,0,1,.934-1.879A3.766,3.766,0,0,1,0,11.391a4.053,4.053,0,0,1,2.574.758,2.388,2.388,0,0,1,.965,1.969H1.277a1.092,1.092,0,0,0-.312-.8A1.322,1.322,0,0,0-.012,13a1.351,1.351,0,0,0-.883.258.814.814,0,0,0-.312.656.7.7,0,0,0,.355.605,3.657,3.657,0,0,0,1.2.4A9.8,9.8,0,0,1,1.77,15.3,2.336,2.336,0,0,1,3.559,17.57a2.2,2.2,0,0,1-.992,1.871A4.28,4.28,0,0,1,0,20.156a4.47,4.47,0,0,1-1.887-.379,3.166,3.166,0,0,1-1.293-1.039,2.414,2.414,0,0,1-.469-1.426H-1.5a1.179,1.179,0,0,0,.445.922,1.766,1.766,0,0,0,1.109.32,1.635,1.635,0,0,0,.98-.246A.766.766,0,0,0,1.363,17.664Zm6.352-8.2v2.078H9.16V13.2H7.715v4.219a1.007,1.007,0,0,0,.18.672.9.9,0,0,0,.688.2,3.6,3.6,0,0,0,.664-.055v1.711a4.648,4.648,0,0,1-1.367.2,2.156,2.156,0,0,1-2.422-2.4V13.2H4.223V11.547H5.457V9.469Zm7.453,4.2a6.134,6.134,0,0,0-.812-.062,1.654,1.654,0,0,0-1.68.867V20H10.418V11.547h2.133l.063,1.008A2.092,2.092,0,0,1,14.5,11.391a2.366,2.366,0,0,1,.7.1Zm6.148,5.477A2.831,2.831,0,0,1,19,20.156a2.67,2.67,0,0,1-2.074-.781,3.335,3.335,0,0,1-.73-2.289V11.547h2.258v5.467q0,1.322,1.2,1.322a1.63,1.63,0,0,0,1.578-.8V11.547H23.5V20H21.379ZM27.59,20H25.324V11.547H27.59Zm-2.4-10.641a1.112,1.112,0,0,1,.34-.836,1.465,1.465,0,0,1,1.848,0,1.193,1.193,0,0,1,0,1.68,1.448,1.448,0,0,1-1.836,0A1.108,1.108,0,0,1,25.191,9.359Zm9.008,4.3a6.134,6.134,0,0,0-.812-.062,1.654,1.654,0,0,0-1.68.867V20H29.449V11.547h2.133l.063,1.008a2.092,2.092,0,0,1,1.883-1.164,2.366,2.366,0,0,1,.7.1Z" transform="translate(749 9656.5)" fill="#12263f"/>
        <path id="Path_609174" data-name="Path 609174" d="M-24.828-4.93h-4.5v3.047h5.281V0h-7.625V-11.375h7.609v1.9h-5.266v2.711h4.5Zm4.086-3.523.07.977a2.951,2.951,0,0,1,2.43-1.133,2.453,2.453,0,0,1,2,.789,3.682,3.682,0,0,1,.672,2.359V0h-2.258V-5.406a1.465,1.465,0,0,0-.312-1.043,1.4,1.4,0,0,0-1.039-.324,1.553,1.553,0,0,0-1.43.813V0h-2.258V-8.453Zm9.586-2.078v2.078h1.445V-6.8h-1.445v4.219a1.007,1.007,0,0,0,.18.672.9.9,0,0,0,.688.2,3.6,3.6,0,0,0,.664-.055V-.047a4.648,4.648,0,0,1-1.367.2,2.156,2.156,0,0,1-2.422-2.4V-6.8h-1.234V-8.453h1.234v-2.078Zm7.453,4.2A6.134,6.134,0,0,0-4.516-6.4a1.654,1.654,0,0,0-1.68.867V0H-8.453V-8.453H-6.32l.063,1.008A2.092,2.092,0,0,1-4.375-8.609a2.366,2.366,0,0,1,.7.1ZM1.125.156A4.15,4.15,0,0,1-1.9-.984,4.054,4.054,0,0,1-3.07-4.023v-.219A5.106,5.106,0,0,1-2.578-6.52,3.612,3.612,0,0,1-1.184-8.066,3.914,3.914,0,0,1,.875-8.609a3.508,3.508,0,0,1,2.73,1.094,4.444,4.444,0,0,1,1,3.1v.922H-.781a2.1,2.1,0,0,0,.66,1.328,2,2,0,0,0,1.395.5,2.437,2.437,0,0,0,2.039-.945L4.422-1.367A3.389,3.389,0,0,1,3.047-.246,4.511,4.511,0,0,1,1.125.156ZM.867-6.789a1.411,1.411,0,0,0-1.09.455,2.357,2.357,0,0,0-.535,1.3H2.383v-.181a1.681,1.681,0,0,0-.406-1.165A1.456,1.456,0,0,0,.867-6.789Zm4.688,2.5A4.954,4.954,0,0,1,6.48-7.422a3,3,0,0,1,2.5-1.187,2.631,2.631,0,0,1,2.164.953l.094-.8h2.047V-.281a3.613,3.613,0,0,1-.5,1.93A3.236,3.236,0,0,1,11.359,2.9a4.985,4.985,0,0,1-2.141.43,4.635,4.635,0,0,1-1.812-.371A3.217,3.217,0,0,1,6.07,2l1-1.375a2.645,2.645,0,0,0,2.047.945,1.936,1.936,0,0,0,1.4-.48,1.8,1.8,0,0,0,.5-1.363V-.727A2.612,2.612,0,0,1,8.961.156,2.992,2.992,0,0,1,6.5-1.035,4.953,4.953,0,0,1,5.555-4.2Zm2.258.168a3.085,3.085,0,0,0,.461,1.8,1.466,1.466,0,0,0,1.266.653,1.568,1.568,0,0,0,1.477-.775V-6a1.564,1.564,0,0,0-1.461-.775,1.476,1.476,0,0,0-1.277.665A3.477,3.477,0,0,0,7.813-4.121ZM19.914,0a2.507,2.507,0,0,1-.227-.758,2.732,2.732,0,0,1-2.133.914A3,3,0,0,1,15.5-.562a2.312,2.312,0,0,1-.816-1.812,2.389,2.389,0,0,1,1-2.062,4.915,4.915,0,0,1,2.879-.727h1.039v-.484a1.393,1.393,0,0,0-.3-.937,1.183,1.183,0,0,0-.949-.352,1.345,1.345,0,0,0-.895.273.929.929,0,0,0-.324.75H14.867a2.268,2.268,0,0,1,.453-1.359,3,3,0,0,1,1.281-.98,4.669,4.669,0,0,1,1.859-.355,3.689,3.689,0,0,1,2.48.785,2.747,2.747,0,0,1,.918,2.207v3.664A4.041,4.041,0,0,0,22.2-.133V0ZM18.047-1.57a1.945,1.945,0,0,0,.922-.223,1.462,1.462,0,0,0,.625-.6V-3.844H18.75q-1.7,0-1.8,1.172l-.008.133a.9.9,0,0,0,.3.7A1.153,1.153,0,0,0,18.047-1.57ZM28.289.977h-1.68L30.8-11.375h1.68ZM-20.367,17.664a.727.727,0,0,0-.41-.652,4.659,4.659,0,0,0-1.316-.426q-3.016-.633-3.016-2.562a2.323,2.323,0,0,1,.934-1.879,3.766,3.766,0,0,1,2.441-.754,4.053,4.053,0,0,1,2.574.758,2.388,2.388,0,0,1,.965,1.969h-2.258a1.092,1.092,0,0,0-.312-.8A1.322,1.322,0,0,0-21.742,13a1.351,1.351,0,0,0-.883.258.814.814,0,0,0-.312.656.7.7,0,0,0,.355.605,3.657,3.657,0,0,0,1.2.4,9.8,9.8,0,0,1,1.422.379,2.336,2.336,0,0,1,1.789,2.273,2.2,2.2,0,0,1-.992,1.871,4.28,4.28,0,0,1-2.562.715,4.47,4.47,0,0,1-1.887-.379,3.166,3.166,0,0,1-1.293-1.039,2.414,2.414,0,0,1-.469-1.426h2.141a1.179,1.179,0,0,0,.445.922,1.766,1.766,0,0,0,1.109.32,1.635,1.635,0,0,0,.98-.246A.766.766,0,0,0-20.367,17.664Zm3.3-1.969a5.013,5.013,0,0,1,.484-2.242,3.546,3.546,0,0,1,1.395-1.523,4.069,4.069,0,0,1,2.113-.539,3.849,3.849,0,0,1,2.793,1.047,4.2,4.2,0,0,1,1.207,2.844l.016.578a4.418,4.418,0,0,1-1.086,3.121,3.775,3.775,0,0,1-2.914,1.176,3.793,3.793,0,0,1-2.918-1.172A4.5,4.5,0,0,1-17.07,15.8Zm2.258.16a3.16,3.16,0,0,0,.453,1.843,1.5,1.5,0,0,0,1.3.638,1.5,1.5,0,0,0,1.281-.63,3.457,3.457,0,0,0,.461-2.015,3.128,3.128,0,0,0-.461-1.831,1.5,1.5,0,0,0-1.3-.649,1.474,1.474,0,0,0-1.281.646A3.516,3.516,0,0,0-14.812,15.856Zm14.75,0A5.07,5.07,0,0,1-.949,18.98a2.843,2.843,0,0,1-2.395,1.176,2.633,2.633,0,0,1-2.07-.891V23.25H-7.672v-11.7h2.094l.078.828a2.654,2.654,0,0,1,2.141-.984A2.862,2.862,0,0,1-.93,12.547a5.207,5.207,0,0,1,.867,3.188Zm-2.258-.164a3.327,3.327,0,0,0-.418-1.82,1.361,1.361,0,0,0-1.215-.641,1.478,1.478,0,0,0-1.461.813V17.5a1.5,1.5,0,0,0,1.477.836Q-2.32,18.336-2.32,15.688Zm3.3.008a5.013,5.013,0,0,1,.484-2.242A3.546,3.546,0,0,1,2.863,11.93a4.069,4.069,0,0,1,2.113-.539A3.849,3.849,0,0,1,7.77,12.438a4.2,4.2,0,0,1,1.207,2.844l.016.578A4.418,4.418,0,0,1,7.906,18.98a3.775,3.775,0,0,1-2.914,1.176,3.793,3.793,0,0,1-2.918-1.172A4.5,4.5,0,0,1,.984,15.8Zm2.258.16A3.16,3.16,0,0,0,3.7,17.7a1.5,1.5,0,0,0,1.3.638,1.5,1.5,0,0,0,1.281-.63,3.457,3.457,0,0,0,.461-2.015,3.128,3.128,0,0,0-.461-1.831,1.5,1.5,0,0,0-1.3-.649,1.474,1.474,0,0,0-1.281.646A3.516,3.516,0,0,0,3.242,15.856Zm11.891-2.192a6.134,6.134,0,0,0-.812-.062,1.654,1.654,0,0,0-1.68.867V20H10.383V11.547h2.133l.063,1.008a2.092,2.092,0,0,1,1.883-1.164,2.366,2.366,0,0,1,.7.1Zm4.18-4.2v2.078h1.445V13.2H19.313v4.219a1.007,1.007,0,0,0,.18.672.9.9,0,0,0,.688.2,3.6,3.6,0,0,0,.664-.055v1.711a4.648,4.648,0,0,1-1.367.2,2.156,2.156,0,0,1-2.422-2.4V13.2H15.82V11.547h1.234V9.469Zm6.594,10.688a4.15,4.15,0,0,1-3.027-1.141,4.054,4.054,0,0,1-1.168-3.039v-.219A5.106,5.106,0,0,1,22.2,13.48,3.612,3.612,0,0,1,23.6,11.934a3.914,3.914,0,0,1,2.059-.543,3.508,3.508,0,0,1,2.73,1.094,4.444,4.444,0,0,1,1,3.1v.922H24a2.1,2.1,0,0,0,.66,1.328,2,2,0,0,0,1.395.5,2.437,2.437,0,0,0,2.039-.945L29.2,18.633a3.389,3.389,0,0,1-1.375,1.121A4.511,4.511,0,0,1,25.906,20.156Zm-.258-6.945a1.411,1.411,0,0,0-1.09.455,2.357,2.357,0,0,0-.535,1.3h3.141v-.181a1.681,1.681,0,0,0-.406-1.165A1.456,1.456,0,0,0,25.648,13.211Z" transform="translate(844 9659.5)" fill="#12263f"/>
      </g>
    </g>
    <g id="Group_1071640" data-name="Group 1071640">
      <g id="Group_1071639" data-name="Group 1071639">
        <g id="Group_1071565" data-name="Group 1071565" transform="translate(531 351.5)">
          <circle id="Ellipse_5840" data-name="Ellipse 5840" cx="28" cy="28" r="28" transform="translate(247 9067)" fill="#7e10b8" opacity="0.3"/>
          <circle id="Ellipse_5841" data-name="Ellipse 5841" cx="17" cy="17" r="17" transform="translate(258 9078)" fill="#7e10b8"/>
          <text id="_" data-name="+" transform="translate(270 9102)" fill="#fff" font-size="20" font-family="Roboto-Regular, Roboto"><tspan x="0" y="0">+</tspan></text>
        </g>
        <g id="Group_1071566" data-name="Group 1071566" transform="translate(530 748.5)">
          <circle id="Ellipse_5840-2" data-name="Ellipse 5840" cx="28" cy="28" r="28" transform="translate(247 9067)" fill="#7e10b8" opacity="0.3"/>
          <circle id="Ellipse_5841-2" data-name="Ellipse 5841" cx="17" cy="17" r="17" transform="translate(258 9078)" fill="#7e10b8"/>
          <text id="_2" data-name="+" transform="translate(270 9102)" fill="#fff" font-size="20" font-family="Roboto-Regular, Roboto"><tspan x="0" y="0">+</tspan></text>
        </g>
        <g id="Group_1071567" data-name="Group 1071567" transform="translate(270.5 505)">
          <circle id="Ellipse_5840-3" data-name="Ellipse 5840" cx="23.5" cy="23.5" r="23.5" transform="translate(247.5 9067.5)" fill="#7e10b8" opacity="0.3"/>
          <circle id="Ellipse_5841-3" data-name="Ellipse 5841" cx="14" cy="14" r="14" transform="translate(256.5 9076.5)" fill="#7e10b8"/>
          <text id="_3" data-name="+" transform="translate(266.5 9095.5)" fill="#fff" font-size="16" font-family="Roboto-Regular, Roboto"><tspan x="0" y="0">+</tspan></text>
        </g>
        <g id="Group_1071568" data-name="Group 1071568" transform="translate(529.5 528)">
          <circle id="Ellipse_5840-4" data-name="Ellipse 5840" cx="23.5" cy="23.5" r="23.5" transform="translate(247.5 9067.5)" fill="#7e10b8" opacity="0.3"/>
          <circle id="Ellipse_5841-4" data-name="Ellipse 5841" cx="14" cy="14" r="14" transform="translate(256.5 9076.5)" fill="#7e10b8"/>
          <text id="_4" data-name="+" transform="translate(266.5 9095.5)" fill="#fff" font-size="16" font-family="Roboto-Regular, Roboto"><tspan x="0" y="0">+</tspan></text>
        </g>
        <g id="Group_1071569" data-name="Group 1071569" transform="translate(492.5 622)">
          <circle id="Ellipse_5840-5" data-name="Ellipse 5840" cx="23.5" cy="23.5" r="23.5" transform="translate(247.5 9067.5)" fill="#7e10b8" opacity="0.3"/>
          <circle id="Ellipse_5841-5" data-name="Ellipse 5841" cx="14" cy="14" r="14" transform="translate(256.5 9076.5)" fill="#7e10b8"/>
          <text id="_5" data-name="+" transform="translate(266.5 9095.5)" fill="#fff" font-size="16" font-family="Roboto-Regular, Roboto"><tspan x="0" y="0">+</tspan></text>
        </g>
        <g id="Group_1071570" data-name="Group 1071570" transform="translate(563.5 621)">
          <circle id="Ellipse_5840-6" data-name="Ellipse 5840" cx="23.5" cy="23.5" r="23.5" transform="translate(247.5 9067.5)" fill="#7e10b8" opacity="0.3"/>
          <circle id="Ellipse_5841-6" data-name="Ellipse 5841" cx="14" cy="14" r="14" transform="translate(256.5 9076.5)" fill="#7e10b8"/>
          <text id="_6" data-name="+" transform="translate(266.5 9095.5)" fill="#fff" font-size="16" font-family="Roboto-Regular, Roboto"><tspan x="0" y="0">+</tspan></text>
        </g>
      </g>
    </g>
  </g>
</svg>
