<svg xmlns="http://www.w3.org/2000/svg" xmlns:xlink="http://www.w3.org/1999/xlink" width="120" height="120" viewBox="0 0 120 120">
  <defs>
    <clipPath id="clip-path">
      <rect id="Rectangle_377695" data-name="Rectangle 377695" width="86.846" height="86.824" fill="none"/>
    </clipPath>
  </defs>
  <g id="Group_1071552" data-name="Group 1071552" transform="translate(-269 -958)">
    <circle id="Ellipse_5614" data-name="Ellipse 5614" cx="60" cy="60" r="60" transform="translate(269 958)" fill="#304c8e"/>
    <g id="Group_1071644" data-name="Group 1071644" transform="translate(291 974.588)">
      <g id="Group_1071643" data-name="Group 1071643" clip-path="url(#clip-path)">
        <path id="Path_608923" data-name="Path 608923" d="M67.36,50.76a28.843,28.843,0,0,1-11.3,5.122c0,6.4,0,12.681,0,18.962,0,.407.133.9-.049,1.2-.263.432-.756,1-1.154,1s-.9-.546-1.2-.963c-.174-.241-.052-.7-.052-1.062q0-8.545,0-17.09v-1.61l-2.987.153v1.551q0,10.376,0,20.752c0,1.895-.211,2.107-2.1,2.111-2.938.007-5.876.013-8.814,0-1.521-.008-1.816-.311-1.817-1.849-.007-7.957-.036-15.914.03-23.871a2.124,2.124,0,0,0-1.44-2.365,17.876,17.876,0,0,1-2.129-1.215v1.66q0,12.681,0,25.363c0,2.1-.168,2.278-2.2,2.282-2.893,0-5.786.011-8.679,0-1.544-.008-1.85-.3-1.851-1.815q-.01-18.242,0-36.485c0-1.432.417-1.832,1.853-1.871.441-.012.882,0,1.18,0L21.81,30.044H17.89c-2.667,0-5.333,0-8,0-.972,0-2.091.006-2.108-1.307S8.851,27.4,9.846,27.4q5.356.011,10.712,0h1.476l.331-2.974c-.483-.022-.954-.06-1.425-.061-3.616-.005-7.232,0-10.848-.009a3.086,3.086,0,0,1-1.452-.172,1.773,1.773,0,0,1-.833-1.179c-.025-.345.427-.867.8-1.061a3.3,3.3,0,0,1,1.454-.18c4.243-.011,8.486-.007,12.764-.007l.879-3.037H10.21c-.406,0-.9.134-1.2-.045-.486-.286-1.149-.762-1.179-1.2-.028-.416.584-.989,1.047-1.289.328-.213.876-.107,1.325-.107,4.475-.005,8.95-.027,13.424.017a1.66,1.66,0,0,0,1.79-1.058c.466-1.009,1.092-1.944,1.716-3.029H2.668c0,1.32-.006,2.615,0,3.911.005.819-.233,1.454-1.179,1.479-1.006.026-1.319-.616-1.321-1.5q0-2.238,0-4.476c0-1.778.372-2.161,2.124-2.166,3.39-.008,6.78,0,10.17,0,5.288,0,10.577.023,15.865-.032a2.747,2.747,0,0,0,1.739-.717,28.324,28.324,0,0,1,37.956-2.3c.747.581,1.429,1.248,2.117,1.9a1.265,1.265,0,0,1,.249,1.908c-.595.706-1.272.558-1.9.031s-1.176-1.131-1.816-1.628C58.853,2.358,50.191.792,40.973,4.4c-8.8,3.439-14.189,10.062-15.842,19.416A25.6,25.6,0,1,0,72.279,14.92c-.116-.194-.239-.384-.345-.583-.4-.76-.5-1.518.369-1.988a1.23,1.23,0,0,1,1.8.667,51.506,51.506,0,0,1,3.087,6.735c2.82,8.988,1.324,17.362-4.026,25.078-.1.141-.191.285-.366.546,3.1,3.079,6.179,6.129,9.251,9.182,1.154,1.147,2.309,2.292,3.448,3.454,1.837,1.873,1.956,4.111.324,5.748-1.613,1.617-3.866,1.5-5.745-.367-3.944-3.916-7.863-7.858-11.8-11.787-.283-.283-.59-.541-.923-.844M31.674,78.36a5.647,5.647,0,0,0,.094-.667c.006-9.13.02-18.261-.023-27.391a2.7,2.7,0,0,0-.737-1.48A51.514,51.514,0,0,1,27.334,44.5a2.45,2.45,0,0,0-3.047-1.119V78.36Zm16.164,0c.093-.154.137-.193.137-.232.027-7,.056-14.01.052-21.015a.982.982,0,0,0-.514-.766c-2.31-.5-4.634-.94-6.971-1.4V78.36ZM69.5,49.072c.23.267.416.513.632.73Q75.97,55.65,81.812,61.494c.658.66,1.389,1.2,2.2.4.844-.827.226-1.545-.419-2.189-2.781-2.775-5.568-5.544-8.328-8.339-1.327-1.344-2.6-2.74-3.875-4.088L69.5,49.072" transform="translate(-0.122 0)" fill="#fff"/>
        <path id="Path_608924" data-name="Path 608924" d="M123.106,18.953A23.092,23.092,0,1,1,99.923,42.009a22.979,22.979,0,0,1,23.183-23.056M102.463,42A20.586,20.586,0,1,0,123.08,21.438,20.617,20.617,0,0,0,102.463,42" transform="translate(-72.827 -13.809)" fill="#fff"/>
        <path id="Path_608925" data-name="Path 608925" d="M2.548,139.595H53.485c0-.944,0-1.833,0-2.721s.49-1.493,1.3-1.312a1.89,1.89,0,0,1,1.1,1.342,34.323,34.323,0,0,1,.057,3.79,1.266,1.266,0,0,1-1.377,1.461c-.316.012-.633,0-.949,0H2.366c-2.082,0-2.319-.238-2.319-2.323q0-30.852,0-61.7c0-.407-.139-.923.057-1.195a2.3,2.3,0,0,1,1.319-1.01c.331-.033.849.617,1.072,1.067a3.274,3.274,0,0,1,.052,1.338q0,29.7,0,59.4Z" transform="translate(0 -55.338)" fill="#fff"/>
        <path id="Path_608926" data-name="Path 608926" d="M33.116,202.724q0,6.44,0,12.88c0,1.859-.2,2.067-2,2.073-2.982.009-5.965-.031-8.946.018-1.293.021-1.8-.565-1.8-1.786q.009-13.219,0-26.438c0-1.238.574-1.793,1.831-1.779,3.027.034,6.054,0,9.082.017,1.513.011,1.82.334,1.824,1.864.011,4.384,0,8.768,0,13.151M23.091,215.111h7.38V190.3h-7.38Z" transform="translate(-14.849 -136.795)" fill="#fff"/>
        <path id="Path_608927" data-name="Path 608927" d="M34.043,124.573H29.57c-.835,0-1.443-.318-1.429-1.238s.63-1.236,1.458-1.237q4.541-.006,9.082,0c.831,0,1.433.351,1.427,1.263s-.63,1.214-1.456,1.213q-2.3,0-4.609,0" transform="translate(-20.51 -88.985)" fill="#fff"/>
      </g>
    </g>
  </g>
</svg>
