<svg xmlns="http://www.w3.org/2000/svg" xmlns:xlink="http://www.w3.org/1999/xlink" width="125.072" height="125" viewBox="0 0 125.072 125">
  <defs>
    <clipPath id="clip-path">
      <rect id="Rectangle_377368" data-name="Rectangle 377368" width="78.066" height="83.225" fill="none"/>
    </clipPath>
  </defs>
  <g id="Group_1014545" data-name="Group 1014545" transform="translate(-738 -2146.403)">
    <circle id="Ellipse_4839" data-name="Ellipse 4839" cx="62.5" cy="62.5" r="62.5" transform="translate(738 2146.403)" fill="#304c8e"/>
    <g id="Group_43_" data-name="Group (43)" transform="translate(831 2239)">
      <path id="Path_598926" data-name="Path 598926" d="M36.549,16.055,16.055,36.549a15.864,15.864,0,0,0,.655,1.582l21.422-21.42a15.863,15.863,0,0,0-1.582-.655Z" transform="translate(-15.17 -15.17)" fill="#4ca220"/>
      <path id="Path_598927" data-name="Path 598927" d="M18.367.8.8,18.367a16.022,16.022,0,0,0,.26,1.7L20.065,1.058A16.022,16.022,0,0,0,18.367.8Z" transform="translate(-0.754 -0.754)" fill="#4ca220"/>
      <path id="Path_598928" data-name="Path 598928" d="M299.7,283.668c0-.137-.008-.274-.01-.41l-16.454,16.453c.137,0,.273.01.41.01a16.091,16.091,0,0,0,1.678-.088l14.289-14.289a16.09,16.09,0,0,0,.088-1.678Z" transform="translate(-267.627 -267.648)" fill="#4ca220"/>
      <path id="Path_598929" data-name="Path 598929" d="M68.634,46.122q-.611-.481-1.267-.9L45.2,67.389q.42.656.9,1.267Z" transform="translate(-42.708 -42.73)" fill="#4ca220"/>
      <path id="Path_598930" data-name="Path 598930" d="M0,15.009,15.009,0c-.434.026-.863.07-1.287.131L.131,13.722C.07,14.145.026,14.575,0,15.009Z" fill="#4ca220"/>
      <path id="Path_598931" data-name="Path 598931" d="M106.76,84.058l-22.7,22.7a16.114,16.114,0,0,0,1.365,1.222l22.559-22.559A16.123,16.123,0,0,0,106.76,84.058Z" transform="translate(-79.426 -79.426)" fill="#4ca220"/>
      <path id="Path_598932" data-name="Path 598932" d="M159.927,138.548a16.093,16.093,0,0,0-.877-1.6l-22.108,22.108a15.959,15.959,0,0,0,1.6.877Z" transform="translate(-129.396 -129.396)" fill="#4ca220"/>
      <path id="Path_598933" data-name="Path 598933" d="M28.816,19.794a16.1,16.1,0,0,0-9.022,9.022Z" transform="translate(-18.704 -18.704)" fill="#4ca220"/>
      <path id="Path_598934" data-name="Path 598934" d="M382.436,392.617a16.085,16.085,0,0,0,10.18-10.18Z" transform="translate(-361.361 -361.361)" fill="#4ca220"/>
      <path id="Path_598935" data-name="Path 598935" d="M220.714,200.477l-20.237,20.237a15.962,15.962,0,0,0,2.154.537l18.619-18.619A16.154,16.154,0,0,0,220.714,200.477Z" transform="translate(-189.429 -189.429)" fill="#4ca220"/>
    </g>
    <g id="Group_1017005" data-name="Group 1017005" transform="translate(764.5 2167.291)">
      <g id="Group_1017004" data-name="Group 1017004" clip-path="url(#clip-path)">
        <path id="Path_608390" data-name="Path 608390" d="M67.6,59.739H65.068V2.7H2.7V65H9.348c2.34,0,4.681-.007,7.021,0,1.461.006,1.851.386,1.854,1.834.009,4.073,0,8.146,0,12.219v1.5H64.936V83.2h-1.35q-22.949,0-45.9.021A3.07,3.07,0,0,1,15.3,82.211Q8.217,75.058,1.062,67.974A3.208,3.208,0,0,1,0,65.481Q.041,33.828.021,2.176C.021.27.29,0,2.188,0Q33.849,0,65.51,0c1.741,0,2.127.316,2.127,1.823q.007,28.533,0,57.066c0,.254-.022.507-.038.849M5.277,67.658l10.276,10.43V67.658Z" transform="translate(0 0)" fill="#fff"/>
        <path id="Path_608391" data-name="Path 608391" d="M74.479,98.93,69.31,93.754c-7.043,5.24-14.9,7.091-23.487,5A26.509,26.509,0,0,1,29.8,87.6,27.3,27.3,0,0,1,70.3,51.655c9.861,8.406,13.393,24.47,3.438,37.765.846.762,1.764,1.534,2.618,2.372s1.664,1.758,2.414,2.557c.287-.056.389-.044.441-.09,1.843-1.634,1.909-1.634,3.657.112q6.388,6.381,12.774,12.764c1.329,1.329,1.324,1.742-.021,3.09q-2.706,2.714-5.424,5.416c-1.156,1.145-1.634,1.138-2.806-.033q-6.39-6.379-12.77-12.769c-1.878-1.88-1.876-1.882-.136-3.908m-22.1-51.359A24.7,24.7,0,1,0,77.1,72.389,24.744,24.744,0,0,0,52.378,47.571m36.3,65.348,4.393-4.3-8.191-8.245-4.374,4.386,8.173,8.161M78.128,102.66,82.707,98.2,81.19,96.569,76.573,101.1l1.554,1.559m-6.02-11.312-.443.064c.068.36.013.837.225,1.061,1.3,1.376,2.677,2.677,3.991,4.04.589.611.893.391,1.167-.184l-4.939-4.982" transform="translate(-18.563 -33.268)" fill="#fff"/>
        <path id="Path_608392" data-name="Path 608392" d="M26.547,30.391c-1.6,0-3.2-.014-4.8,0-1.127.013-1.677-.494-1.67-1.638q.023-3.569,0-7.137c-.007-1.145.544-1.641,1.671-1.636,3.245.016,6.49.011,9.735,0a1.389,1.389,0,0,1,1.6,1.57q0,3.634,0,7.267a1.39,1.39,0,0,1-1.6,1.569c-1.644-.01-3.288,0-4.933,0m-3.8-2.679h7.643V22.646H22.748Z" transform="translate(-14.857 -14.79)" fill="#fff"/>
        <rect id="Rectangle_377363" data-name="Rectangle 377363" width="34.946" height="2.45" transform="translate(26.131 5.287)" fill="#fff"/>
        <rect id="Rectangle_377364" data-name="Rectangle 377364" width="23.291" height="2.438" transform="translate(20.889 70.294)" fill="#fff"/>
        <rect id="Rectangle_377365" data-name="Rectangle 377365" width="23.291" height="2.445" transform="translate(26.086 75.468)" fill="#fff"/>
        <path id="Path_608393" data-name="Path 608393" d="M22.678,80.308c-2.257.228-2.6-.069-2.6-2.146,0-2.122-.01-4.244,0-6.366.009-1.375.4-1.773,1.768-1.786,1.513-.014,3.025,0,4.634,0v2.582H22.678Z" transform="translate(-14.857 -51.807)" fill="#fff"/>
        <rect id="Rectangle_377366" data-name="Rectangle 377366" width="2.443" height="2.448" transform="translate(20.926 5.288)" fill="#fff"/>
        <rect id="Rectangle_377367" data-name="Rectangle 377367" width="2.426" height="2.488" transform="translate(20.903 75.426)" fill="#fff"/>
        <path id="Path_608394" data-name="Path 608394" d="M50.107,90.8a20.806,20.806,0,1,1,20.65,20.824A20.8,20.8,0,0,1,50.107,90.8M70.92,109.013A18.2,18.2,0,1,0,52.709,90.729,18.248,18.248,0,0,0,70.92,109.013" transform="translate(-37.082 -51.818)" fill="#fff"/>
        <path id="Path_608395" data-name="Path 608395" d="M92.8,119.931c3.034-3.066,5.857-5.923,8.687-8.774,1.651-1.663,1.895-1.659,3.543-.013.918.917,1.82,1.853,2.755,2.752a1.488,1.488,0,0,1,.042,2.446q-6.9,6.872-13.771,13.767a1.491,1.491,0,0,1-2.444-.049c-1.941-1.976-3.921-3.913-5.867-5.884-.967-.981-.948-1.5.045-2.519s2.012-2.028,3.026-3.033c1.221-1.211,1.666-1.213,2.9.014.336.335.616.727,1.089,1.293m10.439-6.75c-.377.358-.7.646-1,.949q-3.817,3.81-7.63,7.624c-1.616,1.614-1.869,1.614-3.459.049-.271-.267-.561-.515-.786-.72l-1.9,1.765,4.311,4.461,12.354-12.331-1.9-1.8" transform="translate(-62.93 -81.34)" fill="#fff"/>
      </g>
    </g>
  </g>
</svg>
