<svg xmlns="http://www.w3.org/2000/svg" xmlns:xlink="http://www.w3.org/1999/xlink" width="120" height="120" viewBox="0 0 120 120">
  <defs>
    <clipPath id="clip-path">
      <rect id="Rectangle_377699" data-name="Rectangle 377699" width="83.031" height="83.036" fill="none"/>
    </clipPath>
  </defs>
  <g id="Group_1071557" data-name="Group 1071557" transform="translate(-269 -958)">
    <circle id="Ellipse_5614" data-name="Ellipse 5614" cx="60" cy="60" r="60" transform="translate(269 958)" fill="#304c8e"/>
    <g id="Group_1071652" data-name="Group 1071652" transform="translate(287.484 976.482)">
      <g id="Group_1071651" data-name="Group 1071651" clip-path="url(#clip-path)">
        <path id="Path_608962" data-name="Path 608962" d="M86.865,109.9c-1.843-2.72-3.935-5.168-5.283-7.973a58.15,58.15,0,0,1-3.12-9.4c-.785-2.773-1.362-5.607-1.98-8.425a5.6,5.6,0,0,1,3.388-6.4,5.679,5.679,0,0,1,6.96,2.148A21.924,21.924,0,0,0,88.691,82.6c0-.961.007-1.921,0-2.882a1.479,1.479,0,0,1,1.574-1.668,1.508,1.508,0,0,1,1.576,1.681c0,3.2-.011,6.4.007,9.6.005.9-.348,1.686-1.209,1.7a2.469,2.469,0,0,1-1.867-.944c-1.541-2.594-2.925-5.281-4.356-7.939a2.566,2.566,0,0,0-2.441-1.608,2.412,2.412,0,0,0-2.283,3.087c1.209,5.02,2.267,10.108,3.957,14.97.935,2.691,2.977,5.01,4.593,7.447.88,1.326,1.667,3.036,2.947,3.685s3.124.194,4.72.222c.432.008.868-.017,1.3.031.978.109,1.64.6,1.611,1.657a1.516,1.516,0,0,1-1.7,1.563c-2.118.031-4.237.012-6.356.013H88.5V118.9h29.149v-5.611c-.362-.027-.733-.078-1.1-.08-1.859-.009-3.719.011-5.578-.01-1.189-.014-2-.674-1.944-1.614.07-1.181.858-1.622,1.94-1.635,1.384-.017,2.768-.042,4.15,0a1.263,1.263,0,0,0,1.471-1.023,51.073,51.073,0,0,0,3.289-19.652c-.149-3.149-.019-6.312-.029-9.468-.005-1.583-.876-2.628-2.193-2.679-1.4-.054-2.357.956-2.409,2.619-.043,1.382-.012,2.767-.014,4.15,0,1.049-.415,1.767-1.556,1.815-1.027.043-1.6-.628-1.608-1.894-.017-2.291,0-4.583-.009-6.875-.01-1.658-.925-2.694-2.328-2.678a2.359,2.359,0,0,0-2.29,2.608c-.036,2.291-.024,4.583-.005,6.875.009,1.087-.312,1.891-1.535,1.964-1.074.064-1.618-.617-1.622-2-.01-3.027,0-6.053-.006-9.08,0-1.768-.9-2.855-2.311-2.855s-2.317,1.1-2.325,2.855c-.013,2.984,0,5.967-.005,8.951,0,1.507-.508,2.167-1.615,2.139-1.048-.026-1.524-.667-1.525-2.1q-.005-12.194,0-24.387c0-1.567-.647-2.613-1.725-2.853a2.32,2.32,0,0,0-2.9,2.424c-.039,2.507-.005,5.016-.013,7.523,0,1.35-.559,2.068-1.572,2.072s-1.575-.689-1.578-2.058c-.007-2.681-.027-5.362.019-8.042a5.456,5.456,0,0,1,10.908.017c.035,3.026.01,6.053.011,9.08,0,.467,0,.934,0,1.412,4.363-.418,5.233-.085,7.368,2.758,4.073-1.112,6-.441,7.714,2.453a33.81,33.81,0,0,1,4.065.03,4.99,4.99,0,0,1,4.168,4.517c.037,7.079.657,14.19-.52,21.219a86.917,86.917,0,0,1-2.391,8.975c-.183.654-.358,1.157.358,1.672a1.913,1.913,0,0,1,.517,1.372c.047,2.853.043,5.707.017,8.561-.012,1.356-.55,1.91-1.888,1.912q-15.89.021-31.78,0c-1.4,0-1.936-.573-1.944-1.99-.016-2.681.035-5.362-.023-8.042a2.008,2.008,0,0,1,1.578-2.348" transform="translate(-56.538 -39.257)" fill="#fff"/>
        <path id="Path_608963" data-name="Path 608963" d="M29.193,14.578A14.6,14.6,0,1,1,14.61,0,14.633,14.633,0,0,1,29.193,14.578m-25.917.081A11.334,11.334,0,1,0,14.564,3.277,11.36,11.36,0,0,0,3.276,14.659" transform="translate(0 0)" fill="#fff"/>
        <path id="Path_608964" data-name="Path 608964" d="M221.935,29.194A14.6,14.6,0,1,1,236.68,15.047a14.625,14.625,0,0,1-14.745,14.147m11.474-14.613a11.333,11.333,0,1,0-22.666.108,11.333,11.333,0,0,0,22.666-.108" transform="translate(-153.653 -0.006)" fill="#fff"/>
        <path id="Path_608965" data-name="Path 608965" d="M127.078,125.853c-.011,1.195-.783,2-1.646,1.882a1.5,1.5,0,0,1-1.488-1.612,1.54,1.54,0,0,1,1.63-1.59c.907.11,1.482.622,1.5,1.321" transform="translate(-91.784 -92.211)" fill="#fff"/>
        <path id="Path_608966" data-name="Path 608966" d="M176.6,272.665a1.551,1.551,0,0,1,1.631,1.6,1.521,1.521,0,0,1-1.528,1.58,1.632,1.632,0,0,1-1.655-1.608,1.609,1.609,0,0,1,1.551-1.568" transform="translate(-129.629 -201.913)" fill="#fff"/>
        <path id="Path_608967" data-name="Path 608967" d="M37.483,39.667c-1.128-1.06-2.1-1.92-3-2.837a1.647,1.647,0,1,1,2.264-2.318c.928.9,1.807,1.851,2.858,2.935.919-.963,1.727-1.842,2.57-2.687,1.038-1.041,2.107-1.195,2.811-.447.783.832.654,1.617-.532,2.784-.828.815-1.709,1.575-2.8,2.57,1.144,1.047,2.123,1.881,3.029,2.79.99.994,1.042,1.841.229,2.58-.914.832-1.751.5-2.492-.264-.9-.927-1.756-1.888-2.86-3.081-1.039,1.154-1.866,2.15-2.777,3.062-.977.977-1.9,1.052-2.584.217a1.7,1.7,0,0,1,.294-2.526c.933-.885,1.884-1.751,2.991-2.778" transform="translate(-24.998 -25.059)" fill="#fff"/>
        <path id="Path_608968" data-name="Path 608968" d="M238.622,41.59c2.31-2.338,4.46-4.514,6.611-6.689.273-.276.537-.564.834-.812a1.591,1.591,0,0,1,2.322-.011,1.5,1.5,0,0,1,0,2.211c-.681.777-1.434,1.491-2.165,2.224-2.01,2.016-4.011,4.041-6.041,6.036-1.154,1.135-1.827,1.135-2.974.028-1.241-1.2-2.45-2.43-3.665-3.655a1.653,1.653,0,0,1-.242-2.506c.686-.78,1.655-.692,2.6.255.912.914,1.764,1.886,2.721,2.919" transform="translate(-172.413 -24.867)" fill="#fff"/>
      </g>
    </g>
  </g>
</svg>
