<svg xmlns="http://www.w3.org/2000/svg" width="1135.755" height="978.607" viewBox="0 0 1135.755 978.607">
  <g id="Group_1071718" data-name="Group 1071718" transform="translate(-179.245 -488)">
    <rect id="Rectangle_345062" data-name="Rectangle 345062" width="558" height="66" rx="20" transform="translate(527.333 488)" fill="#304c8e"/>
    <rect id="Rectangle_345311" data-name="Rectangle 345311" width="198" height="93" rx="20" transform="translate(182.333 759)" fill="#e1f5d6"/>
    <rect id="Rectangle_375682" data-name="Rectangle 375682" width="198" height="93" rx="20" transform="translate(602.333 759)" fill="#e1f5d6"/>
    <rect id="Rectangle_375672" data-name="Rectangle 375672" width="178" height="93" rx="20" transform="translate(402 759)" fill="#e1f5d6"/>
    <rect id="Rectangle_345309" data-name="Rectangle 345309" width="233" height="76" rx="20" transform="translate(370.333 570)" fill="#60cb28"/>
    <rect id="Rectangle_345310" data-name="Rectangle 345310" width="233" height="76" rx="20" transform="translate(1082 570)" fill="#60cb28"/>
    <rect id="Rectangle_345317" data-name="Rectangle 345317" width="150" height="84" rx="20" transform="translate(1125 758.188)" fill="#e1f5d6"/>
    <rect id="Rectangle_375668" data-name="Rectangle 375668" width="152.664" height="84" rx="20" transform="translate(200.669 966.011)" fill="#fdfde3"/>
    <rect id="Rectangle_375681" data-name="Rectangle 375681" width="152.664" height="54" rx="18" transform="translate(620.669 966.011)" fill="#fdfde3"/>
    <rect id="Rectangle_375691" data-name="Rectangle 375691" width="152.664" height="54" rx="18" transform="translate(837.669 763.582)" fill="#e1f5d6"/>
    <rect id="Rectangle_375676" data-name="Rectangle 375676" width="152.664" height="62.599" rx="20" transform="translate(410.333 1114)" fill="#f2e6f8"/>
    <rect id="Rectangle_375677" data-name="Rectangle 375677" width="152.664" height="62.599" rx="20" transform="translate(410.333 1186.15)" fill="#f2e6f8"/>
    <rect id="Rectangle_375673" data-name="Rectangle 375673" width="152.664" height="77.617" rx="20" transform="translate(406.501 931.394)" fill="#fdfde3"/>
    <rect id="Rectangle_345318" data-name="Rectangle 345318" width="150" height="84" rx="20" transform="translate(1125 853.188)" fill="#e1f5d6"/>
    <rect id="Rectangle_375667" data-name="Rectangle 375667" width="152.664" height="70" rx="20" transform="translate(200.669 1067)" fill="#fdfde3"/>
    <rect id="Rectangle_375680" data-name="Rectangle 375680" width="152.664" height="70" rx="20" transform="translate(620.669 1028.07)" fill="#fdfde3"/>
    <rect id="Rectangle_375690" data-name="Rectangle 375690" width="152.664" height="70" rx="20" transform="translate(837.669 834.934)" fill="#e1f5d6"/>
    <rect id="Rectangle_375675" data-name="Rectangle 375675" width="152.664" height="60" rx="20" transform="translate(410.333 1258.301)" fill="#f2e6f8"/>
    <rect id="Rectangle_375678" data-name="Rectangle 375678" width="152.664" height="60" rx="20" transform="translate(410.333 1326.016)" fill="#f2e6f8"/>
    <rect id="Rectangle_345319" data-name="Rectangle 345319" width="150" height="100.061" rx="20" transform="translate(1125 945.188)" fill="#e1f5d6"/>
    <rect id="Rectangle_375666" data-name="Rectangle 375666" width="152.664" height="65.592" rx="20" transform="translate(200.669 1165.517)" fill="#fdfde3"/>
    <rect id="Rectangle_375679" data-name="Rectangle 375679" width="152.664" height="65.592" rx="20" transform="translate(620.669 1103.141)" fill="#fdfde3"/>
    <rect id="Rectangle_375689" data-name="Rectangle 375689" width="152.664" height="65.592" rx="20" transform="translate(837.669 919.919)" fill="#e1f5d6"/>
    <rect id="Rectangle_375683" data-name="Rectangle 375683" width="152.664" height="65.592" rx="20" transform="translate(619.669 1175.344)" fill="#fdfde3"/>
    <rect id="Rectangle_375684" data-name="Rectangle 375684" width="152.664" height="65.592" rx="20" transform="translate(619.669 1247.547)" fill="#fdfde3"/>
    <rect id="Rectangle_375685" data-name="Rectangle 375685" width="152.664" height="65.592" rx="20" transform="translate(619.669 1319.75)" fill="#fdfde3"/>
    <rect id="Rectangle_375674" data-name="Rectangle 375674" width="152.664" height="65.592" rx="20" transform="translate(410.333 1401.016)" fill="#f2e6f8"/>
    <rect id="Rectangle_345320" data-name="Rectangle 345320" width="150" height="84" rx="20" transform="translate(1125 1063.188)" fill="#e1f5d6"/>
    <rect id="Rectangle_345321" data-name="Rectangle 345321" width="150" height="84" rx="20" transform="translate(1125 1158.188)" fill="#e1f5d6"/>
    <text id="Herramientas_digitales_para_la_planeación_estratégica_riesgo_y_cumplimiento" data-name="Herramientas digitales para la planeación estratégica, 
riesgo y cumplimiento" transform="translate(805.333 516)" fill="#fff" font-size="17" font-family="Roboto-Bold, Roboto" font-weight="700"><tspan x="-207.951" y="0">Herramientas digitales para la planeación estratégica, </tspan><tspan x="-84.838" y="25">riesgo y cumplimiento</tspan></text>
    <text id="Técnicas_de_evaluación_de_proyectos" data-name="Técnicas de evaluación 
de proyectos" transform="translate(280.333 802)" fill="#12263f" font-size="17" font-family="Roboto-Bold, Roboto" font-weight="700"><tspan x="-91.176" y="0">Técnicas de evaluación </tspan><tspan x="-49.145" y="20">de proyectos</tspan></text>
    <text id="Planeación_de_la_Implementación" data-name="Planeación de
 la Implementación" transform="translate(700.333 802)" fill="#12263f" font-size="17" font-family="Roboto-Bold, Roboto" font-weight="700"><tspan x="-53.959" y="0">Planeación de</tspan><tspan x="-72.91" y="20" xml:space="preserve"> la Implementación</tspan></text>
    <text id="Prácticas_de_Gestión_de_Servicios_ITIL" data-name="Prácticas de Gestión
 de Servicios ITIL" transform="translate(492.458 802)" fill="#12263f" font-size="17" font-family="Roboto-Bold, Roboto" font-weight="700"><tspan x="-78.999" y="0">Prácticas de Gestión</tspan><tspan x="-65.838" y="20" xml:space="preserve"> de Servicios ITIL</tspan></text>
    <text id="Estudio_de_viabilidad_tecnológica" data-name="Estudio de viabilidad 
tecnológica" transform="translate(488.333 605)" fill="#12263f" font-size="17" font-family="Roboto-Bold, Roboto" font-weight="700"><tspan x="-81.153" y="0">Estudio de viabilidad </tspan><tspan x="-44.621" y="20">tecnológica</tspan></text>
    <text id="Implementación_del_Software" data-name="Implementación 
del Software" transform="translate(1200 605)" fill="#12263f" font-size="17" font-family="Roboto-Bold, Roboto" font-weight="700"><tspan x="-63.982" y="0">Implementación </tspan><tspan x="-47.501" y="20">del </tspan><tspan y="20" font-family="Roboto-BoldItalic, Roboto" font-style="italic">Software</tspan></text>
    <text id="Gestión_de_parches" data-name="Gestión 
de parches" transform="translate(1200 796.413)" fill="#12263f" font-size="17" font-family="Roboto-Bold, Roboto" font-weight="700"><tspan x="-31.564" y="0">Gestión </tspan><tspan x="-42.019" y="20">de parches</tspan></text>
    <text id="Periodo_de_recuperación_PR" data-name="Periodo de 
recuperación PR" transform="translate(275.076 1001.511)" fill="#12263f" font-size="17" font-family="Roboto-Regular, Roboto"><tspan x="-42.745" y="0">Periodo de </tspan><tspan x="-61.791" y="20">recuperación PR</tspan></text>
    <text id="Define_los_objetivos" data-name="Define los 
objetivos" transform="translate(697.001 989.011)" fill="#12263f" font-size="17" font-family="Roboto-Regular, Roboto"><tspan x="-39.479" y="0">Define los </tspan><tspan x="-34.274" y="20">objetivos</tspan></text>
    <text id="Viabilidad_Técnica" data-name="Viabilidad 
Técnica" transform="translate(914.001 786.987)" fill="#12263f" font-size="17" font-family="Roboto-Bold, Roboto" font-weight="700"><tspan x="-40.167" y="0">Viabilidad </tspan><tspan x="-29.92" y="20">Técnica</tspan></text>
    <text id="Cadena_de_Valor_del_Servicio_SVC" data-name="Cadena de Valor 
del Servicio SVC" transform="translate(487.333 1140.5)" fill="#12263f" font-size="17" font-family="Roboto-Regular, Roboto"><tspan x="-64.003" y="0">Cadena de Valor </tspan><tspan x="-61.534" y="20">del Servicio SVC</tspan></text>
    <text id="_34_prácticas_de_ITIL" data-name="34 prácticas 
de ITIL" transform="translate(487.333 1212.65)" fill="#12263f" font-size="17" font-family="Roboto-Regular, Roboto"><tspan x="-48.601" y="0">34 prácticas </tspan><tspan x="-25.55" y="20">de ITIL</tspan></text>
    <text id="Sistema_de_Valor_del_Servicio_SVS" data-name="Sistema de Valor
del Servicio SVS" transform="translate(480.908 966.894)" fill="#12263f" font-size="17" font-family="Roboto-Regular, Roboto"><tspan x="-63.974" y="0">Sistema de Valor</tspan><tspan x="-61.098" y="20">del Servicio SVS</tspan></text>
    <text id="Gestión_de_activos_de_TI" data-name="Gestión de 
activos de TI" transform="translate(1200 892.994)" fill="#12263f" font-size="17" font-family="Roboto-Bold, Roboto" font-weight="700"><tspan x="-43.064" y="0">Gestión de </tspan><tspan x="-48.63" y="20">activos de TI</tspan></text>
    <text id="Valor_Actual_Neto_VAN_-VPN" data-name="Valor Actual 
Neto VAN -VPN" transform="translate(275.076 1098.935)" fill="#12263f" font-size="17" font-family="Roboto-Regular, Roboto"><tspan x="-47.979" y="0">Valor Actual </tspan><tspan x="-58.188" y="20">Neto VAN -VPN</tspan></text>
    <text id="Realiza_una_investigación" data-name="Realiza una
 investigación" transform="translate(695.076 1060.005)" fill="#12263f" font-size="17" font-family="Roboto-Regular, Roboto"><tspan x="-43.426" y="0">Realiza una</tspan><tspan x="-52.087" y="20" xml:space="preserve"> investigación</tspan></text>
    <text id="Viabilidad_Operativa" data-name="Viabilidad
 Operativa" transform="translate(912.076 866.553)" fill="#12263f" font-size="17" font-family="Roboto-Bold, Roboto" font-weight="700"><tspan x="-38.051" y="0">Viabilidad</tspan><tspan x="-38.814" y="20" xml:space="preserve"> Operativa</tspan></text>
    <text id="_7_principios_guía" data-name="7 principios guía" transform="translate(487.333 1294.303)" fill="#12263f" font-size="17" font-family="Roboto-Regular, Roboto"><tspan x="-62.131" y="0">7 principios guía</tspan></text>
    <text id="Governance" transform="translate(487.333 1362.018)" fill="#12263f" font-size="17" font-family="Roboto-Italic, Roboto" font-style="italic"><tspan x="-44.085" y="0">Governance</tspan></text>
    <text id="Prácticas_de_Gestión_del_Servicio_ITIL_V4_con_TI" data-name="Prácticas de 
Gestión del 
Servicio ITIL
 V4 con TI" transform="translate(1200 973.188)" fill="#12263f" font-size="17" font-family="Roboto-Bold, Roboto" font-weight="700"><tspan x="-49.552" y="0">Prácticas de </tspan><tspan x="-45.318" y="20">Gestión del </tspan><tspan x="-47.85" y="40">Servicio ITIL</tspan><tspan x="-38.271" y="60" xml:space="preserve"> V4 con TI</tspan></text>
    <text id="Tasa_Interna_de_Retorno" data-name="Tasa Interna 
de Retorno" transform="translate(278.076 1191.097)" fill="#12263f" font-size="17" font-family="Roboto-Regular, Roboto"><tspan x="-48.912" y="0">Tasa Interna </tspan><tspan x="-41.093" y="20">de Retorno</tspan></text>
    <text id="Identifica_los_riesgos" data-name="Identifica 
los riesgos" transform="translate(697.076 1131.721)" fill="#12263f" font-size="17" font-family="Roboto-Regular, Roboto"><tspan x="-37.021" y="0">Identifica </tspan><tspan x="-41.222" y="20">los riesgos</tspan></text>
    <text id="Viabilidad_Financiera" data-name="Viabilidad 
Financiera" transform="translate(914.076 948.499)" fill="#12263f" font-size="17" font-family="Roboto-Bold, Roboto" font-weight="700"><tspan x="-40.167" y="0">Viabilidad </tspan><tspan x="-39.802" y="20">Financiera</tspan></text>
    <text id="Programa_los_hitos" data-name="Programa
 los hitos" transform="translate(696.076 1203.924)" fill="#12263f" font-size="17" font-family="Roboto-Regular, Roboto"><tspan x="-37.179" y="0">Programa</tspan><tspan x="-34.17" y="20" xml:space="preserve"> los hitos</tspan></text>
    <text id="Asigna_tareas_y_responsabilidades" data-name="Asigna tareas y 
responsabilidades" transform="translate(696.076 1276.127)" fill="#12263f" font-size="17" font-family="Roboto-Regular, Roboto"><tspan x="-60.114" y="0">Asigna tareas y </tspan><tspan x="-69.05" y="20">responsabilidades</tspan></text>
    <text id="Asigna_los_recursos" data-name="Asigna los
 recursos" transform="translate(696.076 1348.33)" fill="#12263f" font-size="17" font-family="Roboto-Regular, Roboto"><tspan x="-39.47" y="0">Asigna los</tspan><tspan x="-35.029" y="20" xml:space="preserve"> recursos</tspan></text>
    <text id="Mejora_continua" data-name="Mejora continua" transform="translate(487.333 1435.159)" fill="#12263f" font-size="17" font-family="Roboto-Regular, Roboto"><tspan x="-61.065" y="0">Mejora continua</tspan></text>
    <text id="Manual_Técnico_de_Usuario" data-name="Manual Técnico 
de Usuario" transform="translate(1200 1098.935)" fill="#12263f" font-size="17" font-family="Roboto-Bold, Roboto" font-weight="700"><tspan x="-62.484" y="0">Manual Técnico </tspan><tspan x="-40.939" y="20">de Usuario</tspan></text>
    <text id="Control_de_Versiones" data-name="Control de 
Versiones" transform="translate(1200 1191.516)" fill="#12263f" font-size="17" font-family="Roboto-Bold, Roboto" font-weight="700"><tspan x="-41.628" y="0">Control de </tspan><tspan x="-38.225" y="20">Versiones</tspan></text>
    <text id="Contiene" transform="translate(773.333 611)" fill="#12263f" font-size="17" font-family="Roboto-Regular, Roboto"><tspan x="0" y="0">Contiene</tspan></text>
    <text id="Se_divide_en" data-name="Se divide en" transform="translate(440.333 683)" fill="#12263f" font-size="17" font-family="Roboto-Regular, Roboto"><tspan x="0" y="0">Se divide en</tspan></text>
    <text id="Integra_la" data-name="Integra la" transform="translate(885.666 696)" fill="#12263f" font-size="17" font-family="Roboto-Regular, Roboto"><tspan x="0" y="0">Integra la</tspan></text>
    <text id="Contiene-2" data-name="Contiene" transform="translate(1168.001 701.606)" fill="#12263f" font-size="17" font-family="Roboto-Regular, Roboto"><tspan x="0" y="0">Contiene</tspan></text>
    <text id="Se_divide_en-2" data-name="Se divide en" transform="translate(268.333 913.849)" fill="#12263f" font-size="17" font-family="Roboto-Regular, Roboto"><tspan x="-45.281" y="0">Se divide en</tspan></text>
    <text id="A_tener_en_cuenta" data-name="A tener en cuenta" transform="translate(702.076 910.229)" fill="#12263f" font-size="17" font-family="Roboto-Regular, Roboto"><tspan x="-66.128" y="0">A tener en cuenta</tspan></text>
    <text id="Se_divide_en-3" data-name="Se divide en" transform="translate(478.333 1068.348)" fill="#12263f" font-size="17" font-family="Roboto-Regular, Roboto"><tspan x="-45.281" y="0">Se divide en</tspan></text>
    <text id="Contiene-3" data-name="Contiene" transform="translate(482.333 900)" fill="#12263f" font-size="17" font-family="Roboto-Regular, Roboto"><tspan x="-33.606" y="0">Contiene</tspan></text>
    <path id="Path_604484" data-name="Path 604484" d="M-11979-9556v40.667" transform="translate(12785.833 10110)" fill="none" stroke="#304c8e" stroke-width="1.5"/>
    <path id="Path_604488" data-name="Path 604488" d="M-11979-9556v20.333" transform="translate(12462.833 10202)" fill="none" stroke="#304c8e" stroke-width="1.5"/>
    <path id="Path_604492" data-name="Path 604492" d="M-11979-9556v34" transform="translate(13181.833 10202)" fill="none" stroke="#304c8e" stroke-width="1.5"/>
    <path id="Path_604495" data-name="Path 604495" d="M-11908.33-9121.674l0-463.963-92.336-.642v-24.486" transform="translate(13203.664 10326.098)" fill="none" stroke="#304c8e" stroke-width="1.5"/>
    <path id="Path_608389" data-name="Path 608389" d="M-11977.265-9335.426l-1.731-251.4,95.076-1.78v-23.312" transform="translate(12158.996 10533.92)" fill="none" stroke="#304c8e" stroke-width="1.5"/>
    <path id="Path_608408" data-name="Path 608408" d="M-11979-9188.92v-397.908l105-1.78v-33.312" transform="translate(12578.995 10545.92)" fill="none" stroke="#304c8e" stroke-width="1.5"/>
    <path id="Path_608416" data-name="Path 608416" d="M-11979-9374.171v-206.646l105-2.085v-39.018" transform="translate(12795.995 10326.463)" fill="none" stroke="#304c8e" stroke-width="1.5"/>
    <path id="Path_608401" data-name="Path 608401" d="M-11979-9251.419v-335.409l95.076-1.78v-23.312" transform="translate(12368.996 10688.419)" fill="none" stroke="#304c8e" stroke-width="1.5"/>
    <path id="Path_604496" data-name="Path 604496" d="M0,0V12.478" transform="translate(1295.333 797.686) rotate(90)" fill="none" stroke="#304c8e" stroke-width="1.5"/>
    <path id="Path_608390" data-name="Path 608390" d="M0,12.478V0" transform="translate(192.479 1005.509) rotate(90)" fill="none" stroke="#304c8e" stroke-width="1.5"/>
    <path id="Path_608411" data-name="Path 608411" d="M0,12.478V0" transform="translate(612.479 992.509) rotate(90)" fill="none" stroke="#304c8e" stroke-width="1.5"/>
    <path id="Path_608422" data-name="Path 608422" d="M0,12.478V0" transform="translate(829.479 795.327) rotate(90)" fill="none" stroke="#304c8e" stroke-width="1.5"/>
    <path id="Path_608404" data-name="Path 608404" d="M0,12.478V0" transform="translate(402.479 1144.498) rotate(90)" fill="none" stroke="#304c8e" stroke-width="1.5"/>
    <path id="Path_608406" data-name="Path 608406" d="M0,12.478V0" transform="translate(402.479 1216.648) rotate(90)" fill="none" stroke="#304c8e" stroke-width="1.5"/>
    <path id="Path_604497" data-name="Path 604497" d="M0,0V12.478" transform="translate(1295.333 907.837) rotate(90)" fill="none" stroke="#304c8e" stroke-width="1.5"/>
    <path id="Path_608391" data-name="Path 608391" d="M0,12.478V0" transform="translate(192.479 1106.509) rotate(90)" fill="none" stroke="#304c8e" stroke-width="1.5"/>
    <path id="Path_608410" data-name="Path 608410" d="M0,12.478V0" transform="translate(612.479 1067.579) rotate(90)" fill="none" stroke="#304c8e" stroke-width="1.5"/>
    <path id="Path_608421" data-name="Path 608421" d="M0,12.478V0" transform="translate(829.479 871.397) rotate(90)" fill="none" stroke="#304c8e" stroke-width="1.5"/>
    <path id="Path_608402" data-name="Path 608402" d="M0,12.478V0" transform="translate(402.479 1290.799) rotate(90)" fill="none" stroke="#304c8e" stroke-width="1.5"/>
    <path id="Path_608407" data-name="Path 608407" d="M0,12.478V0" transform="translate(402.479 1358.514) rotate(90)" fill="none" stroke="#304c8e" stroke-width="1.5"/>
    <path id="Path_604498" data-name="Path 604498" d="M0,0V12.478" transform="translate(1295.333 1003.018) rotate(90)" fill="none" stroke="#304c8e" stroke-width="1.5"/>
    <path id="Path_608392" data-name="Path 608392" d="M0,12.478V0" transform="translate(192.479 1197.158) rotate(90)" fill="none" stroke="#304c8e" stroke-width="1.5"/>
    <path id="Path_608409" data-name="Path 608409" d="M0,12.478V0" transform="translate(612.479 1134.782) rotate(90)" fill="none" stroke="#304c8e" stroke-width="1.5"/>
    <path id="Path_608417" data-name="Path 608417" d="M0,12.478V0" transform="translate(829.479 951.601) rotate(90)" fill="none" stroke="#304c8e" stroke-width="1.5"/>
    <path id="Path_608413" data-name="Path 608413" d="M0,12.478V0" transform="translate(612.479 1211.985) rotate(90)" fill="none" stroke="#304c8e" stroke-width="1.5"/>
    <path id="Path_608414" data-name="Path 608414" d="M0,12.478V0" transform="translate(612.479 1284.188) rotate(90)" fill="none" stroke="#304c8e" stroke-width="1.5"/>
    <path id="Path_608415" data-name="Path 608415" d="M0,12.478V0" transform="translate(612.479 1356.392) rotate(90)" fill="none" stroke="#304c8e" stroke-width="1.5"/>
    <path id="Path_608403" data-name="Path 608403" d="M0,12.478V0" transform="translate(402.479 1432.657) rotate(90)" fill="none" stroke="#304c8e" stroke-width="1.5"/>
    <path id="Path_604499" data-name="Path 604499" d="M0,0V12.478" transform="translate(1295.333 1098.198) rotate(90)" fill="none" stroke="#304c8e" stroke-width="1.5"/>
    <path id="Path_604500" data-name="Path 604500" d="M0,0V12.478" transform="translate(1295.333 1204.422) rotate(90)" fill="none" stroke="#304c8e" stroke-width="1.5"/>
    <path id="Path_608393" data-name="Path 608393" d="M-11979-9556v40.355" transform="translate(12254.076 10409.394)" fill="none" stroke="#304c8e" stroke-width="1.5"/>
    <path id="Path_608412" data-name="Path 608412" d="M-11979-9556v30.606" transform="translate(12684 10409.394)" fill="none" stroke="#304c8e" stroke-width="1.5"/>
    <path id="Path_608405" data-name="Path 608405" d="M-11979-9556v40.355" transform="translate(12464.076 10563.893)" fill="none" stroke="#304c8e" stroke-width="1.5"/>
    <path id="Path_608395" data-name="Path 608395" d="M-11979-9556v25.606" transform="translate(12461.833 10409.394)" fill="none" stroke="#304c8e" stroke-width="1.5"/>
    <path id="Path_608400" data-name="Path 608400" d="M-11979-9556v22.394" transform="translate(12461.833 10465)" fill="none" stroke="#304c8e" stroke-width="1.5"/>
    <path id="Path_601299" data-name="Path 601299" d="M-12198.7-9556v23.485h-199.922v38.034" transform="translate(12673.701 10253.087)" fill="none" stroke="#304c8e" stroke-width="1.5"/>
    <path id="Path_604489" data-name="Path 604489" d="M-12398.626-9556v23.485h210.833v38.034" transform="translate(12892.792 10253)" fill="none" stroke="#304c8e" stroke-width="1.5"/>
    <path id="Path_604485" data-name="Path 604485" d="M-12398.625-9536.3h145.332" transform="translate(12998.626 10144.394)" fill="none" stroke="#304c8e" stroke-width="1.5"/>
    <path id="Path_604487" data-name="Path 604487" d="M-12398.625-9536.3h214" transform="translate(13259.962 10144.394)" fill="none" stroke="#304c8e" stroke-width="1.5"/>
    <path id="Polygon_40" data-name="Polygon 40" d="M3.5,0,7,6H0Z" transform="translate(1275.546 801.188) rotate(-90)" fill="#304c8e"/>
    <path id="Polygon_54" data-name="Polygon 54" d="M3.5,0,7,6H0Z" transform="translate(199.79 1002.011) rotate(90)" fill="#304c8e"/>
    <path id="Polygon_64" data-name="Polygon 64" d="M3.5,0,7,6H0Z" transform="translate(619.79 989.011) rotate(90)" fill="#304c8e"/>
    <path id="Polygon_73" data-name="Polygon 73" d="M3.5,0,7,6H0Z" transform="translate(836.79 791.829) rotate(90)" fill="#304c8e"/>
    <path id="Polygon_59" data-name="Polygon 59" d="M3.5,0,7,6H0Z" transform="translate(409.79 1141) rotate(90)" fill="#304c8e"/>
    <path id="Polygon_60" data-name="Polygon 60" d="M3.5,0,7,6H0Z" transform="translate(409.79 1213.15) rotate(90)" fill="#304c8e"/>
    <path id="Polygon_41" data-name="Polygon 41" d="M3.5,0,7,6H0Z" transform="translate(1275.546 911.3) rotate(-90)" fill="#304c8e"/>
    <path id="Polygon_55" data-name="Polygon 55" d="M3.5,0,7,6H0Z" transform="translate(199.79 1103.011) rotate(90)" fill="#304c8e"/>
    <path id="Polygon_63" data-name="Polygon 63" d="M3.5,0,7,6H0Z" transform="translate(619.79 1064.081) rotate(90)" fill="#304c8e"/>
    <path id="Polygon_72" data-name="Polygon 72" d="M3.5,0,7,6H0Z" transform="translate(836.79 867.899) rotate(90)" fill="#304c8e"/>
    <path id="Polygon_57" data-name="Polygon 57" d="M3.5,0,7,6H0Z" transform="translate(409.79 1287.301) rotate(90)" fill="#304c8e"/>
    <path id="Polygon_61" data-name="Polygon 61" d="M3.5,0,7,6H0Z" transform="translate(409.79 1355.016) rotate(90)" fill="#304c8e"/>
    <path id="Polygon_42" data-name="Polygon 42" d="M3.5,0,7,6H0Z" transform="translate(1275.546 1006.55) rotate(-90)" fill="#304c8e"/>
    <path id="Polygon_56" data-name="Polygon 56" d="M3.5,0,7,6H0Z" transform="translate(199.79 1193.66) rotate(90)" fill="#304c8e"/>
    <path id="Polygon_62" data-name="Polygon 62" d="M3.5,0,7,6H0Z" transform="translate(619.79 1131.284) rotate(90)" fill="#304c8e"/>
    <path id="Polygon_68" data-name="Polygon 68" d="M3.5,0,7,6H0Z" transform="translate(836.79 948.103) rotate(90)" fill="#304c8e"/>
    <path id="Polygon_65" data-name="Polygon 65" d="M3.5,0,7,6H0Z" transform="translate(619.79 1208.487) rotate(90)" fill="#304c8e"/>
    <path id="Polygon_66" data-name="Polygon 66" d="M3.5,0,7,6H0Z" transform="translate(619.79 1280.69) rotate(90)" fill="#304c8e"/>
    <path id="Polygon_67" data-name="Polygon 67" d="M3.5,0,7,6H0Z" transform="translate(619.79 1352.894) rotate(90)" fill="#304c8e"/>
    <path id="Polygon_58" data-name="Polygon 58" d="M3.5,0,7,6H0Z" transform="translate(409.79 1429.159) rotate(90)" fill="#304c8e"/>
    <path id="Polygon_43" data-name="Polygon 43" d="M3.5,0,7,6H0Z" transform="translate(1275.546 1101.799) rotate(-90)" fill="#304c8e"/>
    <path id="Polygon_44" data-name="Polygon 44" d="M3.5,0,7,6H0Z" transform="translate(1275.546 1207.924) rotate(-90)" fill="#304c8e"/>
    <path id="Path_608399" data-name="Path 608399" d="M-12275.5-9412.913V-9356" transform="translate(12759.333 10110)" fill="none" stroke="#304c8e" stroke-width="2"/>
    <path id="Path_608423" data-name="Path 608423" d="M-12200.168-9464v44H-11888" transform="translate(12759.333 10110)" fill="none" stroke="#304c8e" stroke-width="2"/>
  </g>
</svg>
